<?xml version="1.0" encoding="UTF-8"?>
<!-- Created with Inkscape (http://www.inkscape.org/) -->
<svg width="99.695mm" height="17.219mm" version="1.1" viewBox="0 0 99.695 17.219" xmlns="http://www.w3.org/2000/svg" xmlns:ns25="http://www.iki.fi/pav/software/textext/">
 <g transform="translate(-17.307 -134.94)">
  <g transform="matrix(.62614 0 0 .62614 17.307 134.94)" ns25:alignment="middle center" ns25:inkscapeversion="1.4" ns25:jacobian_sqrt="0.626139" ns25:pdfconverter="inkscape" ns25:preamble="C:\Users\Jessy\AppData\Roaming\inkscape\extensions\textext\default_packages.tex" ns25:scale="1.7748814779813784" ns25:texconverter="pdflatex" ns25:text="${\\displaystyle \\text{Suggested OM score}={\\frac {1}{n}}\\sum _{i=A}^{n}\\overline{Group_{i}}}$" ns25:version="1.11.1">
   <defs>
    <g id="id-030323e3-e946-446d-913e-cd689df0554d"></g>
   </defs>
   <g>
    <g>
     <g transform="translate(-149.28 -125.72)">
      <g transform="translate(148.71 141.25)">
       <path id="id-ab45b266-15de-4848-a5a1-5efbf4d54abc" d="m3.4844-3.875-1.2812-0.29688c-0.625-0.15625-1-0.6875-1-1.2656 0-0.70312 0.53125-1.3125 1.3125-1.3125 1.6562 0 1.875 1.6406 1.9375 2.0781 0.015625 0.0625 0.015625 0.125 0.125 0.125 0.125 0 0.125-0.046875 0.125-0.23438v-2c0-0.17188 0-0.25-0.10938-0.25-0.0625 0-0.078125 0.015625-0.14062 0.14062l-0.35938 0.5625c-0.29688-0.29688-0.70312-0.70312-1.5938-0.70312-1.1094 0-1.9375 0.875-1.9375 1.9375 0 0.82812 0.53125 1.5625 1.2969 1.8281 0.10938 0.03125 0.625 0.15625 1.3281 0.32812 0.26562 0.0625 0.5625 0.14062 0.84375 0.5 0.20312 0.26562 0.3125 0.59375 0.3125 0.92188 0 0.70312-0.5 1.4219-1.3438 1.4219-0.28125 0-1.0469-0.046875-1.5781-0.53125-0.57812-0.54688-0.60938-1.1719-0.60938-1.5312-0.015625-0.10938-0.09375-0.10938-0.125-0.10938-0.125 0-0.125 0.078125-0.125 0.25v2c0 0.17188 0 0.23438 0.10938 0.23438 0.0625 0 0.078125-0.015625 0.14062-0.125 0-0.015625 0.03125-0.046875 0.35938-0.57812 0.3125 0.34375 0.95312 0.70312 1.8438 0.70312 1.1562 0 1.9531-0.96875 1.9531-2.0781 0-0.98438-0.65625-1.8125-1.4844-2.0156z"/>
      </g>
      <g transform="translate(154.25 141.25)">
       <path id="id-6dfee577-a86d-4a47-a9cb-1646f16bff0a" d="m3.8906-0.78125v0.89062l1.4375-0.10938v-0.3125c-0.6875 0-0.76562-0.0625-0.76562-0.5625v-3.5312l-1.4688 0.10938v0.3125c0.6875 0 0.78125 0.0625 0.78125 0.5625v1.7656c0 0.875-0.48438 1.5469-1.2188 1.5469-0.82812 0-0.875-0.46875-0.875-0.98438v-3.3125l-1.4688 0.10938v0.3125c0.78125 0 0.78125 0.03125 0.78125 0.90625v1.5c0 0.78125 0 1.6875 1.5156 1.6875 0.5625 0 1-0.28125 1.2812-0.89062z"/>
      </g>
      <g transform="translate(159.78 141.25)">
       <path d="m2.2188-1.7188c-0.875 0-0.875-1-0.875-1.2188 0-0.26562 0.015625-0.59375 0.15625-0.84375 0.078125-0.10938 0.3125-0.39062 0.71875-0.39062 0.85938 0 0.85938 0.98438 0.85938 1.2188 0 0.26562 0 0.59375-0.15625 0.84375-0.078125 0.10938-0.3125 0.39062-0.70312 0.39062zm-1.1562 0.39062c0-0.03125 0-0.26562 0.15625-0.46875 0.39062 0.28125 0.8125 0.3125 1 0.3125 0.92188 0 1.6094-0.6875 1.6094-1.4531 0-0.375-0.15625-0.73438-0.40625-0.96875 0.35938-0.34375 0.71875-0.39062 0.89062-0.39062 0.03125 0 0.078125 0 0.10938 0.015625-0.10938 0.03125-0.17188 0.14062-0.17188 0.26562 0 0.17188 0.14062 0.28125 0.29688 0.28125 0.09375 0 0.28125-0.0625 0.28125-0.29688 0-0.17188-0.10938-0.48438-0.5-0.48438-0.20312 0-0.64062 0.0625-1.0625 0.46875-0.42188-0.32812-0.82812-0.35938-1.0469-0.35938-0.9375 0-1.625 0.6875-1.625 1.4531 0 0.4375 0.21875 0.8125 0.46875 1.0312-0.125 0.14062-0.3125 0.46875-0.3125 0.82812 0 0.3125 0.14062 0.6875 0.45312 0.89062-0.60938 0.15625-0.92188 0.59375-0.92188 0.98438 0 0.71875 0.98438 1.2656 2.2031 1.2656 1.1719 0 2.2031-0.5 2.2031-1.2812 0-0.34375-0.125-0.85938-0.64062-1.1406-0.53125-0.26562-1.1094-0.26562-1.7188-0.26562-0.25 0-0.67188 0-0.75-0.015625-0.3125-0.046875-0.51562-0.34375-0.51562-0.67188zm1.4375 3.1562c-1.0156 0-1.7031-0.51562-1.7031-1.0469 0-0.45312 0.375-0.82812 0.8125-0.84375h0.59375c0.85938 0 1.9688 0 1.9688 0.84375 0 0.54688-0.70312 1.0469-1.6719 1.0469z"/>
      </g>
      <g transform="translate(164.76 141.25)">
       <path d="m2.2188-1.7188c-0.875 0-0.875-1-0.875-1.2188 0-0.26562 0.015625-0.59375 0.15625-0.84375 0.078125-0.10938 0.3125-0.39062 0.71875-0.39062 0.85938 0 0.85938 0.98438 0.85938 1.2188 0 0.26562 0 0.59375-0.15625 0.84375-0.078125 0.10938-0.3125 0.39062-0.70312 0.39062zm-1.1562 0.39062c0-0.03125 0-0.26562 0.15625-0.46875 0.39062 0.28125 0.8125 0.3125 1 0.3125 0.92188 0 1.6094-0.6875 1.6094-1.4531 0-0.375-0.15625-0.73438-0.40625-0.96875 0.35938-0.34375 0.71875-0.39062 0.89062-0.39062 0.03125 0 0.078125 0 0.10938 0.015625-0.10938 0.03125-0.17188 0.14062-0.17188 0.26562 0 0.17188 0.14062 0.28125 0.29688 0.28125 0.09375 0 0.28125-0.0625 0.28125-0.29688 0-0.17188-0.10938-0.48438-0.5-0.48438-0.20312 0-0.64062 0.0625-1.0625 0.46875-0.42188-0.32812-0.82812-0.35938-1.0469-0.35938-0.9375 0-1.625 0.6875-1.625 1.4531 0 0.4375 0.21875 0.8125 0.46875 1.0312-0.125 0.14062-0.3125 0.46875-0.3125 0.82812 0 0.3125 0.14062 0.6875 0.45312 0.89062-0.60938 0.15625-0.92188 0.59375-0.92188 0.98438 0 0.71875 0.98438 1.2656 2.2031 1.2656 1.1719 0 2.2031-0.5 2.2031-1.2812 0-0.34375-0.125-0.85938-0.64062-1.1406-0.53125-0.26562-1.1094-0.26562-1.7188-0.26562-0.25 0-0.67188 0-0.75-0.015625-0.3125-0.046875-0.51562-0.34375-0.51562-0.67188zm1.4375 3.1562c-1.0156 0-1.7031-0.51562-1.7031-1.0469 0-0.45312 0.375-0.82812 0.8125-0.84375h0.59375c0.85938 0 1.9688 0 1.9688 0.84375 0 0.54688-0.70312 1.0469-1.6719 1.0469z"/>
      </g>
      <g transform="translate(169.74 141.25)">
       <path d="m1.1094-2.5156c0.0625-1.4844 0.90625-1.7344 1.25-1.7344 1.0156 0 1.125 1.3438 1.125 1.7344zm0 0.21875h2.7812c0.21875 0 0.25 0 0.25-0.21875 0-0.98438-0.54688-1.9531-1.7812-1.9531-1.1562 0-2.0781 1.0312-2.0781 2.2812 0 1.3281 1.0469 2.2969 2.1875 2.2969 1.2188 0 1.6719-1.1094 1.6719-1.2969 0-0.09375-0.078125-0.125-0.14062-0.125-0.078125 0-0.10938 0.0625-0.125 0.14062-0.34375 1.0312-1.25 1.0312-1.3438 1.0312-0.5 0-0.89062-0.29688-1.125-0.67188-0.29688-0.46875-0.29688-1.125-0.29688-1.4844z"/>
      </g>
      <g transform="translate(174.17 141.25)">
       <path id="id-bc03b0c6-f3de-4ea4-8d66-65082c26884d" d="m2.0781-1.9375c0.21875 0.046875 1.0312 0.20312 1.0312 0.92188 0 0.5-0.34375 0.90625-1.125 0.90625-0.84375 0-1.2031-0.5625-1.3906-1.4219-0.03125-0.125-0.03125-0.15625-0.14062-0.15625-0.125 0-0.125 0.0625-0.125 0.23438v1.3281c0 0.17188 0 0.23438 0.10938 0.23438 0.046875 0 0.0625-0.015625 0.25-0.20312 0.015625-0.015625 0.015625-0.03125 0.20312-0.21875 0.4375 0.40625 0.89062 0.42188 1.0938 0.42188 1.1406 0 1.6094-0.67188 1.6094-1.3906 0-0.51562-0.29688-0.82812-0.42188-0.9375-0.32812-0.32812-0.71875-0.40625-1.1406-0.48438-0.5625-0.10938-1.2188-0.23438-1.2188-0.8125 0-0.35938 0.25-0.76562 1.1094-0.76562 1.0938 0 1.1562 0.90625 1.1719 1.2031 0 0.09375 0.09375 0.09375 0.10938 0.09375 0.14062 0 0.14062-0.046875 0.14062-0.23438v-1.0156c0-0.15625 0-0.23438-0.10938-0.23438-0.046875 0-0.078125 0-0.20312 0.125-0.03125 0.03125-0.125 0.125-0.17188 0.15625-0.375-0.28125-0.78125-0.28125-0.9375-0.28125-1.2188 0-1.5938 0.67188-1.5938 1.2344 0 0.34375 0.15625 0.625 0.42188 0.84375 0.32812 0.25 0.60938 0.3125 1.3281 0.45312z"/>
      </g>
      <g transform="translate(178.1 141.25)">
       <path d="m1.7188-3.9844h1.4375v-0.3125h-1.4375v-1.8281h-0.25c0 0.8125-0.29688 1.875-1.2812 1.9219v0.21875h0.84375v2.75c0 1.2188 0.9375 1.3438 1.2969 1.3438 0.70312 0 0.98438-0.70312 0.98438-1.3438v-0.5625h-0.25v0.54688c0 0.73438-0.29688 1.1094-0.67188 1.1094-0.67188 0-0.67188-0.90625-0.67188-1.0781z"/>
      </g>
      <g transform="translate(181.98 141.25)">
       <path d="m1.1094-2.5156c0.0625-1.4844 0.90625-1.7344 1.25-1.7344 1.0156 0 1.125 1.3438 1.125 1.7344zm0 0.21875h2.7812c0.21875 0 0.25 0 0.25-0.21875 0-0.98438-0.54688-1.9531-1.7812-1.9531-1.1562 0-2.0781 1.0312-2.0781 2.2812 0 1.3281 1.0469 2.2969 2.1875 2.2969 1.2188 0 1.6719-1.1094 1.6719-1.2969 0-0.09375-0.078125-0.125-0.14062-0.125-0.078125 0-0.10938 0.0625-0.125 0.14062-0.34375 1.0312-1.25 1.0312-1.3438 1.0312-0.5 0-0.89062-0.29688-1.125-0.67188-0.29688-0.46875-0.29688-1.125-0.29688-1.4844z"/>
      </g>
      <g transform="translate(186.4 141.25)">
       <path id="id-571eb33d-5473-468d-a289-336c34f53bdb" d="m3.7812-0.54688v0.65625l1.4688-0.10938v-0.3125c-0.6875 0-0.78125-0.0625-0.78125-0.5625v-6.0469l-1.4219 0.10938v0.3125c0.6875 0 0.76562 0.0625 0.76562 0.5625v2.1562c-0.28125-0.35938-0.71875-0.625-1.25-0.625-1.1719 0-2.2188 0.98438-2.2188 2.2656 0 1.2656 0.96875 2.25 2.1094 2.25 0.64062 0 1.0781-0.34375 1.3281-0.65625zm0-2.6719v2.0469c0 0.17188 0 0.1875-0.10938 0.35938-0.29688 0.48438-0.73438 0.70312-1.1719 0.70312-0.45312 0-0.8125-0.26562-1.0469-0.64062-0.25-0.40625-0.28125-0.96875-0.28125-1.3906 0-0.35938 0.015625-0.95312 0.29688-1.4062 0.21875-0.3125 0.59375-0.64062 1.1406-0.64062 0.34375 0 0.76562 0.15625 1.0625 0.59375 0.10938 0.17188 0.10938 0.1875 0.10938 0.375z"/>
      </g>
      <g transform="translate(195.26 141.25)">
       <path id="id-cba30479-33fb-42c8-9db0-197b1eb583fd" d="m7.1875-3.375c0-2.0312-1.5-3.6562-3.3125-3.6562-1.7969 0-3.3125 1.5938-3.3125 3.6562 0 2.0469 1.5312 3.5938 3.3125 3.5938 1.8125 0 3.3125-1.5781 3.3125-3.5938zm-3.3125 3.3281c-0.95312 0-2.2969-0.875-2.2969-3.4688 0-2.5781 1.4688-3.2656 2.2969-3.2656 0.85938 0 2.2812 0.70312 2.2812 3.2656 0 2.6406-1.3594 3.4688-2.2812 3.4688z"/>
      </g>
      <g transform="translate(203 141.25)">
       <path id="id-dbbdb4e4-c8f8-4974-8db4-55ad99a2ecab" d="m2.4062-6.5938c-0.09375-0.21875-0.125-0.21875-0.35938-0.21875h-1.6719v0.3125h0.23438c0.76562 0 0.78125 0.10938 0.78125 0.46875v4.9844c0 0.26562 0 0.73438-1.0156 0.73438v0.3125c0.34375-0.015625 0.82812-0.03125 1.1562-0.03125s0.82812 0.015625 1.1719 0.03125v-0.3125c-1.0312 0-1.0312-0.46875-1.0312-0.73438v-5.375h0.015625l2.4062 6.2031c0.046875 0.125 0.09375 0.21875 0.1875 0.21875 0.10938 0 0.14062-0.078125 0.1875-0.1875l2.4531-6.3125v5.7188c0 0.35938-0.015625 0.46875-0.78125 0.46875h-0.23438v0.3125c0.35938-0.03125 1.0469-0.03125 1.4375-0.03125 0.375 0 1.0469 0 1.4219 0.03125v-0.3125h-0.25c-0.76562 0-0.78125-0.10938-0.78125-0.46875v-5.25c0-0.35938 0.015625-0.46875 0.78125-0.46875h0.25v-0.3125h-1.6875c-0.26562 0-0.26562 0.015625-0.32812 0.1875l-2.1875 5.625z"/>
      </g>
     </g>
     <g id="id-aa860eed-1624-4e0c-8a2a-1492238b1f3b" transform="translate(-149.28 -125.72)">
      <g transform="translate(215.46 141.25)">
       <path id="id-f2770362-7098-43cb-8933-88abee13725a" d="m2.0781-1.9375c0.21875 0.046875 1.0312 0.20312 1.0312 0.92188 0 0.5-0.34375 0.90625-1.125 0.90625-0.84375 0-1.2031-0.5625-1.3906-1.4219-0.03125-0.125-0.03125-0.15625-0.14062-0.15625-0.125 0-0.125 0.0625-0.125 0.23438v1.3281c0 0.17188 0 0.23438 0.10938 0.23438 0.046875 0 0.0625-0.015625 0.25-0.20312 0.015625-0.015625 0.015625-0.03125 0.20312-0.21875 0.4375 0.40625 0.89062 0.42188 1.0938 0.42188 1.1406 0 1.6094-0.67188 1.6094-1.3906 0-0.51562-0.29688-0.82812-0.42188-0.9375-0.32812-0.32812-0.71875-0.40625-1.1406-0.48438-0.5625-0.10938-1.2188-0.23438-1.2188-0.8125 0-0.35938 0.25-0.76562 1.1094-0.76562 1.0938 0 1.1562 0.90625 1.1719 1.2031 0 0.09375 0.09375 0.09375 0.10938 0.09375 0.14062 0 0.14062-0.046875 0.14062-0.23438v-1.0156c0-0.15625 0-0.23438-0.10938-0.23438-0.046875 0-0.078125 0-0.20312 0.125-0.03125 0.03125-0.125 0.125-0.17188 0.15625-0.375-0.28125-0.78125-0.28125-0.9375-0.28125-1.2188 0-1.5938 0.67188-1.5938 1.2344 0 0.34375 0.15625 0.625 0.42188 0.84375 0.32812 0.25 0.60938 0.3125 1.3281 0.45312z"/>
      </g>
      <g transform="translate(219.4 141.25)">
       <path d="m1.1719-2.1719c0-1.625 0.8125-2.0469 1.3438-2.0469 0.09375 0 0.71875 0.015625 1.0625 0.375-0.40625 0.03125-0.46875 0.32812-0.46875 0.45312 0 0.26562 0.1875 0.45312 0.45312 0.45312s0.46875-0.15625 0.46875-0.46875c0-0.67188-0.76562-1.0625-1.5312-1.0625-1.25 0-2.1562 1.0781-2.1562 2.3125 0 1.2812 0.98438 2.2656 2.1406 2.2656 1.3281 0 1.6562-1.2031 1.6562-1.2969s-0.10938-0.09375-0.14062-0.09375c-0.078125 0-0.10938 0.03125-0.125 0.09375-0.28125 0.92188-0.9375 1.0469-1.2969 1.0469-0.53125 0-1.4062-0.42188-1.4062-2.0312z"/>
      </g>
      <g transform="translate(223.82 141.25)">
       <path d="m4.6875-2.1406c0-1.2656-0.98438-2.3281-2.1875-2.3281-1.25 0-2.2188 1.0938-2.2188 2.3281 0 1.2969 1.0312 2.25 2.2031 2.25 1.2031 0 2.2031-0.98438 2.2031-2.25zm-2.1875 2c-0.4375 0-0.875-0.20312-1.1406-0.67188-0.25-0.4375-0.25-1.0469-0.25-1.4062 0-0.39062 0-0.92188 0.23438-1.3594 0.26562-0.45312 0.73438-0.67188 1.1406-0.67188 0.4375 0 0.85938 0.21875 1.125 0.65625 0.26562 0.42188 0.26562 1 0.26562 1.375 0 0.35938 0 0.90625-0.21875 1.3438-0.23438 0.45312-0.67188 0.73438-1.1562 0.73438z"/>
      </g>
      <g transform="translate(228.8 141.25)">
       <path d="m1.6719-3.3125v-1.0938l-1.3906 0.10938v0.3125c0.70312 0 0.78125 0.0625 0.78125 0.5625v2.6719c0 0.4375-0.10938 0.4375-0.78125 0.4375v0.3125c0.39062-0.015625 0.85938-0.03125 1.1406-0.03125 0.39062 0 0.85938 0 1.2656 0.03125v-0.3125h-0.21875c-0.73438 0-0.75-0.10938-0.75-0.46875v-1.5312c0-0.98438 0.42188-1.875 1.1719-1.875 0.0625 0 0.09375 0 0.10938 0.015625-0.03125 0-0.23438 0.125-0.23438 0.39062s0.21875 0.42188 0.4375 0.42188c0.17188 0 0.42188-0.125 0.42188-0.4375s-0.3125-0.60938-0.73438-0.60938c-0.73438 0-1.0938 0.67188-1.2188 1.0938z"/>
      </g>
      <g transform="translate(232.71 141.25)">
       <path id="id-8866370a-112a-4afa-9b48-45d5a2aeb8cb" d="m1.1094-2.5156c0.0625-1.4844 0.90625-1.7344 1.25-1.7344 1.0156 0 1.125 1.3438 1.125 1.7344zm0 0.21875h2.7812c0.21875 0 0.25 0 0.25-0.21875 0-0.98438-0.54688-1.9531-1.7812-1.9531-1.1562 0-2.0781 1.0312-2.0781 2.2812 0 1.3281 1.0469 2.2969 2.1875 2.2969 1.2188 0 1.6719-1.1094 1.6719-1.2969 0-0.09375-0.078125-0.125-0.14062-0.125-0.078125 0-0.10938 0.0625-0.125 0.14062-0.34375 1.0312-1.25 1.0312-1.3438 1.0312-0.5 0-0.89062-0.29688-1.125-0.67188-0.29688-0.46875-0.29688-1.125-0.29688-1.4844z"/>
      </g>
     </g>
     <g id="id-5021f6ab-c393-497a-a340-5b01a4994feb" transform="translate(-149.28 -125.72)">
      <g transform="translate(239.9 141.25)">
       <path d="m6.8438-3.2656c0.15625 0 0.34375 0 0.34375-0.1875 0-0.20312-0.1875-0.20312-0.32812-0.20312h-5.9688c-0.14062 0-0.32812 0-0.32812 0.20312 0 0.1875 0.1875 0.1875 0.32812 0.1875zm0.015625 1.9375c0.14062 0 0.32812 0 0.32812-0.20312 0-0.1875-0.1875-0.1875-0.34375-0.1875h-5.9531c-0.14062 0-0.32812 0-0.32812 0.1875 0 0.20312 0.1875 0.20312 0.32812 0.20312z"/>
      </g>
     </g>
     <g transform="translate(-149.28 -125.72)">
      <g transform="translate(252.11 134.51)">
       <path d="m2.9375-6.375c0-0.25 0-0.26562-0.23438-0.26562-0.625 0.64062-1.5 0.64062-1.8125 0.64062v0.3125c0.20312 0 0.78125 0 1.2969-0.26562v5.1719c0 0.35938-0.03125 0.46875-0.92188 0.46875h-0.3125v0.3125c0.34375-0.03125 1.2031-0.03125 1.6094-0.03125 0.39062 0 1.2656 0 1.6094 0.03125v-0.3125h-0.3125c-0.90625 0-0.92188-0.10938-0.92188-0.46875z"/>
      </g>
     </g>
    </g>
    <path id="id-1cb498c2-5b25-4299-81a7-da6d548bba3d" d="m102.33 12.844h5.9805v0.398h-5.9805z"/>
    <g>
     <g transform="translate(-149.28 -125.72)">
      <g transform="translate(251.61 148.09)">
       <path id="id-8ffadde3-7f91-4989-b204-bf02e6669f9a" d="m0.875-0.59375c-0.03125 0.15625-0.09375 0.39062-0.09375 0.4375 0 0.17188 0.14062 0.26562 0.29688 0.26562 0.125 0 0.29688-0.078125 0.375-0.28125 0-0.015625 0.125-0.48438 0.1875-0.73438l0.21875-0.89062c0.046875-0.23438 0.10938-0.45312 0.17188-0.67188 0.03125-0.17188 0.10938-0.46875 0.125-0.5 0.14062-0.3125 0.67188-1.2188 1.625-1.2188 0.45312 0 0.53125 0.375 0.53125 0.70312 0 0.60938-0.48438 1.8906-0.64062 2.3125-0.09375 0.23438-0.10938 0.35938-0.10938 0.46875 0 0.46875 0.35938 0.8125 0.82812 0.8125 0.9375 0 1.2969-1.4531 1.2969-1.5312 0-0.10938-0.078125-0.10938-0.10938-0.10938-0.10938 0-0.10938 0.03125-0.15625 0.1875-0.20312 0.67188-0.53125 1.2344-1.0156 1.2344-0.17188 0-0.23438-0.09375-0.23438-0.32812 0-0.25 0.078125-0.48438 0.17188-0.70312 0.1875-0.53125 0.60938-1.625 0.60938-2.2031 0-0.65625-0.42188-1.0625-1.1406-1.0625-0.90625 0-1.3906 0.64062-1.5625 0.875-0.046875-0.5625-0.45312-0.875-0.92188-0.875-0.45312 0-0.64062 0.39062-0.73438 0.5625-0.17188 0.34375-0.29688 0.9375-0.29688 0.96875 0 0.10938 0.09375 0.10938 0.10938 0.10938 0.10938 0 0.10938-0.015625 0.17188-0.23438 0.17188-0.70312 0.375-1.1875 0.73438-1.1875 0.1875 0 0.29688 0.125 0.29688 0.45312 0 0.21875-0.03125 0.32812-0.15625 0.84375z"/>
      </g>
     </g>
     <g id="id-e9d90134-33ab-4398-afaf-32df8e76ed1b" transform="translate(-149.28 -125.72)">
      <g transform="translate(265.45 128.8)">
       <path d="m0.84375-0.4375c-0.015625 0.09375-0.0625 0.26562-0.0625 0.28125 0 0.15625 0.125 0.21875 0.23438 0.21875 0.125 0 0.23438-0.078125 0.28125-0.14062 0.03125-0.0625 0.078125-0.29688 0.125-0.4375 0.03125-0.125 0.10938-0.45312 0.14062-0.625 0.046875-0.15625 0.09375-0.3125 0.125-0.46875 0.078125-0.28125 0.09375-0.34375 0.29688-0.625 0.1875-0.28125 0.51562-0.64062 1.0469-0.64062 0.39062 0 0.40625 0.35938 0.40625 0.48438 0 0.42188-0.29688 1.1875-0.40625 1.4844-0.078125 0.20312-0.10938 0.26562-0.10938 0.375 0 0.375 0.29688 0.59375 0.65625 0.59375 0.70312 0 1-0.95312 1-1.0625 0-0.09375-0.078125-0.09375-0.10938-0.09375-0.09375 0-0.09375 0.046875-0.125 0.125-0.15625 0.5625-0.46875 0.84375-0.73438 0.84375-0.15625 0-0.1875-0.09375-0.1875-0.25s0.046875-0.25 0.17188-0.5625c0.078125-0.21875 0.35938-0.95312 0.35938-1.3438 0-0.67188-0.53125-0.79688-0.90625-0.79688-0.57812 0-0.96875 0.35938-1.1719 0.64062-0.046875-0.48438-0.45312-0.64062-0.75-0.64062s-0.45312 0.21875-0.54688 0.375c-0.15625 0.26562-0.25 0.65625-0.25 0.70312 0 0.078125 0.09375 0.078125 0.125 0.078125 0.09375 0 0.09375-0.015625 0.14062-0.20312 0.10938-0.40625 0.25-0.75 0.51562-0.75 0.1875 0 0.23438 0.15625 0.23438 0.34375 0 0.125-0.0625 0.39062-0.125 0.57812-0.046875 0.1875-0.10938 0.46875-0.14062 0.625z"/>
      </g>
     </g>
     <g transform="translate(-149.28 -125.72)">
      <g transform="translate(260.71 131.79)">
       <path d="m12.625 13.953 1.2031-3.1875h-0.25c-0.39062 1.0312-1.4531 1.7188-2.5938 2.0156-0.20312 0.04687-1.1875 0.3125-3.0938 0.3125h-6.0156l5.0781-5.9531c0.0625-0.078125 0.078125-0.10938 0.078125-0.15625 0-0.03125 0-0.0625-0.0625-0.15625l-4.6406-6.3438h5.4531c1.3438 0 2.25 0.14062 2.3438 0.15625 0.53125 0.078125 1.4062 0.25 2.1875 0.75 0.25 0.15625 0.92188 0.60938 1.2656 1.4062h0.25l-1.2031-2.7969h-11.781c-0.23438 0-0.25 0.015625-0.28125 0.0625v0.34375l5.2656 7.2031-5.1562 6.0625c-0.10938 0.10938-0.10938 0.17188-0.10938 0.17188 0 0.10938 0.09375 0.10938 0.28125 0.10938z"/>
      </g>
     </g>
     <g id="id-e48d4aff-751a-4887-8d28-5f3a4bd5987c" transform="translate(-149.28 -125.72)">
      <g transform="translate(260.45 153.16)">
       <path d="m2.2656-4.3594c0-0.10938-0.09375-0.26562-0.28125-0.26562s-0.39062 0.1875-0.39062 0.39062c0 0.10938 0.078125 0.26562 0.28125 0.26562 0.1875 0 0.39062-0.20312 0.39062-0.39062zm-1.4219 3.5469c-0.03125 0.09375-0.0625 0.17188-0.0625 0.29688 0 0.32812 0.26562 0.57812 0.65625 0.57812 0.6875 0 1-0.95312 1-1.0625 0-0.09375-0.09375-0.09375-0.10938-0.09375-0.09375 0-0.10938 0.046875-0.14062 0.125-0.15625 0.5625-0.45312 0.84375-0.73438 0.84375-0.14062 0-0.17188-0.09375-0.17188-0.25s0.046875-0.28125 0.10938-0.4375c0.078125-0.1875 0.15625-0.375 0.21875-0.5625 0.0625-0.17188 0.32812-0.79688 0.34375-0.89062 0.03125-0.0625 0.046875-0.14062 0.046875-0.21875 0-0.32812-0.28125-0.59375-0.65625-0.59375-0.70312 0-1.0156 0.95312-1.0156 1.0781 0 0.078125 0.09375 0.078125 0.125 0.078125 0.09375 0 0.09375-0.03125 0.125-0.10938 0.17188-0.59375 0.48438-0.84375 0.73438-0.84375 0.10938 0 0.17188 0.046875 0.17188 0.23438 0 0.17188-0.03125 0.26562-0.20312 0.70312z"/>
      </g>
     </g>
     <g id="id-194e3c3d-6e56-4d4f-bebd-06fc47e26d1f" transform="translate(-149.28 -125.72)">
      <g transform="translate(263.26 153.16)">
       <path d="m5.3594-2.3438c0.09375 0 0.25 0 0.25-0.17188s-0.15625-0.17188-0.25-0.17188h-4.6094c-0.09375 0-0.26562 0-0.26562 0.17188s0.15625 0.17188 0.26562 0.17188zm0 1.5312c0.09375 0 0.25 0 0.25-0.15625 0-0.1875-0.15625-0.1875-0.25-0.1875h-4.6094c-0.10938 0-0.26562 0-0.26562 0.1875 0 0.15625 0.17188 0.15625 0.26562 0.15625z"/>
      </g>
     </g>
     <g id="id-bc6945ed-95a1-4202-8dfc-c26b4274bd1f" transform="translate(-149.28 -125.72)">
      <g transform="translate(269.38 153.16)">
       <path d="m1.4375-0.84375c-0.25 0.39062-0.46875 0.5625-0.875 0.59375-0.078125 0-0.17188 0-0.17188 0.14062 0 0.078125 0.0625 0.10938 0.10938 0.10938 0.17188 0 0.40625-0.03125 0.59375-0.03125 0.21875 0 0.51562 0.03125 0.71875 0.03125 0.03125 0 0.14062 0 0.14062-0.15625 0-0.09375-0.09375-0.09375-0.125-0.09375-0.046875-0.015625-0.29688-0.015625-0.29688-0.20312 0-0.09375 0.0625-0.20312 0.09375-0.26562l0.5625-0.875h2l0.15625 1.1562c-0.015625 0.078125-0.0625 0.1875-0.46875 0.1875-0.09375 0-0.1875 0-0.1875 0.15625 0 0.03125 0.015625 0.09375 0.10938 0.09375 0.20312 0 0.70312-0.03125 0.90625-0.03125 0.125 0 0.28125 0.015625 0.40625 0.015625s0.26562 0.015625 0.39062 0.015625c0.09375 0 0.14062-0.0625 0.14062-0.14062 0-0.10938-0.078125-0.10938-0.1875-0.10938-0.40625 0-0.42188-0.0625-0.4375-0.21875l-0.625-4.3125c-0.015625-0.14062-0.03125-0.1875-0.15625-0.1875-0.14062 0-0.17188 0.0625-0.23438 0.15625zm0.92188-1 1.4531-2.2812 0.32812 2.2812z"/>
      </g>
     </g>
    </g>
    <path id="id-136b029b-c23f-4aa5-9d19-c6d0b6161c5d" d="m127.76 7.1289h31.465v0.398h-31.465z"/>
    <g transform="translate(-149.28 -125.72)">
     <g transform="translate(277.03 141.25)">
      <path d="m7.5781-6.9219c0-0.03125-0.015625-0.10938-0.10938-0.10938-0.03125 0-0.046875 0.015625-0.15625 0.125l-0.6875 0.76562c-0.09375-0.14062-0.54688-0.89062-1.6562-0.89062-2.2344 0-4.4688 2.2031-4.4688 4.5156 0 1.5938 1.1094 2.7344 2.7188 2.7344 0.4375 0 0.89062-0.09375 1.25-0.23438 0.5-0.20312 0.6875-0.40625 0.85938-0.60938 0.09375 0.25 0.35938 0.60938 0.45312 0.60938 0.046875 0 0.078125-0.03125 0.078125-0.03125 0.015625-0.015625 0.10938-0.40625 0.15625-0.60938l0.1875-0.76562 0.14062-0.51562c0.10938-0.4375 0.10938-0.46875 0.6875-0.46875 0.046875 0 0.15625-0.015625 0.15625-0.20312 0-0.078125-0.046875-0.10938-0.125-0.10938-0.23438 0-0.82812 0.03125-1.0469 0.03125-0.3125 0-1.0938-0.03125-1.4062-0.03125-0.078125 0-0.20312 0-0.20312 0.20312 0 0.10938 0.078125 0.10938 0.29688 0.10938 0.015625 0 0.29688 0 0.53125 0.015625 0.26562 0.03125 0.3125 0.0625 0.3125 0.1875 0 0.09375-0.10938 0.53125-0.21875 0.90625-0.28125 1.0938-1.5625 1.2031-1.9219 1.2031-0.95312 0-2-0.5625-2-2.0938 0-0.3125 0.09375-1.9531 1.1406-3.25 0.54688-0.67188 1.5156-1.2812 2.5-1.2812 1.0156 0 1.6094 0.76562 1.6094 1.9219 0 0.40625-0.03125 0.40625-0.03125 0.51562 0 0.09375 0.10938 0.09375 0.14062 0.09375 0.125 0 0.125-0.015625 0.1875-0.20312z"/>
     </g>
     <g transform="translate(284.87 141.25)">
      <path d="m0.875-0.59375c-0.03125 0.15625-0.09375 0.39062-0.09375 0.4375 0 0.17188 0.14062 0.26562 0.29688 0.26562 0.125 0 0.29688-0.078125 0.375-0.28125 0.015625-0.03125 0.34375-1.3906 0.39062-1.5781 0.078125-0.32812 0.26562-1.0156 0.3125-1.2969 0.046875-0.125 0.32812-0.59375 0.5625-0.8125 0.078125-0.0625 0.375-0.32812 0.79688-0.32812 0.26562 0 0.40625 0.125 0.42188 0.125-0.29688 0.046875-0.51562 0.28125-0.51562 0.54688 0 0.15625 0.10938 0.34375 0.375 0.34375s0.54688-0.23438 0.54688-0.59375c0-0.34375-0.3125-0.64062-0.82812-0.64062-0.64062 0-1.0781 0.48438-1.2656 0.76562-0.09375-0.45312-0.45312-0.76562-0.92188-0.76562-0.45312 0-0.64062 0.39062-0.73438 0.5625-0.17188 0.34375-0.29688 0.9375-0.29688 0.96875 0 0.10938 0.09375 0.10938 0.10938 0.10938 0.10938 0 0.10938-0.015625 0.17188-0.23438 0.17188-0.70312 0.375-1.1875 0.73438-1.1875 0.15625 0 0.29688 0.078125 0.29688 0.45312 0 0.21875-0.03125 0.32812-0.15625 0.84375z"/>
     </g>
     <g transform="translate(289.64 141.25)">
      <path id="id-d8ec1df3-2cc2-49f5-ab5c-abb144bd473e" d="m4.6719-2.7188c0-1.0469-0.6875-1.6875-1.5938-1.6875-1.3281 0-2.6719 1.4219-2.6719 2.8281 0 0.98438 0.67188 1.6875 1.5938 1.6875 1.3281 0 2.6719-1.375 2.6719-2.8281zm-2.6562 2.6094c-0.4375 0-0.875-0.3125-0.875-1.0938 0-0.48438 0.26562-1.5625 0.57812-2.0625 0.5-0.76562 1.0781-0.92188 1.3594-0.92188 0.57812 0 0.875 0.48438 0.875 1.0781 0 0.39062-0.20312 1.4375-0.57812 2.0781-0.35938 0.57812-0.90625 0.92188-1.3594 0.92188z"/>
     </g>
     <g transform="translate(294.47 141.25)">
      <path id="id-e07f0456-10ac-4f50-bd5a-705f8b63287f" d="m3.4844-0.5625c0.10938 0.40625 0.46875 0.67188 0.89062 0.67188 0.34375 0 0.57812-0.23438 0.73438-0.54688 0.17188-0.35938 0.29688-0.96875 0.29688-0.98438 0-0.10938-0.078125-0.10938-0.10938-0.10938-0.10938 0-0.10938 0.046875-0.14062 0.1875-0.14062 0.5625-0.32812 1.2344-0.75 1.2344-0.20312 0-0.3125-0.125-0.3125-0.45312 0-0.21875 0.125-0.6875 0.20312-1.0469l0.28125-1.0781c0.03125-0.14062 0.125-0.51562 0.17188-0.67188 0.046875-0.23438 0.14062-0.60938 0.14062-0.67188 0-0.17188-0.14062-0.26562-0.28125-0.26562-0.046875 0-0.3125 0.015625-0.39062 0.34375-0.1875 0.73438-0.625 2.4844-0.75 3-0.015625 0.046875-0.40625 0.84375-1.1406 0.84375-0.51562 0-0.60938-0.45312-0.60938-0.8125 0-0.5625 0.28125-1.3438 0.53125-2.0312 0.125-0.3125 0.17188-0.45312 0.17188-0.64062 0-0.4375-0.3125-0.8125-0.8125-0.8125-0.95312 0-1.3125 1.4531-1.3125 1.5312 0 0.10938 0.09375 0.10938 0.10938 0.10938 0.10938 0 0.10938-0.03125 0.15625-0.1875 0.25-0.85938 0.64062-1.2344 1.0156-1.2344 0.09375 0 0.25 0.015625 0.25 0.32812 0 0.23438-0.10938 0.53125-0.17188 0.67188-0.375 1-0.57812 1.6094-0.57812 2.0938 0 0.95312 0.6875 1.2031 1.2188 1.2031 0.65625 0 1.0156-0.45312 1.1875-0.67188z"/>
     </g>
     <g transform="translate(300.17 141.25)">
      <path id="id-806b2efe-7de8-4b62-9839-48f5eee36d6b" d="m0.45312 1.2188c-0.078125 0.34375-0.10938 0.40625-0.54688 0.40625-0.10938 0-0.21875 0-0.21875 0.1875 0 0.078125 0.046875 0.125 0.125 0.125 0.26562 0 0.5625-0.03125 0.82812-0.03125 0.34375 0 0.67188 0.03125 1 0.03125 0.046875 0 0.17188 0 0.17188-0.20312 0-0.10938-0.09375-0.10938-0.23438-0.10938-0.5 0-0.5-0.0625-0.5-0.15625 0-0.125 0.42188-1.75 0.48438-2 0.125 0.29688 0.40625 0.64062 0.92188 0.64062 1.1562 0 2.4062-1.4531 2.4062-2.9219 0-0.9375-0.57812-1.5938-1.3281-1.5938-0.5 0-0.98438 0.35938-1.3125 0.75-0.09375-0.54688-0.53125-0.75-0.89062-0.75-0.46875 0-0.65625 0.39062-0.73438 0.5625-0.1875 0.34375-0.3125 0.9375-0.3125 0.96875 0 0.10938 0.09375 0.10938 0.10938 0.10938 0.10938 0 0.10938-0.015625 0.17188-0.23438 0.17188-0.70312 0.375-1.1875 0.73438-1.1875 0.17188 0 0.3125 0.078125 0.3125 0.45312 0 0.23438-0.03125 0.34375-0.078125 0.51562zm1.75-4.3281c0.0625-0.26562 0.34375-0.54688 0.51562-0.70312 0.35938-0.29688 0.64062-0.375 0.8125-0.375 0.39062 0 0.64062 0.34375 0.64062 0.9375s-0.32812 1.7344-0.51562 2.1094c-0.34375 0.70312-0.8125 1.0312-1.1875 1.0312-0.65625 0-0.78125-0.82812-0.78125-0.89062 0-0.015625 0-0.03125 0.03125-0.15625z"/>
     </g>
    </g>
    <g id="id-a6b3418e-b555-433e-a84a-447865e0d6aa" transform="translate(-149.28 -125.72)">
     <g transform="translate(305.18 142.75)">
      <path d="m2.2656-4.3594c0-0.10938-0.09375-0.26562-0.28125-0.26562s-0.39062 0.1875-0.39062 0.39062c0 0.10938 0.078125 0.26562 0.28125 0.26562 0.1875 0 0.39062-0.20312 0.39062-0.39062zm-1.4219 3.5469c-0.03125 0.09375-0.0625 0.17188-0.0625 0.29688 0 0.32812 0.26562 0.57812 0.65625 0.57812 0.6875 0 1-0.95312 1-1.0625 0-0.09375-0.09375-0.09375-0.10938-0.09375-0.09375 0-0.10938 0.046875-0.14062 0.125-0.15625 0.5625-0.45312 0.84375-0.73438 0.84375-0.14062 0-0.17188-0.09375-0.17188-0.25s0.046875-0.28125 0.10938-0.4375c0.078125-0.1875 0.15625-0.375 0.21875-0.5625 0.0625-0.17188 0.32812-0.79688 0.34375-0.89062 0.03125-0.0625 0.046875-0.14062 0.046875-0.21875 0-0.32812-0.28125-0.59375-0.65625-0.59375-0.70312 0-1.0156 0.95312-1.0156 1.0781 0 0.078125 0.09375 0.078125 0.125 0.078125 0.09375 0 0.09375-0.03125 0.125-0.10938 0.17188-0.59375 0.48438-0.84375 0.73438-0.84375 0.10938 0 0.17188 0.046875 0.17188 0.23438 0 0.17188-0.03125 0.26562-0.20312 0.70312z"/>
     </g>
    </g>
   </g>
  </g>
 </g>
</svg>
