<svg width="288" height="63" viewBox="0 0 288 63" fill="none" xmlns="http://www.w3.org/2000/svg">
<path d="M40.2199 22.2424C40.2199 25.188 42.6077 27.5758 45.5532 27.5758C48.4987 27.5758 50.8865 25.188 50.8865 22.2424C50.8865 19.2969 48.4987 16.9091 45.5532 16.9091C42.6077 16.9091 40.2199 19.2969 40.2199 22.2424ZM19 22.2424V23.2424L45.5532 23.2424V22.2424V21.2424L19 21.2424V22.2424Z" fill="white"/>
<path d="M114.381 8.97723C115.854 11.5281 119.116 12.4021 121.667 10.9294C124.218 9.45661 125.092 6.19479 123.619 3.6439C122.146 1.093 118.884 0.219 116.333 1.69176C113.782 3.16452 112.908 6.42633 114.381 8.97723ZM96.0043 19.5872L96.5043 20.4532L119.5 7.17659L119 6.31056L118.5 5.44454L95.5043 18.7211L96.0043 19.5872Z" fill="white"/>
<path d="M114.381 35.5079C112.908 38.0588 113.782 41.3206 116.333 42.7933C118.884 44.2661 122.146 43.3921 123.619 40.8412C125.092 38.2903 124.218 35.0285 121.667 33.5557C119.116 32.083 115.854 32.957 114.381 35.5079ZM96.0043 24.8979L95.5043 25.764L118.5 39.0406L119 38.1745L119.5 37.3085L96.5043 24.0319L96.0043 24.8979Z" fill="white"/>
<path d="M146.453 26.9531C146.453 26.599 146.401 26.2812 146.297 26C146.193 25.7083 146 25.4375 145.719 25.1875C145.438 24.9375 145.031 24.6875 144.5 24.4375C143.979 24.1771 143.292 23.9062 142.438 23.625C141.438 23.2917 140.474 22.9167 139.547 22.5C138.62 22.0729 137.792 21.5781 137.062 21.0156C136.333 20.4427 135.755 19.776 135.328 19.0156C134.901 18.2448 134.688 17.349 134.688 16.3281C134.688 15.349 134.906 14.4688 135.344 13.6875C135.781 12.8958 136.391 12.224 137.172 11.6719C137.964 11.1094 138.891 10.6823 139.953 10.3906C141.016 10.0885 142.177 9.9375 143.438 9.9375C145.104 9.9375 146.573 10.2292 147.844 10.8125C149.125 11.3854 150.125 12.2031 150.844 13.2656C151.573 14.3177 151.938 15.5625 151.938 17H146.484C146.484 16.4271 146.365 15.9219 146.125 15.4844C145.896 15.0469 145.547 14.7031 145.078 14.4531C144.609 14.2031 144.021 14.0781 143.312 14.0781C142.625 14.0781 142.047 14.1823 141.578 14.3906C141.109 14.599 140.755 14.8802 140.516 15.2344C140.276 15.5781 140.156 15.9583 140.156 16.375C140.156 16.7188 140.25 17.0312 140.438 17.3125C140.635 17.5833 140.911 17.8385 141.266 18.0781C141.63 18.3177 142.068 18.5469 142.578 18.7656C143.099 18.9844 143.682 19.1979 144.328 19.4062C145.536 19.7917 146.609 20.224 147.547 20.7031C148.495 21.1719 149.292 21.7083 149.938 22.3125C150.594 22.9062 151.089 23.5833 151.422 24.3438C151.766 25.1042 151.938 25.9635 151.938 26.9219C151.938 27.9427 151.74 28.849 151.344 29.6406C150.948 30.4323 150.38 31.1042 149.641 31.6562C148.901 32.1979 148.016 32.6094 146.984 32.8906C145.953 33.1719 144.802 33.3125 143.531 33.3125C142.365 33.3125 141.214 33.1667 140.078 32.875C138.953 32.5729 137.932 32.1146 137.016 31.5C136.099 30.875 135.365 30.0781 134.812 29.1094C134.271 28.1302 134 26.9688 134 25.625H139.5C139.5 26.2917 139.589 26.8542 139.766 27.3125C139.943 27.7708 140.203 28.1406 140.547 28.4219C140.891 28.6927 141.312 28.8906 141.812 29.0156C142.312 29.1302 142.885 29.1875 143.531 29.1875C144.229 29.1875 144.792 29.0885 145.219 28.8906C145.646 28.6823 145.958 28.4115 146.156 28.0781C146.354 27.7344 146.453 27.3594 146.453 26.9531ZM159.828 19.3438V39.5H154.562V16.0938H159.469L159.828 19.3438ZM170.203 24.3438V24.6719C170.203 25.901 170.062 27.0417 169.781 28.0938C169.5 29.1458 169.083 30.0625 168.531 30.8438C167.979 31.625 167.292 32.2344 166.469 32.6719C165.656 33.099 164.714 33.3125 163.641 33.3125C162.63 33.3125 161.76 33.0885 161.031 32.6406C160.302 32.1927 159.693 31.5729 159.203 30.7812C158.714 29.9896 158.318 29.0833 158.016 28.0625C157.714 27.0417 157.474 25.9635 157.297 24.8281V24.4062C157.474 23.1875 157.714 22.0573 158.016 21.0156C158.318 19.9635 158.714 19.0469 159.203 18.2656C159.693 17.4844 160.297 16.875 161.016 16.4375C161.745 16 162.615 15.7812 163.625 15.7812C164.698 15.7812 165.641 15.9844 166.453 16.3906C167.276 16.7969 167.964 17.3802 168.516 18.1406C169.078 18.8906 169.5 19.7917 169.781 20.8438C170.062 21.8958 170.203 23.0625 170.203 24.3438ZM164.938 24.6719V24.3438C164.938 23.6875 164.891 23.0885 164.797 22.5469C164.703 21.9948 164.552 21.5156 164.344 21.1094C164.146 20.7031 163.88 20.3906 163.547 20.1719C163.214 19.9531 162.802 19.8438 162.312 19.8438C161.75 19.8438 161.276 19.9323 160.891 20.1094C160.516 20.276 160.214 20.5365 159.984 20.8906C159.766 21.2344 159.609 21.6667 159.516 22.1875C159.432 22.6979 159.396 23.2969 159.406 23.9844V25.2656C159.385 26.0573 159.464 26.7552 159.641 27.3594C159.818 27.9531 160.125 28.4167 160.562 28.75C161 29.0833 161.594 29.25 162.344 29.25C162.844 29.25 163.26 29.1354 163.594 28.9062C163.927 28.6667 164.193 28.3385 164.391 27.9219C164.589 27.4948 164.729 27.0052 164.812 26.4531C164.896 25.901 164.938 25.3073 164.938 24.6719ZM178.109 9V33H172.828V9H178.109ZM186.922 16.0938V33H181.641V16.0938H186.922ZM181.328 11.7344C181.328 10.9844 181.599 10.3698 182.141 9.89062C182.682 9.41146 183.385 9.17188 184.25 9.17188C185.115 9.17188 185.818 9.41146 186.359 9.89062C186.901 10.3698 187.172 10.9844 187.172 11.7344C187.172 12.4844 186.901 13.099 186.359 13.5781C185.818 14.0573 185.115 14.2969 184.25 14.2969C183.385 14.2969 182.682 14.0573 182.141 13.5781C181.599 13.099 181.328 12.4844 181.328 11.7344ZM199.078 16.0938V19.75H188.891V16.0938H199.078ZM191.031 11.8906H196.297V27.4844C196.297 27.9323 196.349 28.2812 196.453 28.5312C196.557 28.7708 196.734 28.9427 196.984 29.0469C197.245 29.1406 197.589 29.1875 198.016 29.1875C198.318 29.1875 198.568 29.1823 198.766 29.1719C198.964 29.151 199.151 29.125 199.328 29.0938V32.8594C198.88 33.0052 198.411 33.1146 197.922 33.1875C197.432 33.2708 196.911 33.3125 196.359 33.3125C195.234 33.3125 194.271 33.1354 193.469 32.7812C192.677 32.4271 192.073 31.8698 191.656 31.1094C191.24 30.349 191.031 29.3594 191.031 28.1406V11.8906ZM210.078 16.0938V19.75H199.891V16.0938H210.078ZM202.031 11.8906H207.297V27.4844C207.297 27.9323 207.349 28.2812 207.453 28.5312C207.557 28.7708 207.734 28.9427 207.984 29.0469C208.245 29.1406 208.589 29.1875 209.016 29.1875C209.318 29.1875 209.568 29.1823 209.766 29.1719C209.964 29.151 210.151 29.125 210.328 29.0938V32.8594C209.88 33.0052 209.411 33.1146 208.922 33.1875C208.432 33.2708 207.911 33.3125 207.359 33.3125C206.234 33.3125 205.271 33.1354 204.469 32.7812C203.677 32.4271 203.073 31.8698 202.656 31.1094C202.24 30.349 202.031 29.3594 202.031 28.1406V11.8906ZM220.359 33.3125C218.984 33.3125 217.755 33.099 216.672 32.6719C215.589 32.2344 214.672 31.6354 213.922 30.875C213.182 30.1146 212.615 29.2396 212.219 28.25C211.833 27.2604 211.641 26.2135 211.641 25.1094V24.5156C211.641 23.276 211.812 22.1302 212.156 21.0781C212.5 20.0156 213.01 19.0885 213.688 18.2969C214.365 17.5052 215.214 16.8906 216.234 16.4531C217.255 16.0052 218.443 15.7812 219.797 15.7812C220.995 15.7812 222.068 15.974 223.016 16.3594C223.964 16.7448 224.766 17.2969 225.422 18.0156C226.089 18.7344 226.594 19.6042 226.938 20.625C227.292 21.6458 227.469 22.7917 227.469 24.0625V26.2031H213.656V22.9062H222.328V22.5C222.339 21.9375 222.24 21.4583 222.031 21.0625C221.833 20.6667 221.542 20.3646 221.156 20.1562C220.771 19.9479 220.302 19.8438 219.75 19.8438C219.177 19.8438 218.703 19.9688 218.328 20.2188C217.964 20.4688 217.677 20.8125 217.469 21.25C217.271 21.6771 217.13 22.1719 217.047 22.7344C216.964 23.2969 216.922 23.8906 216.922 24.5156V25.1094C216.922 25.7344 217.005 26.3021 217.172 26.8125C217.349 27.3229 217.599 27.7604 217.922 28.125C218.255 28.4792 218.651 28.7552 219.109 28.9531C219.578 29.151 220.109 29.25 220.703 29.25C221.422 29.25 222.13 29.1146 222.828 28.8438C223.526 28.5729 224.125 28.125 224.625 27.5L227.016 30.3438C226.672 30.8333 226.182 31.3073 225.547 31.7656C224.922 32.224 224.172 32.599 223.297 32.8906C222.422 33.1719 221.443 33.3125 220.359 33.3125ZM234.922 20.2812V33H229.656V16.0938H234.578L234.922 20.2812ZM239.922 15.9688L239.828 20.8594C239.62 20.8385 239.339 20.8125 238.984 20.7812C238.63 20.75 238.333 20.7344 238.094 20.7344C237.479 20.7344 236.948 20.8073 236.5 20.9531C236.062 21.0885 235.698 21.2969 235.406 21.5781C235.125 21.849 234.917 22.1927 234.781 22.6094C234.656 23.026 234.599 23.5104 234.609 24.0625L233.656 23.4375C233.656 22.3021 233.766 21.2708 233.984 20.3438C234.214 19.4062 234.536 18.599 234.953 17.9219C235.37 17.2344 235.875 16.7083 236.469 16.3438C237.062 15.9688 237.729 15.7812 238.469 15.7812C238.729 15.7812 238.984 15.7969 239.234 15.8281C239.495 15.8594 239.724 15.9062 239.922 15.9688ZM243.844 10.25H246.766L254.219 28.7969L261.656 10.25H264.594L255.344 33H253.062L243.844 10.25ZM242.891 10.25H245.469L245.891 24.125V33H242.891V10.25ZM262.953 10.25H265.531V33H262.531V24.125L262.953 10.25ZM270.828 10.25H278.359C280.068 10.25 281.51 10.5104 282.688 11.0312C283.875 11.5521 284.776 12.3229 285.391 13.3438C286.016 14.3542 286.328 15.599 286.328 17.0781C286.328 18.1198 286.115 19.0729 285.688 19.9375C285.271 20.7917 284.667 21.5208 283.875 22.125C283.094 22.7188 282.156 23.1615 281.062 23.4531L280.219 23.7812H273.141L273.109 21.3281H278.453C279.536 21.3281 280.438 21.1406 281.156 20.7656C281.875 20.3802 282.417 19.8646 282.781 19.2188C283.146 18.5729 283.328 17.8594 283.328 17.0781C283.328 16.2031 283.156 15.4375 282.812 14.7812C282.469 14.125 281.927 13.6198 281.188 13.2656C280.458 12.901 279.516 12.7188 278.359 12.7188H273.844V33H270.828V10.25ZM284.125 33L278.594 22.6875L281.734 22.6719L287.344 32.8125V33H284.125Z" fill="white"/>
<path d="M17.6484 59.0049H18.189C18.145 59.4355 18.0264 59.8076 17.833 60.1211C17.6396 60.4316 17.376 60.6704 17.042 60.8374C16.708 61.0044 16.3052 61.0879 15.8335 61.0879C15.4702 61.0879 15.1406 61.019 14.8447 60.8813C14.5518 60.7437 14.2998 60.5488 14.0889 60.2969C13.8779 60.042 13.7153 59.7373 13.6011 59.3828C13.4868 59.0283 13.4297 58.6343 13.4297 58.2007V57.4009C13.4297 56.9673 13.4868 56.5747 13.6011 56.2231C13.7153 55.8687 13.8794 55.564 14.0933 55.3091C14.3071 55.0542 14.5635 54.8579 14.8623 54.7202C15.1611 54.5825 15.498 54.5137 15.873 54.5137C16.3271 54.5137 16.7197 54.5972 17.0508 54.7642C17.3818 54.9282 17.6426 55.1655 17.833 55.4761C18.0264 55.7866 18.145 56.1616 18.189 56.6011H17.6484C17.6074 56.2554 17.5166 55.9624 17.376 55.7222C17.2354 55.4819 17.0405 55.2988 16.7915 55.1729C16.5454 55.0439 16.2393 54.9795 15.873 54.9795C15.5742 54.9795 15.3076 55.0366 15.0732 55.1509C14.8389 55.2651 14.6396 55.4292 14.4756 55.6431C14.3115 55.854 14.1855 56.1074 14.0977 56.4033C14.0127 56.6992 13.9702 57.0288 13.9702 57.3921V58.2007C13.9702 58.5522 14.0112 58.876 14.0933 59.1719C14.1753 59.4678 14.2954 59.7241 14.4536 59.9409C14.6147 60.1577 14.811 60.3262 15.0425 60.4463C15.2739 60.5664 15.5376 60.6265 15.8335 60.6265C16.2114 60.6265 16.5264 60.5664 16.7783 60.4463C17.0332 60.3232 17.231 60.1416 17.3716 59.9014C17.5122 59.6611 17.6045 59.3623 17.6484 59.0049ZM19.9072 54.25V61H19.3843V54.25H19.9072ZM19.7886 58.3281L19.5557 58.1963C19.5732 57.915 19.6304 57.6514 19.7271 57.4053C19.8237 57.1592 19.9541 56.9424 20.1182 56.7549C20.2852 56.5674 20.48 56.4209 20.7026 56.3154C20.9282 56.21 21.1772 56.1572 21.4497 56.1572C21.687 56.1572 21.8994 56.1895 22.0869 56.2539C22.2744 56.3184 22.4341 56.4209 22.5659 56.5615C22.6978 56.7021 22.7974 56.8823 22.8647 57.1021C22.9351 57.3218 22.9702 57.5898 22.9702 57.9062V61H22.4429V57.9019C22.4429 57.5737 22.3975 57.3174 22.3066 57.1328C22.2158 56.9453 22.0869 56.812 21.9199 56.7329C21.7529 56.6538 21.5552 56.6143 21.3267 56.6143C21.0747 56.6143 20.8535 56.6699 20.6631 56.7812C20.4756 56.8896 20.3174 57.0317 20.1885 57.2075C20.0625 57.3804 19.9658 57.5664 19.8984 57.7656C19.8311 57.9619 19.7944 58.1494 19.7886 58.3281ZM27.3691 59.9014V56.2451H27.8965V61H27.3911L27.3691 59.9014ZM27.4658 59.0225L27.7383 59.0137C27.7383 59.3125 27.7031 59.5879 27.6328 59.8398C27.5625 60.0918 27.4526 60.3115 27.3032 60.499C27.1538 60.6865 26.9604 60.8315 26.7231 60.9341C26.4858 61.0366 26.2002 61.0879 25.8662 61.0879C25.6348 61.0879 25.4224 61.0557 25.229 60.9912C25.0386 60.9238 24.8745 60.8184 24.7368 60.6748C24.5991 60.5312 24.4922 60.3452 24.416 60.1167C24.3428 59.8882 24.3062 59.6113 24.3062 59.2861V56.2451H24.8291V59.2949C24.8291 59.5498 24.8569 59.7622 24.9126 59.9321C24.9712 60.1021 25.0503 60.2383 25.1499 60.3408C25.2524 60.4434 25.3696 60.5166 25.5015 60.5605C25.6333 60.6045 25.7754 60.6265 25.9277 60.6265C26.3145 60.6265 26.6191 60.5518 26.8418 60.4023C27.0674 60.2529 27.2271 60.0566 27.3208 59.8135C27.4175 59.5674 27.4658 59.3037 27.4658 59.0225ZM29.7949 57.2603V61H29.272V56.2451H29.7729L29.7949 57.2603ZM29.6763 58.3281L29.4434 58.1963C29.4609 57.915 29.5181 57.6514 29.6147 57.4053C29.7114 57.1592 29.8418 56.9424 30.0059 56.7549C30.1729 56.5674 30.3677 56.4209 30.5903 56.3154C30.8159 56.21 31.0649 56.1572 31.3374 56.1572C31.5747 56.1572 31.7871 56.1895 31.9746 56.2539C32.1621 56.3184 32.3218 56.4209 32.4536 56.5615C32.5854 56.7021 32.6851 56.8823 32.7524 57.1021C32.8228 57.3218 32.8579 57.5898 32.8579 57.9062V61H32.3306V57.9019C32.3306 57.5737 32.2852 57.3174 32.1943 57.1328C32.1035 56.9453 31.9746 56.812 31.8076 56.7329C31.6406 56.6538 31.4429 56.6143 31.2144 56.6143C30.9624 56.6143 30.7412 56.6699 30.5508 56.7812C30.3633 56.8896 30.2051 57.0317 30.0762 57.2075C29.9502 57.3804 29.8535 57.5664 29.7861 57.7656C29.7188 57.9619 29.6821 58.1494 29.6763 58.3281ZM34.7432 54.25V61H34.2202V54.25H34.7432ZM37.7271 56.2451L35.5034 58.4512L34.5586 59.3652L34.4795 58.8511L35.2397 58.0293L37.0635 56.2451H37.7271ZM37.27 61L35.2837 58.5303L35.5737 58.0776L37.9028 61H37.27ZM42.2402 60.5254L43.7212 56.2451H44.2881L42.2754 61.7646C42.2344 61.873 42.1816 61.9932 42.1172 62.125C42.0557 62.2568 41.9736 62.3828 41.8711 62.5029C41.7715 62.626 41.6455 62.7256 41.4932 62.8018C41.3438 62.8809 41.1606 62.9204 40.9438 62.9204C40.8882 62.9204 40.8164 62.9131 40.7285 62.8984C40.6436 62.8867 40.582 62.875 40.5439 62.8633L40.5396 62.4194C40.5718 62.4282 40.6187 62.4355 40.6802 62.4414C40.7417 62.4473 40.7842 62.4502 40.8076 62.4502C40.998 62.4502 41.1577 62.418 41.2866 62.3535C41.4185 62.2891 41.5283 62.1924 41.6162 62.0635C41.7041 61.9375 41.7817 61.7793 41.8491 61.5889L42.2402 60.5254ZM40.856 56.2451L42.3721 60.3276L42.5127 60.877L42.1304 61.0923L40.2847 56.2451H40.856ZM44.7495 58.6973V58.5522C44.7495 58.2065 44.7993 57.8872 44.8989 57.5942C44.9985 57.3013 45.1406 57.0479 45.3252 56.834C45.5127 56.6201 45.7368 56.4546 45.9976 56.3374C46.2583 56.2173 46.5483 56.1572 46.8677 56.1572C47.1899 56.1572 47.4814 56.2173 47.7422 56.3374C48.0029 56.4546 48.2271 56.6201 48.4146 56.834C48.6021 57.0479 48.7456 57.3013 48.8452 57.5942C48.9448 57.8872 48.9946 58.2065 48.9946 58.5522V58.6973C48.9946 59.043 48.9448 59.3623 48.8452 59.6553C48.7456 59.9453 48.6021 60.1973 48.4146 60.4111C48.23 60.625 48.0073 60.792 47.7466 60.9121C47.4858 61.0293 47.1958 61.0879 46.8765 61.0879C46.5542 61.0879 46.2627 61.0293 46.002 60.9121C45.7412 60.792 45.5171 60.625 45.3296 60.4111C45.1421 60.1973 44.9985 59.9453 44.8989 59.6553C44.7993 59.3623 44.7495 59.043 44.7495 58.6973ZM45.2725 58.5522V58.6973C45.2725 58.958 45.3076 59.2056 45.3779 59.4399C45.4482 59.6714 45.5508 59.8779 45.6855 60.0596C45.8203 60.2383 45.9873 60.3789 46.1865 60.4814C46.3857 60.584 46.6157 60.6353 46.8765 60.6353C47.1343 60.6353 47.3613 60.584 47.5576 60.4814C47.7568 60.3789 47.9238 60.2383 48.0586 60.0596C48.1934 59.8779 48.2944 59.6714 48.3618 59.4399C48.4321 59.2056 48.4673 58.958 48.4673 58.6973V58.5522C48.4673 58.2944 48.4321 58.0498 48.3618 57.8184C48.2944 57.5869 48.1919 57.3804 48.0542 57.1987C47.9194 57.0171 47.7524 56.8735 47.5532 56.7681C47.354 56.6626 47.1255 56.6099 46.8677 56.6099C46.6099 56.6099 46.3813 56.6626 46.1821 56.7681C45.9858 56.8735 45.8188 57.0171 45.6812 57.1987C45.5464 57.3804 45.4438 57.5869 45.3735 57.8184C45.3062 58.0498 45.2725 58.2944 45.2725 58.5522ZM53.1299 59.9014V56.2451H53.6572V61H53.1519L53.1299 59.9014ZM53.2266 59.0225L53.499 59.0137C53.499 59.3125 53.4639 59.5879 53.3936 59.8398C53.3232 60.0918 53.2134 60.3115 53.064 60.499C52.9146 60.6865 52.7212 60.8315 52.4839 60.9341C52.2466 61.0366 51.9609 61.0879 51.627 61.0879C51.3955 61.0879 51.1831 61.0557 50.9897 60.9912C50.7993 60.9238 50.6353 60.8184 50.4976 60.6748C50.3599 60.5312 50.2529 60.3452 50.1768 60.1167C50.1035 59.8882 50.0669 59.6113 50.0669 59.2861V56.2451H50.5898V59.2949C50.5898 59.5498 50.6177 59.7622 50.6733 59.9321C50.7319 60.1021 50.811 60.2383 50.9106 60.3408C51.0132 60.4434 51.1304 60.5166 51.2622 60.5605C51.394 60.6045 51.5361 60.6265 51.6885 60.6265C52.0752 60.6265 52.3799 60.5518 52.6025 60.4023C52.8281 60.2529 52.9878 60.0566 53.0815 59.8135C53.1782 59.5674 53.2266 59.3037 53.2266 59.0225ZM55.5557 57.0317V61H55.0327V56.2451H55.5425L55.5557 57.0317ZM57.2388 56.21L57.2256 56.6934C57.167 56.6846 57.1099 56.6772 57.0542 56.6714C56.9985 56.6655 56.9385 56.6626 56.874 56.6626C56.6455 56.6626 56.4448 56.7051 56.272 56.79C56.1021 56.8721 55.9585 56.9878 55.8413 57.1372C55.7241 57.2837 55.6348 57.4565 55.5732 57.6558C55.5117 57.8521 55.4766 58.063 55.4678 58.2886L55.2744 58.3633C55.2744 58.0527 55.3066 57.7642 55.3711 57.4976C55.4355 57.231 55.5337 56.998 55.6655 56.7988C55.8003 56.5967 55.9688 56.4399 56.1709 56.3286C56.376 56.2144 56.6162 56.1572 56.8916 56.1572C56.959 56.1572 57.0249 56.1631 57.0894 56.1748C57.1567 56.1836 57.2065 56.1953 57.2388 56.21ZM63.3516 60.0771V54.25H63.8789V61H63.3867L63.3516 60.0771ZM60.0513 58.6709V58.5786C60.0513 58.2095 60.0938 57.877 60.1787 57.5811C60.2637 57.2822 60.3853 57.0273 60.5435 56.8164C60.7046 56.6025 60.8979 56.4399 61.1235 56.3286C61.3491 56.2144 61.604 56.1572 61.8882 56.1572C62.1665 56.1572 62.4126 56.2026 62.6265 56.2935C62.8403 56.3843 63.0234 56.5146 63.1758 56.6846C63.3311 56.8545 63.4556 57.0566 63.5493 57.291C63.646 57.5254 63.7163 57.7861 63.7603 58.0732V59.2466C63.7251 59.5161 63.6606 59.7637 63.5669 59.9893C63.4731 60.2119 63.3486 60.4067 63.1934 60.5737C63.0381 60.7378 62.8506 60.8652 62.6309 60.9561C62.4141 61.0439 62.1636 61.0879 61.8794 61.0879C61.5981 61.0879 61.3447 61.0293 61.1191 60.9121C60.8936 60.7949 60.7017 60.6294 60.5435 60.4155C60.3853 60.1987 60.2637 59.9424 60.1787 59.6465C60.0938 59.3506 60.0513 59.0254 60.0513 58.6709ZM60.5786 58.5786V58.6709C60.5786 58.9492 60.6064 59.207 60.6621 59.4443C60.7178 59.6816 60.8027 59.8882 60.917 60.064C61.0312 60.2397 61.1763 60.3774 61.3521 60.4771C61.5278 60.5767 61.7358 60.6265 61.9761 60.6265C62.2778 60.6265 62.5312 60.5693 62.7363 60.4551C62.9414 60.3379 63.1055 60.1841 63.2285 59.9937C63.3516 59.8003 63.4409 59.5894 63.4966 59.3608V57.9941C63.4614 57.8389 63.4102 57.6807 63.3428 57.5195C63.2754 57.3584 63.1831 57.2104 63.0659 57.0757C62.9517 56.938 62.8052 56.8281 62.6265 56.7461C62.4507 56.6611 62.2368 56.6187 61.9849 56.6187C61.7417 56.6187 61.5322 56.6685 61.3564 56.7681C61.1807 56.8677 61.0342 57.0068 60.917 57.1855C60.8027 57.3613 60.7178 57.5679 60.6621 57.8052C60.6064 58.0425 60.5786 58.3003 60.5786 58.5786ZM64.9731 58.6973V58.5522C64.9731 58.2065 65.0229 57.8872 65.1226 57.5942C65.2222 57.3013 65.3643 57.0479 65.5488 56.834C65.7363 56.6201 65.9604 56.4546 66.2212 56.3374C66.4819 56.2173 66.772 56.1572 67.0913 56.1572C67.4136 56.1572 67.7051 56.2173 67.9658 56.3374C68.2266 56.4546 68.4507 56.6201 68.6382 56.834C68.8257 57.0479 68.9692 57.3013 69.0688 57.5942C69.1685 57.8872 69.2183 58.2065 69.2183 58.5522V58.6973C69.2183 59.043 69.1685 59.3623 69.0688 59.6553C68.9692 59.9453 68.8257 60.1973 68.6382 60.4111C68.4536 60.625 68.231 60.792 67.9702 60.9121C67.7095 61.0293 67.4194 61.0879 67.1001 61.0879C66.7778 61.0879 66.4863 61.0293 66.2256 60.9121C65.9648 60.792 65.7407 60.625 65.5532 60.4111C65.3657 60.1973 65.2222 59.9453 65.1226 59.6553C65.0229 59.3623 64.9731 59.043 64.9731 58.6973ZM65.4961 58.5522V58.6973C65.4961 58.958 65.5312 59.2056 65.6016 59.4399C65.6719 59.6714 65.7744 59.8779 65.9092 60.0596C66.0439 60.2383 66.2109 60.3789 66.4102 60.4814C66.6094 60.584 66.8394 60.6353 67.1001 60.6353C67.3579 60.6353 67.585 60.584 67.7812 60.4814C67.9805 60.3789 68.1475 60.2383 68.2822 60.0596C68.417 59.8779 68.5181 59.6714 68.5854 59.4399C68.6558 59.2056 68.6909 58.958 68.6909 58.6973V58.5522C68.6909 58.2944 68.6558 58.0498 68.5854 57.8184C68.5181 57.5869 68.4155 57.3804 68.2778 57.1987C68.1431 57.0171 67.9761 56.8735 67.7769 56.7681C67.5776 56.6626 67.3491 56.6099 67.0913 56.6099C66.8335 56.6099 66.605 56.6626 66.4058 56.7681C66.2095 56.8735 66.0425 57.0171 65.9048 57.1987C65.77 57.3804 65.6675 57.5869 65.5972 57.8184C65.5298 58.0498 65.4961 58.2944 65.4961 58.5522ZM72.0615 60.6353C72.2842 60.6353 72.4922 60.5942 72.6855 60.5122C72.8818 60.4272 73.043 60.3027 73.1689 60.1387C73.2979 59.9717 73.3711 59.7681 73.3887 59.5278H73.8896C73.875 59.8296 73.7827 60.0991 73.6128 60.3364C73.4458 60.5708 73.2261 60.7554 72.9536 60.8901C72.6841 61.022 72.3867 61.0879 72.0615 61.0879C71.7305 61.0879 71.4375 61.0278 71.1826 60.9077C70.9307 60.7876 70.7197 60.6206 70.5498 60.4067C70.3799 60.1899 70.251 59.938 70.1631 59.6509C70.0781 59.3608 70.0356 59.0488 70.0356 58.7148V58.5303C70.0356 58.1963 70.0781 57.8857 70.1631 57.5986C70.251 57.3086 70.3799 57.0566 70.5498 56.8428C70.7197 56.626 70.9307 56.4575 71.1826 56.3374C71.4346 56.2173 71.7261 56.1572 72.0571 56.1572C72.397 56.1572 72.7017 56.2261 72.9712 56.3638C73.2437 56.5015 73.4604 56.6963 73.6216 56.9482C73.7856 57.2002 73.875 57.499 73.8896 57.8447H73.3887C73.374 57.5898 73.3066 57.3701 73.1865 57.1855C73.0664 57.001 72.9082 56.8589 72.7119 56.7593C72.5156 56.6597 72.2974 56.6099 72.0571 56.6099C71.7876 56.6099 71.5576 56.6626 71.3672 56.7681C71.1768 56.8706 71.0215 57.0127 70.9014 57.1943C70.7842 57.373 70.6978 57.5781 70.6421 57.8096C70.5864 58.0381 70.5586 58.2783 70.5586 58.5303V58.7148C70.5586 58.9697 70.585 59.2129 70.6377 59.4443C70.6934 59.6729 70.7798 59.8765 70.897 60.0552C71.0171 60.2339 71.1724 60.376 71.3628 60.4814C71.5562 60.584 71.7891 60.6353 72.0615 60.6353ZM77.9941 59.9014V56.2451H78.5215V61H78.0161L77.9941 59.9014ZM78.0908 59.0225L78.3633 59.0137C78.3633 59.3125 78.3281 59.5879 78.2578 59.8398C78.1875 60.0918 78.0776 60.3115 77.9282 60.499C77.7788 60.6865 77.5854 60.8315 77.3481 60.9341C77.1108 61.0366 76.8252 61.0879 76.4912 61.0879C76.2598 61.0879 76.0474 61.0557 75.854 60.9912C75.6636 60.9238 75.4995 60.8184 75.3618 60.6748C75.2241 60.5312 75.1172 60.3452 75.041 60.1167C74.9678 59.8882 74.9312 59.6113 74.9312 59.2861V56.2451H75.4541V59.2949C75.4541 59.5498 75.4819 59.7622 75.5376 59.9321C75.5962 60.1021 75.6753 60.2383 75.7749 60.3408C75.8774 60.4434 75.9946 60.5166 76.1265 60.5605C76.2583 60.6045 76.4004 60.6265 76.5527 60.6265C76.9395 60.6265 77.2441 60.5518 77.4668 60.4023C77.6924 60.2529 77.8521 60.0566 77.9458 59.8135C78.0425 59.5674 78.0908 59.3037 78.0908 59.0225ZM80.3936 57.2295V61H79.8662V56.2451H80.3716L80.3936 57.2295ZM80.2969 58.3281L80.042 58.1963C80.0596 57.915 80.1123 57.6514 80.2002 57.4053C80.291 57.1592 80.417 56.9424 80.5781 56.7549C80.7393 56.5674 80.9326 56.4209 81.1582 56.3154C81.3838 56.21 81.6401 56.1572 81.9272 56.1572C82.1587 56.1572 82.3682 56.1895 82.5557 56.2539C82.7461 56.3154 82.9072 56.4136 83.0391 56.5483C83.1738 56.6802 83.2778 56.853 83.3511 57.0669C83.4243 57.2808 83.4609 57.5371 83.4609 57.8359V61H82.938V57.8535C82.938 57.5371 82.8882 57.2896 82.7886 57.1108C82.6919 56.9321 82.5557 56.8047 82.3799 56.7285C82.207 56.6523 82.0063 56.6143 81.7778 56.6143C81.5083 56.6143 81.2798 56.6699 81.0923 56.7812C80.9077 56.8896 80.7568 57.0317 80.6396 57.2075C80.5254 57.3804 80.4404 57.5664 80.3848 57.7656C80.3291 57.9619 80.2998 58.1494 80.2969 58.3281ZM83.4565 57.915L83.105 57.9238C83.1196 57.6924 83.1724 57.4712 83.2632 57.2603C83.3569 57.0493 83.4844 56.8618 83.6455 56.6978C83.8066 56.5308 83.9985 56.3989 84.2212 56.3022C84.4468 56.2056 84.7002 56.1572 84.9814 56.1572C85.2275 56.1572 85.4473 56.1909 85.6406 56.2583C85.834 56.3228 85.9966 56.4268 86.1284 56.5703C86.2632 56.7109 86.3657 56.8911 86.436 57.1108C86.5063 57.3306 86.5415 57.5942 86.5415 57.9019V61H86.0142V57.8975C86.0142 57.5605 85.9644 57.2998 85.8647 57.1152C85.7681 56.9277 85.6333 56.7974 85.4604 56.7241C85.2876 56.6509 85.0854 56.6143 84.854 56.6143C84.6255 56.6172 84.4248 56.6597 84.252 56.7417C84.0791 56.8208 83.9341 56.9263 83.8169 57.0581C83.7026 57.187 83.6147 57.3262 83.5532 57.4756C83.4946 57.625 83.4624 57.7715 83.4565 57.915ZM89.7144 61.0879C89.4038 61.0879 89.1182 61.0308 88.8574 60.9165C88.5996 60.8022 88.374 60.6411 88.1807 60.4331C87.9902 60.2251 87.8423 59.979 87.7368 59.6948C87.6343 59.4077 87.583 59.0942 87.583 58.7544V58.5654C87.583 58.1992 87.6372 57.8682 87.7456 57.5723C87.854 57.2764 88.0034 57.0229 88.1938 56.812C88.3843 56.6011 88.6011 56.4399 88.8442 56.3286C89.0903 56.2144 89.3481 56.1572 89.6177 56.1572C89.9194 56.1572 90.1875 56.2114 90.4219 56.3198C90.6562 56.4253 90.8525 56.5762 91.0107 56.7725C91.1719 56.9658 91.2935 57.1958 91.3755 57.4624C91.4575 57.7261 91.4985 58.0176 91.4985 58.3369V58.6577H87.8994V58.2095H90.9756V58.1479C90.9697 57.8813 90.9155 57.6323 90.813 57.4009C90.7134 57.1665 90.564 56.9761 90.3647 56.8296C90.1655 56.6831 89.9165 56.6099 89.6177 56.6099C89.395 56.6099 89.1899 56.6567 89.0024 56.7505C88.8179 56.8442 88.6582 56.979 88.5234 57.1548C88.3916 57.3276 88.2891 57.5342 88.2158 57.7744C88.1455 58.0117 88.1104 58.2754 88.1104 58.5654V58.7544C88.1104 59.0181 88.1484 59.2642 88.2246 59.4927C88.3037 59.7183 88.415 59.9175 88.5586 60.0903C88.7051 60.2632 88.8779 60.3979 89.0771 60.4946C89.2764 60.5913 89.4961 60.6396 89.7363 60.6396C90.0176 60.6396 90.2666 60.5884 90.4834 60.4858C90.7002 60.3804 90.895 60.2148 91.0679 59.9893L91.3975 60.2441C91.2949 60.3965 91.166 60.5371 91.0107 60.666C90.8584 60.7949 90.6753 60.8975 90.4614 60.9736C90.2476 61.0498 89.9985 61.0879 89.7144 61.0879ZM93.0586 57.2603V61H92.5356V56.2451H93.0366L93.0586 57.2603ZM92.9399 58.3281L92.707 58.1963C92.7246 57.915 92.7817 57.6514 92.8784 57.4053C92.9751 57.1592 93.1055 56.9424 93.2695 56.7549C93.4365 56.5674 93.6313 56.4209 93.854 56.3154C94.0796 56.21 94.3286 56.1572 94.6011 56.1572C94.8384 56.1572 95.0508 56.1895 95.2383 56.2539C95.4258 56.3184 95.5854 56.4209 95.7173 56.5615C95.8491 56.7021 95.9487 56.8823 96.0161 57.1021C96.0864 57.3218 96.1216 57.5898 96.1216 57.9062V61H95.5942V57.9019C95.5942 57.5737 95.5488 57.3174 95.458 57.1328C95.3672 56.9453 95.2383 56.812 95.0713 56.7329C94.9043 56.6538 94.7065 56.6143 94.478 56.6143C94.2261 56.6143 94.0049 56.6699 93.8145 56.7812C93.627 56.8896 93.4688 57.0317 93.3398 57.2075C93.2139 57.3804 93.1172 57.5664 93.0498 57.7656C92.9824 57.9619 92.9458 58.1494 92.9399 58.3281ZM99.2812 56.2451V56.6758H96.8994V56.2451H99.2812ZM97.7739 55.0234H98.2969V59.8442C98.2969 60.064 98.3262 60.2295 98.3848 60.3408C98.4434 60.4521 98.5195 60.5269 98.6133 60.5649C98.707 60.603 98.8081 60.6221 98.9165 60.6221C98.9956 60.6221 99.0718 60.6177 99.145 60.6089C99.2183 60.5972 99.2842 60.5854 99.3428 60.5737L99.3647 61.0176C99.3003 61.0381 99.2168 61.0542 99.1143 61.0659C99.0117 61.0806 98.9092 61.0879 98.8066 61.0879C98.6045 61.0879 98.4258 61.0513 98.2705 60.978C98.1152 60.9019 97.9937 60.7729 97.9058 60.5913C97.8179 60.4067 97.7739 60.1562 97.7739 59.8398V55.0234ZM103.232 59.7871C103.232 59.6582 103.2 59.5308 103.135 59.4048C103.071 59.2788 102.946 59.1631 102.762 59.0576C102.58 58.9521 102.312 58.8628 101.958 58.7896C101.694 58.731 101.458 58.665 101.25 58.5918C101.045 58.5186 100.872 58.4307 100.731 58.3281C100.591 58.2256 100.484 58.1025 100.411 57.959C100.337 57.8154 100.301 57.6455 100.301 57.4492C100.301 57.2734 100.339 57.1079 100.415 56.9526C100.494 56.7944 100.605 56.6567 100.749 56.5396C100.896 56.4194 101.071 56.3257 101.276 56.2583C101.484 56.1909 101.717 56.1572 101.975 56.1572C102.341 56.1572 102.655 56.2202 102.916 56.3462C103.179 56.4692 103.38 56.6377 103.518 56.8516C103.658 57.0654 103.729 57.3071 103.729 57.5767H103.206C103.206 57.4126 103.157 57.2573 103.061 57.1108C102.967 56.9644 102.828 56.8442 102.643 56.7505C102.461 56.6567 102.239 56.6099 101.975 56.6099C101.703 56.6099 101.481 56.6509 101.312 56.7329C101.142 56.8149 101.017 56.9189 100.938 57.0449C100.862 57.1709 100.824 57.3013 100.824 57.436C100.824 57.5415 100.84 57.6382 100.872 57.7261C100.907 57.811 100.969 57.8901 101.057 57.9634C101.147 58.0366 101.276 58.1055 101.443 58.1699C101.61 58.2344 101.827 58.2974 102.094 58.3589C102.478 58.4438 102.791 58.5479 103.034 58.6709C103.28 58.791 103.462 58.9404 103.579 59.1191C103.696 59.2949 103.755 59.5088 103.755 59.7607C103.755 59.957 103.714 60.1372 103.632 60.3013C103.55 60.4624 103.431 60.6016 103.276 60.7188C103.124 60.8359 102.939 60.9268 102.722 60.9912C102.508 61.0557 102.268 61.0879 102.001 61.0879C101.6 61.0879 101.26 61.022 100.982 60.8901C100.707 60.7554 100.497 60.5796 100.354 60.3628C100.213 60.1431 100.143 59.9102 100.143 59.6641H100.666C100.683 59.9102 100.761 60.105 100.898 60.2485C101.036 60.3892 101.205 60.4888 101.404 60.5474C101.606 60.606 101.805 60.6353 102.001 60.6353C102.271 60.6353 102.497 60.5957 102.678 60.5166C102.86 60.4375 102.998 60.3335 103.091 60.2046C103.185 60.0757 103.232 59.9365 103.232 59.7871ZM108.94 56.2451V56.6758H106.559V56.2451H108.94ZM107.433 55.0234H107.956V59.8442C107.956 60.064 107.985 60.2295 108.044 60.3408C108.103 60.4521 108.179 60.5269 108.272 60.5649C108.366 60.603 108.467 60.6221 108.576 60.6221C108.655 60.6221 108.731 60.6177 108.804 60.6089C108.877 60.5972 108.943 60.5854 109.002 60.5737L109.024 61.0176C108.959 61.0381 108.876 61.0542 108.773 61.0659C108.671 61.0806 108.568 61.0879 108.466 61.0879C108.264 61.0879 108.085 61.0513 107.93 60.978C107.774 60.9019 107.653 60.7729 107.565 60.5913C107.477 60.4067 107.433 60.1562 107.433 59.8398V55.0234ZM111.88 61.0879C111.57 61.0879 111.284 61.0308 111.023 60.9165C110.766 60.8022 110.54 60.6411 110.347 60.4331C110.156 60.2251 110.008 59.979 109.903 59.6948C109.8 59.4077 109.749 59.0942 109.749 58.7544V58.5654C109.749 58.1992 109.803 57.8682 109.912 57.5723C110.02 57.2764 110.169 57.0229 110.36 56.812C110.55 56.6011 110.767 56.4399 111.01 56.3286C111.256 56.2144 111.514 56.1572 111.784 56.1572C112.085 56.1572 112.354 56.2114 112.588 56.3198C112.822 56.4253 113.019 56.5762 113.177 56.7725C113.338 56.9658 113.459 57.1958 113.542 57.4624C113.624 57.7261 113.665 58.0176 113.665 58.3369V58.6577H110.065V58.2095H113.142V58.1479C113.136 57.8813 113.082 57.6323 112.979 57.4009C112.879 57.1665 112.73 56.9761 112.531 56.8296C112.332 56.6831 112.083 56.6099 111.784 56.6099C111.561 56.6099 111.356 56.6567 111.168 56.7505C110.984 56.8442 110.824 56.979 110.689 57.1548C110.558 57.3276 110.455 57.5342 110.382 57.7744C110.312 58.0117 110.276 58.2754 110.276 58.5654V58.7544C110.276 59.0181 110.314 59.2642 110.391 59.4927C110.47 59.7183 110.581 59.9175 110.725 60.0903C110.871 60.2632 111.044 60.3979 111.243 60.4946C111.442 60.5913 111.662 60.6396 111.902 60.6396C112.184 60.6396 112.433 60.5884 112.649 60.4858C112.866 60.3804 113.061 60.2148 113.234 59.9893L113.563 60.2441C113.461 60.3965 113.332 60.5371 113.177 60.666C113.024 60.7949 112.841 60.8975 112.627 60.9736C112.414 61.0498 112.165 61.0879 111.88 61.0879ZM114.908 56.2451L116.191 58.1655L117.479 56.2451H118.103L116.49 58.5742L118.169 61H117.554L116.196 58.9917L114.842 61H114.227L115.906 58.5742L114.293 56.2451H114.908ZM120.885 56.2451V56.6758H118.503V56.2451H120.885ZM119.377 55.0234H119.9V59.8442C119.9 60.064 119.93 60.2295 119.988 60.3408C120.047 60.4521 120.123 60.5269 120.217 60.5649C120.311 60.603 120.412 60.6221 120.52 60.6221C120.599 60.6221 120.675 60.6177 120.749 60.6089C120.822 60.5972 120.888 60.5854 120.946 60.5737L120.968 61.0176C120.904 61.0381 120.82 61.0542 120.718 61.0659C120.615 61.0806 120.513 61.0879 120.41 61.0879C120.208 61.0879 120.029 61.0513 119.874 60.978C119.719 60.9019 119.597 60.7729 119.509 60.5913C119.421 60.4067 119.377 60.1562 119.377 59.8398V55.0234ZM125.086 61H124.563V55.6562C124.563 55.3311 124.619 55.0571 124.73 54.8345C124.844 54.6118 125.005 54.4434 125.213 54.3291C125.424 54.2148 125.675 54.1577 125.965 54.1577C126.056 54.1577 126.149 54.1636 126.246 54.1753C126.343 54.1841 126.437 54.2031 126.527 54.2324L126.488 54.6763C126.415 54.6558 126.34 54.6426 126.264 54.6367C126.19 54.6279 126.104 54.6235 126.004 54.6235C125.814 54.6235 125.65 54.6646 125.512 54.7466C125.375 54.8257 125.269 54.9414 125.196 55.0938C125.123 55.2461 125.086 55.4336 125.086 55.6562V61ZM126.22 56.2451V56.6758H123.776V56.2451H126.22ZM126.875 58.6973V58.5522C126.875 58.2065 126.924 57.8872 127.024 57.5942C127.124 57.3013 127.266 57.0479 127.45 56.834C127.638 56.6201 127.862 56.4546 128.123 56.3374C128.383 56.2173 128.673 56.1572 128.993 56.1572C129.315 56.1572 129.606 56.2173 129.867 56.3374C130.128 56.4546 130.352 56.6201 130.54 56.834C130.727 57.0479 130.871 57.3013 130.97 57.5942C131.07 57.8872 131.12 58.2065 131.12 58.5522V58.6973C131.12 59.043 131.07 59.3623 130.97 59.6553C130.871 59.9453 130.727 60.1973 130.54 60.4111C130.355 60.625 130.132 60.792 129.872 60.9121C129.611 61.0293 129.321 61.0879 129.001 61.0879C128.679 61.0879 128.388 61.0293 128.127 60.9121C127.866 60.792 127.642 60.625 127.455 60.4111C127.267 60.1973 127.124 59.9453 127.024 59.6553C126.924 59.3623 126.875 59.043 126.875 58.6973ZM127.397 58.5522V58.6973C127.397 58.958 127.433 59.2056 127.503 59.4399C127.573 59.6714 127.676 59.8779 127.811 60.0596C127.945 60.2383 128.112 60.3789 128.312 60.4814C128.511 60.584 128.741 60.6353 129.001 60.6353C129.259 60.6353 129.486 60.584 129.683 60.4814C129.882 60.3789 130.049 60.2383 130.184 60.0596C130.318 59.8779 130.419 59.6714 130.487 59.4399C130.557 59.2056 130.592 58.958 130.592 58.6973V58.5522C130.592 58.2944 130.557 58.0498 130.487 57.8184C130.419 57.5869 130.317 57.3804 130.179 57.1987C130.044 57.0171 129.877 56.8735 129.678 56.7681C129.479 56.6626 129.25 56.6099 128.993 56.6099C128.735 56.6099 128.506 56.6626 128.307 56.7681C128.111 56.8735 127.944 57.0171 127.806 57.1987C127.671 57.3804 127.569 57.5869 127.499 57.8184C127.431 58.0498 127.397 58.2944 127.397 58.5522ZM132.732 57.0317V61H132.209V56.2451H132.719L132.732 57.0317ZM134.416 56.21L134.402 56.6934C134.344 56.6846 134.287 56.6772 134.231 56.6714C134.175 56.6655 134.115 56.6626 134.051 56.6626C133.822 56.6626 133.622 56.7051 133.449 56.79C133.279 56.8721 133.135 56.9878 133.018 57.1372C132.901 57.2837 132.812 57.4565 132.75 57.6558C132.688 57.8521 132.653 58.063 132.645 58.2886L132.451 58.3633C132.451 58.0527 132.483 57.7642 132.548 57.4976C132.612 57.231 132.71 56.998 132.842 56.7988C132.977 56.5967 133.146 56.4399 133.348 56.3286C133.553 56.2144 133.793 56.1572 134.068 56.1572C134.136 56.1572 134.202 56.1631 134.266 56.1748C134.333 56.1836 134.383 56.1953 134.416 56.21ZM137.958 57.1592V62.8281H137.43V56.2451H137.922L137.958 57.1592ZM141.262 58.5786V58.6709C141.262 59.0254 141.221 59.3506 141.139 59.6465C141.057 59.9424 140.938 60.1987 140.783 60.4155C140.631 60.6294 140.442 60.7949 140.216 60.9121C139.991 61.0293 139.734 61.0879 139.447 61.0879C139.163 61.0879 138.91 61.0439 138.687 60.9561C138.464 60.8682 138.272 60.7437 138.111 60.5825C137.953 60.4185 137.826 60.228 137.729 60.0112C137.635 59.7915 137.569 59.5513 137.531 59.2905V58.0732C137.575 57.7861 137.647 57.5254 137.747 57.291C137.846 57.0566 137.974 56.8545 138.129 56.6846C138.287 56.5146 138.475 56.3843 138.691 56.2935C138.908 56.2026 139.156 56.1572 139.434 56.1572C139.724 56.1572 139.982 56.2144 140.208 56.3286C140.436 56.4399 140.628 56.6025 140.783 56.8164C140.941 57.0273 141.06 57.2822 141.139 57.5811C141.221 57.877 141.262 58.2095 141.262 58.5786ZM140.735 58.6709V58.5786C140.735 58.3003 140.706 58.0425 140.647 57.8052C140.591 57.5679 140.505 57.3613 140.388 57.1855C140.273 57.0068 140.127 56.8677 139.948 56.7681C139.772 56.6685 139.563 56.6187 139.32 56.6187C139.068 56.6187 138.853 56.6611 138.674 56.7461C138.498 56.8281 138.352 56.938 138.234 57.0757C138.117 57.2104 138.025 57.3584 137.958 57.5195C137.89 57.6807 137.84 57.8389 137.808 57.9941V59.396C137.864 59.6187 137.953 59.8252 138.076 60.0156C138.199 60.2031 138.363 60.354 138.568 60.4683C138.776 60.5796 139.03 60.6353 139.329 60.6353C139.569 60.6353 139.777 60.5854 139.953 60.4858C140.128 60.3862 140.273 60.2471 140.388 60.0684C140.505 59.8896 140.591 59.6816 140.647 59.4443C140.706 59.207 140.735 58.9492 140.735 58.6709ZM142.954 57.0317V61H142.431V56.2451H142.941L142.954 57.0317ZM144.637 56.21L144.624 56.6934C144.565 56.6846 144.508 56.6772 144.453 56.6714C144.397 56.6655 144.337 56.6626 144.272 56.6626C144.044 56.6626 143.843 56.7051 143.67 56.79C143.5 56.8721 143.357 56.9878 143.24 57.1372C143.123 57.2837 143.033 57.4565 142.972 57.6558C142.91 57.8521 142.875 58.063 142.866 58.2886L142.673 58.3633C142.673 58.0527 142.705 57.7642 142.77 57.4976C142.834 57.231 142.932 56.998 143.064 56.7988C143.199 56.5967 143.367 56.4399 143.569 56.3286C143.774 56.2144 144.015 56.1572 144.29 56.1572C144.357 56.1572 144.423 56.1631 144.488 56.1748C144.555 56.1836 144.605 56.1953 144.637 56.21ZM145.085 58.6973V58.5522C145.085 58.2065 145.135 57.8872 145.235 57.5942C145.334 57.3013 145.477 57.0479 145.661 56.834C145.849 56.6201 146.073 56.4546 146.333 56.3374C146.594 56.2173 146.884 56.1572 147.204 56.1572C147.526 56.1572 147.817 56.2173 148.078 56.3374C148.339 56.4546 148.563 56.6201 148.75 56.834C148.938 57.0479 149.082 57.3013 149.181 57.5942C149.281 57.8872 149.331 58.2065 149.331 58.5522V58.6973C149.331 59.043 149.281 59.3623 149.181 59.6553C149.082 59.9453 148.938 60.1973 148.75 60.4111C148.566 60.625 148.343 60.792 148.083 60.9121C147.822 61.0293 147.532 61.0879 147.212 61.0879C146.89 61.0879 146.599 61.0293 146.338 60.9121C146.077 60.792 145.853 60.625 145.666 60.4111C145.478 60.1973 145.334 59.9453 145.235 59.6553C145.135 59.3623 145.085 59.043 145.085 58.6973ZM145.608 58.5522V58.6973C145.608 58.958 145.644 59.2056 145.714 59.4399C145.784 59.6714 145.887 59.8779 146.021 60.0596C146.156 60.2383 146.323 60.3789 146.522 60.4814C146.722 60.584 146.952 60.6353 147.212 60.6353C147.47 60.6353 147.697 60.584 147.894 60.4814C148.093 60.3789 148.26 60.2383 148.395 60.0596C148.529 59.8779 148.63 59.6714 148.698 59.4399C148.768 59.2056 148.803 58.958 148.803 58.6973V58.5522C148.803 58.2944 148.768 58.0498 148.698 57.8184C148.63 57.5869 148.528 57.3804 148.39 57.1987C148.255 57.0171 148.088 56.8735 147.889 56.7681C147.69 56.6626 147.461 56.6099 147.204 56.6099C146.946 56.6099 146.717 56.6626 146.518 56.7681C146.322 56.8735 146.155 57.0171 146.017 57.1987C145.882 57.3804 145.78 57.5869 145.709 57.8184C145.642 58.0498 145.608 58.2944 145.608 58.5522ZM153.51 60.0771V54.25H154.037V61H153.545L153.51 60.0771ZM150.209 58.6709V58.5786C150.209 58.2095 150.252 57.877 150.337 57.5811C150.422 57.2822 150.543 57.0273 150.702 56.8164C150.863 56.6025 151.056 56.4399 151.282 56.3286C151.507 56.2144 151.762 56.1572 152.046 56.1572C152.325 56.1572 152.571 56.2026 152.785 56.2935C152.999 56.3843 153.182 56.5146 153.334 56.6846C153.489 56.8545 153.614 57.0566 153.708 57.291C153.804 57.5254 153.875 57.7861 153.918 58.0732V59.2466C153.883 59.5161 153.819 59.7637 153.725 59.9893C153.631 60.2119 153.507 60.4067 153.352 60.5737C153.196 60.7378 153.009 60.8652 152.789 60.9561C152.572 61.0439 152.322 61.0879 152.038 61.0879C151.756 61.0879 151.503 61.0293 151.277 60.9121C151.052 60.7949 150.86 60.6294 150.702 60.4155C150.543 60.1987 150.422 59.9424 150.337 59.6465C150.252 59.3506 150.209 59.0254 150.209 58.6709ZM150.737 58.5786V58.6709C150.737 58.9492 150.765 59.207 150.82 59.4443C150.876 59.6816 150.961 59.8882 151.075 60.064C151.189 60.2397 151.334 60.3774 151.51 60.4771C151.686 60.5767 151.894 60.6265 152.134 60.6265C152.436 60.6265 152.689 60.5693 152.895 60.4551C153.1 60.3379 153.264 60.1841 153.387 59.9937C153.51 59.8003 153.599 59.5894 153.655 59.3608V57.9941C153.62 57.8389 153.568 57.6807 153.501 57.5195C153.434 57.3584 153.341 57.2104 153.224 57.0757C153.11 56.938 152.963 56.8281 152.785 56.7461C152.609 56.6611 152.395 56.6187 152.143 56.6187C151.9 56.6187 151.69 56.6685 151.515 56.7681C151.339 56.8677 151.192 57.0068 151.075 57.1855C150.961 57.3613 150.876 57.5679 150.82 57.8052C150.765 58.0425 150.737 58.3003 150.737 58.5786ZM158.467 59.9014V56.2451H158.994V61H158.489L158.467 59.9014ZM158.563 59.0225L158.836 59.0137C158.836 59.3125 158.801 59.5879 158.73 59.8398C158.66 60.0918 158.55 60.3115 158.401 60.499C158.251 60.6865 158.058 60.8315 157.821 60.9341C157.583 61.0366 157.298 61.0879 156.964 61.0879C156.732 61.0879 156.52 61.0557 156.327 60.9912C156.136 60.9238 155.972 60.8184 155.834 60.6748C155.697 60.5312 155.59 60.3452 155.514 60.1167C155.44 59.8882 155.404 59.6113 155.404 59.2861V56.2451H155.927V59.2949C155.927 59.5498 155.955 59.7622 156.01 59.9321C156.069 60.1021 156.148 60.2383 156.248 60.3408C156.35 60.4434 156.467 60.5166 156.599 60.5605C156.731 60.6045 156.873 60.6265 157.025 60.6265C157.412 60.6265 157.717 60.5518 157.939 60.4023C158.165 60.2529 158.325 60.0566 158.418 59.8135C158.515 59.5674 158.563 59.3037 158.563 59.0225ZM162.123 60.6353C162.346 60.6353 162.554 60.5942 162.747 60.5122C162.943 60.4272 163.104 60.3027 163.23 60.1387C163.359 59.9717 163.433 59.7681 163.45 59.5278H163.951C163.937 59.8296 163.844 60.0991 163.674 60.3364C163.507 60.5708 163.288 60.7554 163.015 60.8901C162.746 61.022 162.448 61.0879 162.123 61.0879C161.792 61.0879 161.499 61.0278 161.244 60.9077C160.992 60.7876 160.781 60.6206 160.611 60.4067C160.441 60.1899 160.312 59.938 160.225 59.6509C160.14 59.3608 160.097 59.0488 160.097 58.7148V58.5303C160.097 58.1963 160.14 57.8857 160.225 57.5986C160.312 57.3086 160.441 57.0566 160.611 56.8428C160.781 56.626 160.992 56.4575 161.244 56.3374C161.496 56.2173 161.788 56.1572 162.119 56.1572C162.458 56.1572 162.763 56.2261 163.033 56.3638C163.305 56.5015 163.522 56.6963 163.683 56.9482C163.847 57.2002 163.937 57.499 163.951 57.8447H163.45C163.436 57.5898 163.368 57.3701 163.248 57.1855C163.128 57.001 162.97 56.8589 162.773 56.7593C162.577 56.6597 162.359 56.6099 162.119 56.6099C161.849 56.6099 161.619 56.6626 161.429 56.7681C161.238 56.8706 161.083 57.0127 160.963 57.1943C160.846 57.373 160.759 57.5781 160.704 57.8096C160.648 58.0381 160.62 58.2783 160.62 58.5303V58.7148C160.62 58.9697 160.646 59.2129 160.699 59.4443C160.755 59.6729 160.841 59.8765 160.958 60.0552C161.079 60.2339 161.234 60.376 161.424 60.4814C161.618 60.584 161.851 60.6353 162.123 60.6353ZM166.808 56.2451V56.6758H164.426V56.2451H166.808ZM165.3 55.0234H165.823V59.8442C165.823 60.064 165.853 60.2295 165.911 60.3408C165.97 60.4521 166.046 60.5269 166.14 60.5649C166.233 60.603 166.334 60.6221 166.443 60.6221C166.522 60.6221 166.598 60.6177 166.671 60.6089C166.745 60.5972 166.811 60.5854 166.869 60.5737L166.891 61.0176C166.827 61.0381 166.743 61.0542 166.641 61.0659C166.538 61.0806 166.436 61.0879 166.333 61.0879C166.131 61.0879 165.952 61.0513 165.797 60.978C165.642 60.9019 165.52 60.7729 165.432 60.5913C165.344 60.4067 165.3 60.1562 165.3 59.8398V55.0234ZM168.495 56.2451V61H167.972V56.2451H168.495ZM167.88 54.8696C167.88 54.77 167.911 54.6865 167.972 54.6191C168.037 54.5488 168.125 54.5137 168.236 54.5137C168.347 54.5137 168.435 54.5488 168.5 54.6191C168.567 54.6865 168.601 54.77 168.601 54.8696C168.601 54.9663 168.567 55.0498 168.5 55.1201C168.435 55.1875 168.347 55.2212 168.236 55.2212C168.125 55.2212 168.037 55.1875 167.972 55.1201C167.911 55.0498 167.88 54.9663 167.88 54.8696ZM169.642 58.6973V58.5522C169.642 58.2065 169.692 57.8872 169.792 57.5942C169.891 57.3013 170.033 57.0479 170.218 56.834C170.405 56.6201 170.629 56.4546 170.89 56.3374C171.151 56.2173 171.441 56.1572 171.76 56.1572C172.083 56.1572 172.374 56.2173 172.635 56.3374C172.896 56.4546 173.12 56.6201 173.307 56.834C173.495 57.0479 173.638 57.3013 173.738 57.5942C173.837 57.8872 173.887 58.2065 173.887 58.5522V58.6973C173.887 59.043 173.837 59.3623 173.738 59.6553C173.638 59.9453 173.495 60.1973 173.307 60.4111C173.123 60.625 172.9 60.792 172.639 60.9121C172.378 61.0293 172.088 61.0879 171.769 61.0879C171.447 61.0879 171.155 61.0293 170.895 60.9121C170.634 60.792 170.41 60.625 170.222 60.4111C170.035 60.1973 169.891 59.9453 169.792 59.6553C169.692 59.3623 169.642 59.043 169.642 58.6973ZM170.165 58.5522V58.6973C170.165 58.958 170.2 59.2056 170.271 59.4399C170.341 59.6714 170.443 59.8779 170.578 60.0596C170.713 60.2383 170.88 60.3789 171.079 60.4814C171.278 60.584 171.508 60.6353 171.769 60.6353C172.027 60.6353 172.254 60.584 172.45 60.4814C172.649 60.3789 172.816 60.2383 172.951 60.0596C173.086 59.8779 173.187 59.6714 173.254 59.4399C173.325 59.2056 173.36 58.958 173.36 58.6973V58.5522C173.36 58.2944 173.325 58.0498 173.254 57.8184C173.187 57.5869 173.084 57.3804 172.947 57.1987C172.812 57.0171 172.645 56.8735 172.446 56.7681C172.247 56.6626 172.018 56.6099 171.76 56.6099C171.502 56.6099 171.274 56.6626 171.075 56.7681C170.878 56.8735 170.711 57.0171 170.574 57.1987C170.439 57.3804 170.336 57.5869 170.266 57.8184C170.199 58.0498 170.165 58.2944 170.165 58.5522ZM175.5 57.2603V61H174.977V56.2451H175.478L175.5 57.2603ZM175.381 58.3281L175.148 58.1963C175.166 57.915 175.223 57.6514 175.32 57.4053C175.417 57.1592 175.547 56.9424 175.711 56.7549C175.878 56.5674 176.073 56.4209 176.295 56.3154C176.521 56.21 176.77 56.1572 177.042 56.1572C177.28 56.1572 177.492 56.1895 177.68 56.2539C177.867 56.3184 178.027 56.4209 178.159 56.5615C178.291 56.7021 178.39 56.8823 178.458 57.1021C178.528 57.3218 178.563 57.5898 178.563 57.9062V61H178.036V57.9019C178.036 57.5737 177.99 57.3174 177.899 57.1328C177.809 56.9453 177.68 56.812 177.513 56.7329C177.346 56.6538 177.148 56.6143 176.919 56.6143C176.667 56.6143 176.446 56.6699 176.256 56.7812C176.068 56.8896 175.91 57.0317 175.781 57.2075C175.655 57.3804 175.559 57.5664 175.491 57.7656C175.424 57.9619 175.387 58.1494 175.381 58.3281ZM181.56 57.9502V58.4028H179.455V57.9502H181.56ZM183.032 57.0317V61H182.509V56.2451H183.019L183.032 57.0317ZM184.715 56.21L184.702 56.6934C184.644 56.6846 184.586 56.6772 184.531 56.6714C184.475 56.6655 184.415 56.6626 184.351 56.6626C184.122 56.6626 183.921 56.7051 183.749 56.79C183.579 56.8721 183.435 56.9878 183.318 57.1372C183.201 57.2837 183.111 57.4565 183.05 57.6558C182.988 57.8521 182.953 58.063 182.944 58.2886L182.751 58.3633C182.751 58.0527 182.783 57.7642 182.848 57.4976C182.912 57.231 183.01 56.998 183.142 56.7988C183.277 56.5967 183.445 56.4399 183.647 56.3286C183.853 56.2144 184.093 56.1572 184.368 56.1572C184.436 56.1572 184.501 56.1631 184.566 56.1748C184.633 56.1836 184.683 56.1953 184.715 56.21ZM187.291 61.0879C186.98 61.0879 186.694 61.0308 186.434 60.9165C186.176 60.8022 185.95 60.6411 185.757 60.4331C185.566 60.2251 185.418 59.979 185.313 59.6948C185.21 59.4077 185.159 59.0942 185.159 58.7544V58.5654C185.159 58.1992 185.213 57.8682 185.322 57.5723C185.43 57.2764 185.58 57.0229 185.77 56.812C185.96 56.6011 186.177 56.4399 186.42 56.3286C186.667 56.2144 186.924 56.1572 187.194 56.1572C187.496 56.1572 187.764 56.2114 187.998 56.3198C188.232 56.4253 188.429 56.5762 188.587 56.7725C188.748 56.9658 188.87 57.1958 188.952 57.4624C189.034 57.7261 189.075 58.0176 189.075 58.3369V58.6577H185.476V58.2095H188.552V58.1479C188.546 57.8813 188.492 57.6323 188.389 57.4009C188.29 57.1665 188.14 56.9761 187.941 56.8296C187.742 56.6831 187.493 56.6099 187.194 56.6099C186.971 56.6099 186.766 56.6567 186.579 56.7505C186.394 56.8442 186.234 56.979 186.1 57.1548C185.968 57.3276 185.865 57.5342 185.792 57.7744C185.722 58.0117 185.687 58.2754 185.687 58.5654V58.7544C185.687 59.0181 185.725 59.2642 185.801 59.4927C185.88 59.7183 185.991 59.9175 186.135 60.0903C186.281 60.2632 186.454 60.3979 186.653 60.4946C186.853 60.5913 187.072 60.6396 187.312 60.6396C187.594 60.6396 187.843 60.5884 188.06 60.4858C188.276 60.3804 188.471 60.2148 188.644 59.9893L188.974 60.2441C188.871 60.3965 188.742 60.5371 188.587 60.666C188.435 60.7949 188.251 60.8975 188.038 60.9736C187.824 61.0498 187.575 61.0879 187.291 61.0879ZM193.003 60.1475V57.6953C193.003 57.4697 192.957 57.2749 192.863 57.1108C192.769 56.9468 192.631 56.8208 192.45 56.7329C192.268 56.645 192.044 56.6011 191.777 56.6011C191.531 56.6011 191.312 56.645 191.118 56.7329C190.928 56.8179 190.777 56.9336 190.666 57.0801C190.557 57.2236 190.503 57.3833 190.503 57.5591L189.976 57.5547C189.976 57.376 190.02 57.2031 190.107 57.0361C190.195 56.8691 190.32 56.7197 190.481 56.5879C190.642 56.4561 190.834 56.3521 191.057 56.2759C191.282 56.1968 191.53 56.1572 191.799 56.1572C192.139 56.1572 192.438 56.2144 192.696 56.3286C192.957 56.4429 193.16 56.6143 193.307 56.8428C193.453 57.0713 193.526 57.3584 193.526 57.7041V60.0024C193.526 60.1665 193.538 60.3364 193.562 60.5122C193.588 60.688 193.625 60.833 193.671 60.9473V61H193.113C193.078 60.8945 193.05 60.7627 193.03 60.6045C193.012 60.4434 193.003 60.291 193.003 60.1475ZM193.126 58.2314L193.135 58.6357H192.103C191.833 58.6357 191.591 58.6606 191.377 58.7104C191.167 58.7573 190.988 58.8276 190.841 58.9214C190.695 59.0122 190.582 59.1221 190.503 59.251C190.427 59.3799 190.389 59.5264 190.389 59.6904C190.389 59.8604 190.431 60.0156 190.516 60.1562C190.604 60.2969 190.727 60.4097 190.885 60.4946C191.046 60.5767 191.237 60.6177 191.457 60.6177C191.75 60.6177 192.007 60.5635 192.23 60.4551C192.456 60.3467 192.642 60.2046 192.788 60.0288C192.935 59.853 193.033 59.6611 193.083 59.4531L193.311 59.7563C193.273 59.9028 193.203 60.0537 193.1 60.209C193 60.3613 192.87 60.5049 192.709 60.6396C192.548 60.7715 192.357 60.8799 192.138 60.9648C191.921 61.0469 191.675 61.0879 191.399 61.0879C191.089 61.0879 190.818 61.0293 190.586 60.9121C190.358 60.7949 190.179 60.6353 190.05 60.4331C189.924 60.228 189.861 59.9966 189.861 59.7388C189.861 59.5044 189.911 59.2949 190.011 59.1104C190.11 58.9229 190.254 58.7646 190.441 58.6357C190.632 58.5039 190.86 58.4043 191.127 58.3369C191.396 58.2666 191.698 58.2314 192.032 58.2314H193.126ZM198.026 60.0771V54.25H198.554V61H198.062L198.026 60.0771ZM194.726 58.6709V58.5786C194.726 58.2095 194.769 57.877 194.854 57.5811C194.938 57.2822 195.06 57.0273 195.218 56.8164C195.379 56.6025 195.573 56.4399 195.798 56.3286C196.024 56.2144 196.279 56.1572 196.563 56.1572C196.841 56.1572 197.087 56.2026 197.301 56.2935C197.515 56.3843 197.698 56.5146 197.851 56.6846C198.006 56.8545 198.13 57.0566 198.224 57.291C198.321 57.5254 198.391 57.7861 198.435 58.0732V59.2466C198.4 59.5161 198.335 59.7637 198.242 59.9893C198.148 60.2119 198.023 60.4067 197.868 60.5737C197.713 60.7378 197.525 60.8652 197.306 60.9561C197.089 61.0439 196.838 61.0879 196.554 61.0879C196.273 61.0879 196.02 61.0293 195.794 60.9121C195.568 60.7949 195.376 60.6294 195.218 60.4155C195.06 60.1987 194.938 59.9424 194.854 59.6465C194.769 59.3506 194.726 59.0254 194.726 58.6709ZM195.253 58.5786V58.6709C195.253 58.9492 195.281 59.207 195.337 59.4443C195.393 59.6816 195.478 59.8882 195.592 60.064C195.706 60.2397 195.851 60.3774 196.027 60.4771C196.203 60.5767 196.411 60.6265 196.651 60.6265C196.953 60.6265 197.206 60.5693 197.411 60.4551C197.616 60.3379 197.78 60.1841 197.903 59.9937C198.026 59.8003 198.116 59.5894 198.171 59.3608V57.9941C198.136 57.8389 198.085 57.6807 198.018 57.5195C197.95 57.3584 197.858 57.2104 197.741 57.0757C197.626 56.938 197.48 56.8281 197.301 56.7461C197.125 56.6611 196.912 56.6187 196.66 56.6187C196.417 56.6187 196.207 56.6685 196.031 56.7681C195.855 56.8677 195.709 57.0068 195.592 57.1855C195.478 57.3613 195.393 57.5679 195.337 57.8052C195.281 58.0425 195.253 58.3003 195.253 58.5786ZM201.349 60.5254L202.83 56.2451H203.396L201.384 61.7646C201.343 61.873 201.29 61.9932 201.226 62.125C201.164 62.2568 201.082 62.3828 200.979 62.5029C200.88 62.626 200.754 62.7256 200.602 62.8018C200.452 62.8809 200.269 62.9204 200.052 62.9204C199.997 62.9204 199.925 62.9131 199.837 62.8984C199.752 62.8867 199.69 62.875 199.652 62.8633L199.648 62.4194C199.68 62.4282 199.727 62.4355 199.789 62.4414C199.85 62.4473 199.893 62.4502 199.916 62.4502C200.106 62.4502 200.266 62.418 200.395 62.3535C200.527 62.2891 200.637 62.1924 200.725 62.0635C200.812 61.9375 200.89 61.7793 200.958 61.5889L201.349 60.5254ZM199.964 56.2451L201.48 60.3276L201.621 60.877L201.239 61.0923L199.393 56.2451H199.964ZM210.239 60.5386V61H206.921V60.5386H210.239ZM207.079 54.6016V61H206.539V54.6016H207.079ZM214.985 60.5386V61H211.667V60.5386H214.985ZM211.825 54.6016V61H211.285V54.6016H211.825ZM216.198 54.6016H216.743L219.107 60.2354L221.476 54.6016H222.016L219.313 61H218.9L216.198 54.6016ZM216.031 54.6016H216.51L216.567 58.2051V61H216.031V54.6016ZM221.713 54.6016H222.192V61H221.651V58.2051L221.713 54.6016ZM228.784 60.1475V57.6953C228.784 57.4697 228.737 57.2749 228.643 57.1108C228.549 56.9468 228.412 56.8208 228.23 56.7329C228.048 56.645 227.824 56.6011 227.558 56.6011C227.312 56.6011 227.092 56.645 226.898 56.7329C226.708 56.8179 226.557 56.9336 226.446 57.0801C226.337 57.2236 226.283 57.3833 226.283 57.5591L225.756 57.5547C225.756 57.376 225.8 57.2031 225.888 57.0361C225.976 56.8691 226.1 56.7197 226.261 56.5879C226.422 56.4561 226.614 56.3521 226.837 56.2759C227.062 56.1968 227.31 56.1572 227.58 56.1572C227.919 56.1572 228.218 56.2144 228.476 56.3286C228.737 56.4429 228.94 56.6143 229.087 56.8428C229.233 57.0713 229.307 57.3584 229.307 57.7041V60.0024C229.307 60.1665 229.318 60.3364 229.342 60.5122C229.368 60.688 229.405 60.833 229.452 60.9473V61H228.894C228.858 60.8945 228.831 60.7627 228.81 60.6045C228.792 60.4434 228.784 60.291 228.784 60.1475ZM228.907 58.2314L228.916 58.6357H227.883C227.613 58.6357 227.372 58.6606 227.158 58.7104C226.947 58.7573 226.768 58.8276 226.622 58.9214C226.475 59.0122 226.362 59.1221 226.283 59.251C226.207 59.3799 226.169 59.5264 226.169 59.6904C226.169 59.8604 226.211 60.0156 226.296 60.1562C226.384 60.2969 226.507 60.4097 226.666 60.4946C226.827 60.5767 227.017 60.6177 227.237 60.6177C227.53 60.6177 227.788 60.5635 228.01 60.4551C228.236 60.3467 228.422 60.2046 228.568 60.0288C228.715 59.853 228.813 59.6611 228.863 59.4531L229.091 59.7563C229.053 59.9028 228.983 60.0537 228.88 60.209C228.781 60.3613 228.65 60.5049 228.489 60.6396C228.328 60.7715 228.138 60.8799 227.918 60.9648C227.701 61.0469 227.455 61.0879 227.18 61.0879C226.869 61.0879 226.598 61.0293 226.367 60.9121C226.138 60.7949 225.959 60.6353 225.831 60.4331C225.705 60.228 225.642 59.9966 225.642 59.7388C225.642 59.5044 225.691 59.2949 225.791 59.1104C225.891 58.9229 226.034 58.7646 226.222 58.6357C226.412 58.5039 226.641 58.4043 226.907 58.3369C227.177 58.2666 227.479 58.2314 227.812 58.2314H228.907ZM231.236 57.1592V62.8281H230.708V56.2451H231.201L231.236 57.1592ZM234.541 58.5786V58.6709C234.541 59.0254 234.5 59.3506 234.417 59.6465C234.335 59.9424 234.217 60.1987 234.062 60.4155C233.909 60.6294 233.72 60.7949 233.495 60.9121C233.269 61.0293 233.013 61.0879 232.726 61.0879C232.441 61.0879 232.188 61.0439 231.965 60.9561C231.743 60.8682 231.551 60.7437 231.39 60.5825C231.231 60.4185 231.104 60.228 231.007 60.0112C230.914 59.7915 230.848 59.5513 230.81 59.2905V58.0732C230.854 57.7861 230.925 57.5254 231.025 57.291C231.125 57.0566 231.252 56.8545 231.407 56.6846C231.565 56.5146 231.753 56.3843 231.97 56.2935C232.187 56.2026 232.434 56.1572 232.712 56.1572C233.002 56.1572 233.26 56.2144 233.486 56.3286C233.714 56.4399 233.906 56.6025 234.062 56.8164C234.22 57.0273 234.338 57.2822 234.417 57.5811C234.5 57.877 234.541 58.2095 234.541 58.5786ZM234.013 58.6709V58.5786C234.013 58.3003 233.984 58.0425 233.925 57.8052C233.87 57.5679 233.783 57.3613 233.666 57.1855C233.552 57.0068 233.405 56.8677 233.227 56.7681C233.051 56.6685 232.841 56.6187 232.598 56.6187C232.346 56.6187 232.131 56.6611 231.952 56.7461C231.776 56.8281 231.63 56.938 231.513 57.0757C231.396 57.2104 231.303 57.3584 231.236 57.5195C231.168 57.6807 231.119 57.8389 231.086 57.9941V59.396C231.142 59.6187 231.231 59.8252 231.354 60.0156C231.478 60.2031 231.642 60.354 231.847 60.4683C232.055 60.5796 232.308 60.6353 232.607 60.6353C232.847 60.6353 233.055 60.5854 233.231 60.4858C233.407 60.3862 233.552 60.2471 233.666 60.0684C233.783 59.8896 233.87 59.6816 233.925 59.4443C233.984 59.207 234.013 58.9492 234.013 58.6709ZM236.228 57.1592V62.8281H235.701V56.2451H236.193L236.228 57.1592ZM239.533 58.5786V58.6709C239.533 59.0254 239.492 59.3506 239.41 59.6465C239.328 59.9424 239.209 60.1987 239.054 60.4155C238.901 60.6294 238.712 60.7949 238.487 60.9121C238.261 61.0293 238.005 61.0879 237.718 61.0879C237.434 61.0879 237.18 61.0439 236.958 60.9561C236.735 60.8682 236.543 60.7437 236.382 60.5825C236.224 60.4185 236.096 60.228 236 60.0112C235.906 59.7915 235.84 59.5513 235.802 59.2905V58.0732C235.846 57.7861 235.917 57.5254 236.017 57.291C236.117 57.0566 236.244 56.8545 236.399 56.6846C236.558 56.5146 236.745 56.3843 236.962 56.2935C237.179 56.2026 237.426 56.1572 237.705 56.1572C237.995 56.1572 238.252 56.2144 238.478 56.3286C238.707 56.4399 238.898 56.6025 239.054 56.8164C239.212 57.0273 239.331 57.2822 239.41 57.5811C239.492 57.877 239.533 58.2095 239.533 58.5786ZM239.005 58.6709V58.5786C239.005 58.3003 238.976 58.0425 238.917 57.8052C238.862 57.5679 238.775 57.3613 238.658 57.1855C238.544 57.0068 238.397 56.8677 238.219 56.7681C238.043 56.6685 237.833 56.6187 237.59 56.6187C237.338 56.6187 237.123 56.6611 236.944 56.7461C236.769 56.8281 236.622 56.938 236.505 57.0757C236.388 57.2104 236.295 57.3584 236.228 57.5195C236.161 57.6807 236.111 57.8389 236.079 57.9941V59.396C236.134 59.6187 236.224 59.8252 236.347 60.0156C236.47 60.2031 236.634 60.354 236.839 60.4683C237.047 60.5796 237.3 60.6353 237.599 60.6353C237.839 60.6353 238.047 60.5854 238.223 60.4858C238.399 60.3862 238.544 60.2471 238.658 60.0684C238.775 59.8896 238.862 59.6816 238.917 59.4443C238.976 59.207 239.005 58.9492 239.005 58.6709ZM241.286 54.25V61H240.763V54.25H241.286ZM243.308 56.2451V61H242.785V56.2451H243.308ZM242.692 54.8696C242.692 54.77 242.723 54.6865 242.785 54.6191C242.849 54.5488 242.937 54.5137 243.048 54.5137C243.16 54.5137 243.248 54.5488 243.312 54.6191C243.379 54.6865 243.413 54.77 243.413 54.8696C243.413 54.9663 243.379 55.0498 243.312 55.1201C243.248 55.1875 243.16 55.2212 243.048 55.2212C242.937 55.2212 242.849 55.1875 242.785 55.1201C242.723 55.0498 242.692 54.9663 242.692 54.8696ZM246.498 60.6353C246.721 60.6353 246.929 60.5942 247.122 60.5122C247.318 60.4272 247.479 60.3027 247.605 60.1387C247.734 59.9717 247.808 59.7681 247.825 59.5278H248.326C248.312 59.8296 248.219 60.0991 248.049 60.3364C247.882 60.5708 247.663 60.7554 247.39 60.8901C247.121 61.022 246.823 61.0879 246.498 61.0879C246.167 61.0879 245.874 61.0278 245.619 60.9077C245.367 60.7876 245.156 60.6206 244.986 60.4067C244.816 60.1899 244.688 59.938 244.6 59.6509C244.515 59.3608 244.472 59.0488 244.472 58.7148V58.5303C244.472 58.1963 244.515 57.8857 244.6 57.5986C244.688 57.3086 244.816 57.0566 244.986 56.8428C245.156 56.626 245.367 56.4575 245.619 56.3374C245.871 56.2173 246.163 56.1572 246.494 56.1572C246.833 56.1572 247.138 56.2261 247.408 56.3638C247.68 56.5015 247.897 56.6963 248.058 56.9482C248.222 57.2002 248.312 57.499 248.326 57.8447H247.825C247.811 57.5898 247.743 57.3701 247.623 57.1855C247.503 57.001 247.345 56.8589 247.148 56.7593C246.952 56.6597 246.734 56.6099 246.494 56.6099C246.224 56.6099 245.994 56.6626 245.804 56.7681C245.613 56.8706 245.458 57.0127 245.338 57.1943C245.221 57.373 245.134 57.5781 245.079 57.8096C245.023 58.0381 244.995 58.2783 244.995 58.5303V58.7148C244.995 58.9697 245.021 59.2129 245.074 59.4443C245.13 59.6729 245.216 59.8765 245.333 60.0552C245.454 60.2339 245.609 60.376 245.799 60.4814C245.993 60.584 246.226 60.6353 246.498 60.6353ZM252.277 60.1475V57.6953C252.277 57.4697 252.23 57.2749 252.136 57.1108C252.042 56.9468 251.905 56.8208 251.723 56.7329C251.542 56.645 251.317 56.6011 251.051 56.6011C250.805 56.6011 250.585 56.645 250.392 56.7329C250.201 56.8179 250.05 56.9336 249.939 57.0801C249.831 57.2236 249.776 57.3833 249.776 57.5591L249.249 57.5547C249.249 57.376 249.293 57.2031 249.381 57.0361C249.469 56.8691 249.593 56.7197 249.754 56.5879C249.916 56.4561 250.107 56.3521 250.33 56.2759C250.556 56.1968 250.803 56.1572 251.073 56.1572C251.413 56.1572 251.711 56.2144 251.969 56.3286C252.23 56.4429 252.434 56.6143 252.58 56.8428C252.727 57.0713 252.8 57.3584 252.8 57.7041V60.0024C252.8 60.1665 252.812 60.3364 252.835 60.5122C252.861 60.688 252.898 60.833 252.945 60.9473V61H252.387C252.352 60.8945 252.324 60.7627 252.303 60.6045C252.286 60.4434 252.277 60.291 252.277 60.1475ZM252.4 58.2314L252.409 58.6357H251.376C251.106 58.6357 250.865 58.6606 250.651 58.7104C250.44 58.7573 250.261 58.8276 250.115 58.9214C249.968 59.0122 249.855 59.1221 249.776 59.251C249.7 59.3799 249.662 59.5264 249.662 59.6904C249.662 59.8604 249.705 60.0156 249.79 60.1562C249.877 60.2969 250 60.4097 250.159 60.4946C250.32 60.5767 250.51 60.6177 250.73 60.6177C251.023 60.6177 251.281 60.5635 251.503 60.4551C251.729 60.3467 251.915 60.2046 252.062 60.0288C252.208 59.853 252.306 59.6611 252.356 59.4531L252.584 59.7563C252.546 59.9028 252.476 60.0537 252.374 60.209C252.274 60.3613 252.144 60.5049 251.982 60.6396C251.821 60.7715 251.631 60.8799 251.411 60.9648C251.194 61.0469 250.948 61.0879 250.673 61.0879C250.362 61.0879 250.091 61.0293 249.86 60.9121C249.631 60.7949 249.453 60.6353 249.324 60.4331C249.198 60.228 249.135 59.9966 249.135 59.7388C249.135 59.5044 249.185 59.2949 249.284 59.1104C249.384 58.9229 249.527 58.7646 249.715 58.6357C249.905 58.5039 250.134 58.4043 250.4 58.3369C250.67 58.2666 250.972 58.2314 251.306 58.2314H252.4ZM256.008 56.2451V56.6758H253.626V56.2451H256.008ZM254.5 55.0234H255.023V59.8442C255.023 60.064 255.053 60.2295 255.111 60.3408C255.17 60.4521 255.246 60.5269 255.34 60.5649C255.434 60.603 255.535 60.6221 255.643 60.6221C255.722 60.6221 255.798 60.6177 255.872 60.6089C255.945 60.5972 256.011 60.5854 256.069 60.5737L256.091 61.0176C256.027 61.0381 255.943 61.0542 255.841 61.0659C255.738 61.0806 255.636 61.0879 255.533 61.0879C255.331 61.0879 255.152 61.0513 254.997 60.978C254.842 60.9019 254.72 60.7729 254.632 60.5913C254.544 60.4067 254.5 60.1562 254.5 59.8398V55.0234ZM257.695 56.2451V61H257.172V56.2451H257.695ZM257.08 54.8696C257.08 54.77 257.111 54.6865 257.172 54.6191C257.237 54.5488 257.325 54.5137 257.436 54.5137C257.547 54.5137 257.635 54.5488 257.7 54.6191C257.767 54.6865 257.801 54.77 257.801 54.8696C257.801 54.9663 257.767 55.0498 257.7 55.1201C257.635 55.1875 257.547 55.2212 257.436 55.2212C257.325 55.2212 257.237 55.1875 257.172 55.1201C257.111 55.0498 257.08 54.9663 257.08 54.8696ZM258.842 58.6973V58.5522C258.842 58.2065 258.892 57.8872 258.992 57.5942C259.091 57.3013 259.233 57.0479 259.418 56.834C259.605 56.6201 259.83 56.4546 260.09 56.3374C260.351 56.2173 260.641 56.1572 260.96 56.1572C261.283 56.1572 261.574 56.2173 261.835 56.3374C262.096 56.4546 262.32 56.6201 262.507 56.834C262.695 57.0479 262.838 57.3013 262.938 57.5942C263.038 57.8872 263.087 58.2065 263.087 58.5522V58.6973C263.087 59.043 263.038 59.3623 262.938 59.6553C262.838 59.9453 262.695 60.1973 262.507 60.4111C262.323 60.625 262.1 60.792 261.839 60.9121C261.579 61.0293 261.289 61.0879 260.969 61.0879C260.647 61.0879 260.355 61.0293 260.095 60.9121C259.834 60.792 259.61 60.625 259.422 60.4111C259.235 60.1973 259.091 59.9453 258.992 59.6553C258.892 59.3623 258.842 59.043 258.842 58.6973ZM259.365 58.5522V58.6973C259.365 58.958 259.4 59.2056 259.471 59.4399C259.541 59.6714 259.644 59.8779 259.778 60.0596C259.913 60.2383 260.08 60.3789 260.279 60.4814C260.479 60.584 260.708 60.6353 260.969 60.6353C261.227 60.6353 261.454 60.584 261.65 60.4814C261.85 60.3789 262.017 60.2383 262.151 60.0596C262.286 59.8779 262.387 59.6714 262.455 59.4399C262.525 59.2056 262.56 58.958 262.56 58.6973V58.5522C262.56 58.2944 262.525 58.0498 262.455 57.8184C262.387 57.5869 262.285 57.3804 262.147 57.1987C262.012 57.0171 261.845 56.8735 261.646 56.7681C261.447 56.6626 261.218 56.6099 260.96 56.6099C260.703 56.6099 260.474 56.6626 260.275 56.7681C260.079 56.8735 259.912 57.0171 259.774 57.1987C259.639 57.3804 259.537 57.5869 259.466 57.8184C259.399 58.0498 259.365 58.2944 259.365 58.5522ZM264.7 57.2603V61H264.177V56.2451H264.678L264.7 57.2603ZM264.582 58.3281L264.349 58.1963C264.366 57.915 264.423 57.6514 264.52 57.4053C264.617 57.1592 264.747 56.9424 264.911 56.7549C265.078 56.5674 265.273 56.4209 265.496 56.3154C265.721 56.21 265.97 56.1572 266.243 56.1572C266.48 56.1572 266.692 56.1895 266.88 56.2539C267.067 56.3184 267.227 56.4209 267.359 56.5615C267.491 56.7021 267.59 56.8823 267.658 57.1021C267.728 57.3218 267.763 57.5898 267.763 57.9062V61H267.236V57.9019C267.236 57.5737 267.19 57.3174 267.1 57.1328C267.009 56.9453 266.88 56.812 266.713 56.7329C266.546 56.6538 266.348 56.6143 266.12 56.6143C265.868 56.6143 265.646 56.6699 265.456 56.7812C265.269 56.8896 265.11 57.0317 264.981 57.2075C264.855 57.3804 264.759 57.5664 264.691 57.7656C264.624 57.9619 264.587 58.1494 264.582 58.3281ZM271.973 59.7871C271.973 59.6582 271.941 59.5308 271.876 59.4048C271.812 59.2788 271.688 59.1631 271.503 59.0576C271.321 58.9521 271.053 58.8628 270.699 58.7896C270.435 58.731 270.199 58.665 269.991 58.5918C269.786 58.5186 269.613 58.4307 269.473 58.3281C269.332 58.2256 269.225 58.1025 269.152 57.959C269.079 57.8154 269.042 57.6455 269.042 57.4492C269.042 57.2734 269.08 57.1079 269.156 56.9526C269.235 56.7944 269.347 56.6567 269.49 56.5396C269.637 56.4194 269.812 56.3257 270.018 56.2583C270.226 56.1909 270.458 56.1572 270.716 56.1572C271.083 56.1572 271.396 56.2202 271.657 56.3462C271.92 56.4692 272.121 56.6377 272.259 56.8516C272.399 57.0654 272.47 57.3071 272.47 57.5767H271.947C271.947 57.4126 271.898 57.2573 271.802 57.1108C271.708 56.9644 271.569 56.8442 271.384 56.7505C271.203 56.6567 270.98 56.6099 270.716 56.6099C270.444 56.6099 270.223 56.6509 270.053 56.7329C269.883 56.8149 269.758 56.9189 269.679 57.0449C269.603 57.1709 269.565 57.3013 269.565 57.436C269.565 57.5415 269.581 57.6382 269.613 57.7261C269.648 57.811 269.71 57.8901 269.798 57.9634C269.889 58.0366 270.018 58.1055 270.185 58.1699C270.352 58.2344 270.568 58.2974 270.835 58.3589C271.219 58.4438 271.532 58.5479 271.775 58.6709C272.021 58.791 272.203 58.9404 272.32 59.1191C272.438 59.2949 272.496 59.5088 272.496 59.7607C272.496 59.957 272.455 60.1372 272.373 60.3013C272.291 60.4624 272.172 60.6016 272.017 60.7188C271.865 60.8359 271.68 60.9268 271.463 60.9912C271.25 61.0557 271.009 61.0879 270.743 61.0879C270.341 61.0879 270.001 61.022 269.723 60.8901C269.448 60.7554 269.238 60.5796 269.095 60.3628C268.954 60.1431 268.884 59.9102 268.884 59.6641H269.407C269.424 59.9102 269.502 60.105 269.64 60.2485C269.777 60.3892 269.946 60.4888 270.145 60.5474C270.347 60.606 270.546 60.6353 270.743 60.6353C271.012 60.6353 271.238 60.5957 271.419 60.5166C271.601 60.4375 271.739 60.3335 271.833 60.2046C271.926 60.0757 271.973 59.9365 271.973 59.7871ZM273.639 60.6792C273.639 60.5767 273.671 60.4902 273.735 60.4199C273.803 60.3467 273.894 60.3101 274.008 60.3101C274.125 60.3101 274.217 60.3467 274.285 60.4199C274.352 60.4902 274.386 60.5767 274.386 60.6792C274.386 60.7788 274.352 60.8638 274.285 60.9341C274.217 61.0044 274.125 61.0396 274.008 61.0396C273.894 61.0396 273.803 61.0044 273.735 60.9341C273.671 60.8638 273.639 60.7788 273.639 60.6792Z" fill="white"/>
<path d="M65.9334 20.7333C66.1067 20.7333 66.2789 20.7389 66.45 20.75C66.2314 21.8866 66.3132 23.0605 66.6874 24.1558C67.0615 25.2511 67.715 26.2297 68.5834 26.995C68.4622 27.6683 68.4011 28.3589 68.4 29.0667C68.396 31.7129 69.2956 34.2813 70.95 36.3467C69.4133 36.9501 67.7457 37.1419 66.1122 36.9031C64.4786 36.6643 62.9357 36.0032 61.636 34.9852C60.3363 33.9672 59.3249 32.6275 58.7018 31.0987C58.0787 29.5698 57.8655 27.9048 58.0834 26.2683C58.6608 24.6485 59.7253 23.247 61.1307 22.2561C62.5361 21.2651 64.2137 20.7332 65.9334 20.7333ZM87.3467 24.05C87.9501 25.5867 88.1419 27.2543 87.9031 28.8879C87.6644 30.5214 87.0033 32.0644 85.9852 33.364C84.9672 34.6637 83.6275 35.6751 82.0987 36.2982C80.5699 36.9213 78.9048 37.1345 77.2684 36.9167C75.5651 36.3097 74.1055 35.1653 73.1098 33.656C72.1141 32.1468 71.6362 30.3546 71.7484 28.55C72.8849 28.7686 74.0589 28.6868 75.1542 28.3127C76.2494 27.9385 77.2281 27.285 77.9934 26.4167C78.6678 26.5378 79.3589 26.5989 80.0667 26.6C82.713 26.604 85.2813 25.7044 87.3467 24.05ZM73 18.6667C73.8841 18.6667 74.7319 19.0179 75.357 19.643C75.9822 20.2681 76.3334 21.1159 76.3334 22C76.3334 22.8841 75.9822 23.7319 75.357 24.357C74.7319 24.9821 73.8841 25.3333 73 25.3333C72.116 25.3333 71.2681 24.9821 70.643 24.357C70.0179 23.7319 69.6667 22.8841 69.6667 22C69.6667 21.1159 70.0179 20.2681 70.643 19.643C71.2681 19.0179 72.116 18.6667 73 18.6667ZM78.5167 7C79.8677 6.99985 81.2032 7.28837 82.4337 7.84624C83.6641 8.40412 84.7612 9.21847 85.6514 10.2348C86.5416 11.251 87.2044 12.4458 87.5953 13.739C87.9863 15.0323 88.0964 16.3941 87.9184 17.7333C87.3108 19.4362 86.1658 20.8953 84.6563 21.8904C83.1468 22.8856 81.3545 23.3627 79.55 23.25C79.7686 22.1134 79.6868 20.9395 79.3127 19.8442C78.9385 18.7489 78.285 17.7703 77.4167 17.005C77.5378 16.3317 77.5989 15.6411 77.6 14.9333C77.604 12.2871 76.7044 9.71872 75.05 7.65333C76.1546 7.22104 77.3305 6.99944 78.5167 7ZM67.4834 7C67.9067 7 68.3234 7.02722 68.7334 7.08167C70.4362 7.68926 71.8953 8.8342 72.8904 10.3437C73.8856 11.8533 74.3628 13.6455 74.25 15.45C73.1134 15.2314 71.9395 15.3132 70.8442 15.6873C69.7489 16.0615 68.7703 16.715 68.005 17.5833C67.3213 17.4607 66.628 17.3993 65.9334 17.4C63.2871 17.396 60.7187 18.2956 58.6534 19.95C58.0886 18.512 57.8837 16.9577 58.0565 15.4224C58.2294 13.8871 58.7747 12.4173 59.6451 11.1408C60.5155 9.86435 61.6845 8.81985 63.0506 8.09817C64.4167 7.3765 65.9384 6.99951 67.4834 7Z" fill="#7588FF"/>
</svg>
