<svg clip-rule="evenodd" fill-rule="evenodd"  image-rendering="optimizeQuality" shape-rendering="geometricPrecision" text-rendering="geometricPrecision" viewBox="0 0 18062 18062" width="512" xmlns="http://www.w3.org/2000/svg" id="fi_9360378"><g id="Layer_x0020_1"><path d="m9488 18056c-838 0-1761-43-2653-142 14-108 28-214 43-320 82-584 186-1165 301-1743 189-959 407-1913 641-2861 78-315 158-630 240-943 23-90 47-179 70-268 10-35 19-71 29-106 25-81-20-167-102-192-81-26-167 20-193 101-40 133-75 274-110 409-85 324-168 649-248 975-238 961-458 1929-647 2901-112 575-214 1154-294 1735-12 91-25 183-36 275-1345-171-2586-477-3306-964-69-47-116-119-131-201-14-82 5-166 54-233 585-804 758-1529 959-2368 67-280 136-569 224-876 333-1164 1239-3981 2458-4985 1-1 3-2 4-3 1388-1111 805-2183 189-3318-278-511-540-993-611-1474-87-589 139-1082 671-1466 260-187 542-282 839-282 526 0 1066 301 1609 896 543-595 1083-896 1609-896 297 0 580 95 839 282 532 384 758 877 671 1466-71 481-333 963-610 1474-617 1135-1199 2207 189 3318l3 3c1220 1004 2126 3821 2459 4985 87 307 156 596 223 876 201 839 374 1564 959 2367 49 68 68 152 54 234s-61 154-130 201c-721 487-1961 793-3307 964-11-92-23-184-36-275-79-581-181-1160-293-1735-190-972-410-1940-647-2901-81-326-163-651-249-975-35-135-69-276-110-409-25-81-111-127-193-101-81 25-127 111-102 192 11 35 20 71 29 106 24 89 47 178 71 268 82 313 161 628 239 943 234 948 453 1902 642 2861 114 578 218 1159 300 1743 15 106 29 212 43 320-892 99-1815 142-2653 142z"></path><path d="m7808 2322c-170 0-307-137-307-306v-1449c0-169 137-306 307-306 169 0 306 137 306 306v1449c0 169-137 306-306 306z"></path><path d="m11169 2322c-170 0-307-137-307-306v-1449c0-169 137-306 307-306 169 0 306 137 306 306v1449c0 169-137 306-306 306z"></path><path d="m2840 4969c-117 0-225-67-276-173l-660-1372-1372-660c-106-51-173-159-173-276 0-118 67-226 173-277l1372-660 660-1372c51-106 159-173 276-173 118 0 226 67 277 173l660 1372 1372 660c106 51 173 159 173 277 0 117-67 225-173 276l-1372 660-660 1372c-51 106-159 173-277 173z"></path><path d="m15800 8409c-118 0-226-67-277-173l-539-1120-1119-539c-107-51-174-159-174-276 0-118 67-225 174-277l1119-539 539-1119c51-106 159-174 277-174 117 0 225 67 276 174l539 1119 1120 539c106 51 173 159 173 277 0 117-67 225-173 276l-1120 539-539 1120c-51 106-159 173-276 173z"></path><path d="m2263 13261c-118 0-225-67-277-173l-539-1120-1119-539c-106-51-174-159-174-276 0-118 68-225 174-277l1119-539 539-1119c52-106 159-174 277-174s225 68 276 174l539 1119 1120 539c106 52 173 159 173 277 0 117-67 225-173 276l-1120 539-539 1120c-51 106-159 173-276 173z"></path></g></svg>