<svg version="1.1" id="Layer_1" xmlns="http://www.w3.org/2000/svg" xmlns:xlink="http://www.w3.org/1999/xlink" x="0px" y="0px"
	 width="100%" viewBox="0 0 192 192" enable-background="new 0 0 192 192" xml:space="preserve">

<path fill="#1A293E" opacity="1.000000" stroke="none" 
	d="
M69.189674,100.846817 
	C67.165199,99.558388 65.052429,98.388054 63.135925,96.955215 
	C59.856617,94.503494 56.700180,91.887428 53.210228,88.790939 
	C52.291496,87.163879 51.654678,86.086266 51.017860,85.008652 
	C50.746212,84.544884 50.474571,84.081116 50.242691,83.158844 
	C49.830692,81.445076 49.378925,80.189827 48.927162,78.934570 
	C50.635799,71.139542 50.510208,63.515781 49.510021,55.462490 
	C48.606686,48.188961 50.752068,40.368011 52.452862,32.996078 
	C53.695080,27.611774 56.979362,26.704199 61.398838,30.039915 
	C65.593185,33.205715 69.270554,37.049404 73.271011,40.483459 
	C74.468216,41.511162 75.951935,42.795944 77.365005,42.874649 
	C82.339859,43.151745 87.348076,43.095360 92.327507,42.844894 
	C93.633392,42.779213 95.011642,41.720100 96.132561,40.833797 
	C100.797829,37.145020 105.224838,33.137054 110.035385,29.655357 
	C114.115326,26.702444 117.648941,27.570679 118.962799,32.373966 
	C120.601952,38.366550 121.602684,44.682045 121.783638,50.890045 
	C122.047203,59.932102 121.333702,69.002640 120.729202,78.634354 
	C118.847237,79.899353 117.272865,80.591034 115.698494,81.282707 
	C115.806343,81.691238 115.914192,82.099762 116.022041,82.508286 
	C117.372406,82.692406 118.722771,82.876526 120.073135,83.060654 
	C119.767113,84.133499 119.461090,85.206352 118.754883,86.550674 
	C116.568321,86.683632 114.781952,86.545113 112.995583,86.406593 
	C112.901993,86.775429 112.808395,87.144257 112.714806,87.513084 
	C113.820236,88.370941 114.925674,89.228798 116.031113,90.086662 
	C112.924294,92.344788 109.817474,94.602913 106.008499,97.011154 
	C102.714012,98.028473 100.121681,98.895676 97.529350,99.762886 
	C97.531303,100.280045 97.533257,100.797195 97.535210,101.314354 
	C101.709282,101.821426 105.883354,102.328491 110.057426,102.835556 
	C121.547157,110.031937 132.370972,118.159081 137.337860,131.280136 
	C141.029541,141.032455 141.844666,151.301987 136.001709,160.888992 
	C133.093933,165.659988 128.663605,168.010269 123.088638,167.908218 
	C114.326981,167.747833 105.567909,167.446289 96.428925,166.632446 
	C97.021973,156.386841 103.774467,156.829483 110.993553,158.088669 
	C96.217972,149.674286 97.503342,139.154160 115.560066,123.433060 
	C108.723221,123.855904 104.283112,127.223663 102.519829,132.407990 
	C98.796577,143.354874 96.067390,154.639877 92.930397,165.786163 
	C88.505249,169.323044 83.600128,168.825607 78.284637,166.957077 
	C78.420799,164.837570 78.402435,162.834900 79.389755,161.734894 
	C86.202309,154.144714 82.807129,144.815720 84.624474,136.918045 
	C82.585999,137.199326 80.734131,138.078125 79.597328,137.514542 
	C69.131744,132.326080 64.460876,119.807449 68.812943,109.460632 
	C69.977669,106.691528 71.436951,105.195648 74.838280,105.788292 
	C79.900337,106.670319 84.341049,104.656715 88.526093,102.034286 
	C82.723274,100.924988 77.023003,100.220573 71.307503,99.675789 
	C70.644791,99.612625 69.897667,100.435005 69.189674,100.846817 
M68.918045,72.366302 
	C68.637962,72.166580 68.357872,71.966858 67.598595,71.278145 
	C59.909424,68.453484 58.959812,68.905205 59.347095,75.902153 
	C59.930077,77.587151 60.247120,79.433037 61.149616,80.924728 
	C63.237743,84.376091 68.617432,86.232430 71.416878,84.445389 
	C75.247269,82.000237 72.061661,78.906525 71.791031,76.125542 
	C71.713104,75.324814 70.718513,74.613297 69.968307,73.389946 
	C69.695938,73.205956 69.423561,73.021965 68.918045,72.366302 
M83.347771,119.153282 
	C79.585472,123.870369 76.477051,122.394730 73.646286,117.116394 
	C72.463188,122.168098 74.404922,125.056686 77.884148,126.059593 
	C79.120071,126.415848 81.407089,123.753769 82.933594,122.194740 
	C83.640625,121.472649 83.675179,120.092102 84.103256,118.962067 
	C84.103256,118.962067 83.988205,118.983414 83.347771,119.153282 
M106.685936,78.540611 
	C107.029617,76.449654 107.771416,74.316483 107.556000,72.284805 
	C107.441139,71.201515 105.259224,69.256821 104.715828,69.473160 
	C100.903343,70.990982 97.274857,72.970947 93.074677,75.285660 
	C92.657120,78.207520 92.239571,81.129379 91.822021,84.051239 
	C95.186745,83.939339 98.676483,84.321762 101.865570,83.515320 
	C103.561646,83.086418 104.736992,80.598312 106.685936,78.540611 
M109.916000,46.606613 
	C107.770432,51.123417 110.221710,57.815445 116.473343,62.121704 
	C116.803429,56.303017 117.093956,51.181549 117.456123,45.257702 
	C117.077934,42.132912 116.993744,38.926228 116.158798,35.928665 
	C115.874542,34.908131 113.021255,33.456486 112.496162,33.828991 
	C107.795242,37.163803 104.473335,41.629005 102.154305,47.114944 
	C105.435120,46.685696 107.866165,46.367630 109.916000,46.606613 
M121.438248,145.452469 
	C123.402702,145.917542 125.367165,146.382629 128.075455,146.965576 
	C129.334503,144.681442 130.593567,142.397293 131.272903,141.164871 
	C128.007767,138.587021 125.368927,136.570312 122.805748,134.461639 
	C120.135223,132.264648 116.407417,133.193756 115.063164,136.463669 
	C113.315063,140.715942 115.610641,143.987122 121.438248,145.452469 
M61.725559,47.432678 
	C61.451942,46.648529 61.178326,45.864380 61.021698,44.961399 
	C61.021698,44.961399 61.135445,44.839455 61.849308,44.878803 
	C63.600170,45.501625 65.351036,46.124447 67.101898,46.747265 
	C67.455894,46.358101 67.809891,45.968937 68.163879,45.579773 
	C65.501923,41.926308 63.059017,38.082947 60.108624,34.679520 
	C57.752224,31.961294 55.475536,32.956928 54.886955,36.279732 
	C54.141972,40.485466 53.935829,44.786644 53.355350,49.887066 
	C53.680019,53.656197 54.004684,57.425323 54.329353,61.194454 
	C55.048267,61.292824 55.767185,61.391193 56.486099,61.489559 
	C58.295090,57.003090 60.104080,52.516621 61.725559,47.432678 
z"/>
<path fill="#19273A" opacity="1.000000" stroke="none" 
	d="
M66.892502,164.136124 
	C56.310707,162.284256 47.052406,157.856659 39.559231,150.030884 
	C28.523893,138.505753 26.126867,118.697311 34.391731,106.392235 
	C36.753246,102.876297 39.771866,99.803398 44.448025,100.158844 
	C46.171616,100.289856 48.544445,101.318985 49.261852,102.663689 
	C50.019608,104.084015 49.901794,107.021240 48.889343,108.178032 
	C34.760300,124.321106 46.279613,147.782623 65.987923,151.924133 
	C67.115448,152.161057 68.190285,152.648697 69.835670,153.360718 
	C73.073387,158.468918 67.857788,160.591873 66.892502,164.136124 
z"/>
<path fill="#131D2D" opacity="1.000000" stroke="none" 
	d="
M67.011024,164.471436 
	C67.857788,160.591873 73.073387,158.468918 70.208061,153.457962 
	C69.890999,149.652634 70.093697,146.033890 69.516663,142.544098 
	C68.793129,138.168320 67.969315,133.666870 66.236404,129.628311 
	C61.956936,119.654961 64.799683,110.594254 69.009888,101.186295 
	C69.897667,100.435005 70.644791,99.612625 71.307503,99.675789 
	C77.023003,100.220573 82.723274,100.924988 88.526093,102.034286 
	C84.341049,104.656715 79.900337,106.670319 74.838280,105.788292 
	C71.436951,105.195648 69.977669,106.691528 68.812943,109.460632 
	C64.460876,119.807449 69.131744,132.326080 79.597328,137.514542 
	C80.734131,138.078125 82.585999,137.199326 84.624474,136.918045 
	C82.807129,144.815720 86.202309,154.144714 79.389755,161.734894 
	C78.402435,162.834900 78.420799,164.837570 77.932129,166.834091 
	C73.926781,168.094864 69.917709,169.144287 67.011024,164.471436 
z"/>
<path fill="#7379C9" opacity="1.000000" stroke="none" 
	d="
M139.236923,82.336411 
	C136.245483,85.500290 133.161255,83.879700 131.648987,81.953987 
	C130.223419,80.138664 129.861176,76.854309 130.303543,74.450325 
	C130.557877,73.068199 133.347473,71.199821 134.981857,71.213547 
	C138.953400,71.246910 139.926147,69.786423 140.262741,65.996826 
	C140.645035,61.692757 143.835037,60.251274 149.038498,61.016167 
	C152.798004,61.568806 153.022141,64.527809 152.932449,67.328163 
	C152.803131,71.366348 150.340729,72.921722 146.424286,73.102486 
	C144.939133,73.171043 143.508652,74.424385 142.053253,75.137711 
	C143.138214,76.468262 143.968506,78.294106 145.367691,79.013481 
	C147.475739,80.097298 150.039566,80.252556 152.298309,81.099495 
	C153.901169,81.700500 155.965622,82.467224 156.618073,83.765869 
	C157.143677,84.812111 155.878830,86.770248 155.375870,88.313217 
	C155.228439,88.765526 155.034729,89.230598 154.751144,89.605888 
	C153.502762,91.257988 154.115265,95.253777 150.028076,93.368942 
	C146.007767,91.514954 145.482559,90.264366 146.868057,85.693199 
	C144.423370,84.494980 141.985672,83.300194 139.236923,82.336411 
z"/>
<path fill="#7278C9" opacity="1.000000" stroke="none" 
	d="
M151.151428,47.683846 
	C152.556992,49.150585 153.720154,50.341671 155.204453,51.861626 
	C158.338684,48.014240 161.247482,51.006699 162.212723,53.200996 
	C163.031845,55.063164 161.417297,58.243919 160.261551,60.528553 
	C160.014664,61.016617 156.826370,60.614136 155.486328,59.805058 
	C153.690979,58.721062 152.394440,56.822655 150.850494,55.307793 
	C148.330780,52.835533 146.477448,50.099857 141.684265,51.683498 
	C137.348755,53.115929 131.494568,46.999748 131.067444,41.917786 
	C130.693588,37.469543 136.454193,31.377321 141.302536,31.093498 
	C146.010712,30.817881 150.957138,35.979309 150.979630,41.220234 
	C150.988480,43.282749 150.934433,45.345531 151.151428,47.683846 
M139.841156,40.295631 
	C141.395691,39.733292 142.950211,39.170956 144.504745,38.608616 
	C144.422333,38.022472 144.339920,37.436329 144.257507,36.850182 
	C142.374557,37.072674 139.856155,36.625076 138.753708,37.670567 
	C136.983597,39.349236 134.771698,41.983944 138.797684,44.930294 
	C139.105331,43.235603 139.322189,42.041111 139.841156,40.295631 
M142.579163,44.582516 
	C142.970444,44.456955 143.361740,44.331390 143.753021,44.205833 
	C143.629120,43.998627 143.505219,43.791420 143.381317,43.584217 
	C143.056290,43.829201 142.731262,44.074184 142.579163,44.582516 
z"/>
<path fill="#121E2E" opacity="1.000000" stroke="none" 
	d="
M93.245956,165.889801 
	C96.067390,154.639877 98.796577,143.354874 102.519829,132.407990 
	C104.283112,127.223663 108.723221,123.855904 115.560066,123.433060 
	C97.503342,139.154160 96.217972,149.674286 110.993553,158.088669 
	C103.774467,156.829483 97.021973,156.386841 96.061310,166.436859 
	C95.235512,166.540024 94.398521,166.266724 93.245956,165.889801 
z"/>
<path fill="#7379C5" opacity="1.000000" stroke="none" 
	d="
M131.395142,61.690857 
	C130.009537,60.147968 128.947784,58.805107 128.038071,57.654552 
	C129.776703,56.275360 131.331467,55.042027 133.336624,53.451405 
	C134.060638,54.298618 135.485580,55.966030 136.910522,57.633438 
	C135.180008,59.052586 133.449493,60.471737 131.395142,61.690857 
z"/>
<path fill="#273554" opacity="1.000000" stroke="none" 
	d="
M116.380508,90.193832 
	C114.925674,89.228798 113.820236,88.370941 112.714806,87.513084 
	C112.808395,87.144257 112.901993,86.775429 112.995583,86.406593 
	C114.781952,86.545113 116.568321,86.683632 118.722481,86.884567 
	C121.027367,87.684784 122.964470,88.422577 125.322250,89.320602 
	C122.324303,93.745644 119.403595,90.382233 116.380508,90.193832 
z"/>
<path fill="#121E2E" opacity="1.000000" stroke="none" 
	d="
M109.874657,102.561539 
	C105.883354,102.328491 101.709282,101.821426 97.535210,101.314354 
	C97.533257,100.797195 97.531303,100.280045 97.529350,99.762886 
	C100.121681,98.895676 102.714012,98.028473 105.672310,97.093430 
	C107.256149,98.779572 108.474014,100.533546 109.874657,102.561539 
z"/>
<path fill="#24324D" opacity="1.000000" stroke="none" 
	d="
M48.530125,78.934105 
	C49.378925,80.189827 49.830692,81.445076 50.105053,82.926399 
	C48.038544,82.763824 46.122402,82.472130 44.269020,81.955368 
	C42.826698,81.553230 41.462536,80.870766 40.063641,80.312881 
	C40.214066,79.619865 40.364491,78.926857 40.514912,78.233841 
	C43.054302,78.467110 45.593697,78.700378 48.530125,78.934105 
z"/>
<path fill="#24324D" opacity="1.000000" stroke="none" 
	d="
M50.685799,85.168030 
	C51.654678,86.086266 52.291496,87.163879 52.952888,88.566895 
	C49.867966,89.427887 46.758465,89.963486 43.648964,90.499084 
	C43.457703,89.741600 43.266441,88.984116 43.075180,88.226631 
	C45.501362,87.260223 47.927547,86.293823 50.685799,85.168030 
z"/>
<path fill="#273554" opacity="1.000000" stroke="none" 
	d="
M120.460075,83.035629 
	C118.722771,82.876526 117.372406,82.692406 116.022041,82.508286 
	C115.914192,82.099762 115.806343,81.691238 115.698494,81.282707 
	C117.272865,80.591034 118.847237,79.899353 120.750671,79.065819 
	C122.998444,79.171288 124.917168,79.418602 126.835884,79.665924 
	C126.869110,80.170677 126.902336,80.675423 126.935562,81.180176 
	C124.906044,81.790321 122.876534,82.400475 120.460075,83.035629 
z"/>
<path fill="#3D5188" opacity="1.000000" stroke="none" 
	d="
M53.497295,49.046661 
	C53.935829,44.786644 54.141972,40.485466 54.886955,36.279732 
	C55.475536,32.956928 57.752224,31.961294 60.108624,34.679520 
	C63.059017,38.082947 65.501923,41.926308 68.163879,45.579773 
	C67.809891,45.968937 67.455894,46.358101 67.101898,46.747265 
	C65.351036,46.124447 63.600170,45.501625 61.425026,44.794128 
	C61.000740,44.709457 60.702591,44.791698 60.702591,44.791698 
	C60.702591,44.791698 60.904705,45.080231 60.904705,45.080231 
	C61.178326,45.864380 61.451942,46.648529 61.415016,47.726200 
	C58.568745,48.362034 56.033020,48.704350 53.497295,49.046661 
z"/>
<path fill="#6F71C4" opacity="1.000000" stroke="none" 
	d="
M120.958954,144.865082 
	C115.610641,143.987122 113.315063,140.715942 115.063164,136.463669 
	C116.407417,133.193756 120.135223,132.264648 122.805748,134.461639 
	C125.368927,136.570312 128.007767,138.587021 131.272903,141.164871 
	C130.593567,142.397293 129.334503,144.681442 127.663483,146.529114 
	C126.982193,144.591202 126.712875,143.089767 126.299736,140.786606 
	C123.994820,142.546753 122.476883,143.705917 120.958954,144.865082 
z"/>
<path fill="#384D81" opacity="1.000000" stroke="none" 
	d="
M110.297203,46.049564 
	C107.866165,46.367630 105.435120,46.685696 102.154305,47.114944 
	C104.473335,41.629005 107.795242,37.163803 112.496162,33.828991 
	C113.021255,33.456486 115.874542,34.908131 116.158798,35.928665 
	C116.993744,38.926228 117.077934,42.132912 117.042938,45.646355 
	C114.518906,46.039860 112.408051,46.044712 110.297203,46.049564 
z"/>
<path fill="#445288" opacity="1.000000" stroke="none" 
	d="
M110.106598,46.328087 
	C112.408051,46.044712 114.518906,46.039860 117.007126,46.047546 
	C117.093956,51.181549 116.803429,56.303017 116.473343,62.121704 
	C110.221710,57.815445 107.770432,51.123417 110.106598,46.328087 
z"/>
<path fill="#948FDD" opacity="1.000000" stroke="none" 
	d="
M70.144203,73.860878 
	C70.718513,74.613297 71.713104,75.324814 71.791031,76.125542 
	C72.061661,78.906525 75.247269,82.000237 71.416878,84.445389 
	C68.617432,86.232430 63.237743,84.376091 61.149616,80.924728 
	C60.247120,79.433037 59.930077,77.587151 59.713326,75.508133 
	C61.694534,74.727112 63.309517,74.340103 64.950241,74.381279 
	C65.363571,77.454849 65.751160,80.100235 66.243767,83.462463 
	C71.144600,80.531441 70.050194,77.411560 69.643494,74.278633 
	C69.811768,74.141029 70.144203,73.860878 70.144203,73.860878 
z"/>
<path fill="#8F8BDA" opacity="1.000000" stroke="none" 
	d="
M106.147385,79.039688 
	C104.736992,80.598312 103.561646,83.086418 101.865570,83.515320 
	C98.676483,84.321762 95.186745,83.939339 91.822021,84.051239 
	C92.239571,81.129379 92.657120,78.207520 93.720795,75.068352 
	C94.885452,74.893311 95.404007,74.935577 95.974541,75.382599 
	C96.797859,77.995667 97.569191,80.203964 98.340515,82.412262 
	C99.600174,80.929726 100.859825,79.447189 102.469498,77.984871 
	C103.928802,78.349953 105.038094,78.694817 106.147385,79.039688 
z"/>
<path fill="#4C588F" opacity="1.000000" stroke="none" 
	d="
M53.426323,49.466866 
	C56.033020,48.704350 58.568745,48.362034 61.508770,48.024933 
	C60.104080,52.516621 58.295090,57.003090 56.486099,61.489559 
	C55.767185,61.391193 55.048267,61.292824 54.329353,61.194454 
	C54.004684,57.425323 53.680019,53.656197 53.426323,49.466866 
z"/>
<path fill="#7476D0" opacity="1.000000" stroke="none" 
	d="
M106.416656,78.790146 
	C105.038094,78.694817 103.928802,78.349953 102.406113,77.621429 
	C101.166313,75.596878 100.339912,73.955978 99.513519,72.315079 
	C98.316528,73.202667 97.119545,74.090256 95.922554,74.977844 
	C95.404007,74.935577 94.885452,74.893311 93.977219,74.827087 
	C97.274857,72.970947 100.903343,70.990982 104.715828,69.473160 
	C105.259224,69.256821 107.441139,71.201515 107.556000,72.284805 
	C107.771416,74.316483 107.029617,76.449654 106.416656,78.790146 
z"/>
<path fill="#30406A" opacity="1.000000" stroke="none" 
	d="
M84.014603,119.010071 
	C83.675179,120.092102 83.640625,121.472649 82.933594,122.194740 
	C81.407089,123.753769 79.120071,126.415848 77.884148,126.059593 
	C74.404922,125.056686 72.463188,122.168098 73.646286,117.116394 
	C76.477051,122.394730 79.585472,123.870369 83.673752,119.076149 
	C83.999733,118.999016 84.014603,119.010071 84.014603,119.010071 
z"/>
<path fill="#666BC7" opacity="1.000000" stroke="none" 
	d="
M64.924500,73.953102 
	C63.309517,74.340103 61.694534,74.727112 59.725441,75.152924 
	C58.959812,68.905205 59.909424,68.453484 67.798790,71.692215 
	C67.998985,72.106293 67.917336,72.444778 67.621468,72.418762 
	C66.525230,72.912872 65.724869,73.432983 64.924500,73.953102 
z"/>
<path fill="#24324D" opacity="1.000000" stroke="none" 
	d="
M121.198601,145.158783 
	C122.476883,143.705917 123.994820,142.546753 126.299736,140.786606 
	C126.712875,143.089767 126.982193,144.591202 127.291565,146.470169 
	C125.367165,146.382629 123.402702,145.917542 121.198601,145.158783 
z"/>
<path fill="#30406A" opacity="1.000000" stroke="none" 
	d="
M83.993973,118.991211 
	C83.988205,118.983414 84.103256,118.962067 84.058929,118.986069 
	C84.014603,119.010071 83.999733,118.999016 83.993973,118.991211 
z"/>
<path fill="#948FDD" opacity="1.000000" stroke="none" 
	d="
M69.151192,72.837975 
	C69.423561,73.021965 69.695938,73.205956 70.056259,73.625412 
	C70.144203,73.860878 69.811768,74.141029 69.512909,74.089508 
	C69.059677,73.773430 68.902832,73.510361 68.845917,73.146553 
	C68.948326,73.044334 69.151192,72.837975 69.151192,72.837975 
z"/>
<path fill="#948FDD" opacity="1.000000" stroke="none" 
	d="
M68.038391,71.936722 
	C68.357872,71.966858 68.637962,72.166580 69.034622,72.602142 
	C69.151192,72.837975 68.948326,73.044334 68.677559,73.045181 
	C68.176186,72.900520 68.013031,72.700104 67.917336,72.444778 
	C67.917336,72.444778 67.998985,72.106293 68.038391,71.936722 
z"/>
<path fill="#7379C5" opacity="1.000000" stroke="none" 
	d="
M139.690094,40.571129 
	C139.322189,42.041111 139.105331,43.235603 138.797684,44.930294 
	C134.771698,41.983944 136.983597,39.349236 138.753708,37.670567 
	C139.856155,36.625076 142.374557,37.072674 144.257507,36.850182 
	C144.339920,37.436329 144.422333,38.022472 144.504745,38.608616 
	C142.950211,39.170956 141.395691,39.733292 139.690094,40.571129 
z"/>
<path fill="#7379C5" opacity="1.000000" stroke="none" 
	d="
M142.492706,44.450844 
	C142.731262,44.074184 143.056290,43.829201 143.381317,43.584217 
	C143.505219,43.791420 143.629120,43.998627 143.753021,44.205833 
	C143.361740,44.331390 142.970444,44.456955 142.492706,44.450844 
z"/>
<path fill="#1A293E" opacity="1.000000" stroke="none" 
	d="
M60.963203,45.020813 
	C60.904705,45.080231 60.702591,44.791698 60.702591,44.791698 
	C60.702591,44.791698 61.000740,44.709457 61.068092,44.774456 
	C61.135445,44.839455 61.021698,44.961399 60.963203,45.020813 
z"/>
<path fill="#E0DDFC" opacity="1.000000" stroke="none" 
	d="
M67.621468,72.418762 
	C68.013031,72.700104 68.176186,72.900520 68.575150,73.147400 
	C68.902832,73.510361 69.059677,73.773430 69.344635,74.227112 
	C70.050194,77.411560 71.144600,80.531441 66.243767,83.462463 
	C65.751160,80.100235 65.363571,77.454849 64.950241,74.381279 
	C65.724869,73.432983 66.525230,72.912872 67.621468,72.418762 
z"/>
<path fill="#DBD8FB" opacity="1.000000" stroke="none" 
	d="
M95.974541,75.382599 
	C97.119545,74.090256 98.316528,73.202667 99.513519,72.315079 
	C100.339912,73.955978 101.166313,75.596878 102.056091,77.601212 
	C100.859825,79.447189 99.600174,80.929726 98.340515,82.412262 
	C97.569191,80.203964 96.797859,77.995667 95.974541,75.382599 
z"/>
</svg>