<svg width="400" height="400" xmlns="http://www.w3.org/2000/svg" clip-rule="evenodd" version="1.1">

 <g>
  <title>Layer 1</title>
  <rect stroke-width="0" stroke="#000" rx="43" id="svg_3" height="401.00004" width="399.00003" y="0.49998" x="1.49999" fill="#ffd510"/>
  <g id="svg_1">
   <path id="svg_2" d="m196.43808,106.50088c5.445,-0.075 9.612,2.258 12.5,7c7.048,12.376 14.881,24.209 23.5,35.5c14.261,7.935 28.261,16.269 42,25c7.084,2.737 14.417,4.403 22,5c28.026,1.168 56.026,2.835 84,5c4,3 4,6 0,9c-2.833,0.167 -5.667,0.333 -8.5,0.5c-26.475,-1.915 -52.975,-3.415 -79.5,-4.5c-8.232,-1.058 -16.232,-3.058 -24,-6c-14.402,-9.397 -29.069,-18.397 -44,-27c-2.521,-2.22 -4.688,-4.72 -6.5,-7.5c-5.749,-9.834 -11.749,-19.501 -18,-29c-1.044,1.123 -1.71,2.456 -2,4c-1.108,5.647 -2.108,11.314 -3,17c-4.811,45.777 -10.478,91.443 -17,137c-1.322,5.477 -3.822,10.311 -7.5,14.5c-1.372,0.402 -2.705,0.902 -4,1.5c-4.219,-1.383 -7.385,-4.05 -9.5,-8c-1.528,-2.917 -2.861,-5.917 -4,-9c-5.405,-20.956 -11.739,-41.623 -19,-62c-1.708,-4.702 -4.541,-8.535 -8.5,-11.5c-12.048,-6.358 -24.7144,-11.024 -38,-14c-22.9639,-1.27 -45.9639,-1.936 -69,-2c-2.7994,-3.339 -2.4661,-6.339 1,-9c22.3333,-0.667 44.6667,-0.667 67,0c15.036,3.012 29.37,8.012 43,15c6.862,4.547 11.695,10.713 14.5,18.5c7.181,23.059 14.514,46.059 22,69c2.861,-10.498 4.861,-21.165 6,-32c4.461,-41.403 9.461,-82.736 15,-124c0.857,-7.388 4.023,-13.388 9.5,-18z" fill="#010101"/>
  </g>
 </g>
</svg>