<svg viewBox="0 0 32 32" xmlns="http://www.w3.org/2000/svg">
  <!-- Simple ghost shape -->
  <path d="M16 4 C10 4 6 8 6 14 L6 24 C6 26 8 26 9 25 L11 23 C12 22 14 22 15 23 L17 25 C18 26 20 26 21 25 L23 23 C24 22 26 22 27 25 C28 26 26 24 26 24 L26 14 C26 8 22 4 16 4 Z" 
        fill="#1e293b"/>
  
  <!-- Simple eyes -->
  <circle cx="12" cy="13" r="2" fill="white"/>
  <circle cx="20" cy="13" r="2" fill="white"/>
  
  <!-- Small pupils -->
  <circle cx="12" cy="13" r="1" fill="#2563eb"/>
  <circle cx="20" cy="13" r="1" fill="#2563eb"/>
</svg>