<?xml version="1.0" encoding="UTF-8" standalone="no"?>
<svg
   width="770"
   height="770"
   viewBox="0 0 770 770"
   version="1.1"
   id="svg1"
   sodipodi:docname="logo.svg"
   inkscape:version="1.4.2 (ebf0e940d0, 2025-05-08)"
   xmlns:inkscape="http://www.inkscape.org/namespaces/inkscape"
   xmlns:sodipodi="http://sodipodi.sourceforge.net/DTD/sodipodi-0.dtd"
   xmlns="http://www.w3.org/2000/svg"
   xmlns:svg="http://www.w3.org/2000/svg"
   xmlns:rdf="http://www.w3.org/1999/02/22-rdf-syntax-ns#"
   xmlns:cc="http://creativecommons.org/ns#"
   xmlns:dc="http://purl.org/dc/elements/1.1/">
  <title
     id="title18">Sparksneeze Icon</title>
  <defs
     id="defs1">
    <linearGradient
       id="swatch11">
      <stop
         style="stop-color:#4d4d4d;stop-opacity:1;"
         offset="0"
         id="stop11" />
    </linearGradient>
    <linearGradient
       id="swatch1"
       inkscape:swatch="solid">
      <stop
         style="stop-color:#6a6a6a;stop-opacity:1;"
         offset="0"
         id="stop1" />
    </linearGradient>
  </defs>
  <sodipodi:namedview
     id="namedview1"
     pagecolor="#ffffff"
     bordercolor="#000000"
     borderopacity="0.25"
     inkscape:showpageshadow="2"
     inkscape:pageopacity="0.0"
     inkscape:pagecheckerboard="true"
     inkscape:deskcolor="#d1d1d1"
     inkscape:zoom="1.1611328"
     inkscape:cx="385.3995"
     inkscape:cy="385.3995"
     inkscape:window-width="2256"
     inkscape:window-height="1440"
     inkscape:window-x="0"
     inkscape:window-y="0"
     inkscape:window-maximized="1"
     inkscape:current-layer="svg1" />
  <rect
     style="fill:#ffad1f;fill-opacity:1;stroke:#000000;stroke-width:20;stroke-linejoin:miter;stroke-dasharray:none;stroke-opacity:1;paint-order:fill markers stroke"
     id="rect1"
     width="750"
     height="750"
     x="10"
     y="10"
     ry="130.04541" />
  <path
     d="m 581.41975,365.82085 c -11,5.5 -35.1,17.8 -53.5,27.3 -18.4,9.5 -35.8,18.4 -38.5,19.7 -20.6,10.1 -94.8,48.1 -102,52.4 -16.9,9.8 -22.7,17.1 -29.4,37.2 -3.6,10.9 -3.9,17 -1,24.6 4.8,12.9 11.9,20.4 41.9,44.4 8,6.4 17.7,14.3 21.5,17.7 8.9,7.8 24.2,20.2 42,34.1 12,9.3 54.2,43.3 97.7,78.6 13.6,11 16.4,12.5 21.1,11.2 7.2,-2.1 9.7,-11.5 4.5,-17.1 -2.1,-2.2 -48.4,-40.7 -73.3,-60.9 -11.5,-9.3 -40.8,-32.3 -67.9,-53.2 -23.4,-18.1 -26.5,-21.5 -23.7,-25.9 0.9,-1.4 0,-1.7 56.6,21.6 13.2,5.2 44,18 68.5,28.5 97.3,41.5 87,37.6 92.4,35.8 4.7,-1.5 7.6,-5.4 7.6,-10 0,-4.2 -2.1,-6.6 -8.6,-9.9 -12.7,-6.4 -121.4,-52.2 -174.4,-73.6 -14.6,-5.9 -26.9,-11.1 -27.3,-11.5 -1.5,-1.5 3.6,-9.6 5.4,-8.5 0.4,0.2 7.1,1.1 15,1.9 34,3.6 43.5,4.6 63.4,7 19.8,2.4 35.5,4.2 86.5,10 45.9,5.2 56.2,5.5 62.7,1.5 3.9,-2.4 5.4,-8 3.2,-12 -3.1,-5.7 -5.5,-6.1 -68.9,-12.5 -2.5,-0.3 -27.4,-3 -55.5,-6 -28,-3 -63.1,-6.7 -78,-8.1 -14.8,-1.4 -27.8,-3 -28.7,-3.6 -2.2,-1.2 -3.4,-5.7 -2.1,-7.8 2.2,-3.6 7.2,-5 27.8,-8 11.5,-1.7 34.3,-5.3 50.5,-8.1 30.3,-5.1 47.2,-7.8 81,-13 48.7,-7.5 54.7,-8.8 59.8,-12.6 2.8,-2.1 3.2,-3.1 3.2,-7 0,-6.4 -2.2,-10.2 -6.4,-11 -3.8,-0.7 -51.1,6.8 -143.1,22.6 -12.6,2.2 -32.7,5.5 -44.5,7.5 -11.8,1.9 -23.9,4.2 -27,5 -7.7,2.1 -8.6,1.9 -10,-1.6 -1.1,-2.5 -1.1,-3.3 0.1,-4.4 1.8,-1.7 101.6,-51.9 145.4,-73.1 18.1,-8.8 34.3,-17.1 35.9,-18.4 6.3,-5.3 6.9,-12.9 1.5,-17.5 -5.4,-4.5 -8.8,-3.7 -31.3,7.6 z"
     id="path18" />
  <path
     d="m 141.91975,81.72085 c -5.5,1.7 -8.7,4.6 -10.6,9.4 -1.4,3.7 -1.5,5.2 -0.6,8.4 2.2,7.4 5.8,8.7 27.6,10.1 24.8,1.6 46.2,6.2 61.9,13.3 23.2,10.6 48.6,31.7 61.7,51.1 11.3,16.9 18,32.2 32.7,75 7.3,21.1 11.5,30.9 30.4,69.2 8.7,17.7 15.9,33.5 15.9,35 0,4.3 -8.8,11.8 -25,21.3 -22.1,13 -26.5,18.5 -26.4,33.5 0,6.9 0.5,9.2 3.6,16.5 8.6,20.6 8.1,23.3 -7,37.5 -22.7,21.4 -24.8,23.6 -26.7,29.4 -2.5,7.6 -1.6,16.5 2.5,25.6 7.7,16.9 8.5,23.4 4.4,36.4 -2.9,9.3 -8.6,18.3 -15.6,24.5 -7.5,6.8 -13,9 -22.6,9.4 -8.9,0.4 -14.7,-1 -42.8,-10.4 -22.4,-7.5 -32.7,-9.7 -43,-9.3 -7.8,0.3 -10,0.8 -15.5,3.5 -15.5,7.7 -26,23.2 -37.4,55.2 -2.6,7.3 -6.2,16.7 -8.1,20.7 -4.6,10 -5.2,14.9 -2.7,20.7 2.1,4.7 5,6.9 10.9,8 9.5,1.8 16.4,-6.9 21.6,-27.3 4.1,-16 6.5,-22.7 11.3,-32.2 7.5,-14.6 15.5,-21.7 24.5,-21.8 3.9,0 18.2,3.9 41.3,11.3 20.5,6.5 28.4,8.2 40,8.1 7.5,0 11.4,-0.5 15.7,-2.2 24.2,-8.8 44.6,-34.4 50.5,-63.3 2,-9.6 0.7,-19 -4.1,-31 -5.7,-14.1 -6.1,-16.1 -4.3,-20.1 0.9,-1.9 7.1,-8.2 14.2,-14.4 20,-17.5 24.4,-24.9 24.4,-41.1 0,-8.4 -1.5,-14.4 -6,-23.4 -2.6,-5.2 -2.1,-9.8 1.3,-12.8 1.2,-1.1 8.5,-6.2 16.2,-11.3 26.4,-17.5 33.1,-24.7 35,-37.3 1.1,-7.4 -0.9,-13.2 -11.2,-31.9 -5.2,-9.5 -15.1,-28.2 -21.9,-41.6 -10.4,-20.5 -13.2,-27 -18,-42 -6.7,-20.9 -18.5,-51.5 -24.4,-63.4 -19.7,-39.2 -58.4,-73.4 -97,-85.7 -10.6,-3.4 -32,-8.5 -42,-10.1 -10,-1.6 -31,-2.2 -35,-1 z"
     id="path1" />
  <metadata
     id="metadata18">
    <rdf:RDF>
      <cc:Work
         rdf:about="">
        <dc:title>Sparksneeze Icon</dc:title>
        <dc:creator>
          <cc:Agent>
            <dc:title>Merijn Douwes</dc:title>
          </cc:Agent>
        </dc:creator>
      </cc:Work>
    </rdf:RDF>
  </metadata>
</svg>
