<?xml version="1.0" encoding="UTF-8" standalone="no"?>
<!-- Created with Inkscape (http://www.inkscape.org/) -->

<svg
   width="43.017937mm"
   height="43.029503mm"
   viewBox="0 0 43.017938 43.029503"
   version="1.1"
   id="svg1"
   xml:space="preserve"
   xmlns="http://www.w3.org/2000/svg"
   xmlns:svg="http://www.w3.org/2000/svg"><defs
     id="defs1" /><g
     id="layer1"
     transform="translate(-126.99103,-31.006156)"><path
       style="fill:#4bcbf1;fill-opacity:1;stroke-width:0.339531"
       d="m 146.52332,73.984618 c -3.93953,-0.407566 -7.68428,-1.827434 -10.71464,-4.062577 -4.83918,-3.569303 -7.8685,-8.690412 -8.7028,-14.712218 -0.15313,-1.105172 -0.15313,-4.284883 0,-5.390056 1.01099,-7.297048 5.30537,-13.325615 11.82645,-16.602293 2.08325,-1.046783 4.40246,-1.754283 6.87232,-2.096478 1.10517,-0.15312 4.28488,-0.15312 5.39005,-1e-6 9.88159,1.369074 17.35006,8.837316 18.69936,18.698772 0.17038,1.245274 0.14711,4.380235 -0.0421,5.664804 -1.40983,9.573661 -8.78573,16.975478 -18.30368,18.36799 -1.13556,0.166136 -3.97444,0.240741 -5.025,0.132057 z m -3.25073,-12.13695 c 7.89381,-3.251003 8.93815,-3.691361 9.31454,-3.92758 0.53391,-0.335062 1.23608,-1.106507 1.50035,-1.648372 0.12821,-0.262882 1.47357,-3.485572 2.9897,-7.161529 3.02286,-7.32916 2.92665,-7.024618 2.38918,-7.562078 -0.53543,-0.535431 -0.23233,-0.631243 -7.55993,2.389853 -3.67714,1.516054 -6.90563,2.863387 -7.17442,2.994076 -0.6261,0.304417 -1.50983,1.187741 -1.81593,1.815092 -0.13115,0.268793 -1.47891,3.497465 -2.99503,7.174825 -2.91629,7.073474 -2.85975,6.905694 -2.50782,7.442819 0.14561,0.22223 0.5908,0.459521 0.87356,0.465622 0.0896,0.002 2.33325,-0.890294 4.9858,-1.982728 z m 4.46349,-6.577823 c -0.84915,-0.280006 -1.36599,-0.699248 -1.75784,-1.425903 -0.27847,-0.516399 -0.30497,-0.631928 -0.30497,-1.329148 0,-0.697356 0.0265,-0.812691 0.30525,-1.329671 0.33993,-0.630387 0.62178,-0.90262 1.29874,-1.254394 0.38988,-0.202605 0.57355,-0.238721 1.22241,-0.240385 0.69913,-0.0017 0.81134,0.0238 1.32915,0.303015 0.981,0.528999 1.49607,1.395856 1.49819,2.521435 0.002,1.158344 -0.60007,2.107377 -1.63922,2.583116 -0.58385,0.267299 -1.43509,0.342288 -1.95171,0.171935 z"
       id="path3" /></g></svg>
