<?xml version="1.0" encoding="UTF-8" standalone="no"?>
<!-- Created with Inkscape (http://www.inkscape.org/) -->

<svg
   width="800"
   height="800"
   viewBox="0 0 211.66667 211.66667"
   version="1.1"
   id="svg5"
   inkscape:version="1.2.2 (b0a8486541, 2022-12-01)"
   sodipodi:docname="nlp-sentiment.svg"
   xmlns:inkscape="http://www.inkscape.org/namespaces/inkscape"
   xmlns:sodipodi="http://sodipodi.sourceforge.net/DTD/sodipodi-0.dtd"
   xmlns:xlink="http://www.w3.org/1999/xlink"
   xmlns="http://www.w3.org/2000/svg"
   xmlns:svg="http://www.w3.org/2000/svg">
  <sodipodi:namedview
     id="namedview7"
     pagecolor="#ffffff"
     bordercolor="#666666"
     borderopacity="1.0"
     inkscape:pageshadow="2"
     inkscape:pageopacity="0.0"
     inkscape:pagecheckerboard="true"
     inkscape:document-units="px"
     showgrid="false"
     units="px"
     width="800px"
     inkscape:zoom="0.9227017"
     inkscape:cx="393.40992"
     inkscape:cy="419.96238"
     inkscape:window-width="1920"
     inkscape:window-height="1022"
     inkscape:window-x="0"
     inkscape:window-y="0"
     inkscape:window-maximized="1"
     inkscape:current-layer="layer1"
     inkscape:showpageshadow="2"
     inkscape:deskcolor="#d1d1d1" />
  <defs
     id="defs2">
    <linearGradient
       inkscape:collect="always"
       id="linearGradient1428">
      <stop
         style="stop-color:#ef0400;stop-opacity:1;"
         offset="0"
         id="stop1424" />
      <stop
         style="stop-color:#ffffff;stop-opacity:1;"
         offset="1"
         id="stop1426" />
    </linearGradient>
    <linearGradient
       inkscape:collect="always"
       xlink:href="#linearGradient1428"
       id="linearGradient1430"
       x1="23.290134"
       y1="109.71561"
       x2="23.289541"
       y2="109.54389"
       gradientUnits="userSpaceOnUse"
       gradientTransform="matrix(0.99900212,0,0,1.1306916,0.02327762,-14.749537)" />
    <linearGradient
       inkscape:collect="always"
       xlink:href="#linearGradient1428"
       id="linearGradient1084"
       gradientUnits="userSpaceOnUse"
       gradientTransform="matrix(2.9825905,0,0,1.1258605,-6.204764,-14.049493)"
       x1="23.290134"
       y1="109.71561"
       x2="23.289541"
       y2="109.54389" />
    <linearGradient
       inkscape:collect="always"
       xlink:href="#linearGradient1428"
       id="linearGradient1120"
       gradientUnits="userSpaceOnUse"
       gradientTransform="matrix(2.9825905,0,0,1.1258605,7.6672725,-14.058928)"
       x1="23.290134"
       y1="109.71561"
       x2="23.289541"
       y2="109.54389" />
    <linearGradient
       inkscape:collect="always"
       xlink:href="#linearGradient1428"
       id="linearGradient1603"
       gradientUnits="userSpaceOnUse"
       gradientTransform="matrix(3.4152809,0,0,1.2891913,-222.80391,-223.08139)"
       x1="23.290134"
       y1="109.71561"
       x2="23.289541"
       y2="109.54389" />
    <linearGradient
       inkscape:collect="always"
       xlink:href="#linearGradient1428"
       id="linearGradient1605"
       gradientUnits="userSpaceOnUse"
       gradientTransform="matrix(3.4152809,0,0,1.2891913,-206.91943,-223.09219)"
       x1="23.290134"
       y1="109.71561"
       x2="23.289541"
       y2="109.54389" />
    <linearGradient
       inkscape:collect="always"
       xlink:href="#linearGradient1428"
       id="linearGradient1607"
       gradientUnits="userSpaceOnUse"
       gradientTransform="matrix(1.1439294,0,0,1.2947233,162.30315,-59.572936)"
       x1="23.290134"
       y1="109.71561"
       x2="23.289541"
       y2="109.54389" />
  </defs>
  <g
     inkscape:label="Layer 1"
     inkscape:groupmode="layer"
     id="layer1">
    <g
       id="g1498"
       transform="matrix(1.0342147,0,0,1.0342147,-4.0516199,-10.981599)">
      <rect
         style="fill:url(#linearGradient1084);fill-opacity:1;stroke:none;stroke-width:0.52751;stroke-miterlimit:4;stroke-dasharray:none;stroke-opacity:1"
         id="rect1266-9"
         width="54.041977"
         height="51.63348"
         x="36.349586"
         y="83.377014" />
      <rect
         style="fill:url(#linearGradient1120);fill-opacity:1;stroke:none;stroke-width:0.52751;stroke-miterlimit:4;stroke-dasharray:none;stroke-opacity:1"
         id="rect1266-9-7"
         width="47.02961"
         height="43.491066"
         x="50.221619"
         y="83.367584" />
      <rect
         style="fill:#ffffff;fill-opacity:1;stroke:none;stroke-width:0.282103;stroke-miterlimit:4;stroke-dasharray:none;stroke-opacity:1"
         id="rect1266-9-7-3"
         width="13.450099"
         height="43.491066"
         x="59.707294"
         y="43.511688" />
      <rect
         style="fill:#ffffff;fill-opacity:1;stroke:none;stroke-width:0.151462;stroke-miterlimit:4;stroke-dasharray:none;stroke-opacity:1"
         id="rect1266-9-7-3-6"
         width="6.7228208"
         height="25.082287"
         x="53.265804"
         y="62.140415" />
      <rect
         style="fill:#ffffff;fill-opacity:1;stroke:none;stroke-width:0.108842;stroke-miterlimit:4;stroke-dasharray:none;stroke-opacity:1"
         id="rect1266-9-7-3-6-0"
         width="8.1478796"
         height="10.687297"
         x="46.457676"
         y="73.57991" />
      <rect
         style="fill:#ffffff;fill-opacity:1;stroke:none;stroke-width:0.166281;stroke-miterlimit:4;stroke-dasharray:none;stroke-opacity:1"
         id="rect1266-9-7-3-6-0-6"
         width="8.1478796"
         height="24.943609"
         x="94.025536"
         y="84.138504" />
      <rect
         style="fill:url(#linearGradient1430);fill-opacity:1;stroke:none;stroke-width:0.305948;stroke-miterlimit:4;stroke-dasharray:none;stroke-opacity:1"
         id="rect1266"
         width="18.101059"
         height="51.855045"
         x="14.276619"
         y="83.095039" />
      <g
         id="path39">
        <path
           style="color:#000000;fill:#000400;stroke-width:0.287867;-inkscape-stroke:none"
           d="m 50.386877,141.01574 c -4.382081,-0.62129 -8.756944,-2.18283 -11.636337,-4.15341 -0.435242,-0.29787 -0.836976,-0.54158 -0.89274,-0.54158 -0.05576,0 -0.386492,0.32471 -0.734954,0.72158 -0.34846,0.39688 -1.166788,0.98345 -1.818507,1.30349 l -1.184939,0.58189 -10.171411,0.0631 c -11.17073,0.0693 -11.810836,0.0144 -13.574788,-1.16489 -0.9957761,-0.66572 -2.1170634,-2.2284 -2.4282812,-3.38417 -0.1430892,-0.5314 -0.1962337,-8.99838 -0.1592522,-25.37253 l 0.055501,-24.575002 0.4479931,-0.834229 c 0.5951985,-1.108349 1.7724503,-2.294236 2.8485243,-2.869414 0.867954,-0.463936 0.955012,-0.467991 11.406778,-0.53125 5.792682,-0.03506 10.91984,-0.0076 11.393684,0.06119 0.473845,0.06872 1.412353,0.457508 2.085574,0.863982 l 1.224038,0.739042 0.938509,-1.040336 c 0.516179,-0.572186 2.550734,-2.80931 4.521232,-4.971384 4.304716,-4.723235 5.907552,-6.628399 7.781514,-9.249262 3.672979,-5.136913 5.7599,-9.89619 6.996038,-15.95464 0.64704,-3.171213 1.124136,-4.669091 2.125716,-6.673836 1.450374,-2.903044 3.732829,-4.902396 6.585842,-5.768973 1.188359,-0.360955 1.810534,-0.419722 3.600699,-0.340103 1.98679,0.08836 2.2952,0.161036 3.764022,0.886968 5.966883,2.948995 8.034624,10.149049 5.911666,20.584972 -0.858694,4.221147 -2.897924,10.383176 -5.281824,15.960344 -0.646702,1.512967 -1.175822,2.803416 -1.175822,2.867664 0,0.06425 4.765395,0.116817 10.589763,0.116817 10.893503,0 12.933608,0.111047 15.688466,0.85394 5.905309,1.592468 9.385079,5.722227 9.385079,11.13811 0,2.841747 -1.05108,5.532199 -3.02858,7.752169 l -1.13647,1.275829 0.62542,1.379312 c 2.44093,5.38341 1.25888,10.01306 -3.41325,13.36824 -0.57764,0.41481 -0.57912,0.42194 -0.26706,1.29604 0.91281,2.55675 0.7901,5.82983 -0.30453,8.12344 -0.75463,1.58117 -2.541002,3.4789 -4.099345,4.35489 l -1.042348,0.58593 -0.129707,1.68354 c -0.422114,5.47871 -3.151298,9.44997 -7.395173,10.76077 -1.286445,0.39734 -1.960003,0.41132 -18.779013,0.38999 -12.921625,-0.0164 -17.931386,-0.0911 -19.321727,-0.28825 z m 36.772652,-6.67629 c 1.442503,-0.86923 2.12526,-2.83041 2.105593,-6.04816 -0.0071,-1.14707 -0.08902,-2.60176 -0.182219,-3.23264 -0.0932,-0.63089 -0.10077,-1.22179 -0.01687,-1.31311 0.08392,-0.0913 0.967063,-0.35803 1.962549,-0.59269 1.162415,-0.27402 2.157357,-0.66232 2.780964,-1.08532 2.526738,-1.71394 2.283769,-3.7388 -1.137095,-9.47587 -0.634517,-1.06415 -1.114946,-1.97356 -1.067604,-2.0209 0.04737,-0.0474 1.227878,-0.36846 2.623417,-0.71359 2.961268,-0.73236 3.914378,-1.17162 4.847026,-2.23386 0.631844,-0.71962 0.674536,-0.86109 0.594363,-1.96929 -0.113957,-1.57555 -0.963389,-3.2557 -3.081082,-6.094395 -0.921092,-1.23468 -1.674712,-2.293553 -1.674712,-2.35305 0,-0.0595 0.97046,-0.572839 2.156608,-1.140759 3.577453,-1.712894 4.934343,-3.280397 4.934343,-5.70024 0,-2.580381 -1.22707,-3.840808 -4.743745,-4.872679 -1.048583,-0.307679 -2.833106,-0.366636 -14.130698,-0.46685 L 70.199811,84.911349 69.097026,84.413033 C 67.080993,83.502044 65.923,81.695259 65.925548,79.464661 c 0.0017,-1.439697 0.235196,-2.157627 2.231076,-6.858197 2.679615,-6.310857 4.430567,-11.865307 5.161865,-16.374663 0.400966,-2.472476 0.413302,-6.207019 0.0253,-7.664493 -1.06002,-3.981966 -4.481899,-5.407306 -6.912966,-2.879513 -1.055168,1.09715 -1.733248,2.860755 -2.492203,6.481912 -1.347996,6.431603 -3.363764,11.296556 -6.869188,16.578445 -2.45674,3.701756 -4.581491,6.315541 -9.492706,11.677562 -1.207391,1.318216 -2.625863,2.866754 -3.152162,3.441197 -1.565006,1.708164 -2.538252,2.831008 -3.903811,4.503857 L 39.22907,89.95317 v 19.29373 19.29373 l 1.212579,1.1566 c 2.633597,2.51203 5.932073,3.97562 10.675192,4.73677 2.146443,0.34446 2.785152,0.35555 19.500116,0.33862 15.465697,-0.0157 15.867152,-0.0262 16.542586,-0.43317 z M 32.242384,109.52112 V 86.788366 l -8.915829,-0.05438 -8.915828,-0.05437 v 22.841504 22.84152 l 8.915828,-0.0544 8.915829,-0.0544 z"
           id="path1186" />
        <path
           style="color:#000000;fill:#000000;-inkscape-stroke:none"
           d="m 69.802734,37.78125 c -1.794782,-0.07982 -2.450869,-0.01805 -3.648437,0.345703 -2.891491,0.878265 -5.206328,2.910337 -6.671875,5.84375 -1.006223,2.014038 -1.490637,3.532894 -2.138672,6.708984 -1.232745,6.04182 -3.309142,10.774762 -6.972656,15.898438 -1.87057,2.616119 -3.465818,4.514193 -7.769532,9.236328 -1.970566,2.16215 -4.004289,4.399345 -4.521484,4.972656 l -0.859375,0.951172 -1.123047,-0.677734 c -0.689124,-0.416076 -1.615231,-0.8069 -2.138672,-0.882813 -0.153635,-0.0223 -0.544709,-0.0332 -1.183593,-0.04492 -0.638884,-0.01172 -1.506127,-0.01985 -2.539063,-0.02539 -2.065872,-0.01108 -4.796537,-0.0097 -7.693359,0.0078 -5.225894,0.03163 -7.858958,0.04799 -9.302735,0.115235 -0.721888,0.03362 -1.146672,0.0804 -1.455078,0.15039 -0.308405,0.06999 -0.49705,0.166789 -0.714843,0.283203 -1.1101205,0.593377 -2.2958252,1.787394 -2.9082036,2.927735 l -0.4648438,0.865234 -0.054687,24.611329 c -0.018491,8.18728 -0.014836,14.39818 0.011719,18.62891 0.013277,2.11536 0.032084,3.73557 0.056641,4.86132 0.012278,0.56288 0.025833,1.00177 0.041016,1.31836 0.015182,0.31659 0.024617,0.48989 0.054687,0.60157 0.3253168,1.20813 1.4455393,2.77098 2.4863284,3.46679 0.887804,0.59354 1.537539,0.92057 3.328125,1.07422 1.790585,0.15365 4.742513,0.14989 10.328125,0.11524 l 10.203125,-0.0625 1.214843,-0.59766 c 0.671387,-0.3297 1.4875,-0.90989 1.863282,-1.33789 0.172175,-0.1961 0.341074,-0.37469 0.470703,-0.50195 0.06481,-0.0636 0.119318,-0.11432 0.158203,-0.14649 0.0052,-0.004 0.0072,-0.004 0.01172,-0.008 0.0077,0.004 0.01211,0.005 0.02148,0.01 0.04789,0.0252 0.115975,0.0652 0.195313,0.11329 0.158674,0.0963 0.366345,0.22934 0.582031,0.37695 2.906219,1.98894 7.295184,3.55361 11.697265,4.17773 l 0.164063,0.0234 v -0.0176 c 0.747238,0.0964 2.239864,0.16304 5.189453,0.20703 3.042824,0.0454 7.527222,0.068 13.988281,0.0762 8.409539,0.0107 12.781574,0.0135 15.216797,-0.0371 2.435223,-0.0506 2.953981,-0.15876 3.603516,-0.35938 4.305567,-1.32985 7.070739,-5.36595 7.496094,-10.88672 l 0.125,-1.60742 0.974609,-0.54687 c 1.594788,-0.89648 3.384822,-2.79752 4.158202,-4.41797 1.11576,-2.33787 1.23781,-5.63715 0.31055,-8.23438 -0.15596,-0.43686 -0.21289,-0.64934 -0.19336,-0.74414 0.01,-0.0474 0.031,-0.0831 0.0957,-0.14453 0.0647,-0.0614 0.17018,-0.13858 0.31446,-0.24219 2.35687,-1.69253 3.84582,-3.71912 4.42968,-6.00586 0.58387,-2.28674 0.25978,-4.82527 -0.9707,-7.53906 l -0.58594,-1.294921 1.07422,-1.205078 c 1.99907,-2.244182 3.06446,-4.970421 3.06446,-7.847657 0,-5.47753 -3.53826,-9.672291 -9.490241,-11.277343 -2.768621,-0.746605 -4.832092,-0.859375 -15.726562,-0.859375 -2.911748,0 -5.559926,-0.01204 -7.478516,-0.0332 -0.959295,-0.01058 -1.735078,-0.02318 -2.271484,-0.03711 -0.268203,-0.007 -0.478113,-0.01404 -0.617188,-0.02148 -0.01336,-7.16e-4 -0.01721,-0.0012 -0.0293,-0.002 0.01119,-0.02973 0.01856,-0.05022 0.0332,-0.08789 0.05913,-0.152161 0.145592,-0.367553 0.251954,-0.626953 0.212722,-0.518801 0.506964,-1.218681 0.830078,-1.97461 2.387297,-5.585116 4.42695,-11.750331 5.289062,-15.988281 1.064587,-5.233238 1.082615,-9.663444 0.07617,-13.167969 C 78.683011,42.753288 76.64423,40.175779 73.625,38.683594 72.152426,37.955807 71.792362,37.869736 69.802734,37.78125 Z m -0.01172,0.287109 c 1.983948,0.08823 2.241964,0.148971 3.707031,0.873047 2.947647,1.456807 4.925655,3.952807 5.914062,7.394531 0.988408,3.441725 0.978291,7.830529 -0.08008,13.033204 -0.855274,4.204336 -2.89294,10.362432 -5.273437,15.93164 -0.323588,0.757037 -0.616566,1.457789 -0.830078,1.978516 -0.106757,0.260363 -0.193617,0.475712 -0.253907,0.630859 -0.03015,0.07757 -0.0537,0.140634 -0.07031,0.1875 -0.0083,0.02343 -0.01632,0.0415 -0.02148,0.05859 -0.0052,0.01709 -0.01172,0.01495 -0.01172,0.06836 0,2.51e-4 0.01939,0.07397 0.01953,0.07422 1.45e-4,2.51e-4 0.03096,0.03686 0.03125,0.03711 2.9e-4,2.51e-4 0.01701,0.01193 0.02344,0.01563 0.0064,0.0037 0.01104,0.0058 0.01563,0.0078 0.01834,0.0079 0.02768,0.0097 0.03711,0.01172 0.01887,0.0041 0.03593,0.0075 0.05664,0.0098 0.04142,0.0045 0.09778,0.0079 0.169922,0.01172 0.144284,0.0077 0.353489,0.01448 0.623047,0.02148 0.539116,0.014 1.317246,0.02652 2.277344,0.03711 1.920196,0.02118 4.567855,0.03516 7.480469,0.03516 10.892514,0 12.909301,0.108476 15.65039,0.847656 5.858633,1.57988 9.279303,5.645775 9.279303,11 0,2.806253 -1.03626,5.460496 -2.99219,7.65625 l -1.19922,1.345703 0.66406,1.464845 c 1.21045,2.66961 1.51809,5.13688 0.95313,7.34961 -0.56497,2.21273 -2.00311,4.17915 -4.31836,5.8418 -0.14455,0.1038 -0.25738,0.18368 -0.3457,0.26758 -0.0883,0.0839 -0.15589,0.18137 -0.17969,0.29687 -0.0476,0.23099 0.049,0.45925 0.20508,0.89649 0.89835,2.51626 0.77467,5.76432 -0.29883,8.01367 -0.73588,1.54188 -2.517172,3.43551 -4.039067,4.29101 l -1.109375,0.625 -0.134766,1.75977 c -0.418872,5.43664 -3.112747,9.34302 -7.294922,10.63476 -0.636909,0.19672 -1.097475,0.29529 -3.52539,0.34571 -2.427915,0.0504 -6.801483,0.0478 -15.210938,0.0371 -6.460552,-0.008 -10.942379,-0.0308 -13.982422,-0.0762 -3.040042,-0.0453 -4.646433,-0.11538 -5.320312,-0.21093 -4.362072,-0.61846 -8.721658,-2.17669 -11.574219,-4.12891 -0.219555,-0.15026 -0.430759,-0.28666 -0.595703,-0.38672 -0.08247,-0.05 -0.152268,-0.0913 -0.208984,-0.12109 -0.02836,-0.0149 -0.05282,-0.0273 -0.07617,-0.0371 -0.02335,-0.01 -0.03436,-0.0215 -0.09375,-0.0215 -0.07682,0 -0.0881,0.0222 -0.111328,0.0371 -0.02323,0.0149 -0.04546,0.0322 -0.07031,0.0527 -0.0497,0.0411 -0.107385,0.095 -0.175781,0.16211 -0.136793,0.1343 -0.308089,0.3168 -0.484375,0.51758 -0.321137,0.36576 -1.143341,0.95915 -1.775391,1.26953 l -1.154297,0.5664 -10.138671,0.0645 c -5.585107,0.0346 -8.5396,0.0361 -10.302735,-0.11524 -1.763134,-0.15129 -2.31526,-0.43964 -3.191406,-1.02539 -0.9507614,-0.63562 -2.0720225,-2.19932 -2.3691406,-3.30273 -0.0057,-0.0212 -0.029954,-0.2289 -0.044922,-0.54102 -0.014968,-0.31212 -0.028768,-0.74907 -0.041016,-1.31055 -0.024496,-1.12295 -0.043368,-2.74285 -0.056641,-4.85742 -0.026544,-4.22914 -0.030209,-10.43814 -0.011719,-18.625 L 7.984375,84.53125 8.4160156,83.728516 c 0.5780174,-1.076355 1.7470364,-2.253569 2.7890624,-2.810547 0.216183,-0.115554 0.363931,-0.19458 0.642578,-0.257813 0.278647,-0.06323 0.69141,-0.109285 1.40625,-0.142578 1.42968,-0.06659 4.065154,-0.08361 9.291016,-0.115234 2.895854,-0.01753 5.625119,-0.01889 7.689453,-0.0078 1.032167,0.0055 1.898409,0.01566 2.535156,0.02734 0.636747,0.01168 1.065151,0.02893 1.148438,0.04102 0.424249,0.06153 1.373933,0.448832 2.03125,0.845703 l 1.326172,0.798828 1.017578,-1.126953 c 0.515162,-0.571059 2.551059,-2.810662 4.521484,-4.972657 4.30571,-4.724325 5.913665,-6.636116 7.791016,-9.261718 3.682436,-5.15014 5.781955,-9.934697 7.021484,-16.009766 0.646044,-3.166329 1.116346,-4.643223 2.113281,-6.638672 1.435199,-2.872669 3.683518,-4.840424 6.498047,-5.695312 1.179147,-0.358157 1.767191,-0.413398 3.552735,-0.333985 z M 68.355469,44.375 c -0.708445,0.166336 -1.405152,0.563913 -2.029297,1.212891 -1.08723,1.130487 -1.768737,2.923918 -2.529297,6.552734 -1.345074,6.417663 -3.350695,11.258206 -6.847656,16.527344 -2.452856,3.695904 -4.569076,6.300073 -9.478516,11.660156 -1.207386,1.318211 -2.626063,2.866983 -3.152344,3.441406 -1.566149,1.709412 -2.541412,2.835408 -3.908203,4.509766 l -1.324219,1.623047 v 19.343746 19.35547 l 1.25586,1.19922 c 2.656823,2.53419 5.990645,4.01132 10.751953,4.77539 1.075187,0.17255 1.786364,0.26288 4.306641,0.30664 2.520276,0.0438 6.859289,0.0417 15.216796,0.0332 7.732873,-0.008 11.697906,-0.0147 13.820313,-0.0703 1.061204,-0.0278 1.661387,-0.0664 2.048828,-0.12695 0.387441,-0.0605 0.574024,-0.15101 0.748047,-0.25586 l 0.443359,-0.26758 h -0.242187 c 0.62,-0.46017 1.14744,-1.05067 1.460937,-1.95117 0.356553,-1.02417 0.521616,-2.33389 0.511719,-3.95312 -0.0071,-1.15317 -0.0875,-2.60345 -0.183594,-3.25391 -0.04573,-0.30958 -0.06932,-0.61042 -0.07227,-0.83984 -0.0015,-0.11472 0.0014,-0.21152 0.0098,-0.2793 0.0084,-0.0678 0.04184,-0.10913 0.0098,-0.0742 -0.02025,0.022 -0.0044,0.004 0.02344,-0.01 0.02786,-0.0135 0.07049,-0.0329 0.123047,-0.0527 0.105113,-0.0396 0.253784,-0.0875 0.429688,-0.14062 0.351808,-0.10625 0.819313,-0.23094 1.314453,-0.34766 1.174117,-0.27678 2.179525,-0.66552 2.828125,-1.10547 0.643467,-0.43648 1.122145,-0.90116 1.416016,-1.44922 0.29387,-0.54805 0.395572,-1.17686 0.30664,-1.91797 -0.177863,-1.48222 -1.102929,-3.42909 -2.816406,-6.30273 -0.316205,-0.53031 -0.595336,-1.02175 -0.787109,-1.38477 -0.09589,-0.1815 -0.168974,-0.3305 -0.214844,-0.43359 -0.0082,-0.0185 -0.01128,-0.0257 -0.01758,-0.041 0.03139,-0.0103 0.05877,-0.0196 0.103515,-0.0332 0.136777,-0.0414 0.331396,-0.0957 0.56836,-0.16016 0.473927,-0.1289 1.1176,-0.29641 1.814453,-0.46875 1.483649,-0.36692 2.468294,-0.66059 3.208984,-1.00195 0.740691,-0.34136 1.235065,-0.7334 1.710938,-1.27539 0.317946,-0.36212 0.504134,-0.59565 0.59375,-0.89258 0.08961,-0.29692 0.07541,-0.62527 0.03516,-1.18164 -0.117138,-1.61953 -0.986438,-3.32615 -3.109375,-6.171874 -0.460003,-0.616612 -0.877063,-1.188079 -1.179688,-1.613281 -0.151312,-0.212601 -0.273747,-0.388788 -0.357421,-0.513672 -0.02901,-0.0433 -0.04741,-0.07158 -0.06641,-0.101562 0.01964,-0.01257 0.03187,-0.02116 0.05859,-0.03711 0.10561,-0.06304 0.262851,-0.151192 0.457031,-0.253906 0.388361,-0.205428 0.92595,-0.474545 1.517578,-0.757813 1.797757,-0.86077 3.048366,-1.68872 3.855466,-2.621093 0.8071,-0.932374 1.16016,-1.972162 1.16016,-3.208985 0,-1.313004 -0.31925,-2.321633 -1.09375,-3.117187 -0.77451,-0.795554 -1.984719,-1.373459 -3.753907,-1.892578 -1.08621,-0.318552 -2.872037,-0.372289 -14.169984,-0.472507 L 70.230469,84.767578 69.15625,84.28125 c -1.9698,-0.890098 -3.088428,-2.635714 -3.085938,-4.816406 8.41e-4,-0.712095 0.05461,-1.225261 0.359375,-2.16211 0.304765,-0.936848 0.861678,-2.29091 1.859375,-4.640625 2.682671,-6.318054 4.437756,-11.881451 5.171875,-16.408203 0.202279,-1.24731 0.305821,-2.802884 0.310547,-4.234375 0.0047,-1.431491 -0.0871,-2.729646 -0.289062,-3.488281 -0.538816,-2.024061 -1.68182,-3.418868 -3.025391,-3.978516 -0.671785,-0.279823 -1.393118,-0.34407 -2.101562,-0.177734 z m 0.0625,0.273437 c 0.65002,-0.152917 1.307665,-0.08836 1.927734,0.169922 1.240139,0.516565 2.338172,1.827255 2.859375,3.785157 0.186041,0.698837 0.282027,1.995797 0.277344,3.414062 -0.0047,1.418265 -0.107954,2.966243 -0.306641,4.191406 -0.728475,4.491952 -2.47579,10.03815 -5.152344,16.341797 -0.99818,2.350851 -1.555809,3.704929 -1.867187,4.66211 -0.311378,0.957181 -0.374141,1.524352 -0.375,2.251953 -0.0026,2.280499 1.193597,4.148199 3.255859,5.080078 l 1.13086,0.509765 12.960937,0.115235 c 11.297215,0.100211 13.080782,0.164282 14.091797,0.460937 1.747483,0.512751 2.908757,1.080639 3.626957,1.81836 0.7182,0.737721 1.01367,1.648641 1.01367,2.916015 0,1.183018 -0.32609,2.136924 -1.0918,3.021485 -0.76571,0.88456 -1.982024,1.696706 -3.761718,2.548828 -0.594518,0.284651 -1.133938,0.555576 -1.527343,0.763672 -0.196703,0.104048 -0.357286,0.192069 -0.470703,0.259765 -0.05671,0.03385 -0.10153,0.06247 -0.136719,0.08789 -0.01759,0.01271 -0.03269,0.02343 -0.04883,0.03906 -0.0081,0.0078 -0.01502,0.01806 -0.02539,0.0332 -0.0052,0.0076 -0.01198,0.01563 -0.01758,0.0293 -0.0028,0.0068 -0.0077,0.02487 -0.0078,0.02539 -1.18e-4,5.2e-4 -0.0039,0.03274 -0.0039,0.0332 0,9.3e-4 0.0036,0.03029 0.0059,0.03906 0.0023,0.0088 0.0037,0.01595 0.0059,0.02148 0.0042,0.01106 0.0094,0.01891 0.01367,0.02734 0.0086,0.01687 0.01703,0.03245 0.0293,0.05273 0.02453,0.04057 0.05836,0.09372 0.101562,0.158203 0.08641,0.128972 0.211053,0.305643 0.363281,0.519532 0.304458,0.427778 0.722507,1.003027 1.183594,1.621093 2.112445,2.831658 2.941959,4.486018 3.052735,6.017578 0.03992,0.55183 0.04621,0.84736 -0.02344,1.07813 -0.06965,0.23076 -0.221259,0.4296 -0.535156,0.78711 -0.456775,0.52024 -0.905893,0.87621 -1.615235,1.20312 -0.709341,0.32692 -1.680587,0.61894 -3.158203,0.98438 -0.698684,0.17279 -1.343259,0.34094 -1.820312,0.4707 -0.238527,0.0649 -0.434671,0.11924 -0.576172,0.16211 -0.07075,0.0214 -0.128592,0.0394 -0.171875,0.0547 -0.02164,0.008 -0.03787,0.0142 -0.05469,0.0215 -0.01682,0.007 -0.02498,0.002 -0.06641,0.043 -3.7e-4,3.7e-4 -0.02118,0.0249 -0.02148,0.0254 -3.06e-4,4.8e-4 -0.0086,0.0159 -0.01172,0.0234 -0.0063,0.0151 -0.01014,0.0283 -0.01172,0.0391 -0.0032,0.0216 -0.0014,0.0361 0,0.0488 0.0029,0.0254 0.0092,0.0438 0.01563,0.0645 0.01294,0.0414 0.03128,0.0875 0.05664,0.14453 0.05072,0.114 0.126992,0.26835 0.224609,0.45313 0.195235,0.36956 0.474658,0.8646 0.792969,1.39844 1.707383,2.86342 2.612144,4.79649 2.779297,6.18945 0.08358,0.69648 -0.01108,1.25511 -0.275391,1.74805 -0.264315,0.49293 -0.704317,0.92521 -1.324218,1.3457 -0.598613,0.40604 -1.581712,0.79319 -2.732422,1.06445 -0.500345,0.11795 -0.972417,0.24296 -1.332032,0.35156 -0.179807,0.0543 -0.332077,0.10503 -0.447265,0.14844 -0.05759,0.0217 -0.106099,0.041 -0.146485,0.0605 -0.04039,0.0195 -0.06814,0.0294 -0.109375,0.0742 -0.07403,0.0806 -0.07308,0.14596 -0.08398,0.23437 -0.0109,0.0884 -0.01525,0.19507 -0.01367,0.31836 0.0032,0.24658 0.03066,0.55759 0.07813,0.87891 0.09031,0.6113 0.172626,2.07192 0.179688,3.21289 0.0098,1.59851 -0.15556,2.87731 -0.496094,3.85547 -0.340534,0.97816 -0.8502,1.65326 -1.539063,2.06836 -0.163694,0.0986 -0.281478,0.16039 -0.642578,0.21679 -0.3611,0.0564 -0.954919,0.0973 -2.011718,0.125 -2.113599,0.0554 -6.081644,0.0625 -13.814454,0.0703 -8.357439,0.008 -12.696512,0.0105 -15.210937,-0.0332 -2.514425,-0.0437 -3.196324,-0.13277 -4.267578,-0.30468 -4.724921,-0.75823 -7.987291,-2.2074 -10.597656,-4.69727 l -1.167969,-1.11523 V 109.24609 90.003906 l 1.259765,-1.542969 c 1.364325,-1.671336 2.334578,-2.789181 3.898438,-4.496093 0.526316,-0.574462 1.944951,-2.123188 3.152344,-3.441407 4.91298,-5.363948 7.04524,-7.987711 9.505859,-11.695312 3.51388,-5.29463 5.53971,-10.183376 6.890625,-16.628906 0.757348,-3.613491 1.431974,-5.348299 2.455078,-6.41211 0.591388,-0.614917 1.232793,-0.985754 1.882813,-1.138672 z M 14.267578,86.535156 v 22.986324 22.98633 l 9.060547,-0.0547 9.058594,-0.0566 v -22.875 -22.876949 l -9.058594,-0.05469 z m 0.28711,0.289063 8.771484,0.05273 8.771484,0.05469 v 22.589841 22.58985 l -8.771484,0.0527 -8.771484,0.0547 v -22.69727 z"
           id="path1188" />
      </g>
    </g>
    <g
       id="g2222"
       transform="matrix(0.90318753,0,0,0.90318753,20.589737,33.508542)">
      <g
         id="g2142"
         transform="rotate(180,139.20773,81.964398)">
        <rect
           style="fill:url(#linearGradient1603);fill-opacity:1;stroke:none;stroke-width:0.604037;stroke-miterlimit:4;stroke-dasharray:none;stroke-opacity:1"
           id="rect1266-9-8"
           width="61.881954"
           height="59.124054"
           x="-174.07611"
           y="-111.52103"
           transform="scale(-1)" />
        <rect
           style="fill:url(#linearGradient1605);fill-opacity:1;stroke:none;stroke-width:0.604037;stroke-miterlimit:4;stroke-dasharray:none;stroke-opacity:1"
           id="rect1266-9-7-7"
           width="53.852291"
           height="49.800404"
           x="-158.19164"
           y="-111.53182"
           transform="scale(-1)" />
      </g>
      <rect
         style="fill:#ef0400;fill-opacity:1;stroke:none;stroke-width:0.136401;stroke-miterlimit:4;stroke-dasharray:none;stroke-opacity:1"
         id="rect1266-9-7-3-6-0-0"
         width="10.915735"
         height="12.528487"
         x="-164.08746"
         y="-123.03018"
         transform="scale(-1)" />
      <rect
         style="fill:#ef0400;fill-opacity:1;stroke:none;stroke-width:0.136401;stroke-miterlimit:4;stroke-dasharray:none;stroke-opacity:1"
         id="rect1266-9-7-3-6-0-0-2"
         width="10.915735"
         height="12.528487"
         x="-172.56528"
         y="-111.11436"
         transform="scale(-1)" />
      <rect
         style="fill:#ef0400;fill-opacity:1;stroke:none;stroke-width:0.323028;stroke-miterlimit:4;stroke-dasharray:none;stroke-opacity:1"
         id="rect1266-9-7-3-9"
         width="15.401332"
         height="49.800404"
         x="-146.8007"
         y="-157.16969"
         transform="scale(-1)" />
      <rect
         style="fill:#ef0400;fill-opacity:1;stroke:none;stroke-width:0.173435;stroke-miterlimit:4;stroke-dasharray:none;stroke-opacity:1"
         id="rect1266-9-7-3-6-2"
         width="7.6981139"
         height="28.721024"
         x="-154.17667"
         y="-135.83846"
         transform="scale(-1)" />
      <rect
         style="fill:#ef0400;fill-opacity:1;stroke:none;stroke-width:0.190404;stroke-miterlimit:4;stroke-dasharray:none;stroke-opacity:1"
         id="rect1266-9-7-3-6-0-6-2"
         width="9.3299084"
         height="28.562229"
         x="-108.033"
         y="-110.64906"
         transform="scale(-1)" />
      <rect
         style="fill:url(#linearGradient1607);fill-opacity:1;stroke:none;stroke-width:0.350332;stroke-miterlimit:4;stroke-dasharray:none;stroke-opacity:1"
         id="rect1266-3"
         width="20.727016"
         height="59.377762"
         x="178.62425"
         y="52.466148" />
      <g
         id="path39-7"
         transform="matrix(-1.145072,0,0,-1.145072,215.69901,206.99371)">
        <path
           style="color:#000000;fill:#000400;stroke-width:0.287867;-inkscape-stroke:none"
           d="m 50.386877,141.01574 c -4.382081,-0.62129 -8.756944,-2.18283 -11.636337,-4.15341 -0.435242,-0.29787 -0.836976,-0.54158 -0.89274,-0.54158 -0.05576,0 -0.386492,0.32471 -0.734954,0.72158 -0.34846,0.39688 -1.166788,0.98345 -1.818507,1.30349 l -1.184939,0.58189 -10.171411,0.0631 c -11.17073,0.0693 -11.810836,0.0144 -13.574788,-1.16489 -0.9957761,-0.66572 -2.1170634,-2.2284 -2.4282812,-3.38417 -0.1430892,-0.5314 -0.1962337,-8.99838 -0.1592522,-25.37253 l 0.055501,-24.575002 0.4479931,-0.834229 c 0.5951985,-1.108349 1.7724503,-2.294236 2.8485243,-2.869414 0.867954,-0.463936 0.955012,-0.467991 11.406778,-0.53125 5.792682,-0.03506 10.91984,-0.0076 11.393684,0.06119 0.473845,0.06872 1.412353,0.457508 2.085574,0.863982 l 1.224038,0.739042 0.938509,-1.040336 c 0.516179,-0.572186 2.550734,-2.80931 4.521232,-4.971384 4.304716,-4.723235 5.907552,-6.628399 7.781514,-9.249262 3.672979,-5.136913 5.7599,-9.89619 6.996038,-15.95464 0.64704,-3.171213 1.124136,-4.669091 2.125716,-6.673836 1.450374,-2.903044 3.732829,-4.902396 6.585842,-5.768973 1.188359,-0.360955 1.810534,-0.419722 3.600699,-0.340103 1.98679,0.08836 2.2952,0.161036 3.764022,0.886968 5.966883,2.948995 8.034624,10.149049 5.911666,20.584972 -0.858694,4.221147 -2.897924,10.383176 -5.281824,15.960344 -0.646702,1.512967 -1.175822,2.803416 -1.175822,2.867664 0,0.06425 4.765395,0.116817 10.589763,0.116817 10.893503,0 12.933608,0.111047 15.688466,0.85394 5.905309,1.592468 9.385079,5.722227 9.385079,11.13811 0,2.841747 -1.05108,5.532199 -3.02858,7.752169 l -1.13647,1.275829 0.62542,1.379312 c 2.44093,5.38341 1.25888,10.01306 -3.41325,13.36824 -0.57764,0.41481 -0.57912,0.42194 -0.26706,1.29604 0.91281,2.55675 0.7901,5.82983 -0.30453,8.12344 -0.75463,1.58117 -2.541002,3.4789 -4.099345,4.35489 l -1.042348,0.58593 -0.129707,1.68354 c -0.422114,5.47871 -3.151298,9.44997 -7.395173,10.76077 -1.286445,0.39734 -1.960003,0.41132 -18.779013,0.38999 -12.921625,-0.0164 -17.931386,-0.0911 -19.321727,-0.28825 z m 36.772652,-6.67629 c 1.442503,-0.86923 2.12526,-2.83041 2.105593,-6.04816 -0.0071,-1.14707 -0.08902,-2.60176 -0.182219,-3.23264 -0.0932,-0.63089 -0.10077,-1.22179 -0.01687,-1.31311 0.08392,-0.0913 0.967063,-0.35803 1.962549,-0.59269 1.162415,-0.27402 2.157357,-0.66232 2.780964,-1.08532 2.526738,-1.71394 2.283769,-3.7388 -1.137095,-9.47587 -0.634517,-1.06415 -1.114946,-1.97356 -1.067604,-2.0209 0.04737,-0.0474 1.227878,-0.36846 2.623417,-0.71359 2.961268,-0.73236 3.914378,-1.17162 4.847026,-2.23386 0.631844,-0.71962 0.674536,-0.86109 0.594363,-1.96929 -0.113957,-1.57555 -0.963389,-3.2557 -3.081082,-6.094395 -0.921092,-1.23468 -1.674712,-2.293553 -1.674712,-2.35305 0,-0.0595 0.97046,-0.572839 2.156608,-1.140759 3.577453,-1.712894 4.934343,-3.280397 4.934343,-5.70024 0,-2.580381 -1.22707,-3.840808 -4.743745,-4.872679 -1.048583,-0.307679 -2.833106,-0.366636 -14.130698,-0.46685 L 70.199811,84.911349 69.097026,84.413033 C 67.080993,83.502044 65.923,81.695259 65.925548,79.464661 c 0.0017,-1.439697 0.235196,-2.157627 2.231076,-6.858197 2.679615,-6.310857 4.430567,-11.865307 5.161865,-16.374663 0.400966,-2.472476 0.413302,-6.207019 0.0253,-7.664493 -1.06002,-3.981966 -4.481899,-5.407306 -6.912966,-2.879513 -1.055168,1.09715 -1.733248,2.860755 -2.492203,6.481912 -1.347996,6.431603 -3.363764,11.296556 -6.869188,16.578445 -2.45674,3.701756 -4.581491,6.315541 -9.492706,11.677562 -1.207391,1.318216 -2.625863,2.866754 -3.152162,3.441197 -1.565006,1.708164 -2.538252,2.831008 -3.903811,4.503857 L 39.22907,89.95317 v 19.29373 19.29373 l 1.212579,1.1566 c 2.633597,2.51203 5.932073,3.97562 10.675192,4.73677 2.146443,0.34446 2.785152,0.35555 19.500116,0.33862 15.465697,-0.0157 15.867152,-0.0262 16.542586,-0.43317 z M 32.242384,109.52112 V 86.788366 l -8.915829,-0.05438 -8.915828,-0.05437 v 22.841504 22.84152 l 8.915828,-0.0544 8.915829,-0.0544 z"
           id="path1186-5" />
        <path
           style="color:#000000;fill:#000000;-inkscape-stroke:none"
           d="m 69.802734,37.78125 c -1.794782,-0.07982 -2.450869,-0.01805 -3.648437,0.345703 -2.891491,0.878265 -5.206328,2.910337 -6.671875,5.84375 -1.006223,2.014038 -1.490637,3.532894 -2.138672,6.708984 -1.232745,6.04182 -3.309142,10.774762 -6.972656,15.898438 -1.87057,2.616119 -3.465818,4.514193 -7.769532,9.236328 -1.970566,2.16215 -4.004289,4.399345 -4.521484,4.972656 l -0.859375,0.951172 -1.123047,-0.677734 c -0.689124,-0.416076 -1.615231,-0.8069 -2.138672,-0.882813 -0.153635,-0.0223 -0.544709,-0.0332 -1.183593,-0.04492 -0.638884,-0.01172 -1.506127,-0.01985 -2.539063,-0.02539 -2.065872,-0.01108 -4.796537,-0.0097 -7.693359,0.0078 -5.225894,0.03163 -7.858958,0.04799 -9.302735,0.115235 -0.721888,0.03362 -1.146672,0.0804 -1.455078,0.15039 -0.308405,0.06999 -0.49705,0.166789 -0.714843,0.283203 -1.1101205,0.593377 -2.2958252,1.787394 -2.9082036,2.927735 l -0.4648438,0.865234 -0.054687,24.611329 c -0.018491,8.18728 -0.014836,14.39818 0.011719,18.62891 0.013277,2.11536 0.032084,3.73557 0.056641,4.86132 0.012278,0.56288 0.025833,1.00177 0.041016,1.31836 0.015182,0.31659 0.024617,0.48989 0.054687,0.60157 0.3253168,1.20813 1.4455393,2.77098 2.4863284,3.46679 0.887804,0.59354 1.537539,0.92057 3.328125,1.07422 1.790585,0.15365 4.742513,0.14989 10.328125,0.11524 l 10.203125,-0.0625 1.214843,-0.59766 c 0.671387,-0.3297 1.4875,-0.90989 1.863282,-1.33789 0.172175,-0.1961 0.341074,-0.37469 0.470703,-0.50195 0.06481,-0.0636 0.119318,-0.11432 0.158203,-0.14649 0.0052,-0.004 0.0072,-0.004 0.01172,-0.008 0.0077,0.004 0.01211,0.005 0.02148,0.01 0.04789,0.0252 0.115975,0.0652 0.195313,0.11329 0.158674,0.0963 0.366345,0.22934 0.582031,0.37695 2.906219,1.98894 7.295184,3.55361 11.697265,4.17773 l 0.164063,0.0234 v -0.0176 c 0.747238,0.0964 2.239864,0.16304 5.189453,0.20703 3.042824,0.0454 7.527222,0.068 13.988281,0.0762 8.409539,0.0107 12.781574,0.0135 15.216797,-0.0371 2.435223,-0.0506 2.953981,-0.15876 3.603516,-0.35938 4.305567,-1.32985 7.070739,-5.36595 7.496094,-10.88672 l 0.125,-1.60742 0.974609,-0.54687 c 1.594788,-0.89648 3.384822,-2.79752 4.158202,-4.41797 1.11576,-2.33787 1.23781,-5.63715 0.31055,-8.23438 -0.15596,-0.43686 -0.21289,-0.64934 -0.19336,-0.74414 0.01,-0.0474 0.031,-0.0831 0.0957,-0.14453 0.0647,-0.0614 0.17018,-0.13858 0.31446,-0.24219 2.35687,-1.69253 3.84582,-3.71912 4.42968,-6.00586 0.58387,-2.28674 0.25978,-4.82527 -0.9707,-7.53906 l -0.58594,-1.294921 1.07422,-1.205078 c 1.99907,-2.244182 3.06446,-4.970421 3.06446,-7.847657 0,-5.47753 -3.53826,-9.672291 -9.490241,-11.277343 -2.768621,-0.746605 -4.832092,-0.859375 -15.726562,-0.859375 -2.911748,0 -5.559926,-0.01204 -7.478516,-0.0332 -0.959295,-0.01058 -1.735078,-0.02318 -2.271484,-0.03711 -0.268203,-0.007 -0.478113,-0.01404 -0.617188,-0.02148 -0.01336,-7.16e-4 -0.01721,-0.0012 -0.0293,-0.002 0.01119,-0.02973 0.01856,-0.05022 0.0332,-0.08789 0.05913,-0.152161 0.145592,-0.367553 0.251954,-0.626953 0.212722,-0.518801 0.506964,-1.218681 0.830078,-1.97461 2.387297,-5.585116 4.42695,-11.750331 5.289062,-15.988281 1.064587,-5.233238 1.082615,-9.663444 0.07617,-13.167969 C 78.683011,42.753288 76.64423,40.175779 73.625,38.683594 72.152426,37.955807 71.792362,37.869736 69.802734,37.78125 Z m -0.01172,0.287109 c 1.983948,0.08823 2.241964,0.148971 3.707031,0.873047 2.947647,1.456807 4.925655,3.952807 5.914062,7.394531 0.988408,3.441725 0.978291,7.830529 -0.08008,13.033204 -0.855274,4.204336 -2.89294,10.362432 -5.273437,15.93164 -0.323588,0.757037 -0.616566,1.457789 -0.830078,1.978516 -0.106757,0.260363 -0.193617,0.475712 -0.253907,0.630859 -0.03015,0.07757 -0.0537,0.140634 -0.07031,0.1875 -0.0083,0.02343 -0.01632,0.0415 -0.02148,0.05859 -0.0052,0.01709 -0.01172,0.01495 -0.01172,0.06836 0,2.51e-4 0.01939,0.07397 0.01953,0.07422 1.45e-4,2.51e-4 0.03096,0.03686 0.03125,0.03711 2.9e-4,2.51e-4 0.01701,0.01193 0.02344,0.01563 0.0064,0.0037 0.01104,0.0058 0.01563,0.0078 0.01834,0.0079 0.02768,0.0097 0.03711,0.01172 0.01887,0.0041 0.03593,0.0075 0.05664,0.0098 0.04142,0.0045 0.09778,0.0079 0.169922,0.01172 0.144284,0.0077 0.353489,0.01448 0.623047,0.02148 0.539116,0.014 1.317246,0.02652 2.277344,0.03711 1.920196,0.02118 4.567855,0.03516 7.480469,0.03516 10.892514,0 12.909301,0.108476 15.65039,0.847656 5.858633,1.57988 9.279303,5.645775 9.279303,11 0,2.806253 -1.03626,5.460496 -2.99219,7.65625 l -1.19922,1.345703 0.66406,1.464845 c 1.21045,2.66961 1.51809,5.13688 0.95313,7.34961 -0.56497,2.21273 -2.00311,4.17915 -4.31836,5.8418 -0.14455,0.1038 -0.25738,0.18368 -0.3457,0.26758 -0.0883,0.0839 -0.15589,0.18137 -0.17969,0.29687 -0.0476,0.23099 0.049,0.45925 0.20508,0.89649 0.89835,2.51626 0.77467,5.76432 -0.29883,8.01367 -0.73588,1.54188 -2.517172,3.43551 -4.039067,4.29101 l -1.109375,0.625 -0.134766,1.75977 c -0.418872,5.43664 -3.112747,9.34302 -7.294922,10.63476 -0.636909,0.19672 -1.097475,0.29529 -3.52539,0.34571 -2.427915,0.0504 -6.801483,0.0478 -15.210938,0.0371 -6.460552,-0.008 -10.942379,-0.0308 -13.982422,-0.0762 -3.040042,-0.0453 -4.646433,-0.11538 -5.320312,-0.21093 -4.362072,-0.61846 -8.721658,-2.17669 -11.574219,-4.12891 -0.219555,-0.15026 -0.430759,-0.28666 -0.595703,-0.38672 -0.08247,-0.05 -0.152268,-0.0913 -0.208984,-0.12109 -0.02836,-0.0149 -0.05282,-0.0273 -0.07617,-0.0371 -0.02335,-0.01 -0.03436,-0.0215 -0.09375,-0.0215 -0.07682,0 -0.0881,0.0222 -0.111328,0.0371 -0.02323,0.0149 -0.04546,0.0322 -0.07031,0.0527 -0.0497,0.0411 -0.107385,0.095 -0.175781,0.16211 -0.136793,0.1343 -0.308089,0.3168 -0.484375,0.51758 -0.321137,0.36576 -1.143341,0.95915 -1.775391,1.26953 l -1.154297,0.5664 -10.138671,0.0645 c -5.585107,0.0346 -8.5396,0.0361 -10.302735,-0.11524 -1.763134,-0.15129 -2.31526,-0.43964 -3.191406,-1.02539 -0.9507614,-0.63562 -2.0720225,-2.19932 -2.3691406,-3.30273 -0.0057,-0.0212 -0.029954,-0.2289 -0.044922,-0.54102 -0.014968,-0.31212 -0.028768,-0.74907 -0.041016,-1.31055 -0.024496,-1.12295 -0.043368,-2.74285 -0.056641,-4.85742 -0.026544,-4.22914 -0.030209,-10.43814 -0.011719,-18.625 L 7.984375,84.53125 8.4160156,83.728516 c 0.5780174,-1.076355 1.7470364,-2.253569 2.7890624,-2.810547 0.216183,-0.115554 0.363931,-0.19458 0.642578,-0.257813 0.278647,-0.06323 0.69141,-0.109285 1.40625,-0.142578 1.42968,-0.06659 4.065154,-0.08361 9.291016,-0.115234 2.895854,-0.01753 5.625119,-0.01889 7.689453,-0.0078 1.032167,0.0055 1.898409,0.01566 2.535156,0.02734 0.636747,0.01168 1.065151,0.02893 1.148438,0.04102 0.424249,0.06153 1.373933,0.448832 2.03125,0.845703 l 1.326172,0.798828 1.017578,-1.126953 c 0.515162,-0.571059 2.551059,-2.810662 4.521484,-4.972657 4.30571,-4.724325 5.913665,-6.636116 7.791016,-9.261718 3.682436,-5.15014 5.781955,-9.934697 7.021484,-16.009766 0.646044,-3.166329 1.116346,-4.643223 2.113281,-6.638672 1.435199,-2.872669 3.683518,-4.840424 6.498047,-5.695312 1.179147,-0.358157 1.767191,-0.413398 3.552735,-0.333985 z M 68.355469,44.375 c -0.708445,0.166336 -1.405152,0.563913 -2.029297,1.212891 -1.08723,1.130487 -1.768737,2.923918 -2.529297,6.552734 -1.345074,6.417663 -3.350695,11.258206 -6.847656,16.527344 -2.452856,3.695904 -4.569076,6.300073 -9.478516,11.660156 -1.207386,1.318211 -2.626063,2.866983 -3.152344,3.441406 -1.566149,1.709412 -2.541412,2.835408 -3.908203,4.509766 l -1.324219,1.623047 v 19.343746 19.35547 l 1.25586,1.19922 c 2.656823,2.53419 5.990645,4.01132 10.751953,4.77539 1.075187,0.17255 1.786364,0.26288 4.306641,0.30664 2.520276,0.0438 6.859289,0.0417 15.216796,0.0332 7.732873,-0.008 11.697906,-0.0147 13.820313,-0.0703 1.061204,-0.0278 1.661387,-0.0664 2.048828,-0.12695 0.387441,-0.0605 0.574024,-0.15101 0.748047,-0.25586 l 0.443359,-0.26758 h -0.242187 c 0.62,-0.46017 1.14744,-1.05067 1.460937,-1.95117 0.356553,-1.02417 0.521616,-2.33389 0.511719,-3.95312 -0.0071,-1.15317 -0.0875,-2.60345 -0.183594,-3.25391 -0.04573,-0.30958 -0.06932,-0.61042 -0.07227,-0.83984 -0.0015,-0.11472 0.0014,-0.21152 0.0098,-0.2793 0.0084,-0.0678 0.04184,-0.10913 0.0098,-0.0742 -0.02025,0.022 -0.0044,0.004 0.02344,-0.01 0.02786,-0.0135 0.07049,-0.0329 0.123047,-0.0527 0.105113,-0.0396 0.253784,-0.0875 0.429688,-0.14062 0.351808,-0.10625 0.819313,-0.23094 1.314453,-0.34766 1.174117,-0.27678 2.179525,-0.66552 2.828125,-1.10547 0.643467,-0.43648 1.122145,-0.90116 1.416016,-1.44922 0.29387,-0.54805 0.395572,-1.17686 0.30664,-1.91797 -0.177863,-1.48222 -1.102929,-3.42909 -2.816406,-6.30273 -0.316205,-0.53031 -0.595336,-1.02175 -0.787109,-1.38477 -0.09589,-0.1815 -0.168974,-0.3305 -0.214844,-0.43359 -0.0082,-0.0185 -0.01128,-0.0257 -0.01758,-0.041 0.03139,-0.0103 0.05877,-0.0196 0.103515,-0.0332 0.136777,-0.0414 0.331396,-0.0957 0.56836,-0.16016 0.473927,-0.1289 1.1176,-0.29641 1.814453,-0.46875 1.483649,-0.36692 2.468294,-0.66059 3.208984,-1.00195 0.740691,-0.34136 1.235065,-0.7334 1.710938,-1.27539 0.317946,-0.36212 0.504134,-0.59565 0.59375,-0.89258 0.08961,-0.29692 0.07541,-0.62527 0.03516,-1.18164 -0.117138,-1.61953 -0.986438,-3.32615 -3.109375,-6.171874 -0.460003,-0.616612 -0.877063,-1.188079 -1.179688,-1.613281 -0.151312,-0.212601 -0.273747,-0.388788 -0.357421,-0.513672 -0.02901,-0.0433 -0.04741,-0.07158 -0.06641,-0.101562 0.01964,-0.01257 0.03187,-0.02116 0.05859,-0.03711 0.10561,-0.06304 0.262851,-0.151192 0.457031,-0.253906 0.388361,-0.205428 0.92595,-0.474545 1.517578,-0.757813 1.797757,-0.86077 3.048366,-1.68872 3.855466,-2.621093 0.8071,-0.932374 1.16016,-1.972162 1.16016,-3.208985 0,-1.313004 -0.31925,-2.321633 -1.09375,-3.117187 -0.77451,-0.795554 -1.984719,-1.373459 -3.753907,-1.892578 -1.08621,-0.318552 -2.872037,-0.372289 -14.169984,-0.472507 L 70.230469,84.767578 69.15625,84.28125 c -1.9698,-0.890098 -3.088428,-2.635714 -3.085938,-4.816406 8.41e-4,-0.712095 0.05461,-1.225261 0.359375,-2.16211 0.304765,-0.936848 0.861678,-2.29091 1.859375,-4.640625 2.682671,-6.318054 4.437756,-11.881451 5.171875,-16.408203 0.202279,-1.24731 0.305821,-2.802884 0.310547,-4.234375 0.0047,-1.431491 -0.0871,-2.729646 -0.289062,-3.488281 -0.538816,-2.024061 -1.68182,-3.418868 -3.025391,-3.978516 -0.671785,-0.279823 -1.393118,-0.34407 -2.101562,-0.177734 z m 0.0625,0.273437 c 0.65002,-0.152917 1.307665,-0.08836 1.927734,0.169922 1.240139,0.516565 2.338172,1.827255 2.859375,3.785157 0.186041,0.698837 0.282027,1.995797 0.277344,3.414062 -0.0047,1.418265 -0.107954,2.966243 -0.306641,4.191406 -0.728475,4.491952 -2.47579,10.03815 -5.152344,16.341797 -0.99818,2.350851 -1.555809,3.704929 -1.867187,4.66211 -0.311378,0.957181 -0.374141,1.524352 -0.375,2.251953 -0.0026,2.280499 1.193597,4.148199 3.255859,5.080078 l 1.13086,0.509765 12.960937,0.115235 c 11.297215,0.100211 13.080782,0.164282 14.091797,0.460937 1.747483,0.512751 2.908757,1.080639 3.626957,1.81836 0.7182,0.737721 1.01367,1.648641 1.01367,2.916015 0,1.183018 -0.32609,2.136924 -1.0918,3.021485 -0.76571,0.88456 -1.982024,1.696706 -3.761718,2.548828 -0.594518,0.284651 -1.133938,0.555576 -1.527343,0.763672 -0.196703,0.104048 -0.357286,0.192069 -0.470703,0.259765 -0.05671,0.03385 -0.10153,0.06247 -0.136719,0.08789 -0.01759,0.01271 -0.03269,0.02343 -0.04883,0.03906 -0.0081,0.0078 -0.01502,0.01806 -0.02539,0.0332 -0.0052,0.0076 -0.01198,0.01563 -0.01758,0.0293 -0.0028,0.0068 -0.0077,0.02487 -0.0078,0.02539 -1.18e-4,5.2e-4 -0.0039,0.03274 -0.0039,0.0332 0,9.3e-4 0.0036,0.03029 0.0059,0.03906 0.0023,0.0088 0.0037,0.01595 0.0059,0.02148 0.0042,0.01106 0.0094,0.01891 0.01367,0.02734 0.0086,0.01687 0.01703,0.03245 0.0293,0.05273 0.02453,0.04057 0.05836,0.09372 0.101562,0.158203 0.08641,0.128972 0.211053,0.305643 0.363281,0.519532 0.304458,0.427778 0.722507,1.003027 1.183594,1.621093 2.112445,2.831658 2.941959,4.486018 3.052735,6.017578 0.03992,0.55183 0.04621,0.84736 -0.02344,1.07813 -0.06965,0.23076 -0.221259,0.4296 -0.535156,0.78711 -0.456775,0.52024 -0.905893,0.87621 -1.615235,1.20312 -0.709341,0.32692 -1.680587,0.61894 -3.158203,0.98438 -0.698684,0.17279 -1.343259,0.34094 -1.820312,0.4707 -0.238527,0.0649 -0.434671,0.11924 -0.576172,0.16211 -0.07075,0.0214 -0.128592,0.0394 -0.171875,0.0547 -0.02164,0.008 -0.03787,0.0142 -0.05469,0.0215 -0.01682,0.007 -0.02498,0.002 -0.06641,0.043 -3.7e-4,3.7e-4 -0.02118,0.0249 -0.02148,0.0254 -3.06e-4,4.8e-4 -0.0086,0.0159 -0.01172,0.0234 -0.0063,0.0151 -0.01014,0.0283 -0.01172,0.0391 -0.0032,0.0216 -0.0014,0.0361 0,0.0488 0.0029,0.0254 0.0092,0.0438 0.01563,0.0645 0.01294,0.0414 0.03128,0.0875 0.05664,0.14453 0.05072,0.114 0.126992,0.26835 0.224609,0.45313 0.195235,0.36956 0.474658,0.8646 0.792969,1.39844 1.707383,2.86342 2.612144,4.79649 2.779297,6.18945 0.08358,0.69648 -0.01108,1.25511 -0.275391,1.74805 -0.264315,0.49293 -0.704317,0.92521 -1.324218,1.3457 -0.598613,0.40604 -1.581712,0.79319 -2.732422,1.06445 -0.500345,0.11795 -0.972417,0.24296 -1.332032,0.35156 -0.179807,0.0543 -0.332077,0.10503 -0.447265,0.14844 -0.05759,0.0217 -0.106099,0.041 -0.146485,0.0605 -0.04039,0.0195 -0.06814,0.0294 -0.109375,0.0742 -0.07403,0.0806 -0.07308,0.14596 -0.08398,0.23437 -0.0109,0.0884 -0.01525,0.19507 -0.01367,0.31836 0.0032,0.24658 0.03066,0.55759 0.07813,0.87891 0.09031,0.6113 0.172626,2.07192 0.179688,3.21289 0.0098,1.59851 -0.15556,2.87731 -0.496094,3.85547 -0.340534,0.97816 -0.8502,1.65326 -1.539063,2.06836 -0.163694,0.0986 -0.281478,0.16039 -0.642578,0.21679 -0.3611,0.0564 -0.954919,0.0973 -2.011718,0.125 -2.113599,0.0554 -6.081644,0.0625 -13.814454,0.0703 -8.357439,0.008 -12.696512,0.0105 -15.210937,-0.0332 -2.514425,-0.0437 -3.196324,-0.13277 -4.267578,-0.30468 -4.724921,-0.75823 -7.987291,-2.2074 -10.597656,-4.69727 l -1.167969,-1.11523 V 109.24609 90.003906 l 1.259765,-1.542969 c 1.364325,-1.671336 2.334578,-2.789181 3.898438,-4.496093 0.526316,-0.574462 1.944951,-2.123188 3.152344,-3.441407 4.91298,-5.363948 7.04524,-7.987711 9.505859,-11.695312 3.51388,-5.29463 5.53971,-10.183376 6.890625,-16.628906 0.757348,-3.613491 1.431974,-5.348299 2.455078,-6.41211 0.591388,-0.614917 1.232793,-0.985754 1.882813,-1.138672 z M 14.267578,86.535156 v 22.986324 22.98633 l 9.060547,-0.0547 9.058594,-0.0566 v -22.875 -22.876949 l -9.058594,-0.05469 z m 0.28711,0.289063 8.771484,0.05273 8.771484,0.05469 v 22.589841 22.58985 l -8.771484,0.0527 -8.771484,0.0547 v -22.69727 z"
           id="path1188-9" />
      </g>
    </g>
  </g>
</svg>
