<?xml version="1.0" encoding="UTF-8" standalone="no"?>
<svg
   version="1.1"
   width="800"
   height="800"
   id="svg675698"
   sodipodi:docname="nlp-embed.svg"
   inkscape:version="1.2.2 (b0a8486541, 2022-12-01)"
   xmlns:inkscape="http://www.inkscape.org/namespaces/inkscape"
   xmlns:sodipodi="http://sodipodi.sourceforge.net/DTD/sodipodi-0.dtd"
   xmlns="http://www.w3.org/2000/svg"
   xmlns:svg="http://www.w3.org/2000/svg">
  <defs
     id="defs675702">
    <marker
       style="overflow:visible"
       id="marker681655"
       refX="0"
       refY="0"
       orient="auto-start-reverse"
       inkscape:stockid="TriangleStart"
       markerWidth="3.1889999"
       markerHeight="2.687"
       viewBox="0 0 5.3244081 6.1553851"
       inkscape:isstock="true"
       inkscape:collect="always"
       preserveAspectRatio="none">
      <path
         transform="scale(0.5)"
         style="fill:context-stroke;fill-rule:evenodd;stroke:context-stroke;stroke-width:1pt"
         d="M 5.77,0 -2.88,5 V -5 Z"
         id="path681653" />
    </marker>
  </defs>
  <sodipodi:namedview
     id="namedview675700"
     pagecolor="#ffffff"
     bordercolor="#000000"
     borderopacity="0.25"
     inkscape:showpageshadow="2"
     inkscape:pageopacity="0.0"
     inkscape:pagecheckerboard="0"
     inkscape:deskcolor="#d1d1d1"
     showgrid="false"
     inkscape:zoom="1.06375"
     inkscape:cx="337.95535"
     inkscape:cy="321.97415"
     inkscape:window-width="1920"
     inkscape:window-height="1029"
     inkscape:window-x="0"
     inkscape:window-y="0"
     inkscape:window-maximized="1"
     inkscape:current-layer="svg675698" />
  <path
     style="fill:none;fill-opacity:1;stroke:#ff09d2;stroke-width:26.1283;stroke-linejoin:bevel;stroke-dasharray:none;stroke-opacity:1;marker-end:url(#marker681655)"
     d="M 98.081084,39.914321 703.89011,666.54876"
     id="path682670"
     sodipodi:nodetypes="cc" />
  <path
     style="fill:#15ff00;fill-opacity:1;stroke:#009303;stroke-width:26.1283;stroke-linejoin:bevel;stroke-dasharray:none;stroke-opacity:1;marker-end:url(#marker681655)"
     d="M 223.41659,450.9397 659.9662,91.425023"
     id="path680685"
     sodipodi:nodetypes="cc" />
  <path
     style="fill:none;fill-opacity:1;stroke:#000193;stroke-width:26.1283;stroke-linejoin:bevel;stroke-dasharray:none;stroke-opacity:1;marker-end:url(#marker681655)"
     d="m 39.354309,370.55765 566.456321,21.41528 86.85303,-196.4489"
     id="path681391"
     sodipodi:nodetypes="ccc" />
  <path
     style="fill:none;fill-opacity:1;stroke:#930004;stroke-width:26.1283;stroke-linejoin:bevel;stroke-dasharray:none;stroke-opacity:1;marker-end:url(#marker681655)"
     d="M 270.36164,694.49466 580.66026,255.00252 736.13822,311.67004"
     id="path681719"
     sodipodi:nodetypes="ccc" />
  <path
     style="fill:none;fill-opacity:1;stroke:#0988ff;stroke-width:26.1283;stroke-linejoin:bevel;stroke-dasharray:none;stroke-opacity:1;marker-end:url(#marker681655)"
     d="M 83.665277,654.37066 749.3497,491.88441"
     id="path682230"
     sodipodi:nodetypes="cc" />
  <path
     style="fill:none;fill-opacity:1;stroke:#001f3c;stroke-width:26.1283;stroke-linejoin:bevel;stroke-dasharray:none;stroke-opacity:1;marker-end:url(#marker681655)"
     d="M 369.23286,432.47585 526.50398,565.25917"
     id="path681959"
     sodipodi:nodetypes="cc" />
  <path
     style="fill:#000000;stroke-width:3.8628"
     d="m 114.8574,575.43415 c -5.26189,-8.64632 -8.36426,-10.36572 -14.42877,-7.99721 -11.301391,4.41389 -29.845231,4.23694 -27.067034,-0.25844 1.343012,-2.17314 -0.172282,-2.84675 -3.516579,-1.56343 -7.03311,2.69901 -24.004881,-14.60649 -43.969972,-44.83439 -28.2775553,-42.81321 -16.9381351,-83.80584 33.792531,-122.16151 23.549895,-17.80522 34.112401,-35.88889 34.892311,-59.73778 0.04086,-1.25265 -12.087695,-4.45186 -26.952624,-7.1084 -14.864929,-2.65655 -28.070784,-6.51872 -29.346321,-8.58253 -1.275569,-2.06395 -6.684924,-5.41236 -12.020837,-7.44112 -17.5922492,-6.68853 -3.99794,-15.149 24.341604,-15.149 26.274501,0 59.503931,-12.34207 59.503931,-22.10087 0,-2.81059 7.12691,-19.28493 15.83755,-36.60955 8.85765,-17.6172 15.83753,-37.04723 15.83753,-44.0876 0,-14.75801 10.80849,-26.49683 21.16181,-22.98314 19.22571,6.52486 36.0078,31.52888 36.0078,53.64889 0,13.23352 0,13.23352 21.18565,14.99028 21.69458,1.79912 38.68761,11.77269 35.26329,20.69655 -0.97088,2.53085 -0.10222,6.26864 1.93868,8.30602 10.25472,10.25477 -8.17592,31.39295 -30.03751,34.44996 -23.95911,3.35032 -26.0816,4.49668 -20.58647,11.1179 2.62399,3.16168 8.99,5.74844 14.14674,5.74844 5.15671,0 14.52002,2.66019 20.80736,5.91153 8.58588,4.43988 13.34593,4.88692 19.1222,1.79546 5.45895,-2.92154 9.9558,-2.90371 15.49616,0.0584 4.29303,2.29754 9.31924,3.2417 11.16947,2.09826 5.74565,-3.55107 42.51419,45.02169 51.01233,67.38959 10.57624,27.83749 8.66238,77.76189 -3.73384,97.39821 -4.40676,6.98067 -11.59136,19.21044 -15.96585,27.17747 -4.37435,7.96713 -9.65648,14.48558 -11.73794,14.48558 -2.08133,0 -7.26084,3.47659 -11.50988,7.72567 -6.9389,6.93875 -12.86064,8.29257 -40.90809,9.35194 -4.44074,0.16786 -10.52469,2.11518 -13.5198,4.3276 -7.07248,5.22431 -22.37827,12.20351 -33.85372,15.43675 -11.86319,3.34259 -2.03357,-11.46726 31.28959,-47.14242 50.99901,-54.59874 56.85143,-95.24669 20.68105,-143.63927 -26.95843,-36.06803 -48.67097,-47.56201 -48.67097,-25.76509 0,12.68093 -11.30434,55.76568 -18.10598,69.00796 -3.10228,6.03986 -4.78782,11.83429 -3.74569,12.87656 1.92306,1.92292 -9.31018,27.19017 -26.54606,59.71109 -9.48772,17.90144 -9.48772,17.90144 -1.18214,37.887 16.08575,38.70631 -24.91291,70.34529 -46.08154,35.56156 z M 83.421847,476.40663 c -1.045769,-39.08462 -2.397528,-45.97419 -7.424454,-37.84044 -1.521137,2.4612 -7.510546,6.27901 -13.309805,8.48383 -13.921428,5.29295 -13.578688,13.96323 2.010012,50.84709 15.82602,37.44536 20.167858,32.46207 18.724247,-21.49048 z m 66.891783,-56.05039 c 7.43137,-8.75113 29.34932,-57.9508 25.81648,-57.9508 -14.2165,0 -34.47769,23.72948 -36.8789,43.19194 -1.39412,11.29934 -3.42879,25.75923 -4.52153,32.13283 -1.9868,11.58846 -1.9868,11.58846 4.33472,0.01 3.47682,-6.36877 8.53897,-14.19111 11.24923,-17.38257 z m 29.30275,-97.02956 c 0,-4.0384 -1.23221,-4.17914 -9.34118,-1.06723 -8.86932,3.40346 -7.5068,8.88575 1.6155,6.50018 4.24909,-1.11103 7.72568,-3.55588 7.72568,-5.43266 z"
     id="path323" />
</svg>
