<?xml version="1.0" encoding="UTF-8" standalone="no"?>
<!-- Created with Inkscape (http://www.inkscape.org/) -->

<svg
   width="800"
   height="800"
   viewBox="0 0 211.66666 211.66667"
   version="1.1"
   id="svg5"
   xml:space="preserve"
   inkscape:version="1.2.2 (b0a8486541, 2022-12-01)"
   sodipodi:docname="nlp-openai.svg"
   xmlns:inkscape="http://www.inkscape.org/namespaces/inkscape"
   xmlns:sodipodi="http://sodipodi.sourceforge.net/DTD/sodipodi-0.dtd"
   xmlns="http://www.w3.org/2000/svg"
   xmlns:svg="http://www.w3.org/2000/svg"
   xmlns:rdf="http://www.w3.org/1999/02/22-rdf-syntax-ns#"
   xmlns:cc="http://creativecommons.org/ns#"
   xmlns:dc="http://purl.org/dc/elements/1.1/"><title
     id="title327">Orange3 Natural Language Processing</title><sodipodi:namedview
     id="namedview7"
     pagecolor="#ffffff"
     bordercolor="#000000"
     borderopacity="0.25"
     inkscape:showpageshadow="2"
     inkscape:pageopacity="0.0"
     inkscape:pagecheckerboard="0"
     inkscape:deskcolor="#d1d1d1"
     inkscape:document-units="mm"
     showgrid="false"
     inkscape:zoom="0.75811588"
     inkscape:cx="226.21871"
     inkscape:cy="449.13978"
     inkscape:window-width="1920"
     inkscape:window-height="1029"
     inkscape:window-x="0"
     inkscape:window-y="0"
     inkscape:window-maximized="1"
     inkscape:current-layer="layer1"
     showguides="true"
     inkscape:pageshadow="2" /><defs
     id="defs2" /><g
     inkscape:label="Layer 1"
     inkscape:groupmode="layer"
     id="layer1"><text
       xml:space="preserve"
       style="font-size:74.5318px;font-family:P052;-inkscape-font-specification:'P052, Normal';fill:#ffcccc;stroke-width:3.52119;stroke-linejoin:bevel"
       x="-183.19267"
       y="-7.0024633"
       id="text7685"><tspan
         sodipodi:role="line"
         id="tspan7683"
         style="stroke-width:3.52119"
         x="-183.19267"
         y="-7.0024633" /></text><path
       d="M 192.51883,88.124177 C 197.14067,74.252334 195.54912,59.056319 188.15803,46.43862 177.04272,27.085533 154.69755,17.128883 132.87438,21.814361 123.16602,10.877321 109.21779,4.6575913 94.59475,4.7467141 72.287766,4.6957009 52.495396,19.057808 45.632685,40.282556 c -14.3302,2.934796 -26.699619,11.9047 -33.937949,24.61791 -11.19805227,19.302162 -8.6452253,43.633574 6.31523,60.185564 -4.621814,13.87185 -3.030296,29.06783 4.360821,41.68553 11.115285,19.35312 33.460481,29.30976 55.283624,24.62428 9.702021,10.93705 23.656609,17.15677 38.279659,17.06127 22.31972,0.0572 42.11844,-14.31746 48.98115,-35.56132 14.3302,-2.93477 26.69964,-11.90467 33.93794,-24.61788 11.18534,-19.30217 8.62612,-43.6145 -6.32796,-60.166468 z M 115.94679,195.14549 c -8.93169,0.0117 -17.583288,-3.11304 -24.439624,-8.8362 0.311933,-0.16554 0.853067,-0.46474 1.203205,-0.68119 l 40.565079,-23.42741 c 2.07536,-1.17774 3.34861,-3.38681 3.33588,-5.77412 V 99.239456 l 17.14404,9.899364 c 0.18455,0.0891 0.30558,0.26739 0.33103,0.4711 v 47.35778 c -0.0255,21.05924 -17.08038,38.13324 -38.13961,38.17779 z M 33.92533,160.11258 c -4.4754,-7.72851 -6.086022,-16.78753 -4.551794,-25.5792 0.299223,0.17829 0.827603,0.50293 1.20322,0.71938 l 40.565098,23.42744 c 2.056257,1.20319 4.602708,1.20319 6.665347,0 l 49.522269,-28.59673 v 19.79872 c 0.0117,0.20379 -0.0828,0.40106 -0.24192,0.52837 l -41.004336,23.67573 c -18.264497,10.51687 -41.590059,4.2653 -52.151507,-13.97371 z M 23.249305,71.565828 c 4.45632,-7.741261 11.490901,-13.661759 19.868761,-16.736623 0,0.350138 -0.01925,0.967667 -0.01925,1.400553 v 46.861212 c -0.01203,2.38094 1.26051,4.59 3.329495,5.76775 l 49.522288,28.59038 -17.14404,9.89936 c -0.171805,0.11458 -0.388358,0.1338 -0.579324,0.0511 L 37.216495,123.70467 C 18.990212,113.1496 12.738648,89.830384 23.242808,71.572269 Z M 164.10671,104.3451 114.58444,75.748385 131.72848,65.855369 c 0.17179,-0.114585 0.38834,-0.133805 0.57931,-0.05106 l 41.01075,23.675699 c 18.25811,10.548712 24.51603,33.906112 13.96732,52.164232 -4.46267,7.72851 -11.4909,13.64903 -19.86238,16.73024 V 110.1127 c 0.0192,-2.38092 -1.24775,-4.58362 -3.31039,-5.76773 z m 17.06128,-25.681024 c -0.2992,-0.184554 -0.8276,-0.502928 -1.20319,-0.719379 l -40.56512,-23.42744 c -2.05625,-1.203191 -4.60272,-1.203191 -6.66536,0 L 83.21208,83.114023 V 63.3153 c -0.01174,-0.203803 0.08275,-0.401078 0.241906,-0.528413 L 124.45834,39.130296 c 18.26449,-10.535991 41.61551,-4.265325 52.14513,14.005525 4.44995,7.715762 6.06057,16.749344 4.5518,25.528255 z M 73.892035,113.95162 56.741613,104.05225 c -0.18454,-0.0891 -0.305566,-0.26736 -0.331021,-0.47109 V 56.223405 c 0.01174,-21.084691 17.118555,-38.171444 38.203246,-38.158716 8.918982,0 17.551472,3.132146 24.407812,8.836223 -0.31195,0.16554 -0.84671,0.46474 -1.2032,0.681169 l -40.565088,23.42744 c -2.075389,1.177735 -3.348592,3.38043 -3.335872,5.767738 l -0.02553,57.161631 z m 9.313663,-20.078808 22.058692,-12.73868 22.05873,12.732298 v 25.47097 l -22.05873,12.7323 -22.058692,-12.7323 z"
       id="path885"
       style="stroke-width:0.636613" /><text
       xml:space="preserve"
       style="font-size:52.8142px;font-family:P052;-inkscape-font-specification:'P052, Normal';fill:#ffcccc;stroke-width:2.49516;stroke-linejoin:bevel"
       x="-184.19664"
       y="-33.886135"
       id="text7685-3"><tspan
         sodipodi:role="line"
         id="tspan7683-6"
         style="stroke-width:2.49516"
         x="-184.19664"
         y="-33.886135" /></text></g><metadata
     id="metadata325"><rdf:RDF><cc:Work
         rdf:about=""><dc:title>Orange3 Natural Language Processing</dc:title><dc:creator><cc:Agent><dc:title>Chris Lee</dc:title></cc:Agent></dc:creator><dc:rights><cc:Agent><dc:title>CC-BY-NC-SA-4.0</dc:title></cc:Agent></dc:rights></cc:Work></rdf:RDF></metadata></svg>
