<?xml version="1.0" encoding="UTF-8" standalone="no"?>
<!-- Created with Inkscape (http://www.inkscape.org/) -->

<svg
   width="800"
   height="800"
   viewBox="0 0 211.66666 211.66667"
   version="1.1"
   id="svg5"
   xml:space="preserve"
   inkscape:version="1.2.2 (b0a8486541, 2022-12-01)"
   sodipodi:docname="nlp-nomic.svg"
   xmlns:inkscape="http://www.inkscape.org/namespaces/inkscape"
   xmlns:sodipodi="http://sodipodi.sourceforge.net/DTD/sodipodi-0.dtd"
   xmlns="http://www.w3.org/2000/svg"
   xmlns:svg="http://www.w3.org/2000/svg"
   xmlns:rdf="http://www.w3.org/1999/02/22-rdf-syntax-ns#"
   xmlns:cc="http://creativecommons.org/ns#"
   xmlns:dc="http://purl.org/dc/elements/1.1/"><title
     id="title327">Orange3 Natural Language Processing</title><sodipodi:namedview
     id="namedview7"
     pagecolor="#ffffff"
     bordercolor="#000000"
     borderopacity="0.25"
     inkscape:showpageshadow="2"
     inkscape:pageopacity="0.0"
     inkscape:pagecheckerboard="0"
     inkscape:deskcolor="#d1d1d1"
     inkscape:document-units="mm"
     showgrid="false"
     inkscape:zoom="0.75811588"
     inkscape:cx="226.21871"
     inkscape:cy="418.80141"
     inkscape:window-width="1920"
     inkscape:window-height="1029"
     inkscape:window-x="0"
     inkscape:window-y="0"
     inkscape:window-maximized="1"
     inkscape:current-layer="layer1"
     showguides="true" /><defs
     id="defs2" /><g
     inkscape:label="Layer 1"
     inkscape:groupmode="layer"
     id="layer1"><text
       xml:space="preserve"
       style="font-size:50.8px;font-family:P052;-inkscape-font-specification:'P052, Normal';fill:#ffcccc;stroke-width:2.4;stroke-linejoin:bevel"
       x="-56.69519"
       y="63.190323"
       id="text7685"><tspan
         sodipodi:role="line"
         id="tspan7683"
         style="stroke-width:2.4"
         x="-56.69519"
         y="63.190323" /></text><g
       id="g493623"
       transform="matrix(0.17363468,-2.298008e-4,2.298008e-4,0.17363468,-5.1134541,27.186976)"><path
         d="m 0,0 c 12.21,0 24.42,0 37,0 3.743911,13.262215 7.212957,26.570005 10.542969,39.941406 0.532485,2.131142 1.065149,4.262239 1.597976,6.393296 1.120086,4.481901 2.238608,8.964189 3.355881,13.446792 1.369798,5.495619 2.742444,10.990521 4.116242,16.485141 5.206673,20.827264 10.389306,41.660375 15.521698,62.506075 0.177454,0.72073 0.354909,1.44147 0.537741,2.18405 0.915907,3.72022 1.831671,7.44046 2.747413,11.16072 9.803062,39.82419 19.732709,79.61625 29.69186,119.40165 2.28913,9.14499 4.57677,18.29034 6.86435,27.43571 4.67308,18.68211 9.34784,37.36379 14.02387,56.04516 2.27659,-3.89062 3.17665,-8.16016 4.24536,-12.4937 0.21769,-0.86663 0.43538,-1.73325 0.65966,-2.62614 0.73015,-2.91167 1.45356,-5.82497 2.17701,-8.73831 0.52241,-2.08912 1.04522,-4.17813 1.56842,-6.26705 1.4268,-5.70177 2.84773,-11.40499 4.2676,-17.10849 1.50445,-6.03919 3.01409,-12.07709 4.52311,-18.11514 2.55203,-10.21457 5.1006,-20.43 7.64673,-30.64604 3.52167,-14.13024 7.04982,-28.25886 10.57922,-42.38717 12.60975,-50.4816 25.17459,-100.97384 37.59485,-151.502405 4.4389,-18.046527 8.93485,-36.078929 13.42945,-54.111649 0.33115,-1.3357628 0.33115,-1.3357628 0.66899,-2.6985109 C 214.88594,2.2281145 214.88594,2.2281145 216,0 c 12.21,0 24.42,0 37,0 0,273.57 0,547.14 0,829 -12.21,0 -24.42,0 -37,0 0,-224.4 0,-448.8 0,-680 -31.13389,124.46676 -31.13389,124.46676 -62,249 -4.57573,18.36122 -9.15416,36.72158 -13.75214,55.07721 -1.51066,6.03197 -3.0198,12.06431 -4.52911,18.09662 C 132.81389,482.7829 129.90751,494.39159 127,506 c -1.8958,-3.39032 -2.81358,-6.75891 -3.75183,-10.51958 -0.2469,-0.98142 -0.2469,-0.98142 -0.49879,-1.98267 -0.5505,-2.19306 -1.09425,-4.38774 -1.63805,-6.58247 -0.39433,-1.5768 -0.78907,-3.15351 -1.18419,-4.73011 -1.07764,-4.30513 -2.1494,-8.6117 -3.22011,-12.91855 -1.14008,-4.58178 -2.28539,-9.16225 -3.43005,-13.74289 -1.94001,-7.7665 -3.87653,-15.53385 -5.81067,-23.30181 -2.65737,-10.6726 -5.32103,-21.34363 -7.986013,-32.01434 C 90.693273,365.0201 81.945494,329.82339 73.28125,294.60547 61.295857,246.04344 49.131437,197.52575 37,149 c 0,224.4 0,448.8 0,680 -12.21,0 -24.42,0 -37,0 C 0,555.43 0,281.86 0,0 Z"
         fill="#060606"
         transform="translate(581,36)"
         id="path493602" /><path
         d="m 0,0 c 12.21,0 24.42,0 37,0 3.37494,14.624742 3.37494,14.624742 4.33577,20.232666 0.221531,1.281961 0.443061,2.563923 0.671305,3.884731 0.234441,1.378826 0.468815,2.757662 0.70313,4.136509 0.25756,1.498694 0.515453,2.99733 0.773648,4.495915 0.556069,3.231758 1.10979,6.463906 1.661659,9.696384 0.895306,5.244051 1.795875,10.487191 2.696987,15.730248 1.306595,7.60548 2.610722,15.21138 3.913208,22.817566 2.086749,12.185333 4.179127,24.369701 6.272857,36.553831 0.176678,1.02817 0.353356,2.05634 0.535387,3.11566 0.899357,5.23364 1.798796,10.46727 2.698288,15.70089 0.729544,4.24493 1.458901,8.48989 2.188092,12.73488 7.069965,41.1578 14.190757,82.30667 21.334528,123.45172 2.59796,14.96323 5.194673,29.92669 7.79149,44.89012 0.470828,2.71296 0.941685,5.42592 1.412546,8.13887 5.559955,32.03552 11.107735,64.07314 16.651735,96.11142 0.30643,1.77084 0.30643,1.77084 0.61906,3.57746 4.04288,23.36289 8.08509,46.7259 12.12629,70.08908 1.5044,8.69726 3.00907,17.39447 4.5139,26.09165 1.03284,5.96941 2.06534,11.93887 3.09754,17.90838 0.6425,3.71526 1.28534,7.43045 1.92825,11.14563 0.28626,1.65458 0.5724,3.30919 0.85838,4.96382 3.37325,19.51648 6.8018,39.02315 10.21595,58.53257 0,-202.62 0,-405.24 0,-614 12.21,0 24.42,0 37,0 0,273.57 0,547.14 0,829 -12.21,0 -24.42,0 -37,0 -10.17365,-57.71449 -20.2051,-115.45277 -30.16447,-173.20455 -0.77322,-4.48365 -1.54649,-8.96729 -2.31975,-13.45094 -0.31301,-1.81494 -0.62602,-3.62989 -0.93903,-5.44484 -1.42982,-8.29066 -2.85968,-16.58133 -4.28961,-24.87197 -0.32206,-1.8673 -0.64412,-3.73459 -0.96617,-5.60189 C 98.197354,565.12225 91.053246,523.82226 83.900449,482.52375 83.018102,477.42924 82.135869,472.33471 81.253841,467.24015 66.868844,384.15438 52.426809,301.07852 38,218 37.67,419.63 37.34,621.26 37,829 24.79,829 12.58,829 0,829 0,555.43 0,281.86 0,0 Z"
         fill="#050505"
         transform="translate(43,36)"
         id="path493604" /><path
         d="m 0,0 c 17.904893,-0.66651038 33.908239,5.0702977 47.808594,16.164062 0.635508,0.48211 1.271015,0.964219 1.925781,1.460938 7.975897,6.344047 13.844451,14.465405 18.449219,23.476562 0.32154,0.619234 0.643081,1.238467 0.974365,1.876465 4.771566,9.815432 6.097094,19.878553 6.030951,30.680601 0.0047,1.205021 0.0093,2.410041 0.01412,3.651577 0.0098,3.323911 0.0064,6.647312 -0.0028,9.971191 -0.0067,3.624066 0.004,7.248088 0.0124,10.872144 0.01235,6.34481 0.01359,12.68955 0.0074,19.03436 -0.0091,9.43518 -0.0011,18.87028 0.01029,28.30545 0.01966,16.85318 0.02202,33.70633 0.01681,50.55952 -0.0046,14.74982 -0.004,29.49962 0.0018,44.24944 7.56e-4,1.97908 0.0015,3.95816 0.0023,5.93724 0.0011,2.98235 0.0023,5.9647 0.0035,8.94705 0.0107,27.72429 0.01543,55.44858 0.0075,83.17288 -2.98e-4,1.04492 -5.95e-4,2.08984 -9.01e-4,3.16642 -0.0024,8.48531 -0.0051,16.97061 -0.0077,25.45591 -0.0101,33.09837 -0.0017,66.19668 0.02149,99.29505 0.02607,37.19423 0.03892,74.38843 0.03181,111.58268 -7.16e-4,3.96621 -0.0014,7.93243 -0.002,11.89864 -1.7e-4,0.97657 -3.39e-4,1.95314 -5.14e-4,2.9593 -0.0023,14.73816 0.0057,29.47628 0.01881,44.21443 0.01491,16.76186 0.01575,33.52365 -0.0021,50.2855 -0.0096,9.37755 -0.0081,18.75495 0.0092,28.13249 0.01049,6.26826 0.0064,12.5364 -0.0095,18.80465 -0.0086,3.56853 -0.01107,7.13676 0.0043,10.70528 0.108449,27.05887 0.108449,27.05887 -4.516569,38.30423 -0.264382,0.70454 -0.528765,1.40909 -0.801158,2.13498 -6.637475,16.61796 -20.006171,29.9723 -36.046499,37.54862 -7.707724,3.21871 -15.755427,5.95718 -24.1523432,6.3164 -1.0016016,0.0516 -2.0032032,0.10313 -3.0351563,0.15625 -21.9978475,0.59521 -40.6962175,-6.18186 -56.9414065,-21.14453 -15.237121,-15.14887 -19.407182,-34.93037 -19.556225,-55.57047 -0.0059,-3.31408 1.27e-4,-6.62769 0.01272,-9.94172 0.0093,-3.62712 -0.0047,-7.25417 -0.01564,-10.88127 -0.01593,-6.34561 -0.0171,-12.69109 -0.0084,-19.03672 0.01291,-9.43646 0.0029,-18.87281 -0.0115,-28.30927 -0.0249,-16.85695 -0.02683,-33.71385 -0.01873,-50.57082 0.0071,-14.75324 0.0071,-29.50646 1.37e-4,-44.25969 -9.11e-4,-1.9806 -0.0018,-3.9612 -0.0027,-5.94179 -0.0014,-2.98475 -0.0028,-5.96949 -0.0042,-8.95423 -0.01298,-27.74109 -0.0181,-55.48217 -0.0065,-83.22326 4.38e-4,-1.04523 8.76e-4,-2.09046 0.0013,-3.16736 0.0036,-8.48747 0.0074,-16.97494 0.01129,-25.4624 0.01485,-33.10561 0.0061,-66.21114 -0.02196,-99.31674 -0.03144,-37.21407 -0.04639,-74.42808 -0.0362,-111.64216 10e-4,-3.96932 0.002,-7.93863 0.003,-11.90794 2.49e-4,-0.97731 4.98e-4,-1.95462 7.55e-4,-2.96154 0.0034,-14.74052 -0.0059,-29.48099 -0.02153,-44.2215 -0.01778,-16.76683 -0.01788,-33.53356 0.0054,-50.30039 0.01248,-9.37697 0.01129,-18.75369 -0.0099,-28.13064 -0.01276,-6.2716 -0.0072,-12.54301 0.01299,-18.81459 0.01098,-3.56797 0.01433,-7.135467 -0.0047,-10.703414 C -69.955825,61.147225 -67.36582,40.164718 -50.324219,22.1875 -35.606234,8.2242841 -20.095874,1.5045039 0,0 Z m -23.191406,48.164062 c -9.236032,11.143282 -10.15537,21.671606 -10.128635,35.648762 -0.0018,1.162172 -0.0035,2.324343 -0.0053,3.521732 -0.0038,3.222205 -0.0032,6.444372 -7.22e-4,9.666577 0.0016,3.506997 -0.0025,7.013987 -0.0059,10.520987 -0.0052,6.14542 -0.0066,12.29083 -0.0055,18.43624 0.0015,9.13865 -0.0026,18.27728 -0.0079,27.41592 -0.0097,17.27141 -0.01248,34.54281 -0.01306,51.81422 -4.59e-4,13.33733 -0.0025,26.67466 -0.0057,40.01199 -8.97e-4,3.83861 -0.0018,7.67721 -0.0027,11.51581 -2.21e-4,0.95428 -4.43e-4,1.90855 -6.7e-4,2.89175 -0.0062,26.84335 -0.0101,53.6867 -0.0097,80.53005 1.6e-5,1.01212 3.1e-5,2.02425 4.7e-5,3.06705 8.3e-5,5.12994 1.82e-4,10.25987 2.85e-4,15.3898 2e-5,1.01883 4e-5,2.03767 6e-5,3.08737 4.1e-5,2.06032 8.3e-5,4.12065 1.26e-4,6.18097 6.13e-4,32.05713 -0.0069,64.11425 -0.02057,96.17138 -0.01536,36.01271 -0.02397,72.02541 -0.02304,108.03812 7.5e-5,3.83986 1.24e-4,7.67972 1.55e-4,11.51958 1.1e-5,0.94548 2.3e-5,1.89095 3.5e-5,2.86508 3.1e-5,15.2167 -0.0064,30.4334 -0.01497,45.6501 -0.0085,15.29231 -0.0095,30.5846 -0.0029,45.87691 0.0037,9.08463 0.0019,18.16922 -0.0079,27.25385 -0.006,6.0706 -0.0047,12.14116 0.0025,18.21176 0.0039,3.45728 0.0047,6.91449 -0.0035,10.37177 -0.0071,3.7301 -0.0018,7.46 0.0066,11.1901 -0.005,1.06516 -0.0099,2.13033 -0.01506,3.22777 0.06685,14.16781 2.166976,25.2757 11.904569,35.87357 8.317333,7.22947 18.7552377,8.88623 29.4023435,8.27295 8.6413165,-0.98099 16.2581495,-5.84909 21.9570315,-12.22217 8.450951,-10.80892 9.154025,-21.37375 9.128634,-34.65155 0.0026,-1.74371 0.0026,-1.74371 0.0053,-3.52264 0.0038,-3.22304 0.0032,-6.44604 7.23e-4,-9.66908 -0.0016,-3.50789 0.0025,-7.01577 0.0059,-10.52365 0.0052,-6.14695 0.0066,-12.29389 0.0055,-18.44084 -0.0015,-9.14086 0.0026,-18.28172 0.0079,-27.42258 0.0097,-17.27529 0.01248,-34.55057 0.01306,-51.82585 4.6e-4,-13.33973 0.0025,-26.67945 0.0057,-40.01918 8.98e-4,-3.83918 0.0018,-7.67836 0.0027,-11.51754 2.21e-4,-0.95441 4.42e-4,-1.90883 6.7e-4,-2.89217 0.0062,-26.84692 0.0101,-53.69384 0.0097,-80.54076 -1.5e-5,-1.01226 -3.1e-5,-2.02451 -4.7e-5,-3.06744 -8.3e-5,-5.13058 -1.82e-4,-10.26116 -2.84e-4,-15.39174 -2e-5,-1.01897 -4e-5,-2.03793 -6.1e-5,-3.08777 -4e-5,-2.06059 -8.2e-5,-4.12118 -1.25e-4,-6.18176 -6.13e-4,-32.06384 0.0069,-64.12766 0.02057,-96.19149 0.01536,-36.01893 0.02397,-72.03784 0.02304,-108.05677 -7.5e-5,-3.84013 -1.23e-4,-7.68025 -1.54e-4,-11.52037 -1.8e-5,-1.41832 -1.8e-5,-1.41832 -3.6e-5,-2.86529 -3e-5,-15.22062 0.0064,-30.44123 0.01497,-45.66185 0.0085,-15.29453 0.0095,-30.58904 0.0029,-45.88357 -0.0037,-9.08707 -0.0019,-18.17409 0.0079,-27.26116 0.006,-6.07094 0.0047,-12.14184 -0.0025,-18.21278 -0.0039,-3.45831 -0.0046,-6.91653 0.0035,-10.374828 0.007,-3.729493 0.0018,-7.458775 -0.0066,-11.188261 0.005,-1.067793 0.0099,-2.135585 0.01506,-3.235735 C 39.012935,68.354428 37.279453,58.151272 28.507812,48.679687 20.044331,40.624243 11.484458,36.735206 -0.1875,36.890625 c -9.0014528,0.819378 -16.644915,4.962348 -23.003906,11.273437 z"
         fill="#010101"
         transform="translate(404.19141,35.835937)"
         id="path493606" /><path
         d="m 0,0 c 20.733961,-0.77182257 38.516556,7.177784 53.644531,20.996094 3.767224,3.774024 7.009457,7.876318 10.164063,12.167968 0.473086,0.622618 0.946172,1.245235 1.433593,1.886719 10.62962,15.26559 10.881705,35.027257 10.761719,52.886719 -0.0037,1.661507 -0.0066,3.323017 -0.0086,4.984528 -0.0076,4.323561 -0.02712,8.646982 -0.04941,12.970492 -0.02429,5.21402 -0.03328,10.42809 -0.04491,15.64215 -0.01924,7.87656 -0.05762,15.75282 -0.09242,23.62939 -12.21,0 -24.42,0 -37,0 -0.04899,-5.30965 -0.09797,-10.61929 -0.148438,-16.08984 -0.03541,-3.37697 -0.07139,-6.75392 -0.109375,-10.13086 -0.06015,-5.35226 -0.118299,-10.70448 -0.164062,-16.05689 -0.03705,-4.318402 -0.08347,-8.636619 -0.136189,-12.954862 -0.01844,-1.642059 -0.03358,-3.284159 -0.04528,-4.926281 C 38.104089,71.285198 37.541115,59.468305 27.695312,48.894531 19.27728,41.058056 11.494287,37.75122 0.03515625,37.890625 -8.9943275,38.655835 -16.888731,42.701981 -23.191406,49.164062 c -6.612695,8.9541 -8.297983,16.692835 -8.260062,27.636927 -0.0038,1.18519 -0.0076,2.370379 -0.01153,3.591483 -0.0085,3.296148 -0.0081,6.592075 -0.0039,9.888216 0.0024,3.583618 -0.0068,7.16721 -0.01449,10.750822 -0.01185,6.28303 -0.01621,12.56603 -0.01568,18.84907 7.92e-4,9.34332 -0.0098,18.68659 -0.02242,28.0299 -0.02475,18.63089 -0.03352,37.26177 -0.03854,55.89267 -2.61e-4,0.96507 -5.22e-4,1.93014 -7.91e-4,2.92446 -2.6e-4,0.967 -5.21e-4,1.93399 -7.89e-4,2.93029 -0.0031,10.71186 -0.0096,21.42371 -0.01621,32.13557 -0.01965,32.34921 -0.03605,64.69842 -0.03888,97.04763 -9.4e-5,1.03491 -1.88e-4,2.06981 -2.85e-4,3.13608 -3.78e-4,4.19408 -7.42e-4,8.38816 -0.0011,12.58224 -2.72e-4,3.15679 -5.48e-4,6.31358 -8.25e-4,9.47037 -1.32e-4,1.56468 -1.32e-4,1.56468 -2.67e-4,3.16098 -0.0029,32.77514 -0.025,65.55022 -0.06126,98.32534 -0.04072,36.81329 -0.06442,73.62653 -0.06472,110.43984 -9.7e-5,3.92527 -2.64e-4,7.85054 -4.81e-4,11.77581 -4.4e-5,0.96652 -8.8e-5,1.93304 -1.33e-4,2.92884 -0.0011,15.55716 -0.01853,31.11425 -0.04169,46.67139 -0.02284,15.63535 -0.02707,31.27062 -0.01245,46.90599 0.0082,9.28911 0.0025,18.57796 -0.02318,27.86704 -0.01575,6.20696 -0.01328,12.41374 0.0039,18.62069 0.0093,3.53532 0.01075,7.07016 -0.01,10.60545 -0.01812,3.81408 -0.0054,7.62688 0.01495,11.44093 -0.01256,1.0898 -0.02513,2.1796 -0.03807,3.30243 0.10981,9.6158 2.997307,19.38489 9.713584,26.55829 9.795612,7.7106 19.919478,9.21033 31.9453128,8.53125 6.4304012,-1.16333 10.8541072,-4.11432 16.0000002,-8 0.66,0 1.32,0 2,0 0.268125,-0.56332 0.53625,-1.12664 0.8125,-1.70703 1.6912,-3.26557 3.736764,-6.29197 5.75,-9.36719 4.504894,-9.16892 3.781572,-19.46807 3.851562,-29.42968 0.01874,-1.69109 0.03831,-3.38216 0.05869,-5.07323 0.05107,-4.4238 0.09083,-8.84763 0.128143,-13.27156 0.04728,-5.32248 0.108771,-10.64481 0.167847,-15.96717 0.0879,-8.06132 0.157887,-16.12261 0.231262,-24.18414 12.21,0 24.42,0 37,0 0.08022,18.11581 0.08022,18.11581 0.09766,25.92774 0.01189,5.29911 0.02584,10.59815 0.05322,15.89721 0.02197,4.27942 0.03374,8.55877 0.03887,12.83824 0.0037,1.6204 0.01078,3.2408 0.02171,4.86117 0.165127,25.54729 -4.224493,46.86619 -22.531773,65.81939 -13.549368,13.43086 -31.363571,19.41725 -50.1796872,19.90625 -19.8821058,-0.19158 -39.3384758,-6.91682 -53.4999998,-21.25 -9.194317,-9.8675 -15.313546,-21.77438 -18,-35 -0.259058,-1.20025 -0.259058,-1.20025 -0.52335,-2.42476 -0.679646,-5.09786 -0.617734,-10.14153 -0.610871,-15.27908 -0.0024,-1.19243 -0.0047,-2.38486 -0.0071,-3.61343 -0.0055,-3.31643 -0.0066,-6.63281 -0.0057,-9.94924 -1.7e-4,-3.60572 -0.0061,-7.21144 -0.01124,-10.81715 -0.0093,-7.15459 -0.01325,-14.30918 -0.01552,-21.46377 -0.003,-8.5688 -0.01166,-17.13759 -0.02041,-25.70638 -0.02084,-20.71222 -0.03131,-41.42444 -0.04013,-62.13667 -0.0042,-9.79917 -0.0094,-19.59833 -0.01468,-29.3975 -0.01789,-33.54585 -0.03289,-67.09171 -0.04032,-100.63757 -4.75e-4,-2.10599 -9.51e-4,-4.21198 -0.0014,-6.31797 -2.36e-4,-1.04438 -4.73e-4,-2.08876 -7.16e-4,-3.16478 -0.0012,-5.29131 -0.0024,-10.58262 -0.0036,-15.87392 -3.6e-4,-1.57512 -3.6e-4,-1.57512 -7.28e-4,-3.18205 -0.0079,-34.04186 -0.03132,-68.08368 -0.06383,-102.12552 -0.03431,-35.99353 -0.05401,-71.98704 -0.0573,-107.98058 -4.17e-4,-3.9523 -8.97e-4,-7.90461 -0.0014,-11.85691 -1.23e-4,-0.97316 -2.46e-4,-1.94632 -3.73e-4,-2.94898 -0.0023,-15.65306 -0.01799,-31.30608 -0.03847,-46.95912 -0.02027,-15.73847 -0.02573,-31.47689 -0.01623,-47.21538 0.0052,-9.346 -6.44e-4,-18.69183 -0.02254,-28.03781 -0.01353,-6.24999 -0.01241,-12.49986 4.02e-4,-18.749847 0.0069,-3.556569 0.0076,-7.112829 -0.0096,-10.669371 -0.104849,-23.172448 1.171962,-44.699929 18.270837,-62.257835 0.737344,-0.737343 1.474687,-1.474687 2.234375,-2.234375 0.92039,-1.04414 0.92039,-1.04414 1.859375,-2.109375 C -35.175838,6.6517054 -17.488998,1.3093367 0,0 Z"
         fill="#060606"
         transform="translate(1152.1914,35.835937)"
         id="path493608" /><path
         d="m 0,0 c 12.21,0 24.42,0 37,0 0,273.57 0,547.14 0,829 -12.21,0 -24.42,0 -37,0 C 0,555.43 0,281.86 0,0 Z"
         fill="#070707"
         transform="translate(940,36)"
         id="path493610" /></g></g><metadata
     id="metadata325"><rdf:RDF><cc:Work
         rdf:about=""><dc:title>Orange3 Natural Language Processing</dc:title><dc:creator><cc:Agent><dc:title>Chris Lee</dc:title></cc:Agent></dc:creator><dc:rights><cc:Agent><dc:title>CC-BY-NC-SA-4.0</dc:title></cc:Agent></dc:rights></cc:Work></rdf:RDF></metadata></svg>
