<?xml version="1.0" encoding="UTF-8" standalone="no"?>
<!-- Created with Inkscape (http://www.inkscape.org/) -->

<svg
   width="800"
   height="800"
   viewBox="0 0 211.66666 211.66667"
   version="1.1"
   id="svg5"
   xml:space="preserve"
   inkscape:version="1.2.2 (b0a8486541, 2022-12-01)"
   sodipodi:docname="nlp-spacy.svg"
   xmlns:inkscape="http://www.inkscape.org/namespaces/inkscape"
   xmlns:sodipodi="http://sodipodi.sourceforge.net/DTD/sodipodi-0.dtd"
   xmlns="http://www.w3.org/2000/svg"
   xmlns:svg="http://www.w3.org/2000/svg"
   xmlns:rdf="http://www.w3.org/1999/02/22-rdf-syntax-ns#"
   xmlns:cc="http://creativecommons.org/ns#"
   xmlns:dc="http://purl.org/dc/elements/1.1/"><title
     id="title327">Orange3 Natural Language Processing</title><sodipodi:namedview
     id="namedview7"
     pagecolor="#ffffff"
     bordercolor="#000000"
     borderopacity="0.25"
     inkscape:showpageshadow="2"
     inkscape:pageopacity="0.0"
     inkscape:pagecheckerboard="0"
     inkscape:deskcolor="#d1d1d1"
     inkscape:document-units="mm"
     showgrid="false"
     inkscape:zoom="0.75811588"
     inkscape:cx="226.21871"
     inkscape:cy="418.80141"
     inkscape:window-width="1920"
     inkscape:window-height="1029"
     inkscape:window-x="0"
     inkscape:window-y="0"
     inkscape:window-maximized="1"
     inkscape:current-layer="layer1"
     showguides="true" /><defs
     id="defs2" /><g
     inkscape:label="Layer 1"
     inkscape:groupmode="layer"
     id="layer1"><text
       xml:space="preserve"
       style="font-size:50.8px;font-family:P052;-inkscape-font-specification:'P052, Normal';fill:#ffcccc;stroke-width:2.4;stroke-linejoin:bevel"
       x="-56.69519"
       y="63.190323"
       id="text7685"><tspan
         sodipodi:role="line"
         id="tspan7683"
         style="stroke-width:2.4"
         x="-56.69519"
         y="63.190323" /></text><g
       id="g493567"
       transform="matrix(0.30064313,-0.30120218,0.30120218,0.30064313,-15.246413,169.74889)"><path
         d="m 0,0 c 7.9700212,6.5949589 13.903025,16.038736 15.019531,26.429687 0.477641,6.452487 -0.655739,9.996448 -4.8125,15.0625 -4.4933995,2.340313 -9.0570685,2.666262 -13.9999998,1.5625 -4.9293502,-3.33823 -7.4778072,-6.903483 -10.1875002,-12.125 -1.960395,-3.690606 -3.750949,-6.974583 -6.8125,-9.875 0,-0.66 0,-1.32 0,-2 -0.515625,-0.247499 -1.03125,-0.495 -1.5625,-0.75 -2.4375,-1.25 -2.4375,-1.25 -5.5,-3.249999 -8.663664,-4.932193 -19.168948,-4.847795 -28.570312,-2.28125 -10.385523,3.68416 -16.568415,10.533272 -21.367188,20.281249 -7.415361,17.05233 -6.988447,38.32206 -1.050781,55.792969 0.91185,2.151677 1.907665,4.170446 3.050781,6.207031 0.5775,1.051875 1.155,2.103751 1.75,3.1875 6.3253,7.906623 14.234257,11.511973 24.125,12.625003 10.252244,0.61978 18.214201,-2.0127 26.75,-7.5 5.197972,-5.061186 8.289115,-10.832571 10.875,-17.562503 2.3331377,-5.927226 4.7443343,-8.872167 10.5000003,-11.75 6.1006793,-0.598105 9.1391277,0.541303 13.9999997,4 4.178333,5.649029 3.667009,11.246536 3,18 -1.737459,8.470113 -5.2362122,14.645053 -10.9999998,21.000003 -0.5001562,0.60328 -1.0003125,1.20656 -1.5156249,1.82812 -9.7917254,10.9786 -25.2503493,16.51098 -39.4843753,18.17188 -18.146811,1.02792 -37.542216,-1.01837 -51.917968,-13.14063 -1.030606,-0.92039 -1.030606,-0.92039 -2.082032,-1.85937 -0.676758,-0.57235 -1.353515,-1.14469 -2.050781,-1.73438 -15.70314,-14.27003 -20.75608,-36.627936 -22.12891,-56.921873 -0.5935,-19.783419 4.46578,-40.721448 17.679691,-55.7812495 1.482974,-1.5374403 2.981331,-3.0603086 4.5,-4.5625 0.775371,-0.8256445 0.775371,-0.8256445 1.566407,-1.6679688 C -67.236956,-21.976527 -25.598204,-17.829239 0,0 Z"
         fill="#09a3d5"
         transform="translate(471.79297,13.945313)"
         id="path493546" /><path
         d="M 0,0 C 4.9972735,2.6771108 6.2181396,4.9543046 7.875,10.3125 8.270605,11.869911 8.6527113,13.431108 9,15 9.4382812,14.492109 9.8765625,13.984219 10.328125,13.460938 17.408148,5.7765223 26.336845,0.40645246 36.90625,-0.23828125 50.723146,-0.57461656 61.582933,1.1850758 72,11 83.252249,21.934004 87.965727,36.753165 88.423584,52.189941 88.524607,69.867244 84.742526,86.106777 72.050781,98.976562 61.980079,108.27564 51.344028,110.53843 37.851562,110.30859 25.688172,109.33404 17.427394,104.47337 9,96 8.985418,97.23041 8.970835,98.46082 8.955811,99.728516 8.897563,104.32092 8.8203327,108.91286 8.7375492,113.50488 c -0.033125,1.98235 -0.061195,3.96478 -0.083984,5.94727 -0.033775,2.86009 -0.086101,5.71936 -0.1418456,8.5791 -0.00958,1.31611 -0.00958,1.31611 -0.019363,2.65881 -0.1437257,6.1012 -0.7808378,12.13058 -4.9083253,16.97022 -3.36554596,2.84647 -7.1856036,2.61563 -11.3652801,2.55456 C -10.890041,149.91382 -12.631819,149.01992 -15,147 c -2.608966,-3.66595 -3.376529,-6.17027 -3.38768,-10.64806 -0.0099,-1.1257 -0.01981,-2.25139 -0.03001,-3.41121 0.0045,-1.22559 0.009,-2.45119 0.01364,-3.71392 -0.0069,-1.29807 -0.01373,-2.59615 -0.0208,-3.93355 -0.01792,-3.55379 -0.01676,-7.10732 -0.01106,-10.66114 0.0031,-2.96967 -0.003,-5.93929 -0.009,-8.90896 -0.01404,-7.007286 -0.01249,-14.014453 -0.0011,-21.021744 0.01148,-7.222718 -0.0026,-14.445066 -0.0294,-21.667735 -0.02217,-6.207388 -0.02879,-12.41466 -0.02292,-18.622086 0.0034,-3.704686 9.67e-4,-7.409134 -0.01625,-11.113787 -0.01837,-4.131979 -0.0043,-8.263237 0.01291,-12.39522 -0.0097,-1.223572 -0.01934,-2.447144 -0.0293,-3.707794 C -18.475873,10.867998 -18.401547,6.7331618 -14,2 -9.5142263,-0.99051581 -5.2540595,-0.69903796 0,0 Z M 16.75,28.125 C 9.2513744,37.625983 8.2852848,49.326319 9,61 10.257712,69.718715 12.931962,77.997402 20.0625,83.628906 26.601309,87.847881 32.268106,88.741414 40,88 46.197625,86.244359 50.572099,82.370717 54,77 59.747785,65.247341 60.940013,52.541426 57.25,39.9375 54.637987,32.47591 51.326934,27.648359 45,23 35.077551,18.238556 24.2278,20.256569 16.75,28.125 Z"
         fill="#09a3d5"
         transform="translate(133,40)"
         id="path493548" /><path
         d="M 0,0 C 1.1898047,-0.01611328 2.3796094,-0.03222656 3.6054688,-0.04882812 14.79984,-0.05494527 27.241174,1.3474601 36.027344,8.9609375 44.926419,18.179853 46.237253,29.965366 46.335937,42.214844 c 0.0281,1.962898 0.05676,3.925789 0.08594,5.888672 0.04097,3.060298 0.0779,6.120449 0.104492,9.180908 0.102747,10.908018 0.363339,21.320221 2.915528,31.959472 1.043226,4.686315 1.566474,9.321528 0.683105,14.068604 -2.686605,3.76125 -5.482358,5.94939 -10,7 -5.386668,-0.0855 -8.532828,-0.64488 -12.613281,-4.45703 -2.406492,-2.67765 -4.390253,-5.54827 -6.386719,-8.54297 -2.559654,1.269906 -5.104142,2.567153 -7.644531,3.875 -1.389239,0.7085 -2.778564,1.41683 -4.167969,2.125 -0.6864258,0.35578 -1.3728516,0.71156 -2.0800781,1.07813 -11.9681955,6.06901 -27.1294809,8.11759 -40.1074219,3.92187 -8.802757,-3.91234 -14.662938,-8.733396 -18.828125,-17.503906 -2.554093,-7.619712 -2.765703,-17.316314 0.742188,-24.734375 8.396285,-13.621312 22.2347,-16.6917 36.892578,-20.199219 1.006516,-0.235898 2.013032,-0.471797 3.050048,-0.714844 3.1019263,-0.727609 6.197912,-1.477221 9.2937016,-2.230469 1.97951172,-0.475234 3.9593196,-0.949238 5.9394531,-1.421875 0.920869,-0.221789 1.841738,-0.443578 2.7905121,-0.672088 C 7.8671797,40.634862 8.7290036,40.434 9.6169434,40.227051 10.369066,40.049734 11.121189,39.872418 11.896103,39.689728 14.341292,39.275894 16.649589,39.248714 19.125,39.3125 c -1.655568,-9.820375 -1.655568,-9.820375 -8,-17 -9.5221262,-3.920875 -19.2321857,-2.265927 -28.5,1.375 -4.585607,2.734536 -6.984909,7.498311 -9.703125,11.945312 C -28.875,38.3125 -28.875,38.3125 -31.875,40.3125 c -4.718048,0.772861 -8.196542,0.423641 -12.4375,-1.8125 -2.624265,-2.240226 -4.356367,-3.859619 -4.898437,-7.351563 -0.116793,-7.35793 1.199758,-13.006254 5.925781,-18.777343 C -31.953113,1.2786285 -14.986708,-0.04033022 0,0 Z M 9.8359375,58.519531 C 8.2987305,58.905283 8.2987305,58.905283 6.7304687,59.298828 5.6644141,59.571465 4.5983594,59.844102 3.5,60.125 1.9357227,60.516553 1.9357227,60.516553 0.33984375,60.916016 -4.5997598,62.164792 -9.5259274,63.458323 -14.425781,64.855469 c -1.162694,0.331007 -1.162694,0.331007 -2.348877,0.668701 -3.451939,1.295631 -5.533221,3.155386 -8.100342,5.78833 -1.25498,3.764939 -1.520644,6.030086 -1,10 3.102279,4.841303 6.408057,8.338864 12,10 9.3163611,0.918514 16.4246921,0.07953 24.25,-5.1875 7.015289,-7.174728 8.660054,-16.351388 8.796875,-26.179688 -0.01547,-0.868828 -0.03094,-1.737656 -0.04687,-2.632812 -3.503022,0 -5.942644,0.362961 -9.2890625,1.207031 z"
         fill="#09a3d5"
         transform="translate(288.875,39.6875)"
         id="path493550" /><path
         d="M 0,0 C 0.91523437,-0.03996094 1.8304688,-0.07992187 2.7734375,-0.12109375 6.6213118,0.63266792 8.9956843,2.6453228 11.625,5.4375 c 1.568848,3.0280762 1.568848,3.0280762 2.789063,6.605469 0.236835,0.677176 0.47367,1.354351 0.717681,2.052047 0.540255,1.554373 1.071282,3.111971 1.594941,4.672013 0.999396,2.97096 2.027161,5.931292 3.057495,8.891662 2.017386,5.814059 4.006043,11.637471 5.983886,17.465088 1.245313,3.665604 2.498244,7.328549 3.751465,10.991455 0.79343,2.332526 1.586416,4.665203 2.378906,6.998047 0.374906,1.093634 0.749812,2.187267 1.136078,3.314041 0.341008,1.009231 0.682015,2.018461 1.033356,3.058274 0.301671,0.886618 0.603342,1.773236 0.914154,2.686722 C 35.625,74.4375 35.625,74.4375 35.625,77.4375 c 0.66,0 1.32,0 2,0 0.126102,-0.875419 0.252203,-1.750839 0.382126,-2.652786 0.581205,-3.148565 1.404261,-5.902007 2.50386,-8.902634 0.387429,-1.065183 0.774858,-2.130367 1.174027,-3.227829 0.419766,-1.137582 0.839532,-2.275165 1.272018,-3.44722 0.43302,-1.186204 0.866039,-2.372408 1.31218,-3.594558 1.150442,-3.14863 2.305362,-6.295541 3.462539,-9.441697 1.16409,-3.168199 2.322412,-6.338504 3.481141,-9.508667 4.308274,-11.781026 4.308274,-11.781026 6.300689,-17.163177 0.743169,-2.047075 1.4612,-4.103444 2.154236,-6.16803 0.330937,-0.973272 0.661873,-1.946545 1.002838,-2.94931 C 61.093892,9.0943244 61.093892,9.0943244 61.525681,7.7810516 63.117939,4.3866435 65.26875,2.115625 68.625,0.4375 70.246658,0.31601695 71.873843,0.26206348 73.5,0.25 c 1.295508,-0.0212695 1.295508,-0.0212695 2.617187,-0.0429687 2.68803,0.24703078 4.248231,0.77506102 6.507813,2.2304688 3.04415,4.5662252 3.621127,8.6454169 3,13.9999999 -1.004069,3.892213 -2.400752,7.614189 -3.8125,11.375 -0.430144,1.174094 -0.860288,2.348188 -1.303467,3.557861 C 78.90454,35.734953 77.264519,40.085971 75.625,44.4375 74.915326,46.32632 74.205693,48.215156 73.496094,50.104004 67.929811,64.903877 62.293978,79.676694 56.625,94.4375 c -0.344502,0.898396 -0.689004,1.796792 -1.043945,2.722412 -1.810354,4.719848 -3.628894,9.436338 -5.463959,14.146638 -0.525685,1.35143 -1.049082,2.70375 -1.569885,4.05707 -10.012154,25.97677 -10.012154,25.97677 -22.101899,32.19497 -6.831593,2.69397 -13.330847,3.08607 -20.570312,3.12891 -1.2839063,0.0309 -1.2839063,0.0309 -2.59375,0.0625 -6.552667,0.0397 -13.606739,-0.54888 -18.65625,-5.125 -2.056846,-4.49935 -2.334268,-7.1847 -0.75,-11.9375 1.75,-3.25 1.75,-3.25 4.75,-5.25 1.8977051,-0.17944 1.8977051,-0.17944 4.0195313,-0.0898 0.775371,0.02 1.5507421,0.04 2.3496093,0.0605 1.6173564,0.0608 3.2345582,0.12581 4.85156252,0.19532 5.04879478,0.1211 8.45570138,-0.24365 12.77929688,-3.16602 3.148731,-3.31651 5.027171,-6.74656 6.8125,-10.9375 0.43957,-0.99902 0.879141,-1.99805 1.332031,-3.02734 1.910531,-6.77846 -1.587704,-13.103339 -4.125,-19.328129 C 16.239398,91.137058 15.834265,90.129586 15.416855,89.091583 14.546864,86.930259 13.674141,84.770033 12.79895,82.610809 11.430557,79.232861 10.071085,75.851446 8.7138672,72.468994 4.9207567,63.025262 1.1118642,53.588608 -2.7758331,44.183365 -4.096822,40.985156 -5.4074847,37.782767 -6.7171936,34.579926 -7.6033821,32.427507 -8.5067345,30.282859 -9.4108887,28.137939 -12.203733,21.388408 -14.288015,15.802487 -13.375,8.4375 -10.174847,2.1514854 -6.9394105,0.16522406 0,0 Z"
         fill="#09a3d5"
         transform="translate(515.375,39.5625)"
         id="path493552" /><path
         d="M 0,0 C 1.0152978,0.00491455 2.0305957,0.0098291 3.0766602,0.01489258 14.237624,0.18942248 23.275839,2.1609604 32.6875,8.3125 c 0.9075,0.5775 1.815,1.155 2.75,1.75 4.251679,4.251679 7.487724,9.375653 7.8125,15.5 -0.635521,4.236805 -1.429244,5.870792 -4.5625,8.75 -3.683154,2.315125 -7.307172,2.441768 -11.527344,1.871094 C 20.927223,33.987789 16.407942,28.152973 12,23.4375 c -3.8035951,-3.495195 -7.5842492,-4.932972 -12.6875,-5.5 -5.0367743,0.521046 -10.32339,1.494738 -14.332031,4.769531 -2.197868,2.729075 -2.233876,5.17805 -2.292969,8.605469 2.335632,4.782485 6.088433,6.291101 10.8554688,8.042969 3.6789796,1.119689 7.39467284,1.991258 11.1445312,2.832031 31.896993,7.160112 31.896993,7.160112 41,20.125 3.513398,7.001966 2.994907,16.442492 1.347656,23.988281 C 44.198619,94.128651 39.34725,100.16244 32,104.125 c -10.188244,4.44116 -20.076506,5.72042 -31.125,5.625 -1.22887939,-0.008 -2.4577588,-0.0152 -3.723877,-0.0229 -13.764222,-0.24951 -25.99571,-2.29488 -36.26831,-12.145019 -4.97622,-5.392888 -6.725756,-10.767486 -6.589844,-18.082031 0.684248,-3.793851 2.639547,-5.563706 5.394531,-8.1875 2.415106,-1.207553 4.11738,-1.235727 6.8125,-1.3125 0.85207,-0.03738 1.704141,-0.07477 2.582031,-0.113281 3.531591,0.577126 5.056919,1.943969 7.605469,4.425781 1.773438,2.65625 1.773438,2.65625 3.375,5.5 3.397924,5.552163 6.132429,8.035903 12.375,10.070312 7.87848578,1.504572 17.2889996,1.701211 24.25,-2.570312 0.959063,-0.587812 0.959063,-0.587812 1.9375,-1.1875 1.83374,-3.128144 1.63911,-6.35284 1.0625,-9.8125 -2.856434,-5.712867 -8.316497,-6.991594 -14,-9 -4.1420531,-1.26171 -8.3152655,-2.389143 -12.5,-3.5 -24.473915,-6.496712 -24.473915,-6.496712 -32.8125,-16.1875 -4.559592,-8.95031 -6.002516,-17.828159 -3,-27.535156 C -38.925477,11.51818 -31.541515,7.0347924 -23.316406,3.3554688 -15.545469,0.65736715 -8.2017412,-0.04680895 0,0 Z"
         fill="#09a3d5"
         transform="translate(45.3125,39.6875)"
         id="path493554" /></g></g><metadata
     id="metadata325"><rdf:RDF><cc:Work
         rdf:about=""><dc:title>Orange3 Natural Language Processing</dc:title><dc:creator><cc:Agent><dc:title>Chris Lee</dc:title></cc:Agent></dc:creator><dc:rights><cc:Agent><dc:title>CC-BY-NC-SA-4.0</dc:title></cc:Agent></dc:rights></cc:Work></rdf:RDF></metadata></svg>
