<?xml version="1.0" encoding="UTF-8" standalone="no"?>
<!-- Created with Inkscape (http://www.inkscape.org/) -->

<svg
   width="800"
   height="800"
   viewBox="0 0 211.66666 211.66667"
   version="1.1"
   id="svg5"
   xml:space="preserve"
   inkscape:version="1.2.2 (b0a8486541, 2022-12-01)"
   sodipodi:docname="nlp-fasttext.svg"
   xmlns:inkscape="http://www.inkscape.org/namespaces/inkscape"
   xmlns:sodipodi="http://sodipodi.sourceforge.net/DTD/sodipodi-0.dtd"
   xmlns="http://www.w3.org/2000/svg"
   xmlns:svg="http://www.w3.org/2000/svg"
   xmlns:rdf="http://www.w3.org/1999/02/22-rdf-syntax-ns#"
   xmlns:cc="http://creativecommons.org/ns#"
   xmlns:dc="http://purl.org/dc/elements/1.1/"><title
     id="title327">Orange3 Natural Language Processing</title><sodipodi:namedview
     id="namedview7"
     pagecolor="#ffffff"
     bordercolor="#000000"
     borderopacity="0.25"
     inkscape:showpageshadow="2"
     inkscape:pageopacity="0.0"
     inkscape:pagecheckerboard="0"
     inkscape:deskcolor="#d1d1d1"
     inkscape:document-units="mm"
     showgrid="false"
     inkscape:zoom="0.18952897"
     inkscape:cx="-1527.471"
     inkscape:cy="-187.30646"
     inkscape:window-width="1920"
     inkscape:window-height="1029"
     inkscape:window-x="0"
     inkscape:window-y="0"
     inkscape:window-maximized="1"
     inkscape:current-layer="layer1"
     showguides="true"
     inkscape:pageshadow="2" /><defs
     id="defs2" /><g
     inkscape:label="Layer 1"
     inkscape:groupmode="layer"
     id="layer1"><text
       xml:space="preserve"
       style="font-size:50.8px;font-family:P052;-inkscape-font-specification:'P052, Normal';fill:#ffcccc;stroke-width:2.4;stroke-linejoin:bevel"
       x="-56.69519"
       y="63.190323"
       id="text7685"><tspan
         sodipodi:role="line"
         id="tspan7683"
         style="stroke-width:2.4"
         x="-56.69519"
         y="63.190323" /></text><text
       xml:space="preserve"
       style="font-size:35.9975px;font-family:P052;-inkscape-font-specification:'P052, Normal';fill:#ffcccc;stroke-width:1.70067;stroke-linejoin:bevel"
       x="-57.379478"
       y="44.866737"
       id="text7685-3"><tspan
         sodipodi:role="line"
         id="tspan7683-6"
         style="stroke-width:1.70067"
         x="-57.379478"
         y="44.866737" /></text><g
       id="g2012"
       transform="matrix(0.59468346,-0.57189477,0.57189477,0.59468346,157.68281,-125.85231)"><path
         style="fill:#035682;stroke:none;stroke-width:0.264583"
         d="m -247.05835,119.11375 v 9.78958 h 19.31458 v 57.41458 h 11.90625 v -57.41458 h 19.57917 v -9.78958 h -50.8 m 152.664578,6.35 -10.583328,3.175 v 9.525 h -6.87917 v 8.46666 h 6.87917 v 22.225 c 0,4.3225 -0.16933,9.39509 2.17223,13.22917 3.111498,5.09138 8.911168,5.59726 14.231938,5.30093 1.41023,-0.0783 4.58787,-0.0238 5.54831,-1.26021 1.18533,-1.52691 0.008,-6.61088 0.008,-8.53864 -2.80988,0.12065 -6.0325,0.966 -8.46138,-0.93477 -2.77019,-2.16535 -2.65112,-5.94836 -2.65112,-9.11939 v -20.90209 h 11.64166 v -8.46666 h -11.64166 c 0,-3.57876 1.11389,-9.41547 -0.26459,-12.7 m -69.320828,59.00208 -1.85208,-8.20208 c -8.86513,1.30333 -23.63365,5.03978 -27.8138,-6.35 -0.52784,-1.43801 -0.7485,-2.97366 -0.7612,-4.49792 h 32.80833 c 0.21802,-5.08026 0.47069,-9.90547 -1.24222,-14.81667 -4.84981,-13.90544 -22.25146,-18.07659 -33.68278,-9.08341 -12.69444,9.98697 -12.90055,34.13099 1.5875,42.56273 3.82085,2.22382 8.56932,3.29618 12.96458,3.29777 6.33148,0.002 11.99462,-0.88159 17.99167,-2.91042 m 3.70417,-46.30208 c 2.83633,5.96926 7.76631,11.44667 11.46439,16.93333 1.11681,1.65682 4.06982,4.58444 4.16401,6.61458 0.09,1.94178 -3.09668,5.05143 -4.1603,6.61459 -3.85287,5.66182 -9.34588,11.68849 -11.99727,17.99166 h 8.73125 l 3.8817,-0.15954 3.07181,-4.60296 7.33399,-13.22916 7.56179,12.96458 3.37344,4.86754 4.14602,0.15954 h 8.99583 c -3.43693,-6.45451 -8.13858,-12.32297 -12.01737,-18.52083 -0.98425,-1.56977 -4.11692,-4.7199 -3.95288,-6.61458 0.17727,-2.08016 3.15119,-4.92469 4.32329,-6.61459 3.77561,-5.452 7.90046,-10.76192 11.38238,-16.40416 h -8.73125 c -1.13506,0 -2.82575,-0.31115 -3.88144,0.15954 -1.27529,0.56938 -2.17752,2.93105 -2.8866,4.07379 -2.33892,3.77534 -5.99281,8.3402 -6.99029,12.7 l -7.9375,-12.7 -2.78289,-3.96134 -3.8317,-0.27199 h -9.26041 m -12.17084,18.78541 h -21.96041 c 0.29527,-3.71131 1.89653,-7.31467 5.02708,-9.46652 4.98157,-3.42451 13.09238,-1.87061 15.92236,3.64569 0.95832,1.86822 1.01097,3.77349 1.01097,5.82083 z"
         id="path1535" /><path
         style="fill:#e31824;stroke:none;stroke-width:0.264583"
         d="m -393.63771,145.8366 h 6.61458 l -3.88056,15.875 -5.90902,23.8125 h 8.99583 l 3.3514,-0.13229 0.70554,-2.51354 1.71979,-7.40834 4.36563,-18.52083 2.55764,-11.1125 h 8.20209 l 3.13081,-0.13229 0.66146,-1.98438 1.4994,-6.35 h -11.37709 c 0.45733,-5.79276 3.67718,-12.75609 9.78959,-14.19931 2.40638,-0.56817 4.78393,0.37888 7.14375,0.44098 l 2.64583,-8.73125 c -10.13592,-2.93412 -21.33243,0.73287 -26.89932,10.05417 -1.27098,2.12815 -2.50452,4.4655 -3.175,6.87916 -0.39782,1.43222 -0.52231,3.77992 -1.27881,5.02709 -1.07738,1.77615 -5.19811,-0.40066 -6.70277,0.66146 -0.4899,0.34581 -0.52665,1.44515 -0.66146,1.98437 -0.52514,2.10053 -1.10714,4.22116 -1.49931,6.35 m 137.84793,-20.90208 c -2.53656,1.13479 -5.73988,1.61136 -8.46667,2.29306 -0.87895,0.21968 -2.73209,0.35875 -3.3954,0.97012 -2.06401,1.90209 -0.42439,6.93407 -2.46962,8.86354 -1.53617,1.44931 -5.13794,-0.72588 -6.7908,0.44099 -0.56435,0.39819 -0.52519,1.63565 -0.66146,2.24895 -0.45032,2.02592 -0.92366,4.09628 -1.49939,6.08542 h 7.14375 c -2.25107,7.77637 -3.99203,15.88135 -5.64436,23.8125 -0.83237,3.99521 -1.83779,8.60187 0.1323,12.43542 2.61593,5.09058 8.7286,4.49792 13.44956,4.49792 1.31974,0 4.78235,-0.0712 5.73273,-1.10252 1.30836,-1.41976 1.78858,-6.76778 1.94019,-8.68707 -3.048,0 -6.82599,1.27053 -8.90773,-1.85208 -1.33112,-1.99655 -0.576,-5.28029 -0.0439,-7.40834 1.18348,-4.73392 2.24896,-9.525 3.30729,-14.2875 0.37703,-1.69756 0.49636,-5.87639 1.71979,-7.09956 0.72046,-0.72073 2.96413,-0.30877 3.92457,-0.30877 h 11.37708 l 1.85209,-8.46667 h -15.34584 l 2.20478,-8.99583 0.44106,-3.43958 m -99.21876,12.43541 -1.85208,8.46667 h 11.37708 c 2.0029,0 4.48178,-0.18706 6.35,0.61727 1.91056,0.82259 5.00592,5.76686 2.33707,7.45252 -0.74772,0.47228 -2.52757,0.13229 -3.3954,0.13229 -2.26219,0 -4.62545,0.3101 -6.87917,0.52917 -10.44813,1.01574 -22.89969,5.35226 -24.07709,17.4625 -0.9762,10.04094 7.97058,15.29636 16.93334,13.80252 1.64042,-0.27358 5.92085,-0.56938 7.01146,-1.98437 1.38139,-1.79229 1.07526,-6.41694 1.71979,-8.64315 -2.87152,0.22675 -5.48031,1.61317 -8.46667,1.32292 -5.78802,-0.56277 -5.60996,-7.47819 -1.85208,-10.49523 4.86886,-3.90869 11.25855,-4.05686 17.19792,-4.05686 -0.16484,6.26084 -5.79385,15.37283 -0.26459,20.90209 3.46763,3.46763 9.56522,2.64583 14.02292,2.64583 10.91301,0 28.7274,2.92815 34.88082,-8.73125 3.77084,-7.14428 2.02274,-15.37652 -5.24748,-19.31458 -2.50217,-1.35546 -11.17071,-2.89666 -10.23065,-6.87917 0.68263,-2.8911 3.28269,-4.19629 5.99731,-4.49792 4.52358,-0.5027 9.18554,-0.26458 13.75834,-0.26458 l 1.85208,-8.46667 c -11.32734,0 -31.78995,-1.62964 -33.3375,14.2875 -0.57415,5.90418 3.51578,9.78879 8.46667,12.12665 2.61249,1.23375 5.56974,1.78224 7.62873,4.01294 3.85365,4.17459 -0.59188,8.31268 -4.71832,9.17231 -2.78421,0.57997 -6.14944,0.0881 -8.99583,0.0881 -3.72269,0 -9.51759,1.09458 -12.7,-1.14644 -3.2475,-2.28706 -0.75168,-6.9805 -0.0881,-9.96606 1.5457,-6.95616 5.62187,-16.9762 1.05833,-23.54792 -1.9759,-2.84533 -5.1726,-3.91821 -8.37856,-4.5861 -6.34656,-1.32218 -13.61413,-0.44098 -20.10833,-0.44098 z"
         id="path1910" /></g></g><metadata
     id="metadata325"><rdf:RDF><cc:Work
         rdf:about=""><dc:title>Orange3 Natural Language Processing</dc:title><dc:creator><cc:Agent><dc:title>Chris Lee</dc:title></cc:Agent></dc:creator><dc:rights><cc:Agent><dc:title>CC-BY-NC-SA-4.0</dc:title></cc:Agent></dc:rights></cc:Work></rdf:RDF></metadata></svg>
