<?xml version="1.0" encoding="UTF-8" standalone="no"?>
<!-- Created with Inkscape (http://www.inkscape.org/) -->

<svg
   width="800"
   height="800"
   viewBox="0 0 211.66666 211.66667"
   version="1.1"
   id="svg5"
   xml:space="preserve"
   inkscape:version="1.2.2 (b0a8486541, 2022-12-01)"
   sodipodi:docname="nlp-gensim.svg"
   xmlns:inkscape="http://www.inkscape.org/namespaces/inkscape"
   xmlns:sodipodi="http://sodipodi.sourceforge.net/DTD/sodipodi-0.dtd"
   xmlns="http://www.w3.org/2000/svg"
   xmlns:svg="http://www.w3.org/2000/svg"
   xmlns:rdf="http://www.w3.org/1999/02/22-rdf-syntax-ns#"
   xmlns:cc="http://creativecommons.org/ns#"
   xmlns:dc="http://purl.org/dc/elements/1.1/"><title
     id="title327">Orange3 Natural Language Processing</title><sodipodi:namedview
     id="namedview7"
     pagecolor="#ffffff"
     bordercolor="#000000"
     borderopacity="0.25"
     inkscape:showpageshadow="2"
     inkscape:pageopacity="0.0"
     inkscape:pagecheckerboard="0"
     inkscape:deskcolor="#d1d1d1"
     inkscape:document-units="mm"
     showgrid="false"
     inkscape:zoom="0.75811588"
     inkscape:cx="140.47984"
     inkscape:cy="420.12047"
     inkscape:window-width="1920"
     inkscape:window-height="1029"
     inkscape:window-x="0"
     inkscape:window-y="0"
     inkscape:window-maximized="1"
     inkscape:current-layer="layer1"
     showguides="true" /><defs
     id="defs2" /><g
     inkscape:label="Layer 1"
     inkscape:groupmode="layer"
     id="layer1"><text
       xml:space="preserve"
       style="font-size:50.8px;font-family:P052;-inkscape-font-specification:'P052, Normal';fill:#ffcccc;stroke-width:2.4;stroke-linejoin:bevel"
       x="-56.69519"
       y="63.190323"
       id="text7685"><tspan
         sodipodi:role="line"
         id="tspan7683"
         style="stroke-width:2.4"
         x="-56.69519"
         y="63.190323" /></text><g
       id="g11044"><path
         d="m 134.16975,43.388353 c 2.89602,-3.149134 5.79203,-6.298269 8.7758,-9.542834 7.45847,2.127048 7.45847,2.127048 10.50357,3.098558 1.48105,0.470974 2.97147,0.901959 4.46672,1.325346 1.61004,0.458673 3.20725,0.954281 4.80238,1.462199 1.30377,0.414292 2.61335,0.800052 3.9295,1.173301 -0.96931,-2.786072 -1.96619,-5.551903 -3.09788,-8.27649 -0.60911,-1.468583 -1.17847,-2.949306 -1.73727,-4.437647 -0.56877,-1.506741 -1.17296,-2.997414 -1.80047,-4.480663 -0.82621,-1.984796 -1.48534,-3.987084 -2.20141,-6.029005 2.83691,-3.084868 5.67382,-6.169736 8.5967,-9.3480849 10.79704,9.9291919 21.59408,19.8583839 32.7183,30.0884599 -2.89601,3.149134 -5.79203,6.298276 -8.7758,9.542835 -5.32907,-4.782129 -10.65817,-9.564243 -16.14875,-14.491275 1.94831,4.91373 3.8989,9.826254 5.86006,14.734832 -1.59577,1.73524 -3.19153,3.47048 -4.83565,5.258298 -2.66481,-0.680747 -5.29764,-1.391207 -7.91522,-2.233835 -1.54671,-0.493088 -3.10504,-0.915284 -4.68129,-1.303099 -0.9587,-0.237916 -1.82571,-0.522757 -2.75573,-0.876059 5.21089,4.910654 10.42176,9.821322 15.79054,14.880788 -2.89601,3.149135 -5.79202,6.298269 -8.7758,9.542835 -10.79704,-9.929192 -21.59407,-19.858383 -32.7183,-30.08846 z"
         fill="#011b5e"
         id="path494"
         style="stroke-width:0.264583" /><path
         d="m 63.246957,120.51006 c 2.5414,-2.76353 5.082801,-5.52706 7.701213,-8.37433 3.485862,-0.12066 3.485862,-0.12066 5.37445,0.63515 0.97253,0.35079 1.908186,0.40218 2.933288,0.44479 1.695877,0.13401 3.367279,0.34543 5.050517,0.58947 1.32107,0.18808 2.645963,0.3414 3.971341,0.49568 2.601029,0.30342 5.198031,0.63281 7.794075,0.97614 0.974128,0.12561 1.949067,0.24488 2.923808,0.36568 -5.532224,-5.20617 -11.064446,-10.41234 -16.764307,-15.776272 2.896017,-3.149139 5.792029,-6.298273 8.775802,-9.542839 10.797036,9.929191 21.594076,19.858381 32.718296,30.088461 -2.5414,2.76353 -5.0828,5.52706 -7.70121,8.37433 -1.80178,-0.23352 -3.60357,-0.46704 -5.45995,-0.70764 -0.96438,-0.11792 -1.92853,-0.2348 -2.89354,-0.34698 -0.2383,-0.028 -0.4766,-0.0561 -0.72212,-0.085 -0.73935,-0.087 -1.47874,-0.17358 -2.21815,-0.26005 -3.76837,-0.44071 -7.531845,-0.9065 -11.293762,-1.39964 -2.702679,-0.35028 -2.702679,-0.35028 -5.459958,-0.70765 5.532225,5.20617 11.064446,10.41235 16.76431,15.77628 -2.89602,3.14914 -5.792032,6.29827 -8.775804,9.54284 -10.797039,-9.9292 -21.594077,-19.85839 -32.718299,-30.08846 z"
         fill="#001a5e"
         id="path496"
         style="stroke-width:0.264583" /><path
         d="m 33.400209,154.529 c 2.699263,2.4823 5.398519,4.96459 8.179574,7.52211 -1.196217,0.97797 -2.400258,1.86435 -3.66677,2.7429 -4.562313,3.26194 -9.184184,7.46965 -10.615745,13.08112 -0.385054,2.41914 0.306271,4.54374 1.552752,6.61756 2.330953,3.13634 5.692678,6.47441 9.623424,7.25905 2.522995,0.33523 4.508184,-0.26306 6.559997,-1.72223 2.629248,-2.07202 4.382965,-4.53336 6.021504,-7.40284 -1.483333,-1.48272 -2.966663,-2.96545 -4.494944,-4.49311 -1.950377,2.12085 -3.900754,4.2417 -5.910233,6.42681 -1.928039,-1.77306 -3.856086,-3.54614 -5.842554,-5.37294 4.373572,-4.75583 8.747145,-9.51167 13.25325,-14.41163 5.462786,5.0237 10.925572,10.0474 16.553899,15.22333 -2.512363,8.74019 -8.042055,16.9547 -16.030706,21.69327 -5.090803,2.76472 -10.124091,3.95762 -15.777885,2.3664 -1.749848,-0.52152 -3.352226,-1.14515 -4.910174,-2.11165 -0.227546,-0.13651 -0.455088,-0.27301 -0.689529,-0.41366 -5.717403,-3.66387 -10.860872,-9.23597 -12.428655,-15.99585 -0.451126,-2.48899 -0.582591,-4.86653 -0.236358,-7.37415 0.02778,-0.23023 0.05554,-0.46047 0.08416,-0.69768 1.565451,-9.80517 10.810358,-18.0652 18.77499,-22.93681 z"
         fill="#011a5e"
         id="path498"
         style="stroke-width:0.264583" /><path
         d="m 37.635947,148.35956 c 7.565099,-8.22632 15.130197,-16.45263 22.92454,-24.92823 2.442184,2.24589 4.884375,4.49178 7.400571,6.80573 -4.669084,5.07718 -9.338169,10.15436 -14.14874,15.38539 1.735232,1.59576 3.470473,3.19152 5.258298,4.83564 4.078061,-4.43449 8.156122,-8.86899 12.35776,-13.43787 2.442184,2.24589 4.884375,4.49178 7.40057,6.80573 -4.078061,4.43449 -8.156122,8.86899 -12.35776,13.43787 1.735233,1.59576 3.470473,3.19152 5.258298,4.83564 4.669084,-5.07717 9.338168,-10.15435 14.14874,-15.38539 2.442183,2.24589 4.884374,4.49178 7.400562,6.80572 -7.565098,8.22632 -15.130196,16.45263 -22.92454,24.92823 -10.797039,-9.92919 -21.594077,-19.85838 -32.718299,-30.08846 z"
         fill="#021b5f"
         id="path500"
         style="stroke-width:0.264583" /><path
         d="m 117.03896,63.579918 c 2.69927,2.482302 5.39852,4.964596 8.17958,7.522115 -1.26698,0.73278 -2.53395,1.465559 -3.83932,2.220541 -3.70071,2.393416 -8.35431,5.830783 -9.5988,10.291214 0.19969,1.126903 0.79664,1.559834 1.69594,2.21113 0.16374,0.128298 0.32747,0.25659 0.4961,0.388845 0.71016,0.204139 1.10308,-0.15239 1.74699,-0.482761 0.20618,-0.100843 0.41231,-0.201712 0.62471,-0.305625 1.49163,-0.753764 2.88865,-1.593534 4.28205,-2.515205 4.23265,-2.796383 8.8279,-5.209428 14.07256,-4.527707 1.00591,0.305467 1.92505,0.710527 2.85866,1.191061 0.46463,0.235448 0.46463,0.235448 0.93863,0.475647 3.21739,1.772257 5.47142,4.730096 6.65606,8.17107 0.99448,3.873247 -0.0583,7.532926 -1.90499,10.963826 -0.0833,0.1662 -0.16663,0.332354 -0.25248,0.503574 -1.15589,2.251737 -2.84592,4.104147 -4.55663,5.947347 -0.19884,0.21474 -0.3984,0.4288 -0.60324,0.65006 -1.9914,2.13385 -3.97295,4.1027 -6.35952,5.79733 -0.15134,0.10799 -0.30268,0.21599 -0.45858,0.32728 -1.63011,1.11854 -3.28741,1.91456 -5.07262,2.85355 -2.63499,-2.4232 -5.26997,-4.84639 -7.98481,-7.34302 0.72471,-0.4011 1.44944,-0.80221 2.19613,-1.21547 4.5976,-2.63384 11.4306,-6.64258 12.97332,-12.152878 -0.1748,-0.953215 -0.42033,-1.623314 -1.12592,-2.293512 -0.1191,-0.120394 -0.23794,-0.241089 -0.36055,-0.365257 -0.84633,-0.422744 -1.44628,-0.312597 -2.37727,-0.175488 -0.89232,0.33741 -1.72697,0.764715 -2.57097,1.207755 -0.23602,0.120592 -0.47199,0.241232 -0.71514,0.365499 -1.28344,0.663991 -2.52455,1.364392 -3.74429,2.138478 -3.75849,2.371086 -8.49046,4.502512 -12.99685,3.502938 -0.62118,-0.191885 -1.20199,-0.417584 -1.79508,-0.683357 -0.25343,-0.112144 -0.25343,-0.112144 -0.512,-0.226521 -3.18096,-1.629003 -6.05603,-4.799822 -7.20884,-8.18377 -1.093826,-4.619015 0.05854,-8.432491 2.47925,-12.396834 3.69568,-5.69964 9.13693,-10.279837 14.83783,-13.861914 z"
         fill="#021b5f"
         id="path502"
         style="stroke-width:0.264583" /><path
         d="m 121.0956,57.605231 c 2.95512,-3.213401 5.91024,-6.426809 8.95491,-9.737592 10.79703,9.929192 21.59407,19.858384 32.71829,30.08846 -2.95512,3.213408 -5.91023,6.426809 -8.9549,9.737592 -10.79704,-9.929192 -21.59407,-19.858384 -32.7183,-30.08846 z"
         fill="#041e61"
         id="path504"
         style="stroke-width:0.264583" /></g><g
       id="g685"
       transform="translate(125.26981,-127.1605)"><path
         d="m -62.793406,150.30532 c 0,0.0873 0,0.17462 0,0.26458 -0.318213,0.0102 -0.318213,0.0102 -0.642855,0.0207 -8.290006,0.41356 -15.583683,3.83634 -21.582145,9.50433 -0.185198,0.17122 -0.370396,0.34243 -0.561206,0.51883 -5.901652,5.63706 -8.828594,13.75886 -9.03879,21.77168 -0.0695,5.9862 1.139198,11.61492 4.043746,16.86783 0.08731,0 0.174625,0 0.264584,0 -0.03758,-0.41902 -0.07641,-0.83792 -0.115756,-1.25677 -0.02148,-0.23329 -0.04297,-0.46658 -0.06511,-0.70694 -0.06371,-0.65556 -0.06371,-0.65556 -0.217882,-1.17124 -0.68318,-2.98176 -0.427651,-6.99473 0.663332,-9.82963 0.106413,-0.27763 0.212823,-0.55526 0.322461,-0.8413 1.968753,-4.64844 5.571864,-8.47688 10.244336,-10.46448 1.820973,-0.73407 3.591322,-1.37355 5.572786,-1.39423 0.253411,-0.013 0.506822,-0.0259 0.767912,-0.0393 5.391369,-0.16991 10.141931,1.65232 14.19965,5.11803 2.934359,2.77522 5.49883,7.07961 5.703204,11.20281 0.162828,6.05392 -0.780684,11.18137 -5.060349,15.73302 -0.179741,0.19679 -0.359482,0.39359 -0.54467,0.59635 -3.800054,3.78688 -8.643054,5.27692 -13.85949,5.31195 -2.524342,-0.0289 -4.628772,-0.78003 -6.981615,-1.66876 -0.860121,-0.32495 -0.860121,-0.32495 -1.897558,-0.27079 0.392906,0.26194 0.392906,0.26194 0.79375,0.52917 0,0.17462 0,0.34925 0,0.52916 0.190314,0.072 0.380628,0.14393 0.576709,0.21808 0.736699,0.30713 1.407867,0.66247 2.102197,1.05523 1.45748,0.80298 2.933644,1.51541 4.464843,2.16628 0.209414,0.0924 0.418828,0.18485 0.634587,0.28008 5.211483,2.11254 11.628156,2.62716 17.092497,1.30742 0.503922,-0.11562 0.503922,-0.11562 1.018025,-0.23358 1.077825,-0.25338 2.146748,-0.53511 3.215308,-0.82476 0.266712,-0.0696 0.533425,-0.13915 0.808219,-0.21084 4.61036,-1.35373 8.835482,-4.31602 12.156364,-7.72666 0.174625,0 0.34925,0 0.529167,0 0.07094,-0.15655 0.141883,-0.31309 0.214974,-0.47439 0.316918,-0.58901 0.647399,-0.97879 1.107942,-1.46037 4.704787,-5.31123 7.035284,-11.9819 7.672917,-18.96732 0.08731,0 0.174625,0 0.264583,0 0.16214,8.93894 -1.410023,17.26112 -6.879166,24.60625 -0.108416,0.14683 -0.216832,0.29366 -0.328533,0.44493 -5.886229,7.91815 -14.706398,13.7244 -24.561291,15.25036 -6.235864,0.87734 -12.236509,0.50408 -18.237259,-1.40779 -0.314803,-0.0948 -0.629605,-0.18963 -0.953947,-0.28732 -5.453869,-1.76984 -10.352424,-5.22168 -14.391886,-9.23768 -0.124447,-0.12338 -0.248891,-0.24676 -0.377108,-0.37388 -6.889711,-6.93014 -10.521001,-16.45995 -10.519841,-26.15441 -5.3e-4,-0.53812 -0.005,-1.07609 -0.0104,-1.61418 -0.003,-2.14187 0.14671,-4.15716 0.5886,-6.25336 0.04,-0.19238 0.0801,-0.38477 0.12137,-0.58298 2.21172,-10.03018 8.11124,-18.53681 16.723598,-24.16474 3.198683,-2.00821 6.532299,-3.52451 10.142531,-4.62103 0.40058,-0.12535 0.40058,-0.12535 0.809253,-0.25322 4.38011,-1.23323 9.519126,-1.53946 14.007412,-0.80512 z"
         fill="#011b5f"
         id="path490"
         style="stroke-width:0.264583" /><path
         d="m -56.410333,151.4298 c 0.266371,0.0761 0.532743,0.15211 0.807186,0.23048 1.769485,0.5242 3.352447,1.22267 4.980574,2.08462 0.271488,0.12654 0.542975,0.25307 0.822689,0.38344 7.654145,3.5893 14.448202,10.58723 17.698144,18.40198 0.175521,0.38145 0.351231,0.76282 0.5271,1.14412 3.153053,7.09662 3.311917,14.64382 0.531234,21.87463 -1.526515,3.59542 -3.599431,6.7859 -6.085417,9.78959 -0.176671,0.22612 -0.353343,0.45225 -0.535368,0.68522 -3.214014,3.91907 -8.3642,7.03954 -13.140283,8.59173 -0.207004,0.0679 -0.414009,0.13587 -0.627287,0.20587 -7.088955,2.28322 -15.28614,2.60364 -22.209561,-0.48699 -0.311392,-0.13643 -0.622784,-0.27285 -0.943612,-0.41341 -2.120682,-0.94912 -4.297904,-1.94821 -6.200138,-3.29076 0,-0.17462 0,-0.34925 0,-0.52916 -0.34925,-0.17463 -0.6985,-0.34925 -1.058334,-0.52917 0.468189,-0.29249 0.468189,-0.29249 1.058334,-0.52917 0.482658,0.15193 0.482658,0.15193 0.975651,0.44649 3.682865,2.03003 8.53713,2.32515 12.584244,1.28984 5.270094,-1.79008 9.17034,-4.78291 11.840104,-9.67383 1.430396,-2.90987 1.942489,-5.50479 1.91823,-8.73125 0.002,-0.27217 0.0041,-0.54433 0.0062,-0.82475 -0.0067,-2.63435 -0.493528,-4.76074 -1.659847,-7.11275 -0.105389,-0.22612 -0.210778,-0.45225 -0.319361,-0.68523 -2.184491,-4.38786 -6.067969,-7.37028 -10.627775,-9.02167 -5.029929,-1.5531 -10.297697,-1.15586 -14.982031,1.24023 -1.035803,0.6354 -1.974863,1.34267 -2.910416,2.11667 -0.209074,0.1661 -0.418145,0.3322 -0.633553,0.50333 -2.517174,2.09693 -4.124878,4.61618 -5.18728,7.69876 -0.126876,0.34277 -0.126876,0.34277 -0.256316,0.69246 -0.576601,1.84192 -0.610872,3.66101 -0.620117,5.57485 -0.0016,0.25779 -0.0029,0.51557 -0.0045,0.78116 0.01413,1.42148 0.142242,2.72115 0.500229,4.09839 0.143957,0.61365 0.156562,1.1902 0.116078,1.81772 -0.261938,0 -0.523875,0 -0.79375,0 -4.074975,-7.36963 -5.316993,-16.70716 -3.036829,-24.874 2.64986,-8.73946 8.613023,-15.96656 16.613274,-20.30361 6.469719,-3.37633 13.766652,-4.79444 20.852474,-2.64583 z"
         fill="#6f8ee2"
         id="path492"
         style="stroke-width:0.264583" /><path
         d="m -29.191323,189.72824 c 0.08731,0 0.174625,0 0.264583,0 0,0.61119 0,1.22237 0,1.85208 -0.523875,0.26194 -0.523875,0.26194 -1.058333,0.52917 0.131758,-0.98819 0.231489,-1.53786 0.79375,-2.38125 z"
         fill="#0b2065"
         id="path574"
         style="stroke-width:0.264583" /></g></g><metadata
     id="metadata325"><rdf:RDF><cc:Work
         rdf:about=""><dc:title>Orange3 Natural Language Processing</dc:title><dc:creator><cc:Agent><dc:title>Chris Lee</dc:title></cc:Agent></dc:creator><dc:rights><cc:Agent><dc:title>CC-BY-NC-SA-4.0</dc:title></cc:Agent></dc:rights></cc:Work></rdf:RDF></metadata></svg>
