<?xml version="1.0" encoding="UTF-8" standalone="no"?>
<!-- Created with Inkscape (http://www.inkscape.org/) -->

<svg
   width="800"
   height="800"
   viewBox="0 0 211.66666 211.66667"
   version="1.1"
   id="svg5"
   xml:space="preserve"
   inkscape:version="1.2.2 (b0a8486541, 2022-12-01)"
   sodipodi:docname="nlp-chunk.svg"
   xmlns:inkscape="http://www.inkscape.org/namespaces/inkscape"
   xmlns:sodipodi="http://sodipodi.sourceforge.net/DTD/sodipodi-0.dtd"
   xmlns:xlink="http://www.w3.org/1999/xlink"
   xmlns="http://www.w3.org/2000/svg"
   xmlns:svg="http://www.w3.org/2000/svg"
   xmlns:rdf="http://www.w3.org/1999/02/22-rdf-syntax-ns#"
   xmlns:cc="http://creativecommons.org/ns#"
   xmlns:dc="http://purl.org/dc/elements/1.1/"><title
     id="title327">Orange3 Natural Language Processing</title><sodipodi:namedview
     id="namedview7"
     pagecolor="#ffffff"
     bordercolor="#000000"
     borderopacity="0.25"
     inkscape:showpageshadow="2"
     inkscape:pageopacity="0.0"
     inkscape:pagecheckerboard="0"
     inkscape:deskcolor="#d1d1d1"
     inkscape:document-units="mm"
     showgrid="false"
     inkscape:zoom="0.75811588"
     inkscape:cx="272.3858"
     inkscape:cy="463.64944"
     inkscape:window-width="1920"
     inkscape:window-height="1029"
     inkscape:window-x="0"
     inkscape:window-y="0"
     inkscape:window-maximized="1"
     inkscape:current-layer="layer1" /><defs
     id="defs2"><linearGradient
       inkscape:collect="always"
       id="linearGradient11908"><stop
         style="stop-color:#ff9a00;stop-opacity:1;"
         offset="0"
         id="stop11904" /><stop
         style="stop-color:#7400ff;stop-opacity:1;"
         offset="1"
         id="stop11906" /></linearGradient><linearGradient
       inkscape:collect="always"
       xlink:href="#linearGradient11908"
       id="linearGradient11910"
       x1="108.83301"
       y1="26.097816"
       x2="111.48956"
       y2="183.34178"
       gradientUnits="userSpaceOnUse"
       spreadMethod="pad" /></defs><g
     inkscape:label="Layer 1"
     inkscape:groupmode="layer"
     id="layer1"><path
       style="fill:url(#linearGradient11910);fill-opacity:1;stroke-width:0.346492"
       d="m 81.714215,209.97394 c -2.314721,-0.916 -5.160018,-3.51444 -7.141123,-6.52158 -2.369854,-3.5972 -3.454356,-4.54637 -5.188436,-4.54102 -0.795268,0.003 -2.420129,0.30989 -3.610798,0.68316 -3.180419,0.99706 -7.482282,1.45185 -9.936866,1.05053 -2.242602,-0.36667 -2.601558,-0.66102 -2.358251,-1.9338 0.180185,-0.94262 -0.03719,-1.00833 -1.569086,-0.47431 -0.872311,0.3041 -1.370409,0.23602 -2.812741,-0.38446 -4.088218,-1.7587 -4.660452,-1.71753 23.867805,-1.71753 h 26.420157 l -0.22757,1.42324 c -0.839654,5.25088 -4.068632,9.83789 -8.52331,12.10803 -2.248771,1.146 -6.436439,1.29047 -8.919781,0.30774 z m 36.985765,-6.65441 c 0,-0.99065 1.06904,-3.02485 2.81976,-5.3655 l 1.3606,-1.8191 7.69825,0.007 7.69824,0.007 -1.73247,1.09313 c -4.36221,2.75242 -14.40025,6.86303 -16.7594,6.86303 -0.89627,0 -1.08498,-0.13648 -1.08498,-0.78474 z M 37.97505,187.38599 c -3.471879,-4.39685 -6.496536,-8.64775 -9.125267,-12.82477 l -2.014199,-3.20052 12.75402,-0.091 c 8.908309,-0.0635 12.79167,0.022 12.878888,0.28364 0.364535,1.09356 3.085369,4.67328 3.629002,4.77455 0.832054,0.15499 1.526236,-0.82659 1.797554,-2.54176 0.456808,-2.88783 -1.665588,-2.5987 19.075831,-2.5987 10.1827,0 18.514022,0.0703 18.514022,0.15635 0,0.086 -0.236196,1.0605 -0.524854,2.16557 -0.662254,2.53526 -0.335684,4.30012 1.76111,9.51741 0.830744,2.06707 1.681316,4.41975 1.890182,5.22818 0.20885,0.80842 0.458917,1.74272 0.555707,2.07622 0.1666,0.57409 -1.382367,0.60636 -29.105822,0.60636 H 40.779448 Z m 90.3694,2.25221 c 0.57222,-0.71465 3.26091,-3.71614 5.9749,-6.66999 2.71398,-2.95386 6.17079,-6.81292 7.6818,-8.5757 l 2.74726,-3.20507 h 18.18902 c 10.47507,0 18.14004,0.1307 18.07352,0.30821 -0.0635,0.16952 -1.28491,2.36829 -2.71419,4.88616 -2.55895,4.50795 -5.21805,8.20293 -6.23688,8.66652 -2.68941,1.22378 -3.97009,2.03924 -5.99695,3.81853 l -2.35879,2.07068 H 145.50412 127.30408 Z M 24.26873,165.49533 c -1.600633,-3.83086 -2.055542,-6.51263 -2.061356,-12.15227 -0.0026,-3.04913 0.110921,-6.08961 0.25339,-6.7566 l 0.259113,-1.21272 10.17521,0.0965 10.175209,0.0965 0.195769,1.65294 c 0.26993,2.27916 2.323678,8.49905 4.62216,13.99852 1.057053,2.52917 2.002543,4.79339 2.101089,5.0316 0.141409,0.34188 -2.496634,0.43312 -12.522591,0.43312 H 24.764982 Z m 34.487917,-2.56512 c 0,-2.06721 -0.102671,-6.82412 -0.228155,-10.5709 l -0.228142,-6.81233 h 25.002385 c 13.751317,0 25.002445,0.13118 25.002445,0.29151 0,0.16033 -2.29986,4.87697 -5.11081,10.4814 l -5.110779,10.18991 -19.663466,0.0894 -19.663478,0.0894 z m 89.826213,2.97323 c 2.71527,-4.14515 3.86665,-6.0824 5.21862,-8.78051 1.64123,-3.27539 4.05221,-9.77047 4.05221,-10.9165 0,-0.63893 0.50739,-0.65945 16.30639,-0.65945 h 16.3064 l -0.22009,1.64584 c -1.08868,8.14184 -2.65949,13.53586 -5.14323,17.66131 l -1.08926,1.80925 -17.97086,0.0105 -17.97086,0.0105 0.51068,-0.77961 z M 25.146842,138.39991 c 0,-0.43281 2.765976,-5.20399 4.223852,-7.28593 2.261735,-3.2299 6.851942,-8.32771 9.877424,-10.96971 l 2.703627,-2.36092 22.151639,0.0271 c 12.183397,0.0149 22.228211,0.10358 22.321807,0.19723 0.238173,0.23818 -1.866753,15.95027 -2.563737,19.13687 -0.364993,1.66873 0.556794,0.62822 2.455658,-2.77195 1.090866,-1.95335 3.448161,-5.70895 5.238448,-8.34579 1.790274,-2.63683 3.643276,-5.56037 4.117763,-6.49674 l 0.862725,-1.70249 h 10.562232 c 5.82042,0 10.56222,0.13638 10.56222,0.30378 0,0.70107 -3.20789,9.59651 -4.1149,11.41056 -1.37464,2.74934 -2.21439,5.46629 -1.94845,6.30416 0.12349,0.38923 0.12245,1.17291 -0.003,1.74152 l -0.22707,1.03382 -26.737192,-0.0888 -26.737146,-0.0888 -0.253037,-2.07896 c -0.284885,-2.34061 -0.761127,-3.63817 -1.335325,-3.63817 -0.213187,0 -1.082734,0.77314 -1.932324,1.71809 -0.991194,1.10246 -2.423638,2.15781 -3.99753,2.94519 l -2.452842,1.22709 h -11.38771 c -6.263233,0 -11.387709,-0.0977 -11.387709,-0.2172 z m 133.744918,-1.77512 c -0.003,-4.50388 -1.52458,-10.81709 -3.85265,-15.9866 -0.54827,-1.21742 -0.99685,-2.34786 -0.99685,-2.51207 0,-0.16421 7.64403,-0.29857 16.98672,-0.29857 h 16.98673 l 0.32555,0.85624 c 0.97144,2.55511 2.41514,13.43931 2.42566,18.28749 l 0.004,1.64584 h -15.93906 -15.93867 l -0.001,-1.99233 z M 52.59061,108.90536 c 4.344451,-4.18333 7.929372,-9.549573 9.656996,-14.455493 l 0.613826,-1.743051 30.0008,-0.08853 30.000848,-0.08853 -0.20277,2.513987 c -0.25724,3.189035 -0.97756,7.338977 -2.1354,12.302407 l -0.90931,3.89805 h -9.81314 c -5.39723,0 -9.813157,-0.12402 -9.813157,-0.27553 0,-0.15154 0.773537,-2.02538 1.718967,-4.16408 1.86769,-4.22499 3.82494,-9.662338 3.82494,-10.6259 0,-1.375203 -4.65165,0.445689 -8.07387,3.160539 -2.446111,1.940491 -6.05632,6.413351 -7.697878,9.537231 l -1.244218,2.36774 H 69.339476 50.161707 Z m 95.22046,-0.36409 c -3.05733,-4.29259 -8.44528,-10.549463 -11.52378,-13.382188 l -2.85331,-2.62551 h 19.94995 19.94997 l 3.18921,4.483568 c 3.03147,4.26178 8.70351,13.35134 8.70351,13.94754 0,0.15373 -7.99099,0.27159 -17.75777,0.26191 l -17.75775,-0.0175 -1.90003,-2.66771 z M 64.166244,84.414412 c 0.398296,-1.037944 -2.331221,-1.87306 -13.644481,-4.174643 -9.614984,-1.956077 -13.624707,-3.202696 -15.19412,-4.72383 -0.636193,-0.616623 -2.899775,-1.990426 -5.030186,-3.052894 -2.13041,-1.062471 -4.027873,-2.180497 -4.21657,-2.484498 -0.983363,-1.584191 0.893041,-3.253243 4.783081,-4.254538 2.472473,-0.636414 8.60412,-1.254851 12.473744,-1.258108 5.432502,-0.0046 13.589295,-1.688065 19.558895,-4.036792 l 2.963146,-1.165841 39.647427,0.0063 c 21.8061,0.0035 39.73712,0.09738 39.84671,0.208669 0.3676,0.373224 -4.06452,4.224908 -6.27567,5.453798 -2.85067,1.584317 -5.81053,2.480191 -10.50318,3.179047 -5.15918,0.76833 -7.99001,1.504007 -8.66736,2.252478 -0.51431,0.568306 -0.51678,0.717863 -0.0274,1.664221 1.19673,2.314215 4.80394,4.220603 7.98613,4.220603 2.22615,0 6.38675,1.183993 10.50991,2.990842 4.86627,2.132494 6.33552,2.25964 9.83328,0.850949 3.30255,-1.330075 4.34214,-1.327092 7.39187,0.0212 1.77551,0.784963 3.02977,1.092163 4.68067,1.146414 2.61578,0.08596 3.14922,0.32466 5.00483,2.239512 l 1.36969,1.413385 h -51.34041 c -44.41686,0 -51.314768,-0.06693 -51.149996,-0.49632 z m 40.993236,-6.419639 c 1.49858,-0.764512 2.12803,-1.761327 1.83055,-2.898888 -0.14333,-0.548089 -0.41089,-0.631643 -1.59414,-0.497823 -1.83633,0.207677 -5.30394,1.850594 -5.778837,2.737948 -0.272157,0.50852 -0.251747,0.830235 0.0778,1.227371 0.603027,0.726596 3.520907,0.422982 5.464587,-0.568608 z M 72.470313,51.560795 c 0.490137,-1.546173 2.677645,-6.455357 5.944233,-13.339975 l 3.329148,-7.01648 h 17.611882 c 15.170584,0 17.611934,0.06979 17.611934,0.503435 0,1.140897 0.85598,2.258478 2.11593,2.762612 0.73086,0.292432 3.71119,0.780172 6.62294,1.083866 2.91175,0.30369 6.30338,0.786004 7.53695,1.071806 5.28609,1.224713 10.01532,3.748228 11.4539,6.111808 0.53368,0.876827 0.65982,1.638433 0.59358,3.583661 -0.0783,2.298167 -0.005,2.579615 1.04198,4.041312 0.61935,0.864112 1.12611,1.662564 1.12611,1.774339 0,0.111773 -16.92803,0.203224 -37.61785,0.203224 H 72.223169 Z M 84.1408,25.920323 c 0.488172,-1.286732 2.665099,-7.535923 2.987373,-8.575698 0.206744,-0.666999 0.60352,-2.957796 0.881714,-5.09066 0.752118,-5.7661853 2.609389,-9.0728274 6.09473,-10.8509194 2.02237,-1.03173373 3.540945,-0.87759886 6.774703,0.6876262 7.46433,3.6129278 14.61579,13.8711942 15.61863,22.4038332 l 0.21848,1.858934 h -16.37 c -12.952595,0 -16.335645,-0.09041 -16.20563,-0.433116 z"
       id="path11516"
       inkscape:transform-center-x="-0.51176432"
       inkscape:transform-center-y="-1.9952644" /></g><metadata
     id="metadata325"><rdf:RDF><cc:Work
         rdf:about=""><dc:title>Orange3 Natural Language Processing</dc:title><dc:creator><cc:Agent><dc:title>Chris Lee</dc:title></cc:Agent></dc:creator><dc:rights><cc:Agent><dc:title>CC-BY-NC-SA-4.0</dc:title></cc:Agent></dc:rights></cc:Work></rdf:RDF></metadata></svg>
