<?xml version="1.0" encoding="UTF-8" standalone="no"?>
<!-- Created with Inkscape (http://www.inkscape.org/) -->

<svg
   width="800"
   height="800"
   viewBox="0 0 211.66666 211.66667"
   version="1.1"
   id="svg5"
   xml:space="preserve"
   inkscape:version="1.2.2 (b0a8486541, 2022-12-01)"
   sodipodi:docname="nlp-rag.svg"
   xmlns:inkscape="http://www.inkscape.org/namespaces/inkscape"
   xmlns:sodipodi="http://sodipodi.sourceforge.net/DTD/sodipodi-0.dtd"
   xmlns:xlink="http://www.w3.org/1999/xlink"
   xmlns="http://www.w3.org/2000/svg"
   xmlns:svg="http://www.w3.org/2000/svg"
   xmlns:rdf="http://www.w3.org/1999/02/22-rdf-syntax-ns#"
   xmlns:cc="http://creativecommons.org/ns#"
   xmlns:dc="http://purl.org/dc/elements/1.1/"><title
     id="title327">Orange3 Natural Language Processing</title><sodipodi:namedview
     id="namedview7"
     pagecolor="#ffffff"
     bordercolor="#000000"
     borderopacity="0.25"
     inkscape:showpageshadow="2"
     inkscape:pageopacity="0.0"
     inkscape:pagecheckerboard="0"
     inkscape:deskcolor="#d1d1d1"
     inkscape:document-units="mm"
     showgrid="false"
     inkscape:zoom="0.96102398"
     inkscape:cx="619.65155"
     inkscape:cy="273.14615"
     inkscape:window-width="1920"
     inkscape:window-height="1029"
     inkscape:window-x="0"
     inkscape:window-y="0"
     inkscape:window-maximized="1"
     inkscape:current-layer="layer1" /><defs
     id="defs2"><clipPath
       clipPathUnits="userSpaceOnUse"
       id="clipPath957"><path
         style="fill:#000000;stroke-width:1.11414"
         d="m 89.161744,157.84901 c -1.521081,-2.48826 -2.4179,-2.98306 -4.170989,-2.30146 -3.26693,1.27024 -8.62747,1.21932 -7.824362,-0.0744 0.388221,-0.62538 -0.0498,-0.81926 -1.01655,-0.44993 -2.03309,0.77672 -6.93919,-4.2035 -12.71057,-12.90257 -8.17431,-12.3209 -4.896369,-24.11787 9.768541,-35.15596 6.80765,-5.12404 9.861,-10.328189 10.08644,-17.191449 0.0113,-0.360489 -3.49423,-1.28117 -7.791291,-2.045679 -4.29705,-0.76451 -8.114519,-1.875975 -8.483248,-2.469898 -0.368731,-0.593969 -1.93244,-1.557592 -3.47491,-2.141437 -5.085461,-1.924839 -1.1557,-4.359616 7.036519,-4.359616 7.59527,0 17.201031,-3.551828 17.201031,-6.360258 0,-0.808826 2.060199,-5.549861 4.57821,-10.535592 2.560521,-5.06993 4.578215,-10.66155 4.578215,-12.68765 0,-4.247096 3.12445,-7.625328 6.11733,-6.614149 5.55765,1.877735 10.40893,9.073465 10.40893,15.439223 0,3.808386 0,3.808386 6.12421,4.313947 6.27134,0.517752 11.18358,3.387984 10.19369,5.956115 -0.28064,0.728329 -0.0296,1.804 0.56043,2.39033 2.96437,2.951139 -2.36344,9.034344 -8.68306,9.914096 -6.92596,0.964161 -7.53952,1.294072 -5.95101,3.199549 0.75853,0.909873 2.59877,1.654302 4.08946,1.654302 1.49066,0 4.19736,0.76555 6.01485,1.701239 2.48196,1.27771 3.85796,1.406358 5.52774,0.516699 1.57803,-0.840774 2.87795,-0.835644 4.47953,0.01691 1.241,0.661202 2.69396,0.93291 3.22879,0.603851 1.66092,-1.02194 12.28974,12.956397 14.74634,19.393497 3.05731,8.01115 2.50407,22.37853 -1.07937,28.02952 -1.27387,2.00891 -3.35074,5.52843 -4.61531,7.82121 -1.2645,2.2928 -2.79143,4.1687 -3.39313,4.1687 -0.60166,0 -2.09891,1.0005 -3.3272,2.22331 -2.00586,1.99685 -3.71768,2.38647 -11.82545,2.69132 -1.28371,0.0485 -3.04241,0.60872 -3.90822,1.24541 -2.04448,1.50347 -6.46897,3.51197 -9.78623,4.44244 -3.42934,0.96194 -0.58785,-3.30008 9.04501,-13.56679 14.74247,-15.71257 16.43425,-27.41034 5.97834,-41.33689 -7.79296,-10.379707 -14.0695,-13.687478 -14.0695,-7.414744 0,3.649337 -3.26779,16.048374 -5.23397,19.859284 -0.89678,1.73818 -1.38402,3.4057 -1.08277,3.70565 0.5559,0.55339 -2.69135,7.82485 -7.67378,17.18382 -2.74266,5.15174 -2.74266,5.15174 -0.34172,10.90322 4.64995,11.13901 -7.201677,20.24417 -13.320987,10.23401 z M 80.074545,129.3506 c -0.302302,-11.24788 -0.693071,-13.23057 -2.146221,-10.88983 -0.439721,0.7083 -2.171099,1.80699 -3.847499,2.4415 -4.02432,1.52323 -3.925242,4.01838 0.581038,14.63291 4.574882,10.77613 5.829991,9.34203 5.412682,-6.18458 z m 19.33666,-16.13033 c 2.148215,-2.51844 8.484115,-16.67722 7.462865,-16.67722 -4.10962,0 -9.966588,6.82891 -10.660712,12.42987 -0.403008,3.25176 -0.991179,7.41306 -1.307057,9.24727 -0.574334,3.33496 -0.574334,3.33496 1.253053,0.003 1.005055,-1.83283 2.468386,-4.08395 3.251851,-5.0024 z m 8.470645,-27.923382 c 0,-1.162179 -0.35619,-1.20269 -2.70028,-0.307131 -2.56388,0.979456 -2.17001,2.557174 0.46701,1.870647 1.22828,-0.319747 2.23327,-1.023327 2.23327,-1.563431 z"
         id="path959" /></clipPath><clipPath
       clipPathUnits="userSpaceOnUse"
       id="clipPath961"><path
         style="fill:#000000;stroke-width:1.11414"
         d="m 89.161744,157.84901 c -1.521081,-2.48826 -2.4179,-2.98306 -4.170989,-2.30146 -3.26693,1.27024 -8.62747,1.21932 -7.824362,-0.0744 0.388221,-0.62538 -0.0498,-0.81926 -1.01655,-0.44993 -2.03309,0.77672 -6.93919,-4.2035 -12.71057,-12.90257 -8.17431,-12.3209 -4.896369,-24.11787 9.768541,-35.15596 6.80765,-5.12404 9.861,-10.328189 10.08644,-17.191449 0.0113,-0.360489 -3.49423,-1.28117 -7.791291,-2.045679 -4.29705,-0.76451 -8.114519,-1.875975 -8.483248,-2.469898 -0.368731,-0.593969 -1.93244,-1.557592 -3.47491,-2.141437 -5.085461,-1.924839 -1.1557,-4.359616 7.036519,-4.359616 7.59527,0 17.201031,-3.551828 17.201031,-6.360258 0,-0.808826 2.060199,-5.549861 4.57821,-10.535592 2.560521,-5.06993 4.578215,-10.66155 4.578215,-12.68765 0,-4.247096 3.12445,-7.625328 6.11733,-6.614149 5.55765,1.877735 10.40893,9.073465 10.40893,15.439223 0,3.808386 0,3.808386 6.12421,4.313947 6.27134,0.517752 11.18358,3.387984 10.19369,5.956115 -0.28064,0.728329 -0.0296,1.804 0.56043,2.39033 2.96437,2.951139 -2.36344,9.034344 -8.68306,9.914096 -6.92596,0.964161 -7.53952,1.294072 -5.95101,3.199549 0.75853,0.909873 2.59877,1.654302 4.08946,1.654302 1.49066,0 4.19736,0.76555 6.01485,1.701239 2.48196,1.27771 3.85796,1.406358 5.52774,0.516699 1.57803,-0.840774 2.87795,-0.835644 4.47953,0.01691 1.241,0.661202 2.69396,0.93291 3.22879,0.603851 1.66092,-1.02194 12.28974,12.956397 14.74634,19.393497 3.05731,8.01115 2.50407,22.37853 -1.07937,28.02952 -1.27387,2.00891 -3.35074,5.52843 -4.61531,7.82121 -1.2645,2.2928 -2.79143,4.1687 -3.39313,4.1687 -0.60166,0 -2.09891,1.0005 -3.3272,2.22331 -2.00586,1.99685 -3.71768,2.38647 -11.82545,2.69132 -1.28371,0.0485 -3.04241,0.60872 -3.90822,1.24541 -2.04448,1.50347 -6.46897,3.51197 -9.78623,4.44244 -3.42934,0.96194 -0.58785,-3.30008 9.04501,-13.56679 14.74247,-15.71257 16.43425,-27.41034 5.97834,-41.33689 -7.79296,-10.379707 -14.0695,-13.687478 -14.0695,-7.414744 0,3.649337 -3.26779,16.048374 -5.23397,19.859284 -0.89678,1.73818 -1.38402,3.4057 -1.08277,3.70565 0.5559,0.55339 -2.69135,7.82485 -7.67378,17.18382 -2.74266,5.15174 -2.74266,5.15174 -0.34172,10.90322 4.64995,11.13901 -7.201677,20.24417 -13.320987,10.23401 z M 80.074545,129.3506 c -0.302302,-11.24788 -0.693071,-13.23057 -2.146221,-10.88983 -0.439721,0.7083 -2.171099,1.80699 -3.847499,2.4415 -4.02432,1.52323 -3.925242,4.01838 0.581038,14.63291 4.574882,10.77613 5.829991,9.34203 5.412682,-6.18458 z m 19.33666,-16.13033 c 2.148215,-2.51844 8.484115,-16.67722 7.462865,-16.67722 -4.10962,0 -9.966588,6.82891 -10.660712,12.42987 -0.403008,3.25176 -0.991179,7.41306 -1.307057,9.24727 -0.574334,3.33496 -0.574334,3.33496 1.253053,0.003 1.005055,-1.83283 2.468386,-4.08395 3.251851,-5.0024 z m 8.470645,-27.923382 c 0,-1.162179 -0.35619,-1.20269 -2.70028,-0.307131 -2.56388,0.979456 -2.17001,2.557174 0.46701,1.870647 1.22828,-0.319747 2.23327,-1.023327 2.23327,-1.563431 z"
         id="path963" /></clipPath><clipPath
       clipPathUnits="userSpaceOnUse"
       id="clipPath965"><path
         style="fill:#000000;stroke-width:1.11414"
         d="m 89.161744,157.84901 c -1.521081,-2.48826 -2.4179,-2.98306 -4.170989,-2.30146 -3.26693,1.27024 -8.62747,1.21932 -7.824362,-0.0744 0.388221,-0.62538 -0.0498,-0.81926 -1.01655,-0.44993 -2.03309,0.77672 -6.93919,-4.2035 -12.71057,-12.90257 -8.17431,-12.3209 -4.896369,-24.11787 9.768541,-35.15596 6.80765,-5.12404 9.861,-10.328189 10.08644,-17.191449 0.0113,-0.360489 -3.49423,-1.28117 -7.791291,-2.045679 -4.29705,-0.76451 -8.114519,-1.875975 -8.483248,-2.469898 -0.368731,-0.593969 -1.93244,-1.557592 -3.47491,-2.141437 -5.085461,-1.924839 -1.1557,-4.359616 7.036519,-4.359616 7.59527,0 17.201031,-3.551828 17.201031,-6.360258 0,-0.808826 2.060199,-5.549861 4.57821,-10.535592 2.560521,-5.06993 4.578215,-10.66155 4.578215,-12.68765 0,-4.247096 3.12445,-7.625328 6.11733,-6.614149 5.55765,1.877735 10.40893,9.073465 10.40893,15.439223 0,3.808386 0,3.808386 6.12421,4.313947 6.27134,0.517752 11.18358,3.387984 10.19369,5.956115 -0.28064,0.728329 -0.0296,1.804 0.56043,2.39033 2.96437,2.951139 -2.36344,9.034344 -8.68306,9.914096 -6.92596,0.964161 -7.53952,1.294072 -5.95101,3.199549 0.75853,0.909873 2.59877,1.654302 4.08946,1.654302 1.49066,0 4.19736,0.76555 6.01485,1.701239 2.48196,1.27771 3.85796,1.406358 5.52774,0.516699 1.57803,-0.840774 2.87795,-0.835644 4.47953,0.01691 1.241,0.661202 2.69396,0.93291 3.22879,0.603851 1.66092,-1.02194 12.28974,12.956397 14.74634,19.393497 3.05731,8.01115 2.50407,22.37853 -1.07937,28.02952 -1.27387,2.00891 -3.35074,5.52843 -4.61531,7.82121 -1.2645,2.2928 -2.79143,4.1687 -3.39313,4.1687 -0.60166,0 -2.09891,1.0005 -3.3272,2.22331 -2.00586,1.99685 -3.71768,2.38647 -11.82545,2.69132 -1.28371,0.0485 -3.04241,0.60872 -3.90822,1.24541 -2.04448,1.50347 -6.46897,3.51197 -9.78623,4.44244 -3.42934,0.96194 -0.58785,-3.30008 9.04501,-13.56679 14.74247,-15.71257 16.43425,-27.41034 5.97834,-41.33689 -7.79296,-10.379707 -14.0695,-13.687478 -14.0695,-7.414744 0,3.649337 -3.26779,16.048374 -5.23397,19.859284 -0.89678,1.73818 -1.38402,3.4057 -1.08277,3.70565 0.5559,0.55339 -2.69135,7.82485 -7.67378,17.18382 -2.74266,5.15174 -2.74266,5.15174 -0.34172,10.90322 4.64995,11.13901 -7.201677,20.24417 -13.320987,10.23401 z M 80.074545,129.3506 c -0.302302,-11.24788 -0.693071,-13.23057 -2.146221,-10.88983 -0.439721,0.7083 -2.171099,1.80699 -3.847499,2.4415 -4.02432,1.52323 -3.925242,4.01838 0.581038,14.63291 4.574882,10.77613 5.829991,9.34203 5.412682,-6.18458 z m 19.33666,-16.13033 c 2.148215,-2.51844 8.484115,-16.67722 7.462865,-16.67722 -4.10962,0 -9.966588,6.82891 -10.660712,12.42987 -0.403008,3.25176 -0.991179,7.41306 -1.307057,9.24727 -0.574334,3.33496 -0.574334,3.33496 1.253053,0.003 1.005055,-1.83283 2.468386,-4.08395 3.251851,-5.0024 z m 8.470645,-27.923382 c 0,-1.162179 -0.35619,-1.20269 -2.70028,-0.307131 -2.56388,0.979456 -2.17001,2.557174 0.46701,1.870647 1.22828,-0.319747 2.23327,-1.023327 2.23327,-1.563431 z"
         id="path967" /></clipPath><clipPath
       clipPathUnits="userSpaceOnUse"
       id="clipPath969"><path
         style="fill:#000000;stroke-width:1.11414"
         d="m 89.161744,157.84901 c -1.521081,-2.48826 -2.4179,-2.98306 -4.170989,-2.30146 -3.26693,1.27024 -8.62747,1.21932 -7.824362,-0.0744 0.388221,-0.62538 -0.0498,-0.81926 -1.01655,-0.44993 -2.03309,0.77672 -6.93919,-4.2035 -12.71057,-12.90257 -8.17431,-12.3209 -4.896369,-24.11787 9.768541,-35.15596 6.80765,-5.12404 9.861,-10.328189 10.08644,-17.191449 0.0113,-0.360489 -3.49423,-1.28117 -7.791291,-2.045679 -4.29705,-0.76451 -8.114519,-1.875975 -8.483248,-2.469898 -0.368731,-0.593969 -1.93244,-1.557592 -3.47491,-2.141437 -5.085461,-1.924839 -1.1557,-4.359616 7.036519,-4.359616 7.59527,0 17.201031,-3.551828 17.201031,-6.360258 0,-0.808826 2.060199,-5.549861 4.57821,-10.535592 2.560521,-5.06993 4.578215,-10.66155 4.578215,-12.68765 0,-4.247096 3.12445,-7.625328 6.11733,-6.614149 5.55765,1.877735 10.40893,9.073465 10.40893,15.439223 0,3.808386 0,3.808386 6.12421,4.313947 6.27134,0.517752 11.18358,3.387984 10.19369,5.956115 -0.28064,0.728329 -0.0296,1.804 0.56043,2.39033 2.96437,2.951139 -2.36344,9.034344 -8.68306,9.914096 -6.92596,0.964161 -7.53952,1.294072 -5.95101,3.199549 0.75853,0.909873 2.59877,1.654302 4.08946,1.654302 1.49066,0 4.19736,0.76555 6.01485,1.701239 2.48196,1.27771 3.85796,1.406358 5.52774,0.516699 1.57803,-0.840774 2.87795,-0.835644 4.47953,0.01691 1.241,0.661202 2.69396,0.93291 3.22879,0.603851 1.66092,-1.02194 12.28974,12.956397 14.74634,19.393497 3.05731,8.01115 2.50407,22.37853 -1.07937,28.02952 -1.27387,2.00891 -3.35074,5.52843 -4.61531,7.82121 -1.2645,2.2928 -2.79143,4.1687 -3.39313,4.1687 -0.60166,0 -2.09891,1.0005 -3.3272,2.22331 -2.00586,1.99685 -3.71768,2.38647 -11.82545,2.69132 -1.28371,0.0485 -3.04241,0.60872 -3.90822,1.24541 -2.04448,1.50347 -6.46897,3.51197 -9.78623,4.44244 -3.42934,0.96194 -0.58785,-3.30008 9.04501,-13.56679 14.74247,-15.71257 16.43425,-27.41034 5.97834,-41.33689 -7.79296,-10.379707 -14.0695,-13.687478 -14.0695,-7.414744 0,3.649337 -3.26779,16.048374 -5.23397,19.859284 -0.89678,1.73818 -1.38402,3.4057 -1.08277,3.70565 0.5559,0.55339 -2.69135,7.82485 -7.67378,17.18382 -2.74266,5.15174 -2.74266,5.15174 -0.34172,10.90322 4.64995,11.13901 -7.201677,20.24417 -13.320987,10.23401 z M 80.074545,129.3506 c -0.302302,-11.24788 -0.693071,-13.23057 -2.146221,-10.88983 -0.439721,0.7083 -2.171099,1.80699 -3.847499,2.4415 -4.02432,1.52323 -3.925242,4.01838 0.581038,14.63291 4.574882,10.77613 5.829991,9.34203 5.412682,-6.18458 z m 19.33666,-16.13033 c 2.148215,-2.51844 8.484115,-16.67722 7.462865,-16.67722 -4.10962,0 -9.966588,6.82891 -10.660712,12.42987 -0.403008,3.25176 -0.991179,7.41306 -1.307057,9.24727 -0.574334,3.33496 -0.574334,3.33496 1.253053,0.003 1.005055,-1.83283 2.468386,-4.08395 3.251851,-5.0024 z m 8.470645,-27.923382 c 0,-1.162179 -0.35619,-1.20269 -2.70028,-0.307131 -2.56388,0.979456 -2.17001,2.557174 0.46701,1.870647 1.22828,-0.319747 2.23327,-1.023327 2.23327,-1.563431 z"
         id="path971" /></clipPath><clipPath
       clipPathUnits="userSpaceOnUse"
       id="clipPath973"><path
         style="fill:#000000;stroke-width:1.11414"
         d="m 89.161744,157.84901 c -1.521081,-2.48826 -2.4179,-2.98306 -4.170989,-2.30146 -3.26693,1.27024 -8.62747,1.21932 -7.824362,-0.0744 0.388221,-0.62538 -0.0498,-0.81926 -1.01655,-0.44993 -2.03309,0.77672 -6.93919,-4.2035 -12.71057,-12.90257 -8.17431,-12.3209 -4.896369,-24.11787 9.768541,-35.15596 6.80765,-5.12404 9.861,-10.328189 10.08644,-17.191449 0.0113,-0.360489 -3.49423,-1.28117 -7.791291,-2.045679 -4.29705,-0.76451 -8.114519,-1.875975 -8.483248,-2.469898 -0.368731,-0.593969 -1.93244,-1.557592 -3.47491,-2.141437 -5.085461,-1.924839 -1.1557,-4.359616 7.036519,-4.359616 7.59527,0 17.201031,-3.551828 17.201031,-6.360258 0,-0.808826 2.060199,-5.549861 4.57821,-10.535592 2.560521,-5.06993 4.578215,-10.66155 4.578215,-12.68765 0,-4.247096 3.12445,-7.625328 6.11733,-6.614149 5.55765,1.877735 10.40893,9.073465 10.40893,15.439223 0,3.808386 0,3.808386 6.12421,4.313947 6.27134,0.517752 11.18358,3.387984 10.19369,5.956115 -0.28064,0.728329 -0.0296,1.804 0.56043,2.39033 2.96437,2.951139 -2.36344,9.034344 -8.68306,9.914096 -6.92596,0.964161 -7.53952,1.294072 -5.95101,3.199549 0.75853,0.909873 2.59877,1.654302 4.08946,1.654302 1.49066,0 4.19736,0.76555 6.01485,1.701239 2.48196,1.27771 3.85796,1.406358 5.52774,0.516699 1.57803,-0.840774 2.87795,-0.835644 4.47953,0.01691 1.241,0.661202 2.69396,0.93291 3.22879,0.603851 1.66092,-1.02194 12.28974,12.956397 14.74634,19.393497 3.05731,8.01115 2.50407,22.37853 -1.07937,28.02952 -1.27387,2.00891 -3.35074,5.52843 -4.61531,7.82121 -1.2645,2.2928 -2.79143,4.1687 -3.39313,4.1687 -0.60166,0 -2.09891,1.0005 -3.3272,2.22331 -2.00586,1.99685 -3.71768,2.38647 -11.82545,2.69132 -1.28371,0.0485 -3.04241,0.60872 -3.90822,1.24541 -2.04448,1.50347 -6.46897,3.51197 -9.78623,4.44244 -3.42934,0.96194 -0.58785,-3.30008 9.04501,-13.56679 14.74247,-15.71257 16.43425,-27.41034 5.97834,-41.33689 -7.79296,-10.379707 -14.0695,-13.687478 -14.0695,-7.414744 0,3.649337 -3.26779,16.048374 -5.23397,19.859284 -0.89678,1.73818 -1.38402,3.4057 -1.08277,3.70565 0.5559,0.55339 -2.69135,7.82485 -7.67378,17.18382 -2.74266,5.15174 -2.74266,5.15174 -0.34172,10.90322 4.64995,11.13901 -7.201677,20.24417 -13.320987,10.23401 z M 80.074545,129.3506 c -0.302302,-11.24788 -0.693071,-13.23057 -2.146221,-10.88983 -0.439721,0.7083 -2.171099,1.80699 -3.847499,2.4415 -4.02432,1.52323 -3.925242,4.01838 0.581038,14.63291 4.574882,10.77613 5.829991,9.34203 5.412682,-6.18458 z m 19.33666,-16.13033 c 2.148215,-2.51844 8.484115,-16.67722 7.462865,-16.67722 -4.10962,0 -9.966588,6.82891 -10.660712,12.42987 -0.403008,3.25176 -0.991179,7.41306 -1.307057,9.24727 -0.574334,3.33496 -0.574334,3.33496 1.253053,0.003 1.005055,-1.83283 2.468386,-4.08395 3.251851,-5.0024 z m 8.470645,-27.923382 c 0,-1.162179 -0.35619,-1.20269 -2.70028,-0.307131 -2.56388,0.979456 -2.17001,2.557174 0.46701,1.870647 1.22828,-0.319747 2.23327,-1.023327 2.23327,-1.563431 z"
         id="path975" /></clipPath><linearGradient
       inkscape:collect="always"
       id="linearGradient10359"><stop
         style="stop-color:#e09b1a;stop-opacity:1;"
         offset="0"
         id="stop10355" /><stop
         style="stop-color:#edc272;stop-opacity:1;"
         offset="1"
         id="stop10357" /></linearGradient><linearGradient
       inkscape:collect="always"
       xlink:href="#linearGradient10359"
       id="linearGradient10353"
       x1="470.41473"
       y1="665.98932"
       x2="470.41473"
       y2="251.66214"
       gradientUnits="userSpaceOnUse" /></defs><g
     inkscape:label="Layer 1"
     inkscape:groupmode="layer"
     id="layer1"><path
       d="m 51.148526,52.303437 v 42.09682 l 7.071882,-0.14335 7.024092,-0.14335 0.143347,-41.95348 0.09562,-41.90566 h -7.167454 -7.167432 z"
       id="path438-7"
       style="fill:#cc5c00;fill-opacity:1;stroke:none;stroke-width:0.047783" /><path
       d="m 34.778537,53.259087 v 41.14117 l 7.549716,-0.14335 7.501955,-0.14335 v -40.85447 -40.85443 l -7.501955,-0.14335 -7.549716,-0.14336 z"
       id="path444-5"
       style="fill:#8d2100;fill-opacity:1;stroke:none;stroke-width:0.047783" /><path
       d="m 66.562817,53.259087 v 41.09339 l 8.744289,-0.0956 8.696516,-0.14335 v -40.85446 -40.85444 l -8.696516,-0.14335 -8.744289,-0.0956 z"
       id="path446-3"
       style="fill:#990061;fill-opacity:1;stroke:none;stroke-width:0.047783" /><path
       d="m 85.321929,53.259087 v 41.09339 h 7.645294 7.645257 v -41.09339 -41.09335 h -7.645257 -7.645294 z"
       id="path448-5"
       style="fill:#cc0033;stroke:none;stroke-width:0.047783" /><path
       d="m 11.752645,55.982727 0.143362,38.13083 10.894516,0.14335 10.846747,0.0956 V 56.126077 17.899687 H 22.647177 11.657083 Z"
       id="path460-6"
       style="fill:#ff0000;stroke:none;stroke-width:0.047783" /><path
       d="m 3.8654035,101.04172 v 7.1357 H 56.21699 108.56857 v -7.1357 -7.135703 H 56.21699 3.8654035 Z"
       id="path442"
       style="fill:#000000;stroke:none;stroke-width:0.043458" /><path
       style="fill:#000000;stroke-width:0.813404"
       d="m 44.379392,91.174627 c -1.157237,-1.74323 -1.839536,-2.08987 -3.173285,-1.61235 -2.485483,0.8899 -6.563789,0.85423 -5.952781,-0.0521 0.295361,-0.43812 -0.03785,-0.57395 -0.773392,-0.31521 -1.546774,0.54416 -5.279335,-2.94489 -9.670202,-9.03931 -6.219016,-8.63179 -3.725164,-16.89654 7.431907,-24.62963 5.17926,-3.5898 7.502252,-7.23575 7.67377,-12.04407 0.0086,-0.25255 -2.658415,-0.89757 -5.927622,-1.43316 -3.269197,-0.53561 -6.173529,-1.31428 -6.454052,-1.73037 -0.280534,-0.41612 -1.470208,-1.09122 -2.643717,-1.50025 -3.869021,-1.34851 -0.879258,-3.05427 5.353388,-3.05427 5.778481,0 13.086546,-2.48835 13.086546,-4.45589 0,-0.56664 1.567403,-3.88813 3.483107,-7.38104 1.948044,-3.5519 3.483107,-7.4693 3.483107,-8.88874 0,-2.97545 2.377084,-5.3421796 4.654062,-4.63376 4.228256,1.31551 7.919103,6.35671 7.919103,10.81645 0,2.66808 0,2.66808 4.659297,3.02227 4.771242,0.36273 8.50847,2.37356 7.755362,4.17275 -0.213508,0.51025 -0.02252,1.26385 0.426377,1.67462 2.255303,2.06752 -1.798105,6.3293 -6.606074,6.94564 -5.269274,0.67547 -5.736069,0.9066 -4.527531,2.24154 0.57709,0.63745 1.977149,1.15898 3.111263,1.15898 1.134094,0 3.193356,0.53633 4.576108,1.19185 1.888268,0.89515 2.935131,0.98528 4.205501,0.362 1.200564,-0.58903 2.189548,-0.58544 3.408028,0.0118 0.944155,0.46322 2.049562,0.65357 2.456462,0.42304 1.263634,-0.71595 9.35004,9.07708 11.219027,13.58679 2.326,5.61247 1.905091,15.678 -0.821186,19.63697 -0.969167,1.40741 -2.549249,3.87312 -3.51133,5.4794 -0.962033,1.6063 -2.123727,2.92052 -2.581492,2.92052 -0.457749,0 -1.596858,0.70093 -2.531339,1.55761 -1.526058,1.39896 -2.828413,1.67192 -8.996807,1.88549 -0.97665,0.034 -2.314666,0.42646 -2.973374,0.87251 -1.555446,1.05331 -4.921598,2.46043 -7.445366,3.11229 -2.609045,0.67392 -0.44724,-2.31197 6.88144,-9.50464 11.216084,-11.00794 12.503189,-19.20318 4.548328,-28.95988 -5.928884,-7.27188 -10.704084,-9.58925 -10.704084,-5.19465 0,2.55667 -2.486129,11.24322 -3.982005,13.91307 -0.682266,1.21774 -1.052965,2.38598 -0.823774,2.59611 0.422935,0.38769 -2.047567,5.48196 -5.8382,12.03867 -2.086607,3.60922 -2.086607,3.60922 -0.259981,7.6386 3.537687,7.8038 -5.47903,14.18271 -10.1346,7.16977 z m -6.913545,-19.96546 c -0.22999,-7.88006 -0.527281,-9.2691 -1.632841,-7.62922 -0.334539,0.49622 -1.651777,1.26594 -2.927183,1.71047 -3.061703,1.06715 -2.986323,2.81521 0.442055,10.25154 3.480573,7.54957 4.435459,6.54486 4.117969,-4.33279 z m 14.711341,-11.30062 c 1.634361,-1.76438 6.454708,-11.68378 5.677748,-11.68378 -3.126602,0 -7.582581,4.78423 -8.110671,8.70816 -0.306609,2.27812 -0.754089,5.19346 -0.994409,6.47847 -0.436955,2.33642 -0.436955,2.33642 0.953322,0.002 0.764647,-1.28405 1.877949,-2.86114 2.47401,-3.50459 z m 6.444467,-19.56267 c 0,-0.81421 -0.270991,-0.84259 -2.054376,-0.21518 -1.9506,0.68619 -1.650949,1.79152 0.355299,1.31055 0.934481,-0.22401 1.699077,-0.71693 1.699077,-1.09531 z"
       id="path323" /><rect
       style="fill:#ffffff;fill-opacity:1;stroke:none;stroke-width:1.12102;stroke-linejoin:bevel"
       id="rect1344-2"
       width="0.99424952"
       height="76.785782"
       x="33.659412"
       y="17.237139" /><rect
       style="fill:#ffffff;fill-opacity:1;stroke:none;stroke-width:1.29159;stroke-linejoin:bevel"
       id="rect1344-2-9"
       width="1.2093303"
       height="83.802399"
       x="49.826908"
       y="10.291384" /><rect
       style="fill:#ffffff;fill-opacity:1;stroke:none;stroke-width:1.27683;stroke-linejoin:bevel"
       id="rect1344-2-9-1"
       width="1.2093303"
       height="81.898422"
       x="65.27726"
       y="12.138758" /><rect
       style="fill:#ffffff;fill-opacity:1;stroke:none;stroke-width:1.27391;stroke-linejoin:bevel"
       id="rect1344-2-9-2"
       width="1.2093303"
       height="81.524208"
       x="84.084061"
       y="12.171404" /><g
       id="g1956"
       transform="matrix(0.9102921,0,0,0.9102921,-45.674612,46.290906)"><ellipse
         style="fill:#ffcccc;stroke-width:2.4;stroke-linejoin:bevel"
         id="path1138"
         cx="170.30882"
         cy="11.846483"
         rx="8.4647284"
         ry="19.555208" /><ellipse
         style="fill:#ffcccc;stroke-width:2.4;stroke-linejoin:bevel"
         id="path1138-6"
         cx="239.80759"
         cy="11.834813"
         rx="8.4647284"
         ry="19.555208" /><ellipse
         style="fill:#ffffff;stroke-width:2.29431;stroke-linejoin:bevel"
         id="path528"
         cx="204.24037"
         cy="77.615173"
         rx="24.045998"
         ry="18.273317" /><g
         inkscape:label="Layer 1"
         id="layer1-3"
         transform="translate(98.454544,-34.361077)"><path
           d="m 69.903648,20.974524 c -1.582967,0.251853 -3.482568,1.067365 -4.822002,2.074779 -4.054852,3.034205 -7.196493,9.474428 -8.52377,17.497675 -0.499243,3.034185 -0.84019,7.243776 -0.84019,10.45795 0,3.789748 0.450536,8.634779 1.09592,11.980815 0.14612,0.743628 0.21918,1.403327 0.158297,1.451259 -0.04871,0.04793 -0.645384,0.527642 -1.315121,1.055284 -2.289234,1.798912 -4.907279,4.569373 -6.709446,7.099981 -3.458234,4.833097 -5.69878,10.325893 -6.6364,16.274335 -0.365306,2.350618 -0.462721,7.099785 -0.170475,9.450403 0.645373,5.420805 2.301427,10.002115 5.138631,14.199765 l 0.925447,1.3552 -0.267887,0.44372 c -1.8996,3.14218 -3.519118,7.68749 -4.274082,12.0528 -0.596666,3.45403 -0.669728,4.37746 -0.669728,9.0067 0,4.66543 0.06089,5.58885 0.62102,8.81496 0.669729,3.86175 2.033536,7.95121 3.55564,10.67375 0.499263,0.88742 1.71695,2.73426 1.863071,2.83032 0.04871,0.0239 -0.09741,0.46758 -0.32877,0.98329 -1.753481,3.77781 -3.251232,8.80284 -3.872261,13.03649 -0.438361,2.90213 -0.499245,3.83768 -0.499245,6.89592 0,3.89755 0.21918,5.79253 1.047214,8.8987 l 0.121767,0.45565 h 5.211696 5.223892 l -0.340967,-0.63563 c -2.106585,-3.83769 -2.301411,-10.96153 -0.487067,-18.07325 0.828034,-3.28618 1.765657,-5.69666 3.519118,-9.01883 l 1.047213,-2.0147 v -1.23527 c 0,-1.15134 -0.02435,-1.28321 -0.401829,-2.03877 -0.292261,-0.57577 -0.681914,-1.06741 -1.376004,-1.73904 -1.181158,-1.12728 -2.033525,-2.31462 -2.715438,-3.77781 -2.995502,-6.40429 -3.580002,-15.91456 -1.473397,-24.02189 0.87674,-3.38204 2.325784,-6.39216 3.847888,-8.03514 1.035037,-1.12748 1.570811,-2.38662 1.570811,-3.69389 0,-1.3552 -0.487067,-2.47054 -1.582988,-3.63382 -3.141641,-3.31004 -5.077752,-7.33984 -5.771842,-12.028946 -0.986331,-6.680137 0.80368,-13.959911 4.870749,-19.728364 3.981851,-5.660851 9.570983,-9.294673 15.817835,-10.266027 1.400219,-0.227921 4.018302,-0.191924 5.479503,0.072 1.595284,0.275853 2.593652,0.191728 3.616651,-0.287982 1.266334,-0.587508 1.8996,-1.319203 2.642318,-2.998187 0.657501,-1.498996 1.169,-2.31462 2.544984,-4.005539 1.656067,-2.026833 3.251152,-3.406097 5.808253,-5.073148 2.922597,-1.882842 6.246854,-3.249976 9.558983,-3.909675 1.20535,-0.239855 1.76553,-0.275853 4.01831,-0.275853 2.25278,0 2.81295,0.036 4.0183,0.275853 4.85855,0.971549 9.68075,3.442095 13.52862,6.94386 0.82794,0.755562 2.81275,3.178176 3.44602,4.185724 0.24353,0.395584 0.66981,1.235272 0.93758,1.858778 0.74272,1.678984 1.37599,2.410679 2.64232,2.998187 0.98645,0.467775 2.02137,0.563835 3.55567,0.31185 2.42321,-0.407714 4.28627,-0.371716 6.66082,0.107993 8.08547,1.60699 15.1237,8.167199 18.24097,16.958099 2.71542,7.711357 1.94827,15.782687 -2.09447,21.946927 -0.68193,1.04354 -1.36387,1.88304 -2.35011,2.91445 -2.13102,2.24263 -2.13102,5.02502 -0.0121,7.32771 3.48256,3.75375 5.66225,12.98836 5.00455,21.13149 -0.4382,5.37287 -1.83861,10.1821 -3.76265,12.90444 -0.34087,0.47971 -1.04704,1.29513 -1.58297,1.79891 -0.69405,0.67163 -1.08358,1.16327 -1.37598,1.73904 -0.37742,0.75556 -0.40185,0.88743 -0.40185,2.03877 v 1.23527 l 1.04723,2.0147 c 1.7536,3.32217 2.69119,5.73265 3.51912,9.01883 1.79015,7.01585 1.63183,13.99571 -0.41397,17.96544 -0.17043,0.33573 -0.31663,0.64757 -0.31663,0.68358 0,0.036 2.32588,0.0599 5.17518,0.0599 h 5.16307 l 0.13389,-0.51571 c 0.0731,-0.27566 0.19487,-0.6955 0.25565,-0.93536 0.13408,-0.52764 0.40185,-2.08669 0.62115,-3.58588 0.20698,-1.51113 0.20698,-7.07592 0,-8.75491 -0.77927,-6.09243 -2.08236,-10.92553 -4.21317,-15.4949 -0.23142,-0.51571 -0.37761,-0.95942 -0.32895,-0.98329 0.061,-0.036 0.40185,-0.51571 0.76715,-1.05548 2.65463,-3.95761 4.28627,-8.93469 5.1144,-15.50684 0.2191,-1.81104 0.2191,-9.59439 0,-11.33344 -0.5846,-4.48525 -1.29077,-7.53156 -2.45977,-10.61368 -0.48707,-1.2832 -1.77783,-3.9936 -2.32568,-4.86909 l -0.26796,-0.44371 0.92546,-1.3552 c 2.83718,-4.19766 4.49325,-8.77897 5.13864,-14.19977 0.2922,-2.350618 0.19486,-7.099785 -0.17044,-9.450403 -0.9499,-5.960572 -3.17825,-11.429305 -6.63638,-16.274336 -1.80228,-2.530607 -4.42035,-5.301068 -6.70949,-7.099981 -0.66982,-0.527642 -1.26654,-1.007351 -1.3152,-1.055283 -0.0608,-0.04793 0.0123,-0.707631 0.15831,-1.45126 1.47352,-7.567561 1.42466,-17.005834 -0.12176,-24.38159 -1.33943,-6.428211 -3.77477,-11.537219 -6.91647,-14.487475 -2.50843,-2.350621 -5.06554,-3.35803 -8.13413,-3.166142 -7.03824,0.407759 -12.71261,8.383066 -14.95328,20.951643 -0.3653,2.026833 -0.68174,4.401514 -0.68174,5.049083 0,0.251789 -0.0489,0.455647 -0.10964,0.455647 -0.061,0 -0.53574,-0.239855 -1.04724,-0.539576 -5.43083,-3.166242 -11.4707,-4.857161 -17.35205,-4.857161 -5.88136,0 -11.921227,1.690919 -17.352062,4.857161 -0.511499,0.299721 -0.98625,0.539576 -1.047233,0.539576 -0.06078,0 -0.10965,-0.203858 -0.10965,-0.455647 0,-0.671633 -0.32875,-3.118114 -0.681734,-5.049083 C 84.905618,30.616878 80.241932,23.145278 74.043946,21.262381 73.191578,21.010529 70.768361,20.842635 69.903678,20.974557 Z m 2.070234,9.762268 c 1.753401,1.367193 3.701668,5.276888 4.822002,9.654319 0.206983,0.791502 0.426084,1.70299 0.487066,2.038709 0.04866,0.32398 0.182551,1.055479 0.292201,1.619119 0.47495,2.54254 0.69405,5.288939 0.718483,8.634974 l 0.01212,3.298104 -0.84025,1.223143 -0.840051,1.235272 H 74.66487 c -2.289135,0 -4.566352,0.287983 -6.746037,0.863556 -0.779267,0.191923 -1.5343,0.383846 -1.680301,0.419845 -0.231416,0.04793 -0.267966,-0.02406 -0.40185,-1.007548 -0.718483,-5.336871 -0.681933,-11.249315 0.10965,-16.166538 0.876601,-5.480686 2.922402,-10.445762 4.919336,-11.908897 0.47495,-0.347809 0.560167,-0.335816 1.108217,0.09594 z m 69.432458,-0.08397 c 1.20555,0.875491 2.53287,3.202123 3.51912,6.176364 1.98482,5.948481 2.54498,14.11568 1.49775,21.887098 -0.13388,0.983484 -0.17043,1.05548 -0.40185,1.007548 -0.146,-0.036 -0.90103,-0.227922 -1.6803,-0.419845 -2.17968,-0.575573 -4.4569,-0.863556 -6.74604,-0.863556 h -1.96058 l -0.84005,-1.235272 -0.84025,-1.223143 0.0121,-3.298104 c 0.0244,-4.653304 0.46283,-8.287126 1.50986,-12.32878 1.10822,-4.341453 3.06861,-8.251148 4.80989,-9.618341 0.54805,-0.431758 0.63327,-0.443751 1.12033,-0.08397 z"
           fill="#000000"
           id="path2"
           style="stroke-width:0.197135" /><path
           d="m 104.24246,91.013167 c -2.64252,0.251985 -3.3608,0.347849 -4.627329,0.599833 -2.057923,0.419649 -4.809885,1.355201 -6.721603,2.278623 -6.648507,3.202044 -11.226975,8.538917 -12.627392,14.715277 -0.280083,1.22334 -0.316633,1.63106 -0.316633,3.69389 0,2.03876 0.03655,2.48248 0.304516,3.64575 1.863051,8.07134 9.412588,14.03191 19.178555,15.12319 2.118706,0.22792 11.275846,0.22792 13.394536,0 7.84194,-0.87549 14.58798,-5.06101 17.62003,-10.93766 0.8035,-1.57099 1.19323,-2.59047 1.55853,-4.18553 0.26797,-1.16327 0.30452,-1.60699 0.30452,-3.64575 0,-2.06283 -0.0366,-2.47055 -0.31663,-3.69389 -2.03369,-8.970692 -10.87399,-16.034479 -21.71143,-17.377746 -1.41253,-0.167859 -5.1142,-0.31185 -6.03967,-0.215987 z m 4.55404,6.524212 c 3.61665,0.383846 7.25753,1.655116 10.17994,3.573961 1.57084,1.03141 3.78708,3.19011 4.73678,4.60537 1.169,1.75078 1.83862,3.53776 2.14313,5.70859 0.13389,0.99542 0.061,1.75098 -0.30451,3.35797 -0.57229,2.39855 -2.35012,4.90509 -4.74891,6.65607 -1.12033,0.80349 -3.44601,1.96697 -4.87066,2.42261 -2.70331,0.85143 -4.46902,1.00735 -10.77666,0.95942 -4.11563,-0.036 -4.84643,-0.072 -6.027548,-0.28778 -4.030422,-0.74363 -7.220788,-2.32675 -9.534356,-4.73724 -1.875367,-1.9429 -2.727734,-3.71775 -3.190368,-6.58407 -0.206984,-1.33134 0.182551,-3.53796 0.974134,-5.39694 0.962017,-2.26668 3.446019,-5.08488 5.905787,-6.704 2.8493,-1.870913 6.599836,-3.202049 10.045851,-3.561832 1.32732,-0.143991 4.14007,-0.143991 5.46739,-0.01213 z"
           fill="#000000"
           id="path4"
           style="stroke-width:0.197135" /><path
           d="m 101.47857,106.29248 c -0.92546,0.49164 -1.570843,1.73885 -1.37598,2.66227 0.2191,0.99542 1.10802,2.00297 2.49612,2.83053 0.74292,0.44371 0.79158,0.50357 0.82814,0.94729 0.0242,0.26391 -0.0731,1.01948 -0.20699,1.69111 -0.1462,0.6595 -0.25585,1.3552 -0.25585,1.54712 0.0123,0.51571 0.49938,1.3552 1.01069,1.76292 0.45071,0.35978 0.53593,0.37171 1.80226,0.40771 1.15688,0.036 1.40042,0.0119 1.86305,-0.20386 1.19343,-0.57576 1.49776,-1.63105 1.05935,-3.65788 -0.3653,-1.69092 -0.2922,-1.95484 0.62115,-2.47055 0.96182,-0.5517 1.98482,-1.52306 2.28914,-2.18275 0.5846,-1.25915 0.0486,-2.68634 -1.2421,-3.34604 -0.31644,-0.15593 -0.70617,-0.22773 -1.27846,-0.22773 -0.88891,0 -1.46119,0.20386 -2.50842,0.86337 l -0.59672,0.37191 -0.37742,-0.22792 c -1.54642,-0.89956 -1.82651,-1.00736 -2.76428,-0.99542 -0.66962,0 -1.03492,0.0599 -1.36368,0.22792 z"
           fill="#000000"
           id="path6"
           style="stroke-width:0.197135" /><path
           d="m 71.912898,92.368563 c -2.155251,0.671633 -3.762651,2.23069 -4.590585,4.449446 -0.40185,1.05548 -0.596717,2.722531 -0.426283,3.621891 0.40185,2.14676 2.191801,4.1016 4.225485,4.64137 2.557101,0.6595 4.468819,0.22773 6.161435,-1.4272 0.986251,-0.94748 1.522184,-1.77504 2.057918,-3.11831 0.389534,-0.947288 0.413967,-1.115148 0.413967,-2.458414 l 0.01212,-1.43913 -0.511301,-1.031415 c -0.816016,-1.631053 -2.289334,-2.842458 -3.994068,-3.28617 -0.962017,-0.239855 -2.508434,-0.227725 -3.348685,0.04793 z"
           fill="#000000"
           id="path8"
           style="stroke-width:0.197135" /><path
           d="m 136.94964,92.332761 c -1.66818,0.443712 -3.15382,1.666855 -3.9454,3.27404 l -0.5113,1.031415 0.0121,1.43913 c 0,1.343266 0.0244,1.511126 0.41396,2.458414 0.53594,1.34327 1.07167,2.17083 2.05792,3.11831 1.69262,1.65493 3.60434,2.0867 6.16164,1.4272 1.47331,-0.38385 2.94663,-1.60718 3.65299,-3.03438 0.60884,-1.21121 0.75484,-2.086702 0.56017,-3.465966 -0.45052,-3.154113 -2.32588,-5.444668 -5.1144,-6.248163 -0.81581,-0.239855 -2.39878,-0.239855 -3.2877,0 z"
           fill="#000000"
           id="path10"
           style="stroke-width:0.197135" /><path
           style="fill:url(#linearGradient10353);fill-opacity:1;stroke:none;stroke-width:46.0304;stroke-dasharray:none;stroke-opacity:1"
           d="m 400.05459,707.34123 -190.22456,-0.33421 -2.15398,-6.92062 c -7.06752,-22.70755 -1.99949,-60.10905 12.03171,-88.79265 4.59423,-9.39185 5.85142,-13.40741 5.85142,-18.68981 0,-6.17498 -0.54383,-7.36001 -6.61729,-14.41928 -7.78844,-9.05264 -12.25978,-17.88074 -16.12399,-31.83474 -2.40895,-8.69895 -2.80714,-13.64538 -2.7817,-34.55481 0.0255,-20.93807 0.43912,-25.90078 2.91358,-34.95508 3.57329,-13.07505 8.88901,-24.59575 15.10755,-32.74249 8.77057,-11.49007 8.19724,-18.42214 -2.63768,-31.89143 -17.03255,-21.17381 -23.24258,-45.99538 -18.31563,-73.2078 6.53146,-36.07439 32.25204,-67.44276 64.06977,-78.13838 7.20864,-2.4232 11.61945,-2.89023 27.70025,-2.93296 22.76614,-0.0605 24.06651,-0.62888 30.35059,-13.26598 10.66226,-21.44152 35.17313,-39.77708 62.52434,-46.77186 19.8313,-5.07165 36.95484,-2.9468 58.17321,7.21868 20.00234,9.58288 34.17144,22.58267 43.48955,39.90055 6.56376,12.19885 8.14217,12.86063 30.7911,12.90986 17.60364,0.0383 20.16215,0.35159 28.24927,3.45965 13.24395,5.08993 22.77714,11.26537 33.28334,21.56041 26.92881,26.38755 37.7692,67.86971 26.50505,101.42502 -4.06438,12.10759 -7.61182,18.47294 -15.8832,28.50002 -10.52253,12.75607 -10.92977,19.78723 -1.84055,31.77828 6.68785,8.82305 10.72593,17.6219 14.59743,31.80741 2.62773,9.62821 2.97967,13.95569 2.92828,36.00563 -0.0545,23.39605 -0.29549,25.83575 -3.62438,36.69934 -4.51468,14.73324 -6.98659,19.45285 -15.29178,29.19655 -8.94611,10.49562 -9.06945,15.1111 -0.86924,32.5272 11.73661,24.92689 15.94956,44.29212 14.8888,68.43794 -0.67346,15.3296 -2.17158,22.93935 -5.20565,26.44212 -1.44121,1.66388 -26.83641,1.87344 -191.88561,1.58344 z m 26.00165,-211.94104 c 17.42136,-0.97294 33.06951,-6.92179 48.16509,-18.31062 23.29661,-17.57606 32.0088,-45.89283 22.88076,-74.36808 -8.05381,-25.12414 -34.7096,-47.59155 -66.42914,-55.99123 -15.02471,-3.9787 -44.2931,-3.98436 -59.35768,-0.0119 -31.29576,8.25344 -57.09386,29.88809 -66.11586,55.4457 -2.43491,6.89761 -3.08495,11.50812 -3.10695,22.03643 -0.0428,20.46058 5.31433,33.19835 20.02543,47.61536 15.5364,15.2258 34.16175,22.64689 60.40938,24.06956 16.04015,0.86941 20.07042,0.82444 43.52897,-0.48565 z M 289.22815,395.01026 c 7.39392,-5.0243 12.80882,-15.36354 12.82411,-24.48638 0.0102,-6.05959 -0.67103,-8.3301 -3.79151,-12.63779 -5.32956,-7.35725 -11.64758,-10.06971 -21.92995,-9.41497 -9.78613,0.62312 -16.25324,4.75772 -20.51825,13.11782 -9.53471,18.68957 0.55007,36.72312 20.55399,36.75457 6.33716,0.0106 8.93084,-0.66222 12.86161,-3.33325 z m 251.31589,-0.41892 c 11.42035,-8.13202 12.57209,-25.64508 2.49083,-37.87539 -2.20094,-2.67013 -5.95619,-5.67141 -8.34496,-6.6695 -5.92634,-2.4762 -16.89412,-2.28227 -22.54359,0.39858 -6.60219,3.13295 -12.22275,12.42637 -12.22275,20.20997 0,10.40868 8.04918,22.98879 17.14778,26.80036 1.08822,0.45588 5.85012,0.68486 10.58199,0.50883 6.52823,-0.24284 9.63753,-1.0564 12.8907,-3.37285 z"
           id="path8833"
           transform="scale(0.26458333)" /><g
           id="g7335"
           transform="translate(-1.1151039,1.7395345)"><circle
             style="fill:none;stroke:#000000;stroke-width:7;stroke-dasharray:none;stroke-opacity:1"
             id="path6153"
             cx="73.962051"
             cy="98.368591"
             r="18.638416" /><circle
             style="fill:none;stroke:#000000;stroke-width:7;stroke-dasharray:none;stroke-opacity:1"
             id="path6153-3"
             cx="138.84012"
             cy="97.45195"
             r="18.638416" /><path
             style="fill:none;stroke:#000000;stroke-width:7;stroke-dasharray:none;stroke-opacity:1"
             d="m 89.778164,87.919453 c 0,0 4.799597,-7.089002 15.149816,-7.192311 10.35021,-0.103312 17.23521,6.406567 17.23521,6.406567 l -0.0245,0.66929 v 0 0"
             id="path6287" /></g></g></g></g><metadata
     id="metadata325"><rdf:RDF><cc:Work
         rdf:about=""><dc:title>Orange3 Natural Language Processing</dc:title><dc:creator><cc:Agent><dc:title>Chris Lee</dc:title></cc:Agent></dc:creator><dc:rights><cc:Agent><dc:title>CC-BY-NC-SA-4.0</dc:title></cc:Agent></dc:rights></cc:Work></rdf:RDF></metadata></svg>
