<?xml version="1.0" encoding="UTF-8" standalone="no"?>
<!-- Created with Inkscape (http://www.inkscape.org/) -->

<svg
   width="800"
   height="800"
   viewBox="0 0 211.66666 211.66667"
   version="1.1"
   id="svg5"
   xml:space="preserve"
   inkscape:version="1.2.2 (b0a8486541, 2022-12-01)"
   sodipodi:docname="nlp-reference.svg"
   xmlns:inkscape="http://www.inkscape.org/namespaces/inkscape"
   xmlns:sodipodi="http://sodipodi.sourceforge.net/DTD/sodipodi-0.dtd"
   xmlns="http://www.w3.org/2000/svg"
   xmlns:svg="http://www.w3.org/2000/svg"
   xmlns:rdf="http://www.w3.org/1999/02/22-rdf-syntax-ns#"
   xmlns:cc="http://creativecommons.org/ns#"
   xmlns:dc="http://purl.org/dc/elements/1.1/"><title
     id="title327">Orange3 Natural Language Processing</title><sodipodi:namedview
     id="namedview7"
     pagecolor="#ffffff"
     bordercolor="#000000"
     borderopacity="0.25"
     inkscape:showpageshadow="2"
     inkscape:pageopacity="0.0"
     inkscape:pagecheckerboard="0"
     inkscape:deskcolor="#d1d1d1"
     inkscape:document-units="mm"
     showgrid="false"
     inkscape:zoom="1.2741641"
     inkscape:cx="355.91962"
     inkscape:cy="256.24643"
     inkscape:window-width="1920"
     inkscape:window-height="1029"
     inkscape:window-x="0"
     inkscape:window-y="0"
     inkscape:window-maximized="1"
     inkscape:current-layer="layer1" /><defs
     id="defs2"><clipPath
       clipPathUnits="userSpaceOnUse"
       id="clipPath957"><path
         style="fill:#000000;stroke-width:1.11414"
         d="m 89.161744,157.84901 c -1.521081,-2.48826 -2.4179,-2.98306 -4.170989,-2.30146 -3.26693,1.27024 -8.62747,1.21932 -7.824362,-0.0744 0.388221,-0.62538 -0.0498,-0.81926 -1.01655,-0.44993 -2.03309,0.77672 -6.93919,-4.2035 -12.71057,-12.90257 -8.17431,-12.3209 -4.896369,-24.11787 9.768541,-35.15596 6.80765,-5.12404 9.861,-10.328189 10.08644,-17.191449 0.0113,-0.360489 -3.49423,-1.28117 -7.791291,-2.045679 -4.29705,-0.76451 -8.114519,-1.875975 -8.483248,-2.469898 -0.368731,-0.593969 -1.93244,-1.557592 -3.47491,-2.141437 -5.085461,-1.924839 -1.1557,-4.359616 7.036519,-4.359616 7.59527,0 17.201031,-3.551828 17.201031,-6.360258 0,-0.808826 2.060199,-5.549861 4.57821,-10.535592 2.560521,-5.06993 4.578215,-10.66155 4.578215,-12.68765 0,-4.247096 3.12445,-7.625328 6.11733,-6.614149 5.55765,1.877735 10.40893,9.073465 10.40893,15.439223 0,3.808386 0,3.808386 6.12421,4.313947 6.27134,0.517752 11.18358,3.387984 10.19369,5.956115 -0.28064,0.728329 -0.0296,1.804 0.56043,2.39033 2.96437,2.951139 -2.36344,9.034344 -8.68306,9.914096 -6.92596,0.964161 -7.53952,1.294072 -5.95101,3.199549 0.75853,0.909873 2.59877,1.654302 4.08946,1.654302 1.49066,0 4.19736,0.76555 6.01485,1.701239 2.48196,1.27771 3.85796,1.406358 5.52774,0.516699 1.57803,-0.840774 2.87795,-0.835644 4.47953,0.01691 1.241,0.661202 2.69396,0.93291 3.22879,0.603851 1.66092,-1.02194 12.28974,12.956397 14.74634,19.393497 3.05731,8.01115 2.50407,22.37853 -1.07937,28.02952 -1.27387,2.00891 -3.35074,5.52843 -4.61531,7.82121 -1.2645,2.2928 -2.79143,4.1687 -3.39313,4.1687 -0.60166,0 -2.09891,1.0005 -3.3272,2.22331 -2.00586,1.99685 -3.71768,2.38647 -11.82545,2.69132 -1.28371,0.0485 -3.04241,0.60872 -3.90822,1.24541 -2.04448,1.50347 -6.46897,3.51197 -9.78623,4.44244 -3.42934,0.96194 -0.58785,-3.30008 9.04501,-13.56679 14.74247,-15.71257 16.43425,-27.41034 5.97834,-41.33689 -7.79296,-10.379707 -14.0695,-13.687478 -14.0695,-7.414744 0,3.649337 -3.26779,16.048374 -5.23397,19.859284 -0.89678,1.73818 -1.38402,3.4057 -1.08277,3.70565 0.5559,0.55339 -2.69135,7.82485 -7.67378,17.18382 -2.74266,5.15174 -2.74266,5.15174 -0.34172,10.90322 4.64995,11.13901 -7.201677,20.24417 -13.320987,10.23401 z M 80.074545,129.3506 c -0.302302,-11.24788 -0.693071,-13.23057 -2.146221,-10.88983 -0.439721,0.7083 -2.171099,1.80699 -3.847499,2.4415 -4.02432,1.52323 -3.925242,4.01838 0.581038,14.63291 4.574882,10.77613 5.829991,9.34203 5.412682,-6.18458 z m 19.33666,-16.13033 c 2.148215,-2.51844 8.484115,-16.67722 7.462865,-16.67722 -4.10962,0 -9.966588,6.82891 -10.660712,12.42987 -0.403008,3.25176 -0.991179,7.41306 -1.307057,9.24727 -0.574334,3.33496 -0.574334,3.33496 1.253053,0.003 1.005055,-1.83283 2.468386,-4.08395 3.251851,-5.0024 z m 8.470645,-27.923382 c 0,-1.162179 -0.35619,-1.20269 -2.70028,-0.307131 -2.56388,0.979456 -2.17001,2.557174 0.46701,1.870647 1.22828,-0.319747 2.23327,-1.023327 2.23327,-1.563431 z"
         id="path959" /></clipPath><clipPath
       clipPathUnits="userSpaceOnUse"
       id="clipPath961"><path
         style="fill:#000000;stroke-width:1.11414"
         d="m 89.161744,157.84901 c -1.521081,-2.48826 -2.4179,-2.98306 -4.170989,-2.30146 -3.26693,1.27024 -8.62747,1.21932 -7.824362,-0.0744 0.388221,-0.62538 -0.0498,-0.81926 -1.01655,-0.44993 -2.03309,0.77672 -6.93919,-4.2035 -12.71057,-12.90257 -8.17431,-12.3209 -4.896369,-24.11787 9.768541,-35.15596 6.80765,-5.12404 9.861,-10.328189 10.08644,-17.191449 0.0113,-0.360489 -3.49423,-1.28117 -7.791291,-2.045679 -4.29705,-0.76451 -8.114519,-1.875975 -8.483248,-2.469898 -0.368731,-0.593969 -1.93244,-1.557592 -3.47491,-2.141437 -5.085461,-1.924839 -1.1557,-4.359616 7.036519,-4.359616 7.59527,0 17.201031,-3.551828 17.201031,-6.360258 0,-0.808826 2.060199,-5.549861 4.57821,-10.535592 2.560521,-5.06993 4.578215,-10.66155 4.578215,-12.68765 0,-4.247096 3.12445,-7.625328 6.11733,-6.614149 5.55765,1.877735 10.40893,9.073465 10.40893,15.439223 0,3.808386 0,3.808386 6.12421,4.313947 6.27134,0.517752 11.18358,3.387984 10.19369,5.956115 -0.28064,0.728329 -0.0296,1.804 0.56043,2.39033 2.96437,2.951139 -2.36344,9.034344 -8.68306,9.914096 -6.92596,0.964161 -7.53952,1.294072 -5.95101,3.199549 0.75853,0.909873 2.59877,1.654302 4.08946,1.654302 1.49066,0 4.19736,0.76555 6.01485,1.701239 2.48196,1.27771 3.85796,1.406358 5.52774,0.516699 1.57803,-0.840774 2.87795,-0.835644 4.47953,0.01691 1.241,0.661202 2.69396,0.93291 3.22879,0.603851 1.66092,-1.02194 12.28974,12.956397 14.74634,19.393497 3.05731,8.01115 2.50407,22.37853 -1.07937,28.02952 -1.27387,2.00891 -3.35074,5.52843 -4.61531,7.82121 -1.2645,2.2928 -2.79143,4.1687 -3.39313,4.1687 -0.60166,0 -2.09891,1.0005 -3.3272,2.22331 -2.00586,1.99685 -3.71768,2.38647 -11.82545,2.69132 -1.28371,0.0485 -3.04241,0.60872 -3.90822,1.24541 -2.04448,1.50347 -6.46897,3.51197 -9.78623,4.44244 -3.42934,0.96194 -0.58785,-3.30008 9.04501,-13.56679 14.74247,-15.71257 16.43425,-27.41034 5.97834,-41.33689 -7.79296,-10.379707 -14.0695,-13.687478 -14.0695,-7.414744 0,3.649337 -3.26779,16.048374 -5.23397,19.859284 -0.89678,1.73818 -1.38402,3.4057 -1.08277,3.70565 0.5559,0.55339 -2.69135,7.82485 -7.67378,17.18382 -2.74266,5.15174 -2.74266,5.15174 -0.34172,10.90322 4.64995,11.13901 -7.201677,20.24417 -13.320987,10.23401 z M 80.074545,129.3506 c -0.302302,-11.24788 -0.693071,-13.23057 -2.146221,-10.88983 -0.439721,0.7083 -2.171099,1.80699 -3.847499,2.4415 -4.02432,1.52323 -3.925242,4.01838 0.581038,14.63291 4.574882,10.77613 5.829991,9.34203 5.412682,-6.18458 z m 19.33666,-16.13033 c 2.148215,-2.51844 8.484115,-16.67722 7.462865,-16.67722 -4.10962,0 -9.966588,6.82891 -10.660712,12.42987 -0.403008,3.25176 -0.991179,7.41306 -1.307057,9.24727 -0.574334,3.33496 -0.574334,3.33496 1.253053,0.003 1.005055,-1.83283 2.468386,-4.08395 3.251851,-5.0024 z m 8.470645,-27.923382 c 0,-1.162179 -0.35619,-1.20269 -2.70028,-0.307131 -2.56388,0.979456 -2.17001,2.557174 0.46701,1.870647 1.22828,-0.319747 2.23327,-1.023327 2.23327,-1.563431 z"
         id="path963" /></clipPath><clipPath
       clipPathUnits="userSpaceOnUse"
       id="clipPath965"><path
         style="fill:#000000;stroke-width:1.11414"
         d="m 89.161744,157.84901 c -1.521081,-2.48826 -2.4179,-2.98306 -4.170989,-2.30146 -3.26693,1.27024 -8.62747,1.21932 -7.824362,-0.0744 0.388221,-0.62538 -0.0498,-0.81926 -1.01655,-0.44993 -2.03309,0.77672 -6.93919,-4.2035 -12.71057,-12.90257 -8.17431,-12.3209 -4.896369,-24.11787 9.768541,-35.15596 6.80765,-5.12404 9.861,-10.328189 10.08644,-17.191449 0.0113,-0.360489 -3.49423,-1.28117 -7.791291,-2.045679 -4.29705,-0.76451 -8.114519,-1.875975 -8.483248,-2.469898 -0.368731,-0.593969 -1.93244,-1.557592 -3.47491,-2.141437 -5.085461,-1.924839 -1.1557,-4.359616 7.036519,-4.359616 7.59527,0 17.201031,-3.551828 17.201031,-6.360258 0,-0.808826 2.060199,-5.549861 4.57821,-10.535592 2.560521,-5.06993 4.578215,-10.66155 4.578215,-12.68765 0,-4.247096 3.12445,-7.625328 6.11733,-6.614149 5.55765,1.877735 10.40893,9.073465 10.40893,15.439223 0,3.808386 0,3.808386 6.12421,4.313947 6.27134,0.517752 11.18358,3.387984 10.19369,5.956115 -0.28064,0.728329 -0.0296,1.804 0.56043,2.39033 2.96437,2.951139 -2.36344,9.034344 -8.68306,9.914096 -6.92596,0.964161 -7.53952,1.294072 -5.95101,3.199549 0.75853,0.909873 2.59877,1.654302 4.08946,1.654302 1.49066,0 4.19736,0.76555 6.01485,1.701239 2.48196,1.27771 3.85796,1.406358 5.52774,0.516699 1.57803,-0.840774 2.87795,-0.835644 4.47953,0.01691 1.241,0.661202 2.69396,0.93291 3.22879,0.603851 1.66092,-1.02194 12.28974,12.956397 14.74634,19.393497 3.05731,8.01115 2.50407,22.37853 -1.07937,28.02952 -1.27387,2.00891 -3.35074,5.52843 -4.61531,7.82121 -1.2645,2.2928 -2.79143,4.1687 -3.39313,4.1687 -0.60166,0 -2.09891,1.0005 -3.3272,2.22331 -2.00586,1.99685 -3.71768,2.38647 -11.82545,2.69132 -1.28371,0.0485 -3.04241,0.60872 -3.90822,1.24541 -2.04448,1.50347 -6.46897,3.51197 -9.78623,4.44244 -3.42934,0.96194 -0.58785,-3.30008 9.04501,-13.56679 14.74247,-15.71257 16.43425,-27.41034 5.97834,-41.33689 -7.79296,-10.379707 -14.0695,-13.687478 -14.0695,-7.414744 0,3.649337 -3.26779,16.048374 -5.23397,19.859284 -0.89678,1.73818 -1.38402,3.4057 -1.08277,3.70565 0.5559,0.55339 -2.69135,7.82485 -7.67378,17.18382 -2.74266,5.15174 -2.74266,5.15174 -0.34172,10.90322 4.64995,11.13901 -7.201677,20.24417 -13.320987,10.23401 z M 80.074545,129.3506 c -0.302302,-11.24788 -0.693071,-13.23057 -2.146221,-10.88983 -0.439721,0.7083 -2.171099,1.80699 -3.847499,2.4415 -4.02432,1.52323 -3.925242,4.01838 0.581038,14.63291 4.574882,10.77613 5.829991,9.34203 5.412682,-6.18458 z m 19.33666,-16.13033 c 2.148215,-2.51844 8.484115,-16.67722 7.462865,-16.67722 -4.10962,0 -9.966588,6.82891 -10.660712,12.42987 -0.403008,3.25176 -0.991179,7.41306 -1.307057,9.24727 -0.574334,3.33496 -0.574334,3.33496 1.253053,0.003 1.005055,-1.83283 2.468386,-4.08395 3.251851,-5.0024 z m 8.470645,-27.923382 c 0,-1.162179 -0.35619,-1.20269 -2.70028,-0.307131 -2.56388,0.979456 -2.17001,2.557174 0.46701,1.870647 1.22828,-0.319747 2.23327,-1.023327 2.23327,-1.563431 z"
         id="path967" /></clipPath><clipPath
       clipPathUnits="userSpaceOnUse"
       id="clipPath969"><path
         style="fill:#000000;stroke-width:1.11414"
         d="m 89.161744,157.84901 c -1.521081,-2.48826 -2.4179,-2.98306 -4.170989,-2.30146 -3.26693,1.27024 -8.62747,1.21932 -7.824362,-0.0744 0.388221,-0.62538 -0.0498,-0.81926 -1.01655,-0.44993 -2.03309,0.77672 -6.93919,-4.2035 -12.71057,-12.90257 -8.17431,-12.3209 -4.896369,-24.11787 9.768541,-35.15596 6.80765,-5.12404 9.861,-10.328189 10.08644,-17.191449 0.0113,-0.360489 -3.49423,-1.28117 -7.791291,-2.045679 -4.29705,-0.76451 -8.114519,-1.875975 -8.483248,-2.469898 -0.368731,-0.593969 -1.93244,-1.557592 -3.47491,-2.141437 -5.085461,-1.924839 -1.1557,-4.359616 7.036519,-4.359616 7.59527,0 17.201031,-3.551828 17.201031,-6.360258 0,-0.808826 2.060199,-5.549861 4.57821,-10.535592 2.560521,-5.06993 4.578215,-10.66155 4.578215,-12.68765 0,-4.247096 3.12445,-7.625328 6.11733,-6.614149 5.55765,1.877735 10.40893,9.073465 10.40893,15.439223 0,3.808386 0,3.808386 6.12421,4.313947 6.27134,0.517752 11.18358,3.387984 10.19369,5.956115 -0.28064,0.728329 -0.0296,1.804 0.56043,2.39033 2.96437,2.951139 -2.36344,9.034344 -8.68306,9.914096 -6.92596,0.964161 -7.53952,1.294072 -5.95101,3.199549 0.75853,0.909873 2.59877,1.654302 4.08946,1.654302 1.49066,0 4.19736,0.76555 6.01485,1.701239 2.48196,1.27771 3.85796,1.406358 5.52774,0.516699 1.57803,-0.840774 2.87795,-0.835644 4.47953,0.01691 1.241,0.661202 2.69396,0.93291 3.22879,0.603851 1.66092,-1.02194 12.28974,12.956397 14.74634,19.393497 3.05731,8.01115 2.50407,22.37853 -1.07937,28.02952 -1.27387,2.00891 -3.35074,5.52843 -4.61531,7.82121 -1.2645,2.2928 -2.79143,4.1687 -3.39313,4.1687 -0.60166,0 -2.09891,1.0005 -3.3272,2.22331 -2.00586,1.99685 -3.71768,2.38647 -11.82545,2.69132 -1.28371,0.0485 -3.04241,0.60872 -3.90822,1.24541 -2.04448,1.50347 -6.46897,3.51197 -9.78623,4.44244 -3.42934,0.96194 -0.58785,-3.30008 9.04501,-13.56679 14.74247,-15.71257 16.43425,-27.41034 5.97834,-41.33689 -7.79296,-10.379707 -14.0695,-13.687478 -14.0695,-7.414744 0,3.649337 -3.26779,16.048374 -5.23397,19.859284 -0.89678,1.73818 -1.38402,3.4057 -1.08277,3.70565 0.5559,0.55339 -2.69135,7.82485 -7.67378,17.18382 -2.74266,5.15174 -2.74266,5.15174 -0.34172,10.90322 4.64995,11.13901 -7.201677,20.24417 -13.320987,10.23401 z M 80.074545,129.3506 c -0.302302,-11.24788 -0.693071,-13.23057 -2.146221,-10.88983 -0.439721,0.7083 -2.171099,1.80699 -3.847499,2.4415 -4.02432,1.52323 -3.925242,4.01838 0.581038,14.63291 4.574882,10.77613 5.829991,9.34203 5.412682,-6.18458 z m 19.33666,-16.13033 c 2.148215,-2.51844 8.484115,-16.67722 7.462865,-16.67722 -4.10962,0 -9.966588,6.82891 -10.660712,12.42987 -0.403008,3.25176 -0.991179,7.41306 -1.307057,9.24727 -0.574334,3.33496 -0.574334,3.33496 1.253053,0.003 1.005055,-1.83283 2.468386,-4.08395 3.251851,-5.0024 z m 8.470645,-27.923382 c 0,-1.162179 -0.35619,-1.20269 -2.70028,-0.307131 -2.56388,0.979456 -2.17001,2.557174 0.46701,1.870647 1.22828,-0.319747 2.23327,-1.023327 2.23327,-1.563431 z"
         id="path971" /></clipPath><clipPath
       clipPathUnits="userSpaceOnUse"
       id="clipPath973"><path
         style="fill:#000000;stroke-width:1.11414"
         d="m 89.161744,157.84901 c -1.521081,-2.48826 -2.4179,-2.98306 -4.170989,-2.30146 -3.26693,1.27024 -8.62747,1.21932 -7.824362,-0.0744 0.388221,-0.62538 -0.0498,-0.81926 -1.01655,-0.44993 -2.03309,0.77672 -6.93919,-4.2035 -12.71057,-12.90257 -8.17431,-12.3209 -4.896369,-24.11787 9.768541,-35.15596 6.80765,-5.12404 9.861,-10.328189 10.08644,-17.191449 0.0113,-0.360489 -3.49423,-1.28117 -7.791291,-2.045679 -4.29705,-0.76451 -8.114519,-1.875975 -8.483248,-2.469898 -0.368731,-0.593969 -1.93244,-1.557592 -3.47491,-2.141437 -5.085461,-1.924839 -1.1557,-4.359616 7.036519,-4.359616 7.59527,0 17.201031,-3.551828 17.201031,-6.360258 0,-0.808826 2.060199,-5.549861 4.57821,-10.535592 2.560521,-5.06993 4.578215,-10.66155 4.578215,-12.68765 0,-4.247096 3.12445,-7.625328 6.11733,-6.614149 5.55765,1.877735 10.40893,9.073465 10.40893,15.439223 0,3.808386 0,3.808386 6.12421,4.313947 6.27134,0.517752 11.18358,3.387984 10.19369,5.956115 -0.28064,0.728329 -0.0296,1.804 0.56043,2.39033 2.96437,2.951139 -2.36344,9.034344 -8.68306,9.914096 -6.92596,0.964161 -7.53952,1.294072 -5.95101,3.199549 0.75853,0.909873 2.59877,1.654302 4.08946,1.654302 1.49066,0 4.19736,0.76555 6.01485,1.701239 2.48196,1.27771 3.85796,1.406358 5.52774,0.516699 1.57803,-0.840774 2.87795,-0.835644 4.47953,0.01691 1.241,0.661202 2.69396,0.93291 3.22879,0.603851 1.66092,-1.02194 12.28974,12.956397 14.74634,19.393497 3.05731,8.01115 2.50407,22.37853 -1.07937,28.02952 -1.27387,2.00891 -3.35074,5.52843 -4.61531,7.82121 -1.2645,2.2928 -2.79143,4.1687 -3.39313,4.1687 -0.60166,0 -2.09891,1.0005 -3.3272,2.22331 -2.00586,1.99685 -3.71768,2.38647 -11.82545,2.69132 -1.28371,0.0485 -3.04241,0.60872 -3.90822,1.24541 -2.04448,1.50347 -6.46897,3.51197 -9.78623,4.44244 -3.42934,0.96194 -0.58785,-3.30008 9.04501,-13.56679 14.74247,-15.71257 16.43425,-27.41034 5.97834,-41.33689 -7.79296,-10.379707 -14.0695,-13.687478 -14.0695,-7.414744 0,3.649337 -3.26779,16.048374 -5.23397,19.859284 -0.89678,1.73818 -1.38402,3.4057 -1.08277,3.70565 0.5559,0.55339 -2.69135,7.82485 -7.67378,17.18382 -2.74266,5.15174 -2.74266,5.15174 -0.34172,10.90322 4.64995,11.13901 -7.201677,20.24417 -13.320987,10.23401 z M 80.074545,129.3506 c -0.302302,-11.24788 -0.693071,-13.23057 -2.146221,-10.88983 -0.439721,0.7083 -2.171099,1.80699 -3.847499,2.4415 -4.02432,1.52323 -3.925242,4.01838 0.581038,14.63291 4.574882,10.77613 5.829991,9.34203 5.412682,-6.18458 z m 19.33666,-16.13033 c 2.148215,-2.51844 8.484115,-16.67722 7.462865,-16.67722 -4.10962,0 -9.966588,6.82891 -10.660712,12.42987 -0.403008,3.25176 -0.991179,7.41306 -1.307057,9.24727 -0.574334,3.33496 -0.574334,3.33496 1.253053,0.003 1.005055,-1.83283 2.468386,-4.08395 3.251851,-5.0024 z m 8.470645,-27.923382 c 0,-1.162179 -0.35619,-1.20269 -2.70028,-0.307131 -2.56388,0.979456 -2.17001,2.557174 0.46701,1.870647 1.22828,-0.319747 2.23327,-1.023327 2.23327,-1.563431 z"
         id="path975" /></clipPath></defs><g
     inkscape:label="Layer 1"
     inkscape:groupmode="layer"
     id="layer1"><path
       d="m 94.404894,95.527996 v 81.678514 l 13.721246,-0.27813 13.62852,-0.27814 0.27813,-81.400402 0.18553,-81.307623 H 108.31164 94.405001 Z"
       id="path438-7"
       style="fill:#cc5c00;stroke:none;stroke-width:0.0927112;fill-opacity:1" /><path
       d="m 62.642958,97.382207 v 79.824303 l 14.648366,-0.27813 14.555697,-0.27814 V 97.382207 18.114224 L 77.291324,17.836096 62.642958,17.557953 Z"
       id="path444-5"
       style="fill:#8d2100;stroke:none;stroke-width:0.0927112;fill-opacity:1" /><path
       d="M 124.31253,97.382207 V 177.1138 l 16.96614,-0.18554 16.87345,-0.27813 V 97.3821 18.114117 l -16.87345,-0.278128 -16.96614,-0.185535 z"
       id="path446-3"
       style="fill:#990061;stroke:none;stroke-width:0.0927112;fill-opacity:1" /><path
       d="M 160.70997,97.382207 V 177.1138 h 14.83381 14.83375 V 97.382207 17.650667 h -14.83375 -14.83381 z"
       id="path448-5"
       style="fill:#cc0033;stroke:none;stroke-width:0.0927112" /><path
       d="m 17.966883,102.66676 0.278158,73.98348 21.138127,0.27814 21.045443,0.18554 V 102.94489 28.775994 H 39.10504 17.781469 Z"
       id="path460-6"
       style="fill:#ff0000;stroke:none;stroke-width:0.0927112" /><path
       d="M 2.6636325,190.09263 V 203.9377 H 104.239 205.81435 V 190.09263 176.24757 H 104.239 2.6636325 Z"
       id="path442"
       style="fill:#000000;stroke:none;stroke-width:0.0843196" /><path
       style="fill:#000000;stroke-width:1.57821"
       d="m 81.271054,170.94798 c -2.245332,-3.38231 -3.569167,-4.05489 -6.156977,-3.12838 -4.822469,1.72664 -12.735417,1.65742 -11.549907,-0.10116 0.573076,-0.85007 -0.07344,-1.11362 -1.500577,-0.61158 -3.001134,1.0558 -10.24325,-5.71385 -18.762647,-17.53856 -12.066469,-16.74787 -7.227763,-32.78358 14.419787,-47.78774 10.049079,-6.965131 14.556273,-14.039201 14.889062,-23.368549 0.01674,-0.49001 -5.158,-1.741509 -11.501092,-2.7807 -6.343072,-1.03921 -11.978214,-2.550031 -12.522499,-3.357356 -0.544307,-0.807385 -2.852577,-2.117245 -5.129482,-2.910872 -7.506883,-2.616445 -1.705984,-5.926057 10.386932,-5.926057 11.21172,0 25.391221,-4.828023 25.391221,-8.645545 0,-1.099441 3.04116,-7.543966 6.758111,-14.321106 3.779701,-6.891588 6.758112,-14.492323 6.758112,-17.246415 0,-5.773112 4.612146,-10.365167 9.030062,-8.990664 8.20389,2.552419 15.36507,12.333627 15.36507,20.986655 0,5.176765 0,5.176765 9.04022,5.863978 9.25742,0.703783 16.50859,4.605311 15.04737,8.096191 -0.41426,0.99002 -0.0437,2.452189 0.82728,3.249189 4.37586,4.011506 -3.48878,12.280449 -12.81746,13.476304 -10.22373,1.310592 -11.12943,1.759042 -8.78456,4.349168 1.1197,1.236798 3.83617,2.248706 6.03664,2.248706 2.20043,0 6.19592,1.040618 8.87881,2.312501 3.66372,1.736809 5.6949,1.91168 8.15974,0.702358 2.3294,-1.14287 4.24828,-1.135895 6.61244,0.02293 1.8319,0.89877 3.97667,1.268107 4.76616,0.820813 2.45177,-1.389126 18.14145,17.611835 21.76776,26.361831 4.51303,10.8896 3.69636,30.41929 -1.59331,38.1007 -1.88043,2.73073 -4.94619,7.51483 -6.81287,10.63143 -1.86659,3.11663 -4.12057,5.66654 -5.00875,5.66654 -0.88815,0 -3.09831,1.35999 -4.91144,3.02216 -2.96094,2.71434 -5.48784,3.24395 -17.45609,3.65833 -1.89495,0.0659 -4.49104,0.82744 -5.7691,1.6929 -3.01796,2.04368 -9.54915,4.77385 -14.4459,6.03863 -5.06221,1.30757 -0.86776,-4.48581 13.35174,-18.44142 21.76205,-21.35819 24.25936,-37.25905 8.82491,-56.189512 C 131.35628,82.79438 122.09118,78.298085 122.09118,86.82473 c 0,4.960602 -4.82372,21.8147 -7.7261,26.99489 -1.32377,2.36272 -2.04302,4.6294 -1.59833,5.03712 0.8206,0.75222 -3.9728,10.63638 -11.32759,23.35807 -4.048548,7.0028 -4.048548,7.0028 -0.50443,14.82083 6.86401,15.14134 -10.630709,27.51805 -19.663697,13.91117 z M 67.857022,132.20991 c -0.446238,-15.28932 -1.023059,-17.98441 -3.168125,-14.80262 -0.649092,0.96279 -3.204867,2.45625 -5.679479,3.31874 -5.940481,2.07055 -5.794225,5.46222 0.857699,19.8906 6.753195,14.64808 8.605916,12.69868 7.989905,-8.40672 z m 28.543736,-21.92608 c 3.171076,-3.42333 12.523772,-22.669483 11.016272,-22.669483 -6.0664,0 -14.712131,9.282605 -15.73676,16.896033 -0.5949,4.42014 -1.463124,10.07663 -1.929406,12.56988 -0.847803,4.53324 -0.847803,4.53324 1.849687,0.004 1.483609,-2.49138 3.643698,-5.55135 4.800207,-6.7998 z M 108.90466,72.327286 c 0,-1.579758 -0.52579,-1.634825 -3.98601,-0.417487 -3.78466,1.331382 -3.20326,3.475987 0.68937,2.542786 1.81313,-0.434636 3.29664,-1.391015 3.29664,-2.125183 z"
       id="path323" /><rect
       style="fill:#ffffff;fill-opacity:1;stroke:none;stroke-width:2.17506;stroke-linejoin:bevel"
       id="rect1344-2"
       width="1.9290965"
       height="148.9839"
       x="60.471573"
       y="27.490467" /><rect
       style="fill:#ffffff;fill-opacity:1;stroke:none;stroke-width:2.50601;stroke-linejoin:bevel"
       id="rect1344-2-9"
       width="2.3464079"
       height="162.59793"
       x="91.840622"
       y="14.013946" /><rect
       style="fill:#ffffff;fill-opacity:1;stroke:none;stroke-width:2.47738;stroke-linejoin:bevel"
       id="rect1344-2-9-1"
       width="2.3464079"
       height="158.90373"
       x="121.81822"
       y="17.598322" /><rect
       style="fill:#ffffff;fill-opacity:1;stroke:none;stroke-width:2.47171;stroke-linejoin:bevel"
       id="rect1344-2-9-2"
       width="2.3464079"
       height="158.17766"
       x="158.30818"
       y="17.661674" /></g><metadata
     id="metadata325"><rdf:RDF><cc:Work
         rdf:about=""><dc:title>Orange3 Natural Language Processing</dc:title><dc:creator><cc:Agent><dc:title>Chris Lee</dc:title></cc:Agent></dc:creator><dc:rights><cc:Agent><dc:title>CC-BY-NC-SA-4.0</dc:title></cc:Agent></dc:rights></cc:Work></rdf:RDF></metadata></svg>
