<?xml version="1.0" encoding="UTF-8" standalone="no"?>
<!-- Created with Inkscape (http://www.inkscape.org/) -->

<svg
   width="800"
   height="800"
   viewBox="0 0 211.66666 211.66667"
   version="1.1"
   id="svg5"
   xml:space="preserve"
   inkscape:version="1.2.2 (b0a8486541, 2022-12-01)"
   sodipodi:docname="nlp-abstract.svg"
   xmlns:inkscape="http://www.inkscape.org/namespaces/inkscape"
   xmlns:sodipodi="http://sodipodi.sourceforge.net/DTD/sodipodi-0.dtd"
   xmlns="http://www.w3.org/2000/svg"
   xmlns:svg="http://www.w3.org/2000/svg"
   xmlns:rdf="http://www.w3.org/1999/02/22-rdf-syntax-ns#"
   xmlns:cc="http://creativecommons.org/ns#"
   xmlns:dc="http://purl.org/dc/elements/1.1/"><title
     id="title327">Orange3 Natural Language Processing</title><sodipodi:namedview
     id="namedview7"
     pagecolor="#ffffff"
     bordercolor="#000000"
     borderopacity="0.25"
     inkscape:showpageshadow="2"
     inkscape:pageopacity="0.0"
     inkscape:pagecheckerboard="0"
     inkscape:deskcolor="#d1d1d1"
     inkscape:document-units="mm"
     showgrid="false"
     inkscape:zoom="0.75811588"
     inkscape:cx="308.00041"
     inkscape:cy="351.52937"
     inkscape:window-width="1920"
     inkscape:window-height="1029"
     inkscape:window-x="0"
     inkscape:window-y="0"
     inkscape:window-maximized="1"
     inkscape:current-layer="layer1" /><defs
     id="defs2" /><g
     inkscape:label="Layer 1"
     inkscape:groupmode="layer"
     id="layer1"><path
       style="fill:#000000;stroke-width:0.784"
       d="m 35.515256,95.717331 c -1.067957,-1.754855 -1.697616,-2.103828 -2.928474,-1.623119 -2.293737,0.895848 -6.057407,0.859937 -5.493543,-0.05244 0.272579,-0.441057 -0.03497,-0.577783 -0.713728,-0.317316 -1.427445,0.547793 -4.872046,-2.964543 -8.924176,-9.099623 -5.739231,-8.689392 -3.437774,-17.009284 6.858555,-24.793969 4.779703,-3.613763 6.923477,-7.284035 7.081768,-12.124423 0.0083,-0.254238 -2.453327,-0.903552 -5.470323,-1.442726 C 22.90834,45.724541 20.22807,44.94067 19.969186,44.5218 c -0.25889,-0.418901 -1.356777,-1.098497 -2.439757,-1.510257 -3.570534,-1.357506 -0.811425,-3.074649 4.940389,-3.074649 5.332691,0 12.07696,-2.504954 12.07696,-4.485611 0,-0.570435 1.44648,-3.914079 3.214397,-7.430297 1.797755,-3.575598 3.214397,-7.519131 3.214397,-8.948049 0,-2.995297 2.193698,-5.377814 4.295009,-4.664673 3.902061,1.324289 7.308169,6.399121 7.308169,10.888613 0,2.685885 0,2.685885 4.29985,3.04244 4.403147,0.365149 7.852064,2.389393 7.157058,4.200586 -0.197045,0.513662 -0.02075,1.272286 0.393481,1.685794 2.081309,2.081314 -1.659386,6.371534 -6.09643,6.991987 -4.862763,0.679983 -5.293546,0.912649 -4.17825,2.256496 0.532567,0.641698 1.824623,1.166708 2.871236,1.166708 1.046608,0 2.946996,0.539916 4.223075,1.199808 1.742592,0.901123 2.708695,0.991854 3.881057,0.364407 1.107948,-0.592955 2.020635,-0.589339 3.145109,0.01185 0.871317,0.466311 1.891443,0.657938 2.266959,0.425864 1.166144,-0.720726 8.628709,9.137633 10.353502,13.677439 2.146556,5.649913 1.758122,15.782599 -0.757826,19.768 -0.894395,1.416797 -2.352587,3.898965 -3.24044,5.51596 -0.88782,1.617013 -1.959885,2.940002 -2.38234,2.940002 -0.422432,0 -1.473665,0.705612 -2.336056,1.568004 -1.408323,1.408295 -2.610206,1.683071 -8.302725,1.898076 -0.901303,0.03414 -2.136101,0.429297 -2.743988,0.878334 -1.435442,1.060329 -4.54191,2.476832 -6.870974,3.133055 -2.407769,0.678412 -0.412738,-2.327402 6.350551,-9.568064 C 70.96239,75.372231 72.150206,67.1223 64.809037,57.300515 c -5.471494,-7.3204 -9.878293,-9.65323 -9.878293,-5.229311 0,2.57373 -2.294334,11.318235 -3.674803,14.005903 -0.629636,1.225854 -0.971734,2.401891 -0.760224,2.613434 0.390305,0.390277 -1.889601,5.518529 -5.387803,12.119001 -1.92563,3.633295 -1.92563,3.633295 -0.239924,7.689568 3.264767,7.855861 -5.056341,14.27733 -9.35274,7.217603 z m -6.380182,-20.09869 c -0.21225,-7.932635 -0.486604,-9.33095 -1.506872,-7.680119 -0.30873,0.499528 -1.524346,1.274393 -2.701367,1.721883 -2.825502,1.074263 -2.75594,2.833989 0.407954,10.319955 3.21206,7.599937 4.093281,6.588528 3.800285,-4.361719 z M 42.711477,64.24262 c 1.508276,-1.776138 5.956747,-11.761731 5.239722,-11.761731 -2.885386,0 -6.997607,4.816146 -7.484958,8.766258 -0.282952,2.293327 -0.695911,5.228113 -0.917693,6.521705 -0.403243,2.351999 -0.403243,2.351999 0.879776,0.0019 0.705658,-1.292619 1.733077,-2.880235 2.283153,-3.527979 z m 5.947295,-19.693185 c 0,-0.819635 -0.250089,-0.8482 -1.895892,-0.216605 -1.800119,0.690768 -1.523581,1.803459 0.327888,1.319281 0.862397,-0.225496 1.568004,-0.721704 1.568004,-1.102616 z"
       id="path323" /><g
       id="g688092"
       transform="matrix(1.1012348,0,0,1.1693813,-19.932442,-6.1641756)"><path
         style="fill:#660000;stroke-width:37.233;stroke-dasharray:none"
         id="path2990"
         d="m 40.875174,180.56966 c 2.888552,-0.28213 5.791063,-0.40422 8.687118,-0.61265 2.990141,-0.22563 5.975649,-0.5285 8.908232,-1.17387 1.723252,-0.37923 2.337112,-0.58592 4.020847,-1.07287 2.29644,-0.73925 4.681153,-1.31042 6.879386,-2.32779 1.357733,-0.62837 2.239248,-1.19856 3.541866,-1.96952 5.68793,-3.46795 10.401204,-8.19488 15.06947,-12.88692 2.958724,-2.93075 5.467853,-6.2478 8.001794,-9.53691 0.826958,-1.07341 1.705673,-2.10816 2.491086,-3.21233 1.676407,-2.35676 2.998067,-4.70221 4.472517,-7.18634 0.70956,-1.5504 1.44336,-3.08993 2.12866,-4.6512 0.77974,-1.77642 1.49465,-3.58072 2.26597,-5.36081 0.76704,-1.77018 1.57217,-3.52362 2.34891,-5.28957 2.04379,-4.64666 4.04964,-9.30876 6.01521,-13.98892 2.96459,-7.45427 4.72564,-15.305283 6.79537,-23.036927 1.64136,-6.343637 4.00405,-12.456977 6.44232,-18.526815 1.15131,-2.578569 1.95402,-5.289661 3.04936,-7.889984 0.61939,-1.470422 0.93083,-2.086417 1.60922,-3.515471 0.98891,-1.97004 2.13732,-3.862676 3.62238,-5.501497 0.49852,-0.550137 0.97787,-0.961575 1.52245,-1.45351 0.46709,-0.304331 1.16336,-0.994351 1.81308,-0.785386 0.0984,0.03164 0.58832,0.391991 0.64224,0.430432 6.68574,5.259321 8.24096,4.882534 -19.10728,-10.730285 -0.29059,-0.165899 0.57463,0.345106 0.84331,0.544552 0.82182,0.610044 0.85524,0.736214 1.52969,1.514922 2.02119,3.123343 2.26712,6.84466 2.40101,10.456391 0.14468,4.055269 -0.71779,8.029805 -1.20284,12.030655 -0.70798,4.666244 -0.97799,9.379164 -1.08841,14.092597 -0.0463,4.598022 -0.12187,9.206005 0.11662,13.80092 0.1054,2.030714 0.54304,7.032046 0.70608,8.972206 0.58303,8.66358 1.02372,17.33213 1.92923,25.97018 0.72226,4.94879 2.07746,9.85432 4.83986,14.08482 1.7924,2.74498 3.59398,4.62283 5.74516,7.0734 2.63032,2.7692 5.3398,5.47631 8.25824,7.94492 0.70645,0.59756 1.37167,1.26299 2.16946,1.73167 22.03759,12.94642 13.64803,12.52128 24.94743,12.4254 1.11596,-0.4248 2.29567,-0.70989 3.34789,-1.27439 4.45866,-2.39198 8.19843,-6.52198 11.53255,-10.2174 2.64255,-2.92891 4.04711,-4.6298 6.54005,-7.57328 0.72748,-0.95715 1.45495,-1.91429 2.18243,-2.87143 0,0 -19.30742,-11.1825 -19.30742,-11.1825 v 0 c -0.45614,1.02945 -0.91227,2.05891 -1.3684,3.08836 -0.8024,1.24048 -1.53595,2.52829 -2.40719,3.72142 -3.84345,5.26348 -9.07289,10.5669 -15.56661,12.33542 -1.06356,0.28965 -2.19188,0.23639 -3.28783,0.35458 -8.91901,-2.12968 -4.03505,-1.23359 14.50408,9.55913 0.90171,0.52494 -1.7564,-1.12914 -2.59816,-1.74565 -3.24863,-2.37933 -6.23305,-5.11137 -9.08184,-7.9488 -2.35528,-2.53518 -3.53573,-3.60882 -5.4729,-6.44292 -2.72442,-3.98586 -4.33053,-8.57748 -5.18168,-13.3016 -1.37206,-8.64298 -2.29144,-17.35531 -2.56598,-26.10687 -0.21267,-7.31204 -0.24687,-14.640005 0.27331,-21.941351 0.0927,-1.094676 0.34057,-4.128942 0.47147,-5.282181 0.31444,-2.770069 0.80167,-5.52119 1.20687,-8.278339 0.65644,-4.134776 0.86259,-8.325535 1.03844,-12.504745 0.0723,-3.765632 0.25266,-7.605342 -1.064,-11.207157 -0.16289,-0.397894 -0.29255,-0.81107 -0.48867,-1.193679 -0.14269,-0.278392 -0.95745,-1.544968 -1.28459,-1.741037 -7.14025,-4.279548 -14.34537,-8.451337 -21.58498,-12.560565 -0.26338,-0.149497 -0.58719,-0.155096 -0.88742,-0.194858 -0.27051,-0.03582 -0.54536,-0.02066 -0.81804,-0.031 -0.22579,0.05312 -0.45864,0.08214 -0.67736,0.159358 -1.1453,0.404323 -1.96912,1.350055 -2.71635,2.256954 -1.89157,2.482911 -3.50479,5.178383 -4.90088,7.967679 -0.81204,1.879642 -1.55052,3.770455 -2.28938,5.679151 -0.78119,2.018062 -1.61099,4.018135 -2.07253,6.143929 -1.84166,6.397438 -3.7797,12.766681 -5.51053,19.195635 -2.1138,7.457085 -0.10522,0.249737 -2.06488,7.641558 -0.33541,1.26514 -0.70944,2.519947 -1.03569,3.787479 -0.319592,1.241684 -0.572656,2.500063 -0.90162,3.739298 -0.09383,0.353475 -2.207959,7.627641 -2.295488,7.929131 -3.237958,10.01985 -6.873121,20.00522 -12.80025,28.7977 -0.731388,1.18572 -1.434714,2.38922 -2.194164,3.55717 -3.688807,5.67298 -7.882019,11.0178 -12.689858,15.7878 -0.937773,0.89607 -1.849212,1.82053 -2.81332,2.6882 -3.92304,3.53063 -8.281627,6.61647 -13.050168,8.89408 -3.335149,1.48657 -6.757881,2.78833 -10.258149,3.8343 -4.13207,1.12309 -8.184428,1.82674 -12.481536,1.91138 -3.265205,0.0682 -6.534658,-0.0129 -9.787749,-0.31956 0,0 19.993476,14.52611 19.993476,14.52611 z" /><path
         style="fill:#660000;stroke-width:37.233;stroke-dasharray:none"
         id="path2992"
         d="m 65.278986,108.44885 c 2.282071,2.50932 4.407942,5.15839 6.580137,7.76306 2.505649,3.04614 5.325182,5.82859 8.610582,8.03321 0.943451,0.63308 1.934686,1.19188 2.902029,1.78782 11.11346,6.18149 16.220334,10.61018 26.001566,13.76595 4.80103,1.54898 9.39716,2.27589 14.37648,2.8903 1.1314,0.0645 2.26143,0.16113 3.3942,0.1934 2.0488,0.0584 4.82812,-0.0191 6.87356,-0.11061 2.70108,-0.12085 4.00902,-0.19294 6.67961,-0.59126 1.07748,-0.16071 2.14477,-0.38357 3.21715,-0.57535 3.77545,-0.84559 7.70327,-1.5634 11.14493,-3.42928 2.14421,-1.16248 2.86799,-1.88871 4.77428,-3.42023 4.59677,-4.48725 8.54795,-9.60875 12.08162,-14.96166 0.38252,-0.61122 0.76503,-1.22244 1.14755,-1.83365 0,0 -20.29322,-11.58866 -20.29322,-11.58866 v 0 c -0.26079,0.63572 -0.52159,1.27144 -0.78239,1.90716 -0.37558,0.74309 -0.71923,1.50319 -1.12675,2.22925 -2.60612,4.64325 -6.04135,8.82641 -10.25863,12.08963 -2.08769,1.46644 -2.35228,1.78473 -4.63172,2.87506 -3.31327,1.58482 -6.92359,2.45015 -10.49693,3.20492 -1.02975,0.16726 -2.05476,0.36688 -3.08925,0.50178 -5.48652,0.71549 -11.06309,0.6741 -16.56104,0.13465 -3.48858,-0.45855 -6.854538,-0.97643 -10.245213,-1.96258 -1.200661,-0.34921 -2.391375,-0.73638 -3.563429,-1.17206 -7.399153,-2.75043 -13.364459,-7.283 12.347772,7.92865 -0.89458,-0.49772 -1.81072,-0.95851 -2.68372,-1.49316 -3.119327,-1.91036 -5.791862,-4.41243 -8.134957,-7.20483 -1.493845,-1.75277 -0.92307,-1.06687 -2.385782,-2.84798 -0.978707,-1.19175 -2.007727,-2.39167 -2.846139,-3.69101 -0.147984,-0.22934 -0.257624,-0.48127 -0.386437,-0.7219 0,0 -22.645859,-9.70062 -22.645859,-9.70062 z" /></g></g><metadata
     id="metadata325"><rdf:RDF><cc:Work
         rdf:about=""><dc:title>Orange3 Natural Language Processing</dc:title><dc:creator><cc:Agent><dc:title>Chris Lee</dc:title></cc:Agent></dc:creator><dc:rights><cc:Agent><dc:title>CC-BY-NC-SA-4.0</dc:title></cc:Agent></dc:rights></cc:Work></rdf:RDF></metadata></svg>
