<?xml version="1.0" encoding="UTF-8" standalone="no"?>
<!-- Created with Inkscape (http://www.inkscape.org/) -->

<svg
   width="800"
   height="800"
   viewBox="0 0 211.66666 211.66667"
   version="1.1"
   id="svg5"
   xml:space="preserve"
   inkscape:version="1.2.2 (b0a8486541, 2022-12-01)"
   sodipodi:docname="nlp-extract.svg"
   xmlns:inkscape="http://www.inkscape.org/namespaces/inkscape"
   xmlns:sodipodi="http://sodipodi.sourceforge.net/DTD/sodipodi-0.dtd"
   xmlns="http://www.w3.org/2000/svg"
   xmlns:svg="http://www.w3.org/2000/svg"
   xmlns:rdf="http://www.w3.org/1999/02/22-rdf-syntax-ns#"
   xmlns:cc="http://creativecommons.org/ns#"
   xmlns:dc="http://purl.org/dc/elements/1.1/"><title
     id="title327">Orange3 Natural Language Processing</title><sodipodi:namedview
     id="namedview7"
     pagecolor="#ffffff"
     bordercolor="#000000"
     borderopacity="0.25"
     inkscape:showpageshadow="2"
     inkscape:pageopacity="0.0"
     inkscape:pagecheckerboard="0"
     inkscape:deskcolor="#d1d1d1"
     inkscape:document-units="mm"
     showgrid="false"
     inkscape:zoom="0.75811588"
     inkscape:cx="395.05834"
     inkscape:cy="352.84843"
     inkscape:window-width="1920"
     inkscape:window-height="1029"
     inkscape:window-x="0"
     inkscape:window-y="0"
     inkscape:window-maximized="1"
     inkscape:current-layer="layer1" /><defs
     id="defs2" /><g
     inkscape:label="Layer 1"
     inkscape:groupmode="layer"
     id="layer1"><path
       style="fill:#000000;stroke-width:0.703662"
       d="m 32.206762,145.58748 c -0.958521,-1.57503 -1.523659,-1.88824 -2.628388,-1.45679 -2.058694,0.80405 -5.436694,0.77181 -4.930611,-0.0471 0.244648,-0.39586 -0.03139,-0.51857 -0.64059,-0.2848 -1.281173,0.49166 -4.3728,-2.66076 -8.009701,-8.16717 -5.151123,-7.79897 -3.085499,-15.26631 6.155747,-22.25329 4.289919,-3.24345 6.214017,-6.53762 6.356087,-10.88201 0.0074,-0.22818 -2.20193,-0.81096 -4.909769,-1.29488 -2.707839,-0.48393 -5.113457,-1.18748 -5.345813,-1.563418 -0.232361,-0.37598 -1.217746,-0.98594 -2.189751,-1.3555 -3.204655,-1.2184 -0.728276,-2.75959 4.434139,-2.75959 4.786241,0 10.839413,-2.24826 10.839413,-4.02596 0,-0.51198 1.298257,-3.513 2.885013,-6.6689 1.613536,-3.2092 2.885012,-6.74863 2.885012,-8.03113 0,-2.68836 1.968906,-4.82674 3.854893,-4.18667 3.50221,1.18858 6.559288,5.74339 6.559288,9.77283 0,2.41066 0,2.41066 3.859237,2.73068 3.951948,0.32773 7.047449,2.14455 6.423662,3.77015 -0.176853,0.46102 -0.01862,1.14191 0.35316,1.51304 1.868034,1.86804 -1.489345,5.71864 -5.471718,6.27551 -4.364468,0.6103 -4.751108,0.81913 -3.750098,2.02527 0.477994,0.57594 1.637651,1.04715 2.577016,1.04715 0.93936,0 2.645012,0.484588 3.790329,1.076858 1.564025,0.80879 2.43113,0.89022 3.483359,0.32707 0.994414,-0.53219 1.813577,-0.52895 2.822824,0.0106 0.782032,0.41853 1.697624,0.59052 2.03466,0.38223 1.046647,-0.64687 7.74451,8.20128 9.292561,12.27589 1.926594,5.07095 1.577964,14.16533 -0.68017,17.74234 -0.802745,1.27161 -2.111514,3.49943 -2.908387,4.95073 -0.796844,1.45131 -1.759052,2.63873 -2.138218,2.63873 -0.379145,0 -1.322655,0.63331 -2.096676,1.40733 -1.26401,1.26398 -2.342734,1.5106 -7.451931,1.70358 -0.808945,0.0306 -1.917211,0.3853 -2.462807,0.78833 -1.288349,0.95167 -4.076492,2.22302 -6.166894,2.812 -2.16104,0.6089 -0.370443,-2.08891 5.6998,-8.58761 9.290128,-9.94586 10.356227,-17.35041 3.767319,-26.16574 -4.91082,-6.57026 -8.866047,-8.66404 -8.866047,-4.69345 0,2.30999 -2.05923,10.15843 -3.29824,12.57069 -0.565116,1.10024 -0.872158,2.15577 -0.682322,2.34563 0.35031,0.35029 -1.695971,4.95304 -4.835706,10.87715 -1.728308,3.26098 -1.728308,3.26098 -0.215339,6.9016 2.930221,7.05086 -4.538209,12.81431 -8.394349,6.47801 z m -5.726394,-18.03914 c -0.1905,-7.11977 -0.436741,-8.37479 -1.35246,-6.89313 -0.277094,0.44834 -1.368144,1.14381 -2.424554,1.54544 -2.535968,0.96418 -2.473533,2.54359 0.366151,9.26245 2.882914,6.82116 3.673836,5.9134 3.410863,-3.91476 z m 12.185206,-10.2103 c 1.35372,-1.59414 5.346349,-10.55649 4.702799,-10.55649 -2.589716,0 -6.28055,4.32263 -6.717962,7.86797 -0.253957,2.05832 -0.624599,4.69238 -0.823655,5.85341 -0.361922,2.11099 -0.361922,2.11099 0.789623,0.002 0.633349,-1.16017 1.555486,-2.5851 2.049195,-3.16647 z m 5.337865,-17.675188 c 0,-0.73565 -0.224462,-0.76129 -1.701616,-0.19441 -1.615658,0.619978 -1.367457,1.618648 0.294289,1.184088 0.774025,-0.20239 1.407327,-0.64775 1.407327,-0.989628 z"
       id="path323" /><g
       id="g687951"
       transform="translate(-34.461629,-0.17562956)"><g
         id="g687946"><path
           style="fill:#990033;stroke-width:37.233;stroke-dasharray:none"
           id="path1491"
           d="m 110.26572,181.46507 c 0.28583,-0.16722 0.56611,-0.34429 0.85747,-0.50165 0.43922,-0.23721 0.90222,-0.43016 1.33343,-0.68163 2.49821,-1.45694 4.76407,-3.19827 6.7478,-5.31329 1.12334,-1.19769 2.13646,-2.4942 3.2047,-3.7413 4.9297,-6.45215 3.08875,-3.6688 7.72217,-11.5592 7.02478,-11.96273 2.2778,-3.89858 9.3915,-17.38799 4.11421,-7.80159 6.59612,-12.03474 10.94633,-19.69671 7.62792,-13.16347 15.57968,-26.147285 24.03565,-38.797221 1.3257,-1.983224 2.69514,-3.936854 4.04272,-5.90528 4.92238,-6.846168 2.74084,-3.945186 7.71536,-10.361583 3.155,-4.06949 4.47923,-5.922579 7.95592,-9.718993 3.0317,-3.310498 4.43842,-4.494273 7.63898,-7.447983 1.02867,-0.849433 2.05735,-1.698867 3.08602,-2.5483 0,0 -18.72012,-11.478182 -18.72012,-11.478182 v 0 c -0.82595,0.99588 -1.6519,1.99176 -2.47785,2.98764 -2.25684,2.7022 -4.5053,5.411422 -6.76953,8.10744 -2.15861,2.570259 -6.10237,7.132075 -8.09113,9.826951 -1.73816,2.355287 -5.60676,8.461611 -7.12622,10.823863 -3.04362,4.958128 -4.74329,7.600556 -7.57793,12.747832 -1.31732,2.392063 -2.54861,4.830511 -3.82028,7.247154 -4.6368,8.811636 -9.18253,17.672342 -14.01125,26.381582 -3.5866,6.36935 -7.37043,13.2874 -11.29455,19.46002 -1.90984,3.00415 -3.94976,5.92427 -5.98786,8.84293 -1.71184,2.45144 -3.40949,4.91733 -5.26058,7.26541 -3.90968,4.95938 -5.19315,5.96731 -9.43982,10.09308 -1.30404,1.01131 -2.56436,2.08166 -3.91212,3.03394 -2.60902,1.84344 -6.00824,3.73586 -9.27423,4.05145 -0.35266,0.0341 -0.70831,-0.0202 -1.06247,-0.0303 0,0 20.14789,14.30037 20.14789,14.30037 z" /></g><path
         style="fill:#990033;stroke-width:37.233;stroke-dasharray:none"
         id="path1493"
         d="m 102.97561,58.198231 c 1.13292,0.433975 2.1357,0.806762 3.26921,1.308356 1.86867,0.826919 3.99742,1.868176 5.76866,2.855672 1.05593,0.588698 4.17233,2.444118 3.11812,1.852345 -5.34843,-3.002322 -10.66771,-6.056275 -16.00156,-9.084413 3.91372,2.635764 7.33747,5.902804 10.26487,9.598232 2.18608,2.759617 2.98237,4.143282 4.89788,7.099207 0.81467,1.329105 1.65624,2.642089 2.44401,3.987316 0.68468,1.169188 4.94921,8.887113 5.32297,9.574977 1.21473,2.235581 2.44786,4.461946 3.60573,6.727504 2.7465,5.374019 4.09447,8.489853 6.57762,13.939723 3.45857,7.57188 6.76997,15.22613 9.394,23.13375 0.96888,2.91977 1.53767,5.10057 2.35176,8.03407 1.14536,3.73631 1.81218,7.59166 2.74302,11.38068 0.62835,2.55774 1.32106,5.29166 2.53911,7.64784 0.81444,1.57545 1.88407,3.00529 2.8261,4.50794 3.63273,4.05027 3.99584,4.80744 8.22174,8.15749 1.30663,1.03582 2.64481,2.04832 4.09024,2.87955 8.9415,5.14206 16.48419,12.76062 26.80685,12.8434 1.36238,0.0109 2.70935,-0.29014 4.06403,-0.43522 3.33945,-0.75342 6.37494,-2.26376 9.10043,-4.31692 1.40435,-1.05792 2.29209,-2.02032 3.51142,-3.23902 0,0 -20.05462,-12.11939 -20.05462,-12.11939 v 0 c -0.38078,0.49902 -0.7257,1.02758 -1.14234,1.49708 -1.69603,1.91119 -3.83351,3.56424 -6.23156,4.49423 -1.00933,0.39144 -2.08586,0.58061 -3.12879,0.87091 -1.17428,0.0642 -2.3504,0.28458 -3.52283,0.1926 -7.11409,-0.55809 -13.78038,-6.87259 10.1639,7.85564 1.50747,0.92726 -3.07259,-1.76778 -4.51727,-2.79011 -4.21903,-2.9856 -4.51931,-3.66213 -7.99141,-7.34491 -0.80084,-1.29254 -1.71574,-2.52103 -2.40253,-3.87762 -0.59309,-1.17152 -0.99776,-2.43105 -1.42064,-3.67418 -1.68959,-4.96682 -2.4496,-10.19507 -3.9296,-15.22036 -1.34571,-3.90049 -1.53784,-4.63115 -3.16672,-8.58541 -3.34092,-8.11041 -7.25431,-15.97576 -10.89477,-23.95171 -2.70216,-5.75458 -3.81895,-8.00447 -6.32112,-13.84572 -1.78287,-4.162082 -2.91424,-7.354052 -4.82016,-11.380642 -0.68244,-1.441778 -1.43592,-2.849253 -2.19097,-4.254368 -0.71618,-1.332772 -1.48133,-2.638647 -2.22199,-3.957968 -2.10919,-3.475352 -4.15839,-7.059774 -6.69803,-10.249308 -2.16211,-2.7154 -4.76333,-5.026347 -7.53576,-7.097593 -7.31644,-4.312835 -14.62117,-8.645594 -21.94932,-12.938506 -4.55407,-2.667828 -9.32265,-4.990871 -14.19295,-7.018431 0,0 19.25327,14.943287 19.25327,14.943287 z" /></g></g><metadata
     id="metadata325"><rdf:RDF><cc:Work
         rdf:about=""><dc:title>Orange3 Natural Language Processing</dc:title><dc:creator><cc:Agent><dc:title>Chris Lee</dc:title></cc:Agent></dc:creator><dc:rights><cc:Agent><dc:title>CC-BY-NC-SA-4.0</dc:title></cc:Agent></dc:rights></cc:Work></rdf:RDF></metadata></svg>
