<?xml version="1.0" encoding="UTF-8" standalone="no"?>
<!-- Created with Inkscape (http://www.inkscape.org/) -->

<svg
   width="800"
   height="800"
   viewBox="0 0 211.66666 211.66667"
   version="1.1"
   id="svg5"
   xml:space="preserve"
   inkscape:version="1.2.2 (b0a8486541, 2022-12-01)"
   sodipodi:docname="nlp-sbert.svg"
   xmlns:inkscape="http://www.inkscape.org/namespaces/inkscape"
   xmlns:sodipodi="http://sodipodi.sourceforge.net/DTD/sodipodi-0.dtd"
   xmlns="http://www.w3.org/2000/svg"
   xmlns:svg="http://www.w3.org/2000/svg"
   xmlns:rdf="http://www.w3.org/1999/02/22-rdf-syntax-ns#"
   xmlns:cc="http://creativecommons.org/ns#"
   xmlns:dc="http://purl.org/dc/elements/1.1/"><title
     id="title327">Orange3 Natural Language Processing</title><sodipodi:namedview
     id="namedview7"
     pagecolor="#ffffff"
     bordercolor="#000000"
     borderopacity="0.25"
     inkscape:showpageshadow="2"
     inkscape:pageopacity="0.0"
     inkscape:pagecheckerboard="0"
     inkscape:deskcolor="#d1d1d1"
     inkscape:document-units="mm"
     showgrid="false"
     inkscape:zoom="0.75811588"
     inkscape:cx="226.21871"
     inkscape:cy="418.80141"
     inkscape:window-width="1920"
     inkscape:window-height="1029"
     inkscape:window-x="0"
     inkscape:window-y="0"
     inkscape:window-maximized="1"
     inkscape:current-layer="layer1"
     showguides="true" /><defs
     id="defs2" /><g
     inkscape:label="Layer 1"
     inkscape:groupmode="layer"
     id="layer1"><text
       xml:space="preserve"
       style="font-size:50.8px;font-family:P052;-inkscape-font-specification:'P052, Normal';fill:#ffcccc;stroke-width:2.4;stroke-linejoin:bevel"
       x="-56.69519"
       y="63.190323"
       id="text7685"><tspan
         sodipodi:role="line"
         id="tspan7683"
         style="stroke-width:2.4"
         x="-56.69519"
         y="63.190323" /></text><g
       id="g493484"
       transform="matrix(0.4036735,0,0,0.4036735,6.6731969,6.4298163)"><path
         d="m 0,0 c 8.9868555,5.2449418 14.153031,12.644233 16.902344,22.730469 1.311337,8.501085 -0.906677,17.455309 -5.660156,24.578125 -4.0899543,5.089026 -8.7937053,8.827796 -15.0000005,11 -0.99,0 -1.98,0 -3,0 0.33,11.55 0.66,23.1 1,35 4.95,2.475 4.95,2.475 10,5 7.9811025,6.822556 11.3675065,13.584416 12.8046875,23.984376 0.571224,8.8197 -2.377877,16.11929 -7.8046875,23.01562 -7.188873,7.06928 -13.9326135,10.09399 -23.9375005,10.4375 -6.264168,-0.12098 -10.638526,-1.45611 -16.062499,-4.4375 -0.99,-0.33 -1.98,-0.66 -3,-1 -1.822945,0.92664 -1.822945,0.92664 -3.625,2.42969 -0.701976,0.54439 -1.403951,1.08878 -2.127198,1.64966 -1.112662,0.88885 -1.112662,0.88885 -2.247802,1.79565 -1.134899,0.88789 -1.134899,0.88789 -2.292725,1.7937 -5.972196,4.69004 -11.880869,9.46128 -17.707275,14.3313 0.324843,1.03448 0.324843,1.03448 0.65625,2.08985 3.169562,10.69727 3.48047,18.72683 -1.65625,28.91015 -5.167643,7.32287 -10.742102,11.4609 -19,15 -0.33,20.79 -0.66,41.58 -1,63 2.31,0.66 4.62,1.32 7,2 8.659247,5.17643 13.929561,11.75212 16.496093,21.46094 1.817484,9.15787 -0.307163,17.31567 -4.496093,25.53906 3.022306,3.17063 6.063859,6.32107 9.124755,9.45435 1.038391,1.06856 2.071332,2.14245 3.098633,3.22168 1.477923,1.55071 2.974399,3.08121 4.47583,4.60913 0.895496,0.92692 1.790991,1.85383 2.713623,2.80884 2.405481,2.19445 2.405481,2.19445 5.215332,1.76709 0.782703,-0.28416 1.565406,-0.56832 2.371827,-0.86109 9.264059,-3.02863 16.96039,-2.66001 25.999999,1 3.0625005,1.75 3.0625005,1.75 5.0000005,4 0.75,3.4375 0.75,3.4375 1,7 0.4695928,3.13062 1.1587231,5.3439 2.5,8.25 1.30107175,2.85116 1.72485134,5.2527 1.9375,8.375 0.26126829,3.43713 0.41336969,4.19078 2.6875,7 1.875,2.375 1.875,2.375 2,5.6875 -2.5932026,8.49995 -8.4505678,13.56555 -16.1250005,17.6875 -10.207902,4.23725 -19.679338,1.81473 -29.999999,-1 -7.920001,7.92 -15.840001,15.84 -24,24 0.989999,3.3 1.979999,6.6 3,10 1.28312,8.86625 -0.696013,17.09731 -5.695313,24.51563 -5.296548,6.47594 -11.451268,9.86657 -19.304687,12.48437 -10.991416,0.94036 -19.190998,-0.60848 -27.812498,-7.625 -5.78046,-5.4633 -9.66208,-12.61559 -10.39063,-20.60156 -0.18792,-9.61514 1.86967,-17.27245 8.11328,-24.73047 6.41848,-6.27451 14.43108,-9.96337 23.402348,-10.35547 4.424163,0.0833 8.266124,1.20942 12.425781,2.65625 2.509478,0.84203 2.509478,0.84203 6.261719,0.65625 1.97016,-1.62142 3.666694,-3.20096 5.421875,-5.03125 0.504849,-0.51051 1.009698,-1.02101 1.529846,-1.54699 1.609057,-1.63144 3.203649,-3.27623 4.798279,-4.92176 1.088918,-1.10898 2.178752,-2.21706 3.269531,-3.32422 2.670879,-2.71496 5.328868,-5.44199 7.980469,-8.17578 -0.478243,-1.22976 -0.956485,-2.45953 -1.449219,-3.72656 -3.883523,-10.39111 -2.010851,-18.99549 1.449219,-29.27344 -3.074956,-3.34763 -6.18497,-6.65681 -9.332276,-9.93652 -1.064333,-1.11953 -2.118571,-2.24875 -3.162109,-3.3877 -5.570702,-6.63665 -5.570702,-6.63665 -13.074463,-9.95141 -2.305609,0.53685 -4.27778,1.30485 -6.431152,2.27563 -6.479896,0.65652 -11.927061,0.12626 -17.929688,-2.4414 -3.32957,-0.89836 -6.0972,-0.019 -9.16895,1.43432 -0.69448,0.40839 -1.38896,0.81679 -2.10449,1.23755 -0.80276,0.46616 -1.60552,0.93232 -2.43261,1.4126 -0.86271,0.50966 -1.72541,1.01933 -2.61426,1.54443 -1.88472,1.09626 -3.77017,2.19126 -5.65625,3.28516 -0.99129,0.57637 -1.98258,1.15274 -3.00391,1.74658 -5.24847,3.02484 -10.54629,5.96077 -15.83984,8.90576 -8.17603,4.55424 -16.29817,9.17968 -24.30176,14.03174 -4.73837,2.84326 -4.73837,2.84326 -6.94824,2.84326 0.0464,0.59426 0.0928,1.18852 0.14062,1.80078 0.41347,9.49504 -2.30354,17.96551 -8.29297,25.41016 -4.17679,4.04434 -9.35214,6.95723 -14.84765,8.78906 0,11.22 0,22.44 0,34 3.3,1.65 6.6,3.3 10,5 2.875,2.5 2.875,2.5 5,5 0.68062,0.70125 1.36125,1.4025 2.0625,2.125 4.82637,7.16171 7.20862,15.28169 5.9375,23.875 -2.07623,9.14839 -6.59235,16.28835 -14.37891,21.63282 -8.42126,4.85575 -17.68433,6.07311 -27.25781,3.71875 -9.96113,-4.0679 -16.15338,-11.62605 -20.67578,-21.10157 -1.98279,-9.37316 -1.23111,-18.34398 3.71875,-26.59375 4.72235,-6.68257 10.82454,-11.06651 18.59375,-13.65625 0,-11.22 0,-22.44 0,-34 -3.96,-1.98 -7.92,-3.96 -12,-6 -6.65297,-6.1332 -10.54513,-12.9897 -11.23828,-22.14843 -0.0101,-2.63191 0.0555,-5.22665 0.23828,-7.85157 -0.73308,-0.28198 -1.46615,-0.56396 -2.22144,-0.85449 -2.51365,-1.03629 -4.84825,-2.1778 -7.23559,-3.47363 -0.8532,-0.46302 -1.7064,-0.92603 -2.58545,-1.40308 -0.91411,-0.5012 -1.82822,-1.0024 -2.77002,-1.5188 -0.96052,-0.52505 -1.92103,-1.0501 -2.91065,-1.59106 -7.28245,-4.00588 -14.47904,-8.14801 -21.65185,-12.34644 -1.51111,-0.87724 -1.51111,-0.87724 -3.05274,-1.77221 -4.47164,-2.60224 -8.90657,-5.22983 -13.25586,-8.03247 -6.66594,-4.49051 -6.66594,-4.49051 -14.34765,-5.88282 -2.7852,0.76246 -2.7852,0.76246 -5.39453,1.875 -7.21654,2.80339 -14.97048,1.22775 -21.9336,-1.61718 -8.29798,-4.3454 -13.40927,-10.64679 -16.64062,-19.38282 0,-0.66 0,-1.32 0,-2 -11.55,0 -23.1,0 -35,0 -0.33,1.98 -0.66,3.96 -1,6 -4.45477,8.1322 -11.59552,14.17487 -20.26172,17.30469 -9.87808,2.50827 -17.96975,0.35544 -26.70313,-4.36719 -6.89498,-4.34519 -10.72359,-11.0127 -13.03515,-18.6875 -1.79385,-8.43214 -0.96477,-16.71849 3.625,-24.125 6.56609,-8.62293 14.03137,-13.87987 24.91406,-15.5039 8.46155,-0.41636 16.34132,2.27109 22.83594,7.6914 5.53951,5.32339 8.34056,8.98088 9.625,16.6875 11.55,0 23.1,0 35,0 0.99,-2.97 1.98,-5.94 3,-9 4.38041,-6.91963 10.37637,-11.18011 18,-14 0.66,0 1.32,0 2,0 -0.33,-20.79 -0.66,-41.58 -1,-63 -4.95,-2.475 -4.95,-2.475 -10,-5 -6.23718,-3.82736 -9.35089,-10.47688 -12.375,-16.9375 -1.82371,-8.93616 -0.80534,-16.93613 3.375,-25.0625 4.86058,-7.22318 11.71727,-12.31435 20,-15 3.55859,-0.26562 3.55859,-0.26562 7.4375,-0.25 1.91619,-0.008 1.91619,-0.008 3.87109,-0.0156 3.69141,0.26562 3.69141,0.26562 6.60547,1.58984 4.25566,0.93194 6.05324,-0.55621 9.66992,-2.75195 0.77666,-0.49822 1.55332,-0.99645 2.35352,-1.50977 7.96153,-5.09299 7.96153,-5.09299 13.01172,-4.95312 4.44053,1.29634 4.44053,1.29634 6.05078,3.89062 1.13836,3.49098 1.40839,5.18322 -0.25,8.5 -4.08926,3.71751 -8.83262,6.03283 -13.75,8.5 0.30744,0.90493 0.30744,0.90493 0.62109,1.82813 0.26942,0.79922 0.53883,1.59844 0.81641,2.42187 0.26683,0.78891 0.53367,1.57782 0.80859,2.39063 2.75133,8.61039 2.80099,16.69242 -0.99609,25.01172 -4.63263,8.70064 -10.76443,14.1858 -20.25,17.34765 -0.33,20.79 -0.66,41.58 -1,63 4.455,1.485 4.455,1.485 9,3 7.51608,4.75799 12.01743,11.55667 14.60937,19.98047 0.46226,2.3899 0.5976,4.64719 0.64063,7.08203 0.0387,1.28584 0.0387,1.28584 0.0781,2.59766 -0.48567,4.94343 -1.92745,9.5859 -3.32812,14.33984 0.64735,0.36126 1.2947,0.72252 1.96167,1.09473 11.4334,6.38359 22.85853,12.77954 34.22583,19.28027 1.28221,0.72969 1.28221,0.72969 2.59033,1.47412 3.86165,2.20226 7.70141,4.42784 11.49561,6.74463 0.64686,0.38882 1.29373,0.77763 1.9602,1.17823 1.69103,1.0199 3.37177,2.05682 5.05151,3.09521 2.59906,1.42033 2.59906,1.42033 4.92188,0.47656 1.98817,-1.44703 1.98817,-1.44703 4.41797,-3.71875 6.83157,-5.74124 14.41933,-7.32373 23.19922,-7.0039 8.91839,1.06406 14.91221,5.15033 21.17578,11.3789 3.32042,-1.27444 6.44159,-2.69474 9.5625,-4.39843 0.86883,-0.47341 1.73765,-0.94682 2.63281,-1.43457 0.92555,-0.50886 1.85109,-1.01772 2.80469,-1.542 0.96679,-0.52948 1.93359,-1.05896 2.92969,-1.60449 11.56572,-6.35739 23.01734,-12.9168 34.42578,-19.55176 0.6542,-0.37866 1.30839,-0.75732 1.98242,-1.14746 1.7163,-0.99408 3.42957,-1.9934 5.14258,-2.99316 2.51953,-1.32813 2.51953,-1.32813 4.51953,-1.32813 -0.43313,-0.98226 -0.43313,-0.98226 -0.875,-1.98437 -3.59327,-8.83344 -4.80623,-17.0287 -1.625,-26.20313 3.96084,-8.61414 9.8554,-14.10747 18.39843,-18.03515 2.101568,-0.77735 2.101568,-0.77735 4.101568,-0.77735 -0.33,-20.79 -0.66,-41.58 -1,-63 -3.959998,-1.98 -7.919998,-3.96 -11.999998,-6 -7.06646,-6.81408 -11.06303,-14.70186 -11.3125,-24.5625 -0.0374,-0.95004 -0.0748,-1.90007 -0.11328,-2.8789 0.6175,-5.16095 2.51862,-9.74678 4.42578,-14.5586 -0.57629,-0.32573 -1.15259,-0.65146 -1.74634,-0.98706 -1.7544,-0.99161 -3.50879,-1.98323 -5.26318,-2.97485 -2.0607,-1.16474 -4.12141,-2.32945 -6.18213,-3.49414 -12.6097,-7.12693 -12.6097,-7.12693 -18.844,-10.6543 -1.92685,-1.08873 -3.8549,-2.17534 -5.78418,-3.25976 -4.3746,-2.46105 -8.73012,-4.94287 -13.03955,-7.51661 -0.73742,-0.43409 -1.47485,-0.86818 -2.23462,-1.31542 -1.35342,-0.79864 -2.69961,-1.60973 -4.03662,-2.43555 -1.95204,-1.19243 -1.95204,-1.19243 -4.86938,-2.36231 -2.26442,0.46034 -2.26442,0.46034 -4,2 -0.60199,0.46278 -1.20399,0.92555 -1.82422,1.40235 -0.92233,0.7599 -0.92233,0.7599 -1.86328,1.53515 -7.37601,5.56604 -15.16547,7.17276 -24.3125,6.0625 -7.19122,-1.64819 -12.10673,-4.31623 -17.05078,-9.80468 -1.96923,-1.50848 -1.96923,-1.50848 -4.67578,-0.67579 -4.67651,2.11503 -9.02965,4.67462 -13.43946,7.29102 -6.75197,3.91781 -6.75197,3.91781 -10.83398,4.18945 -3.48635,-1.62155 -4.84302,-2.76453 -7,-6 0.14733,-3.46235 0.46272,-5.376 2.74536,-8.0271 2.31795,-2.02829 4.43714,-3.26538 7.20386,-4.6018 0.93005,-0.47889 1.86011,-0.95778 2.81836,-1.45117 1.94507,-0.9875 3.90375,-1.94866 5.875,-2.88282 2.82307,-1.48717 5.0798,-2.79683 7.35742,-5.03711 0.87957,-2.9017 1.0527,-5.29554 0.99121,-8.31958 0.0255,-7.78433 4.55676,-14.237265 9.71973,-19.699948 7.11999,-6.160135 15.05619,-8.376906 24.28125,-8.253906 8.83953,0.803594 16.21468,4.57184 22.00781,11.273438 5.72329,8.249136 7.35893,16.089376 7,25.999996 0.88558,0.27151 1.77117,0.54302 2.68359,0.82276 3.07722,1.09234 5.58699,2.34051 8.37891,4.01318 0.9506,0.56364 1.9012,1.12729 2.88061,1.70801 1.00877,0.60425 2.01755,1.2085 3.05689,1.83105 8.95862,5.30203 17.98829,10.41605 27.16186,15.33619 4.3353,2.33645 8.61263,4.72311 12.8147,7.29272 0.77674,0.47341 1.55348,0.94682 2.35376,1.43457 1.44354,0.88858 2.87957,1.78952 4.30615,2.70508 2.86485,1.76421 4.72452,2.89689 8.14087,2.68066 0.73348,-0.27199 1.46695,-0.54398 2.22266,-0.82422 6.579593,-2.19319 15.132991,-2.13493 21.562498,0.5625 3.816987,1.5962 4.629226,1.71245 8.4375,0.4375 2.296838,-1.60578 4.415485,-3.2158 6.5625,-5 1.232107,-0.99728 2.465199,-1.99336 3.699218,-2.98828 0.619234,-0.50225 1.238467,-1.0045 1.876465,-1.52197 2.863559,-2.2913 5.794433,-4.48864 8.736817,-6.67725 0.987421,-0.73605 1.974843,-1.47211 2.992187,-2.23047 0.703828,-0.52207 1.407656,-1.04414 2.132813,-1.58203 -0.155977,-1.00675 -0.311954,-2.01351 -0.472657,-3.05078 -1.546429,-11.58104 -1.523516,-21.17178 5.472657,-30.94922 4.938761,-5.529262 9.064216,-8.027517 16,-10.999996 0.329999,-11.55 0.66,-23.1 1,-35 -1.98,-0.33 -3.96,-0.66 -6,-1 -7.210608,-3.830635 -13.599923,-11.122777 -16.527344,-18.765625 -1.969869,-9.312107 -1.31857,-18.972244 3.527344,-27.234375 C -32.685546,-2.3534873 -14.866366,-7.0432456 0,0 Z"
         fill="#020508"
         transform="translate(448.75781,2.6914063)"
         id="path493394" /><path
         d="m 0,0 c 5.3310949,6.3465415 6.4922268,11.960296 6,20 -1.794375,0.2475 -1.794375,0.2475 -3.625,0.5 -4.7797207,1.150829 -6.2409567,3.655621 -8.8828125,7.589844 C -9.6235954,32.078372 -13.697196,32.837149 -18.5,33.4375 c -5.59859,-0.699824 -9.067714,-2.892139 -12.875,-7 C -34.586704,21.619944 -34.759071,16.62054 -34,11 -32.333021,7.2717782 -29.860889,4.7849287 -26.875,2.0625 -22.359056,0.3935643 -17.758515,0.45394093 -13,1 c 1.351485,0.6290549 2.688361,1.2916041 4,2 4.2735182,0.4960967 4.2735182,0.4960967 7.875,-1.5 C -0.75375,1.005 -0.3825,0.51 0,0 Z"
         fill="#f9a316"
         transform="translate(442,367)"
         id="path493396" /><path
         d="m 0,0 c 5.028396,2.8226312 7.5906739,5.8044151 9.7890625,11.117188 0.8552785,5.880037 -0.751009,10.178916 -4,14.999999 -4.87950507,4.641481 -8.967439,5.362872 -15.4960938,5.277344 -3.7438667,-0.414687 -5.7371827,-1.774117 -8.5039057,-4.277344 -4.026098,-5.331859 -5.660772,-9.282154 -5,-15.999999 2.099559,-5.0464748 5.080874,-8.9669961 10.050781,-11.37109425 C -8.5980465,-1.7258495 -4.4745996,-1.7866776 0,0 Z"
         fill="#e44242"
         transform="translate(134.21094,174.88281)"
         id="path493398" /><path
         d="m 0,0 c 4.7208265,3.9523199 7.333579,7.2416718 8.0625,13.4375 -0.5959729,6.059058 -3.8745845,10.770351 -8.375,14.8125 -5.0187055,2.38986 -9.733416,2.669676 -15,1 -4.187111,-2.605313 -7.206253,-5.539505 -9.5625,-9.875 -0.742969,-5.306918 -0.949284,-9.7539721 2.019531,-14.4101563 C -16.317015,-2.8841494 -9.2961311,-4.9111636 0,0 Z"
         fill="#e44242"
         transform="translate(136.3125,300.75)"
         id="path493400" /><path
         d="m 0,0 c 4.0688632,2.1902604 6.835464,4.6916215 8.5234375,8.9882813 0.8740964,6.2934937 0.9091164,10.8550757 -2.6875,16.2499997 -3.7358485,3.686037 -6.8732231,6.138711 -12.1875,6.3125 -5.0733495,-0.06525 -7.7150255,-1.339822 -11.8124995,-4.3125 -4.382684,-4.844018 -5.412724,-7.901124 -5.347657,-14.324218 0.698684,-5.3775124 3.612706,-9.0428868 7.472657,-12.67578175 C -10.876853,-1.55727 -5.2041292,-1.8317783 0,0 Z"
         fill="#f8a213"
         transform="translate(441.16406,111.76172)"
         id="path493402" /><path
         d="m 0,0 c 4.3051774,2.2744334 7.6690143,4.6966418 10,9 0.770027,5.586627 0.767104,10.347775 -1.625,15.5 -4.2874065,4.51306 -8.4408196,7.223191 -14.6875,7.8125 -5.69534,-0.482656 -8.892439,-3.220064 -12.5,-7.4375 C -22.354628,20.219632 -22.689953,16.752849 -22,11 -17.304806,1.6096125 -10.147647,-2.2415179 0,0 Z"
         fill="#e54242"
         transform="translate(364,299)"
         id="path493404" /><path
         d="M 0,0 C 4.4998598,1.7841549 6.5488701,4.2141609 8.9375,8.375 10.827052,14.821708 10.455397,19.367269 7.2773437,25.203125 4.6556028,28.891201 1.1906716,30.603109 -3,32 -8.6286816,32.662198 -11.741649,31.467517 -16.269531,28.367187 -19.398683,25.894945 -20.749173,23.752481 -22,20 -22.518538,15.061136 -22.551995,11.146452 -20.375,6.625 -14.312952,-0.07515805 -8.8313876,-1.3495686 0,0 Z"
         fill="#5eb3f9"
         transform="translate(38,299)"
         id="path493406" /><path
         d="m 0,0 c 3.6081663,2.6884377 5.3464298,4.2510027 7.1875,8.375 0.7568879,5.680561 0.7996505,10.37214 -1.75,15.5625 -3.4791504,3.76908 -6.26653596,6.124262 -11.5195312,6.675781 C -11.873413,30.782308 -15.332073,30.428719 -19.8125,26.375 c -4.026098,-5.331859 -5.660772,-9.282154 -5,-16 C -22.711662,5.3254513 -19.729832,1.4173528 -14.765625,-1 -9.6577121,-2.6345321 -4.7937826,-2.443084 0,0 Z"
         fill="#e54343"
         transform="translate(366.8125,175.625)"
         id="path493408" /><path
         d="m 0,0 c 4.3051774,2.2744334 7.6690143,4.6966418 10,9 0.770027,5.586627 0.767104,10.347775 -1.625,15.5 -4.5923244,4.834026 -8.57132467,7.156355 -15.2070312,7.589844 -4.2389718,-0.175669 -6.8724338,-1.800391 -9.8320308,-4.746094 -4.109543,-4.596455 -5.718652,-7.896629 -5.613282,-14.289062 C -21.635239,8.2976884 -18.399131,5.2088735 -14.9375,2.1875 -9.8889208,-1.5720802 -5.9200795,-1.3076888 0,0 Z"
         fill="#e54343"
         transform="translate(248,102)"
         id="path493410" /><path
         d="m 0,0 c 4.4514625,2.1852634 7.1888514,4.9394521 10,9 1.666666,4.999997 1.576239,9.286541 -0.5,14.125 C 7.0114717,27.613083 3.7777808,30.171467 -1,32 -5.7854121,32.914977 -8.9928319,32.532089 -13.3125,30.25 -20.640206,24.115176 -20.640206,24.115176 -21.308594,18.328125 -21.699508,8.9935567 -21.699508,8.9935567 -18.25,4.875 -12.941082,-0.51435622 -7.2799625,-0.85584464 0,0 Z"
         fill="#5db2f8"
         transform="translate(360,436)"
         id="path493412" /><path
         d="M 0,0 C 7.4423577,6.4274908 7.4423577,6.4274908 8.1992188,11.21875 8.4204802,17.383551 8.098902,21.663689 3.75,26.375 -0.75325754,30.332408 -4.9352102,30.714852 -10.742188,30.664062 -14.386191,30.244037 -16.497648,28.724569 -19.25,26.375 -19.8275,25.92125 -20.405,25.4675 -21,25 -24.308913,20.698413 -24.88312,15.620852 -24.25,10.375 -22.128526,5.3270276 -19.178397,1.4261129 -14.207031,-1 -9.0725818,-2.6397443 -4.8012256,-2.4006128 0,0 Z"
         fill="#e64343"
         transform="translate(250.25,370.625)"
         id="path493414" /><path
         d="m 0,0 c 5.367879,1.8886982 8.4599158,4.9198317 11,10 0.719108,7.108559 0.513929,12.328653 -4,18 -4.043966,3.520136 -8.3260588,4.776403 -13.65625,4.511719 -5.077446,-1.108576 -9.532243,-3.992861 -12.574219,-8.222657 C -21.184224,20.234791 -21.550938,16.407508 -21,12 -17.117346,2.0846211 -10.08934,-0.85371341 0,0 Z"
         fill="#f9a313"
         transform="translate(247,465)"
         id="path493416" /><path
         d="M 0,0 C 5.6747611,1.9643404 9.3140033,5.6280066 12,11 12.81093,17.407679 11.9493,22.793037 8,28 3.1915538,31.925262 -1.0852997,32.807551 -7.2734375,32.585937 -12.071661,31.554801 -14.947937,28.707749 -18,25 -20.646102,20.810339 -20.691035,15.82871 -20,11 -15.506885,2.1801826 -9.4509484,-0.86207976 0,0 Z"
         fill="#5fb4fb"
         transform="translate(438,15)"
         id="path493418" /><path
         d="M 0,0 C 0.80824219,0.10183594 1.6164844,0.20367187 2.4492188,0.30859375 3.0641016,0.39238281 3.6789844,0.47617187 4.3125,0.5625 4.0494243,8.8493829 1.673605,14.45563 -4.4296875,20.203125 -8.0327047,22.989458 -11.059171,24.223842 -15.6875,24.5625 c -2.454817,-4.340117 -2.682416,-8.103667 -2,-13 C -14.117116,4.4217313 -8.2924662,-1.081626 0,0 Z"
         fill="#e75d5d"
         transform="translate(359.6875,298.4375)"
         id="path493420" /><path
         d="m 0,0 c -0.17355346,6.8159177 -1.5285696,11.757633 -6,17 -4.24689,4.01969 -7.984177,6.699209 -14,7 -2.248105,-5.157417 -2.705409,-9.649166 -1,-15 2.515659,-3.9454706 5.469327,-6.9929782 9.375,-9.5625 C -7.6658243,-1.2223626 -3.9390198,-0.63504894 0,0 Z"
         fill="#e85e5e"
         transform="translate(133,299)"
         id="path493422" /><path
         d="M 0,0 C 1,1 1,1 1.0898437,2.75 0.63860956,9.4143819 -1.5374113,14.027676 -6,19 c -3.4622833,2.901015 -6.468299,4.840448 -11,5.3125 -0.66,-0.103125 -1.32,-0.20625 -2,-0.3125 -2.020045,-4.166344 -2.546963,-7.389887 -2,-12 2.121097,-5.0565446 5.077857,-8.9139287 10.023437,-11.38671875 C -7.3756438,-0.50399985 -3.7198001,-0.48692663 0,0 Z"
         fill="#e85e5e"
         transform="translate(132,174)"
         id="path493424" /><path
         d="M 0,0 C 1,1 1,1 1.3125,3.5625 0.73949789,9.8655232 -2.6162046,15.490953 -7,20 c -3.805179,2.776506 -7.174584,4.584899 -12,4 -2.020045,-4.166344 -2.546963,-7.389887 -2,-12 2.121097,-5.0565446 5.077857,-8.9139287 10.023437,-11.38671875 C -7.3756438,-0.50399985 -3.7198001,-0.48692663 0,0 Z"
         fill="#e85e5e"
         transform="translate(247,369)"
         id="path493426" /><path
         d="M 0,0 C 0.80824219,0.10183594 1.6164844,0.20367187 2.4492188,0.30859375 3.0641016,0.39238281 3.6789844,0.47617188 4.3125,0.5625 c -0.2380301,7.4979486 -1.9451205,12.367731 -7,18 -3.4622833,2.901015 -6.4682994,4.840448 -11,5.3125 -0.66,-0.103125 -1.32,-0.20625 -2,-0.3125 -2.481583,-3.722374 -2.668248,-7.68145 -2,-12 C -14.052836,4.4329675 -8.3333383,-1.0869572 0,0 Z"
         fill="#e85e5e"
         transform="translate(243.6875,101.4375)"
         id="path493428" /><path
         d="M 0,0 C 0.33,0.33 0.66,0.66 1,1 0.58129308,9.0950004 -1.9656042,14.311384 -7.8125,19.875 -11.557691,23.015901 -14.151847,23.898997 -19,24 -21.020045,19.833656 -21.546963,16.610113 -21,12 -18.878903,6.9434554 -15.922143,3.0860713 -10.976563,0.61328125 -7.3756438,-0.50399985 -3.7198001,-0.48692663 0,0 Z"
         fill="#e95e5e"
         transform="translate(363,174)"
         id="path493430" /><path
         d="M 0,0 C 1.2084961,-0.00386719 1.2084961,-0.00386719 2.4414063,-0.0078125 4.4375,0.125 4.4375,0.125 5.4375,1.125 6.053827,6.9801067 5.3732329,10.396186 1.9882812,15.230469 -1.5109173,19.505308 -4.8424684,23.165657 -10.5,24 c -1.515938,0.06188 -1.515938,0.06188 -3.0625,0.125 -2.452792,-4.336537 -2.689252,-8.107162 -2,-13 C -12.241708,4.6064079 -7.4507788,-0.02391903 0,0 Z"
         fill="#87c5fa"
         transform="translate(433.5625,14.875)"
         id="path493432" /><path
         d="M 0,0 C 1.3477148,-0.00386719 1.3477148,-0.00386719 2.7226563,-0.0078125 4.9375,0.125 4.9375,0.125 5.9375,1.125 5.4854645,8.5082472 3.0760765,14.507043 -2.5,19.5 c -3.6926795,2.909863 -6.7801402,4.625 -11.5625,4.625 -2.013529,-4.152903 -2.475452,-7.403961 -2,-12 C -13.206129,4.7601936 -8.0233297,-0.02308872 0,0 Z"
         fill="#f9b13f"
         transform="translate(242.0625,464.875)"
         id="path493434" /><path
         d="m 0,0 c 0.72165994,6.6392714 -1.2543455,11.512391 -5,17 -4.0950424,4.170721 -8.02732,6.701366 -14,7 -2.854859,-4.282288 -2.728553,-7.974473 -2,-13 1.645944,-4.0536463 3.956396,-7.0177843 7.125,-10 C -9.323234,-0.58322296 -4.7704856,-0.22557463 0,0 Z"
         fill="#f9b13f"
         transform="translate(439,111)"
         id="path493436" /><path
         d="m 0,0 c 0.60941931,6.8254963 -0.62523453,10.706534 -5,16 -3.3091652,3.338711 -6.652084,6.135345 -11,8 -2.1875,-0.1875 -2.1875,-0.1875 -4,-1 -1.860802,-5.582405 -1.938253,-11.05132 0.625,-16.375 C -13.3284,-0.05808473 -8.6494215,-0.55405547 0,0 Z"
         fill="#87c6fa"
         transform="translate(37,299)"
         id="path493438" /><path
         d="M 0,0 C 0.71834861,6.4651375 -0.60845899,10.280877 -4.1523437,15.726563 -7.6521596,20.03289 -11.686749,22.373495 -17,23.8125 c -0.66,0.06188 -1.32,0.12375 -2,0.1875 -2.621194,-4.579194 -2.77861,-8.835752 -2,-14 1.676181,-3.7263851 4.136911,-6.2130658 7.125,-8.9375 C -9.3350184,-0.61531928 -4.7863224,-0.22632347 0,0 Z"
         fill="#f9b13f"
         transform="translate(429,368)"
         id="path493440" /><path
         d="M 0,0 C 0.98484375,0.01804687 1.9696875,0.03609375 2.984375,0.0546875 4.1058594,0.08949219 4.1058594,0.08949219 5.25,0.125 5.0558291,7.7506194 3.109817,13.133483 -2.2382813,18.664062 -6.0849799,22.063471 -9.591483,24.125 -14.75,24.125 c -1.647852,-4.943556 -1.711576,-9.852712 -1,-15 C -12.268076,2.5240893 -7.3352152,-0.17464798 0,0 Z"
         fill="#88c7fb"
         transform="translate(354.75,435.875)"
         id="path493442" /><path
         d="M 0,0 C 0.66,0.33 1.32,0.66 2,1 -1.63,4.63 -5.26,8.26 -9,12 -9,7.8407692 -6.7531643,5.8545556 -4,3 -1.6875,1.125 -1.6875,1.125 0,0 Z"
         fill="#0c2b40"
         transform="translate(417,4)"
         id="path493444" /><path
         d="M 0,0 C 0.66,0.33 1.32,0.66 2,1 -1.3,4.3 -4.6,7.6 -8,11 -8,6.6775043 -5.8508493,5.1160445 -3,2 -2.01,1.34 -1.02,0.68 0,0 Z"
         fill="#0b293d"
         transform="translate(225,454)"
         id="path493446" /><path
         d="M 0,0 C 0.66,0.33 1.32,0.66 2,1 -1.3,4.3 -4.6,7.6 -8,11 -8,6.6775043 -5.8508493,5.1160445 -3,2 -2.01,1.34 -1.02,0.68 0,0 Z"
         fill="#0b293d"
         transform="translate(337,425)"
         id="path493448" /></g></g><metadata
     id="metadata325"><rdf:RDF><cc:Work
         rdf:about=""><dc:title>Orange3 Natural Language Processing</dc:title><dc:creator><cc:Agent><dc:title>Chris Lee</dc:title></cc:Agent></dc:creator><dc:rights><cc:Agent><dc:title>CC-BY-NC-SA-4.0</dc:title></cc:Agent></dc:rights></cc:Work></rdf:RDF></metadata></svg>
