<?xml version="1.0" encoding="UTF-8" standalone="no"?>
<!-- Created with Inkscape (http://www.inkscape.org/) -->

<svg
   width="800"
   height="800"
   viewBox="0 0 211.66666 211.66667"
   version="1.1"
   id="svg5"
   xml:space="preserve"
   inkscape:version="1.2.2 (b0a8486541, 2022-12-01)"
   sodipodi:docname="nlp-pos-tagger.svg"
   xmlns:inkscape="http://www.inkscape.org/namespaces/inkscape"
   xmlns:sodipodi="http://sodipodi.sourceforge.net/DTD/sodipodi-0.dtd"
   xmlns="http://www.w3.org/2000/svg"
   xmlns:svg="http://www.w3.org/2000/svg"
   xmlns:rdf="http://www.w3.org/1999/02/22-rdf-syntax-ns#"
   xmlns:cc="http://creativecommons.org/ns#"
   xmlns:dc="http://purl.org/dc/elements/1.1/"><title
     id="title327">Orange3 Natural Language Processing</title><sodipodi:namedview
     id="namedview7"
     pagecolor="#ffffff"
     bordercolor="#000000"
     borderopacity="0.25"
     inkscape:showpageshadow="2"
     inkscape:pageopacity="0.0"
     inkscape:pagecheckerboard="0"
     inkscape:deskcolor="#d1d1d1"
     inkscape:document-units="mm"
     showgrid="false"
     inkscape:zoom="0.75811588"
     inkscape:cx="230.17589"
     inkscape:cy="276.34298"
     inkscape:window-width="1920"
     inkscape:window-height="1029"
     inkscape:window-x="0"
     inkscape:window-y="0"
     inkscape:window-maximized="1"
     inkscape:current-layer="layer1" /><defs
     id="defs2" /><g
     inkscape:label="Layer 1"
     inkscape:groupmode="layer"
     id="layer1"><path
       style="fill:#000000;stroke-width:1.65136"
       d="m 65.486199,187.04451 c -2.249466,-3.6963 -3.575736,-4.43135 -6.168326,-3.41882 -4.831362,1.88695 -12.758884,1.81131 -11.571203,-0.11045 0.574142,-0.92901 -0.07366,-1.217 -1.503344,-0.66837 -3.006668,1.15383 -10.262128,-6.2443 -18.797241,-19.16679 -12.088704,-18.30271 -7.241079,-35.82713 14.446366,-52.22423 10.067621,-7.61177 14.583112,-15.34257 14.916525,-25.538014 0.01747,-0.535508 -5.167512,-1.903177 -11.522294,-3.038853 -6.354781,-1.135679 -12.000308,-2.786767 -12.545604,-3.669045 -0.545307,-0.882342 -2.857817,-2.313796 -5.138928,-3.181096 -7.520715,-2.859353 -1.709126,-6.47622 10.406079,-6.47622 11.232397,0 25.438038,-5.276255 25.438038,-9.448167 0,-1.201523 3.046762,-8.244334 6.770575,-15.650641 3.786662,-7.531383 6.770574,-15.837756 6.770574,-18.847526 0,-6.309077 4.620648,-11.32744 9.046698,-9.825332 8.21902,2.789387 15.393396,13.478647 15.393396,22.934991 0,5.657354 0,5.657354 9.0569,6.408376 9.27447,0.769123 16.53902,5.032844 15.07511,8.847811 -0.41504,1.08194 -0.0437,2.679852 0.8288,3.550834 4.38392,4.38393 -3.49521,13.420541 -12.84108,14.727418 -10.24258,1.432267 -11.14995,1.922339 -8.80077,4.75292 1.12177,1.351627 3.84326,2.457471 6.04777,2.457471 2.2045,0 6.20734,1.137239 8.89518,2.527188 3.67047,1.898061 5.7054,2.08917 8.17478,0.767562 2.3337,-1.248958 4.25612,-1.241342 6.62463,0.02496 1.83528,0.982202 3.984,1.385832 4.77496,0.897008 2.45628,-1.518085 18.17489,19.246855 21.80787,28.809175 4.52135,11.90057 3.70318,33.24333 -1.59623,41.63789 -1.88389,2.98424 -4.95532,8.2125 -6.82543,11.61842 -1.87004,3.40596 -4.12816,6.19261 -5.01799,6.19261 -0.88978,0 -3.10402,1.48625 -4.9205,3.30273 -2.96639,2.96633 -5.49795,3.5451 -17.48826,3.99797 -1.89844,0.0719 -4.49933,0.90424 -5.77974,1.85006 -3.02351,2.2334 -9.56675,5.21702 -14.47253,6.59924 -5.071546,1.42896 -0.86936,-4.90227 13.37635,-20.15348 21.80216,-23.34105 24.30409,-40.71811 8.84118,-61.40601 -11.52476,-15.419168 -20.80692,-20.332872 -20.80692,-11.014649 0,5.421119 -4.83263,23.839919 -7.740346,29.501029 -1.32622,2.58205 -2.04679,5.05917 -1.60128,5.50475 0.82211,0.82205 -3.98012,11.62383 -11.34848,25.52659 -4.05601,7.65291 -4.05601,7.65291 -0.50536,16.19675 6.87667,16.54702 -10.650312,30.07274 -19.699937,15.20264 z M 52.047445,144.71008 c -0.447069,-16.70873 -1.024949,-19.65404 -3.173967,-16.17685 -0.650287,1.05217 -3.210773,2.68429 -5.689965,3.62685 -5.951434,2.26275 -5.804912,5.96931 0.859285,21.73721 6.765651,16.00796 8.621793,13.8776 8.004647,-9.18721 z m 28.596356,-23.96163 c 3.176923,-3.74113 12.546863,-24.774067 11.036573,-24.774067 -6.07757,0 -14.739255,10.144387 -15.765777,18.464617 -0.595988,4.8305 -1.465815,11.01212 -1.932962,13.73685 -0.849361,4.95408 -0.849361,4.95408 1.853097,0.004 1.486348,-2.72268 3.650429,-6.06672 4.809069,-7.43108 z M 93.170754,79.268141 c 0,-1.726422 -0.52677,-1.786589 -3.99337,-0.456243 -3.79164,1.454985 -3.20916,3.798676 0.69064,2.778839 1.81649,-0.474968 3.30273,-1.520145 3.30273,-2.322471 z"
       id="path323" /><rect
       style="fill:#1b22ff;fill-opacity:1;stroke:#1b22ff;stroke-width:3.04509;stroke-linejoin:bevel;stroke-dasharray:none;stroke-opacity:1"
       id="rect5030"
       width="65.190544"
       height="25.620071"
       x="118.16692"
       y="25.970339" /><rect
       style="fill:#ff1b1b;fill-opacity:1;stroke:#ff1b1b;stroke-width:3.04509;stroke-linejoin:bevel;stroke-dasharray:none;stroke-opacity:1"
       id="rect5030-5"
       width="65.190544"
       height="25.620071"
       x="118.16694"
       y="59.264954" /><rect
       style="fill:#fffb1b;fill-opacity:1;stroke:#fffb1b;stroke-width:3.04509;stroke-linejoin:bevel;stroke-dasharray:none;stroke-opacity:1"
       id="rect5030-7"
       width="65.190544"
       height="25.620071"
       x="118.16694"
       y="92.559563" /><rect
       style="fill:#ff1b55;fill-opacity:1;stroke:#ff1b55;stroke-width:3.04509;stroke-linejoin:bevel;stroke-dasharray:none;stroke-opacity:1"
       id="rect5030-6"
       width="65.190544"
       height="25.620071"
       x="118.16694"
       y="125.85418" /><rect
       style="fill:#2eff1b;fill-opacity:1;stroke:#2eff1b;stroke-width:3.04509;stroke-linejoin:bevel;stroke-dasharray:none;stroke-opacity:1"
       id="rect5030-74"
       width="65.190544"
       height="25.620071"
       x="118.16694"
       y="159.14877" /></g><metadata
     id="metadata325"><rdf:RDF><cc:Work
         rdf:about=""><dc:title>Orange3 Natural Language Processing</dc:title><dc:creator><cc:Agent><dc:title>Chris Lee</dc:title></cc:Agent></dc:creator><dc:rights><cc:Agent><dc:title>CC-BY-NC-SA-4.0</dc:title></cc:Agent></dc:rights></cc:Work></rdf:RDF></metadata></svg>
