<?xml version="1.0" encoding="UTF-8" standalone="no"?>
<!-- Created with Inkscape (http://www.inkscape.org/) -->

<svg
   width="800"
   height="800"
   viewBox="0 0 211.66666 211.66667"
   version="1.1"
   id="svg5"
   xml:space="preserve"
   inkscape:version="1.2.2 (b0a8486541, 2022-12-01)"
   sodipodi:docname="nlp-doc2vec-train.svg"
   xmlns:inkscape="http://www.inkscape.org/namespaces/inkscape"
   xmlns:sodipodi="http://sodipodi.sourceforge.net/DTD/sodipodi-0.dtd"
   xmlns="http://www.w3.org/2000/svg"
   xmlns:svg="http://www.w3.org/2000/svg"
   xmlns:rdf="http://www.w3.org/1999/02/22-rdf-syntax-ns#"
   xmlns:cc="http://creativecommons.org/ns#"
   xmlns:dc="http://purl.org/dc/elements/1.1/"><title
     id="title327">Orange3 Natural Language Processing</title><sodipodi:namedview
     id="namedview7"
     pagecolor="#ffffff"
     bordercolor="#000000"
     borderopacity="0.25"
     inkscape:showpageshadow="2"
     inkscape:pageopacity="0.0"
     inkscape:pagecheckerboard="0"
     inkscape:deskcolor="#d1d1d1"
     inkscape:document-units="mm"
     showgrid="false"
     inkscape:zoom="0.75811588"
     inkscape:cx="786.81903"
     inkscape:cy="464.9685"
     inkscape:window-width="1920"
     inkscape:window-height="1029"
     inkscape:window-x="0"
     inkscape:window-y="0"
     inkscape:window-maximized="1"
     inkscape:current-layer="layer1"
     showguides="true" /><defs
     id="defs2">
	
	
	
	
	
	
	
</defs><g
     inkscape:label="Layer 1"
     inkscape:groupmode="layer"
     id="layer1"><g
       id="gear"
       transform="matrix(1.2296772,0,0,1.2296772,-93.473236,-1.0977481)"
       inkscape:label="gear"><path
         d="m 207.65948,116.29163 -3.93227,-3.93227 c 2.24399,-3.84125 3.941,-7.92428 5.06759,-12.19163 h 5.54332 c 1.90431,0 3.44734,-1.543489 3.44734,-3.447339 v -18.38581 c 0,-1.90386 -1.54303,-3.44734 -3.44734,-3.44734 h -5.54332 c -1.12659,-4.26781 -2.82406,-8.35038 -5.06759,-12.191636 l 3.93227,-3.932265 c 1.3463,-1.346302 1.3463,-3.529157 0,-4.874999 L 194.65887,40.887733 c -1.34676,-1.346301 -3.52916,-1.346301 -4.87546,0 l -3.93181,3.931806 C 182.01081,42.576011 177.92778,40.879 173.65997,39.75195 v -5.543323 c 0,-1.90385 -1.54303,-3.447339 -3.44734,-3.447339 h -18.38581 c -1.90431,0 -3.44734,1.543489 -3.44734,3.447339 v 5.543323 c -4.26781,1.12705 -8.35084,2.824061 -12.19209,5.067589 l -3.93181,-3.931806 c -0.64672,-0.64672 -1.52326,-1.00984 -2.43796,-1.00984 -0.91469,0 -1.79078,0.36312 -2.43796,1.00984 l -13.0006,13.000149 c -1.3463,1.346301 -1.3463,3.529156 0,4.874998 l 3.93226,3.932266 c -2.24399,3.840795 -3.941,7.923825 -5.06759,12.191635 h -5.54332 c -1.90431,0 -3.44734,1.54349 -3.44734,3.44734 v 18.38581 c 0,1.90385 1.54303,3.447339 3.44734,3.447339 h 5.54332 c 1.12659,4.26781 2.82406,8.35084 5.06759,12.19163 l -3.93226,3.93227 c -1.3463,1.3463 -1.3463,3.52916 0,4.875 l 13.00014,13.0006 c 0.64673,0.64673 1.52327,1.00985 2.43796,1.00985 0.9147,0 1.79078,-0.36312 2.43796,-1.00985 l 3.93181,-3.9318 c 3.84125,2.24353 7.92428,3.94054 12.19209,5.06759 v 5.54332 c 0,1.90385 1.54303,3.44734 3.44734,3.44734 h 18.38581 c 1.90431,0 3.44734,-1.54349 3.44734,-3.44734 v -5.54332 c 4.26781,-1.12705 8.35084,-2.82406 12.19163,-5.06759 l 3.93181,3.9318 c 1.34676,1.34631 3.52916,1.34631 4.87546,0 l 13.00061,-13.0006 c 1.3463,-1.34539 1.3463,-3.52824 4.6e-4,-4.87454 z m -4.9775,-20.257029 c -1.07971,5.319469 -3.16604,10.340639 -6.20108,14.924219 -0.9055,1.36699 -0.72256,3.18213 0.4362,4.34089 l 3.42942,3.42896 -8.12561,8.12561 -3.42896,-3.42896 c -1.16014,-1.15922 -2.97482,-1.34124 -4.34089,-0.43666 -4.58358,3.03504 -9.60474,5.12183 -14.92468,6.20153 -1.60692,0.32635 -2.76155,1.73884 -2.76155,3.3784 v 4.82995 H 155.2737 v -4.82995 c 0,-1.63956 -1.15509,-3.05251 -2.76155,-3.3784 -5.31993,-1.08016 -10.34156,-3.16649 -14.92514,-6.20153 -1.36653,-0.90458 -3.18167,-0.72256 -4.34089,0.43666 l -3.42896,3.42896 -8.12515,-8.12515 3.42942,-3.42896 c 1.15876,-1.15876 1.3417,-2.97436 0.4362,-4.34089 -3.03504,-4.58312 -5.12183,-9.60475 -6.20199,-14.924679 -0.32589,-1.60646 -1.73884,-2.76109 -3.3784,-2.76109 h -4.82949 v -11.49113 h 4.82995 c 1.6391,0 3.05251,-1.15463 3.3784,-2.76109 1.08062,-5.31994 3.16741,-10.34156 6.20199,-14.924687 0.9055,-1.366985 0.72256,-3.182124 -0.4362,-4.34089 l -3.42942,-3.428954 8.12515,-8.12515 3.42896,3.428954 c 1.15922,1.159225 2.97482,1.341245 4.34089,0.436663 4.58358,-3.035038 9.60475,-5.121828 14.92514,-6.201535 1.60646,-0.325888 2.76155,-1.738838 2.76155,-3.378393 v -4.831332 h 11.49113 v 4.829953 c 0,1.639555 1.15463,3.052045 2.76155,3.378393 5.31994,1.080167 10.3411,3.166497 14.92468,6.201535 1.36653,0.904582 3.18167,0.722562 4.34089,-0.436663 l 3.42896,-3.428954 8.12561,8.125609 -3.42942,3.428955 c -1.15876,1.158765 -1.3417,2.974364 -0.4362,4.34089 3.0355,4.583586 5.12183,9.604746 6.20108,14.924226 0.32634,1.60692 1.73883,2.76155 3.37885,2.76155 h 4.82949 v 11.49113 h -4.83041 c -1.63956,4.6e-4 -3.05205,1.15509 -3.37839,2.76201 z"
         id="path3735-1"
         style="fill:#000000;stroke-width:0.459645" /><path
         d="m 161.01927,71.210071 c -8.99756,0 -16.31741,7.31985 -16.31741,16.31741 0,8.99756 7.31985,16.317409 16.31741,16.317409 8.99755,0 16.3174,-7.319849 16.3174,-16.317409 0,-8.99756 -7.31985,-16.31741 -16.3174,-16.31741 z m 0,25.74014 c -5.19583,0 -9.42273,-4.2269 -9.42273,-9.42273 0,-5.19583 4.2269,-9.42273 9.42273,-9.42273 5.19583,0 9.42272,4.2269 9.42272,9.42273 0,5.19583 -4.22689,9.42273 -9.42272,9.42273 z"
         id="path3739-0"
         style="fill:#000000;stroke-width:0.459645" /></g><text
       xml:space="preserve"
       style="font-size:50.8px;font-family:P052;-inkscape-font-specification:'P052, Normal';fill:#ffcccc;stroke-width:2.4;stroke-linejoin:bevel"
       x="-56.166023"
       y="64.248657"
       id="text7685"><tspan
         sodipodi:role="line"
         id="tspan7683"
         style="stroke-width:2.4"
         x="-56.166023"
         y="64.248657" /></text><text
       xml:space="preserve"
       style="font-size:50.8px;font-family:P052;-inkscape-font-specification:'P052, Normal';fill:#ffcccc;stroke-width:2.4;stroke-linejoin:bevel"
       x="-56.980957"
       y="63.741829"
       id="text7685-7"><tspan
         sodipodi:role="line"
         id="tspan7683-1"
         style="stroke-width:2.4"
         x="-56.980957"
         y="63.741829" /></text><g
       id="g685"
       transform="translate(172.13442,-80.258374)"><path
         d="m -62.793406,150.30532 c 0,0.0873 0,0.17462 0,0.26458 -0.318213,0.0102 -0.318213,0.0102 -0.642855,0.0207 -8.290006,0.41356 -15.583683,3.83634 -21.582145,9.50433 -0.185198,0.17122 -0.370396,0.34243 -0.561206,0.51883 -5.901652,5.63706 -8.828594,13.75886 -9.03879,21.77168 -0.0695,5.9862 1.139198,11.61492 4.043746,16.86783 0.08731,0 0.174625,0 0.264584,0 -0.03758,-0.41902 -0.07641,-0.83792 -0.115756,-1.25677 -0.02148,-0.23329 -0.04297,-0.46658 -0.06511,-0.70694 -0.06371,-0.65556 -0.06371,-0.65556 -0.217882,-1.17124 -0.68318,-2.98176 -0.427651,-6.99473 0.663332,-9.82963 0.106413,-0.27763 0.212823,-0.55526 0.322461,-0.8413 1.968753,-4.64844 5.571864,-8.47688 10.244336,-10.46448 1.820973,-0.73407 3.591322,-1.37355 5.572786,-1.39423 0.253411,-0.013 0.506822,-0.0259 0.767912,-0.0393 5.391369,-0.16991 10.141931,1.65232 14.19965,5.11803 2.934359,2.77522 5.49883,7.07961 5.703204,11.20281 0.162828,6.05392 -0.780684,11.18137 -5.060349,15.73302 -0.179741,0.19679 -0.359482,0.39359 -0.54467,0.59635 -3.800054,3.78688 -8.643054,5.27692 -13.85949,5.31195 -2.524342,-0.0289 -4.628772,-0.78003 -6.981615,-1.66876 -0.860121,-0.32495 -0.860121,-0.32495 -1.897558,-0.27079 0.392906,0.26194 0.392906,0.26194 0.79375,0.52917 0,0.17462 0,0.34925 0,0.52916 0.190314,0.072 0.380628,0.14393 0.576709,0.21808 0.736699,0.30713 1.407867,0.66247 2.102197,1.05523 1.45748,0.80298 2.933644,1.51541 4.464843,2.16628 0.209414,0.0924 0.418828,0.18485 0.634587,0.28008 5.211483,2.11254 11.628156,2.62716 17.092497,1.30742 0.503922,-0.11562 0.503922,-0.11562 1.018025,-0.23358 1.077825,-0.25338 2.146748,-0.53511 3.215308,-0.82476 0.266712,-0.0696 0.533425,-0.13915 0.808219,-0.21084 4.61036,-1.35373 8.835482,-4.31602 12.156364,-7.72666 0.174625,0 0.34925,0 0.529167,0 0.07094,-0.15655 0.141883,-0.31309 0.214974,-0.47439 0.316918,-0.58901 0.647399,-0.97879 1.107942,-1.46037 4.704787,-5.31123 7.035284,-11.9819 7.672917,-18.96732 0.08731,0 0.174625,0 0.264583,0 0.16214,8.93894 -1.410023,17.26112 -6.879166,24.60625 -0.108416,0.14683 -0.216832,0.29366 -0.328533,0.44493 -5.886229,7.91815 -14.706398,13.7244 -24.561291,15.25036 -6.235864,0.87734 -12.236509,0.50408 -18.237259,-1.40779 -0.314803,-0.0948 -0.629605,-0.18963 -0.953947,-0.28732 -5.453869,-1.76984 -10.352424,-5.22168 -14.391886,-9.23768 -0.124447,-0.12338 -0.248891,-0.24676 -0.377108,-0.37388 -6.889711,-6.93014 -10.521001,-16.45995 -10.519841,-26.15441 -5.3e-4,-0.53812 -0.005,-1.07609 -0.0104,-1.61418 -0.003,-2.14187 0.14671,-4.15716 0.5886,-6.25336 0.04,-0.19238 0.0801,-0.38477 0.12137,-0.58298 2.21172,-10.03018 8.11124,-18.53681 16.723598,-24.16474 3.198683,-2.00821 6.532299,-3.52451 10.142531,-4.62103 0.40058,-0.12535 0.40058,-0.12535 0.809253,-0.25322 4.38011,-1.23323 9.519126,-1.53946 14.007412,-0.80512 z"
         fill="#011b5f"
         id="path490"
         style="stroke-width:0.264583" /><path
         d="m -56.410333,151.4298 c 0.266371,0.0761 0.532743,0.15211 0.807186,0.23048 1.769485,0.5242 3.352447,1.22267 4.980574,2.08462 0.271488,0.12654 0.542975,0.25307 0.822689,0.38344 7.654145,3.5893 14.448202,10.58723 17.698144,18.40198 0.175521,0.38145 0.351231,0.76282 0.5271,1.14412 3.153053,7.09662 3.311917,14.64382 0.531234,21.87463 -1.526515,3.59542 -3.599431,6.7859 -6.085417,9.78959 -0.176671,0.22612 -0.353343,0.45225 -0.535368,0.68522 -3.214014,3.91907 -8.3642,7.03954 -13.140283,8.59173 -0.207004,0.0679 -0.414009,0.13587 -0.627287,0.20587 -7.088955,2.28322 -15.28614,2.60364 -22.209561,-0.48699 -0.311392,-0.13643 -0.622784,-0.27285 -0.943612,-0.41341 -2.120682,-0.94912 -4.297904,-1.94821 -6.200138,-3.29076 0,-0.17462 0,-0.34925 0,-0.52916 -0.34925,-0.17463 -0.6985,-0.34925 -1.058334,-0.52917 0.468189,-0.29249 0.468189,-0.29249 1.058334,-0.52917 0.482658,0.15193 0.482658,0.15193 0.975651,0.44649 3.682865,2.03003 8.53713,2.32515 12.584244,1.28984 5.270094,-1.79008 9.17034,-4.78291 11.840104,-9.67383 1.430396,-2.90987 1.942489,-5.50479 1.91823,-8.73125 0.002,-0.27217 0.0041,-0.54433 0.0062,-0.82475 -0.0067,-2.63435 -0.493528,-4.76074 -1.659847,-7.11275 -0.105389,-0.22612 -0.210778,-0.45225 -0.319361,-0.68523 -2.184491,-4.38786 -6.067969,-7.37028 -10.627775,-9.02167 -5.029929,-1.5531 -10.297697,-1.15586 -14.982031,1.24023 -1.035803,0.6354 -1.974863,1.34267 -2.910416,2.11667 -0.209074,0.1661 -0.418145,0.3322 -0.633553,0.50333 -2.517174,2.09693 -4.124878,4.61618 -5.18728,7.69876 -0.126876,0.34277 -0.126876,0.34277 -0.256316,0.69246 -0.576601,1.84192 -0.610872,3.66101 -0.620117,5.57485 -0.0016,0.25779 -0.0029,0.51557 -0.0045,0.78116 0.01413,1.42148 0.142242,2.72115 0.500229,4.09839 0.143957,0.61365 0.156562,1.1902 0.116078,1.81772 -0.261938,0 -0.523875,0 -0.79375,0 -4.074975,-7.36963 -5.316993,-16.70716 -3.036829,-24.874 2.64986,-8.73946 8.613023,-15.96656 16.613274,-20.30361 6.469719,-3.37633 13.766652,-4.79444 20.852474,-2.64583 z"
         fill="#6f8ee2"
         id="path492"
         style="stroke-width:0.264583" /><path
         d="m -29.191323,189.72824 c 0.08731,0 0.174625,0 0.264583,0 0,0.61119 0,1.22237 0,1.85208 -0.523875,0.26194 -0.523875,0.26194 -1.058333,0.52917 0.131758,-0.98819 0.231489,-1.53786 0.79375,-2.38125 z"
         fill="#0b2065"
         id="path574"
         style="stroke-width:0.264583" /></g><g
       id="g10185"
       transform="matrix(1.4808348,0,0,1.4808348,-42.027814,-50.91136)"><text
         xml:space="preserve"
         style="font-style:normal;font-variant:normal;font-weight:bold;font-stretch:normal;font-size:52.9167px;font-family:'Noto Sans';-inkscape-font-specification:'Noto Sans, Bold';font-variant-ligatures:normal;font-variant-caps:normal;font-variant-numeric:normal;font-variant-east-asian:normal;fill:#2d1cff;fill-opacity:1;stroke:#000000;stroke-width:2.4;stroke-linejoin:bevel"
         x="48.649681"
         y="74.537949"
         id="text10063"><tspan
           sodipodi:role="line"
           style="stroke-width:2.4"
           x="48.649681"
           y="74.537949"
           id="tspan10065">Doc</tspan></text><text
         xml:space="preserve"
         style="font-style:normal;font-variant:normal;font-weight:bold;font-stretch:normal;font-size:52.9167px;font-family:'Noto Sans';-inkscape-font-specification:'Noto Sans, Bold';font-variant-ligatures:normal;font-variant-caps:normal;font-variant-numeric:normal;font-variant-east-asian:normal;fill:#2d1cff;fill-opacity:1;stroke:#000000;stroke-width:2.4;stroke-linejoin:bevel"
         x="84.500725"
         y="124.90535"
         id="text10071"><tspan
           sodipodi:role="line"
           id="tspan10069"
           style="fill:#ff1cfd;fill-opacity:1;stroke-width:2.4"
           x="84.500725"
           y="124.90535">2</tspan></text><text
         xml:space="preserve"
         style="font-style:normal;font-variant:normal;font-weight:bold;font-stretch:normal;font-size:52.9167px;font-family:'Noto Sans';-inkscape-font-specification:'Noto Sans, Bold';font-variant-ligatures:normal;font-variant-caps:normal;font-variant-numeric:normal;font-variant-east-asian:normal;fill:#ff1cfd;fill-opacity:1;stroke:#000000;stroke-width:2.4;stroke-linejoin:bevel"
         x="54.682201"
         y="175.27827"
         id="text10075"><tspan
           sodipodi:role="line"
           id="tspan10073"
           style="fill:#ff1c1c;fill-opacity:1;stroke-width:2.4"
           x="54.682201"
           y="175.27827">Vec</tspan></text></g></g><metadata
     id="metadata325"><rdf:RDF><cc:Work
         rdf:about=""><dc:title>Orange3 Natural Language Processing</dc:title><dc:creator><cc:Agent><dc:title>Chris Lee</dc:title></cc:Agent></dc:creator><dc:rights><cc:Agent><dc:title>CC-BY-NC-SA-4.0</dc:title></cc:Agent></dc:rights></cc:Work></rdf:RDF></metadata></svg>
