<?xml version="1.0" encoding="UTF-8" standalone="no"?>
<!-- Created with Inkscape (http://www.inkscape.org/) -->

<svg
   width="800"
   height="800"
   viewBox="0 0 211.66666 211.66667"
   version="1.1"
   id="svg5"
   xml:space="preserve"
   inkscape:version="1.2.2 (b0a8486541, 2022-12-01)"
   sodipodi:docname="nlp-orange.svg"
   xmlns:inkscape="http://www.inkscape.org/namespaces/inkscape"
   xmlns:sodipodi="http://sodipodi.sourceforge.net/DTD/sodipodi-0.dtd"
   xmlns="http://www.w3.org/2000/svg"
   xmlns:svg="http://www.w3.org/2000/svg"
   xmlns:rdf="http://www.w3.org/1999/02/22-rdf-syntax-ns#"
   xmlns:cc="http://creativecommons.org/ns#"
   xmlns:dc="http://purl.org/dc/elements/1.1/"><title
     id="title327">Orange3 Natural Language Processing</title><sodipodi:namedview
     id="namedview7"
     pagecolor="#ffffff"
     bordercolor="#000000"
     borderopacity="0.25"
     inkscape:showpageshadow="2"
     inkscape:pageopacity="0.0"
     inkscape:pagecheckerboard="0"
     inkscape:deskcolor="#d1d1d1"
     inkscape:document-units="mm"
     showgrid="false"
     inkscape:zoom="0.75811588"
     inkscape:cx="311.95759"
     inkscape:cy="379.22962"
     inkscape:window-width="1920"
     inkscape:window-height="1029"
     inkscape:window-x="0"
     inkscape:window-y="0"
     inkscape:window-maximized="1"
     inkscape:current-layer="layer1" /><defs
     id="defs2" /><g
     inkscape:label="Layer 1"
     inkscape:groupmode="layer"
     id="layer1"><path
       style="fill:#000000;stroke-width:1.95363"
       d="m 77.949679,203.76115 c -2.661227,-4.37292 -4.230266,-5.24251 -7.297425,-4.04463 -5.715729,2.23235 -15.094365,2.14286 -13.689283,-0.1307 0.679238,-1.09908 -0.08713,-1.43976 -1.778526,-0.79072 C 51.627414,200.16014 43.04386,191.4078 32.946416,176.11989 18.644904,154.4669 24.379874,133.73468 50.037153,114.33611 61.947627,105.33103 67.289668,96.18513 67.684112,84.123433 67.704791,83.489902 61.570699,81.871885 54.052689,80.528325 46.53468,79.184764 39.855754,77.231447 39.210644,76.18767 38.565519,75.143819 35.82971,73.45034 33.131048,72.424284 24.233682,69.041532 31.10907,64.762607 45.441934,64.762607 c 13.288459,0 30.094408,-6.242061 30.094408,-11.177631 0,-1.421459 3.604466,-9.753438 8.009913,-18.515452 4.479802,-8.909985 8.009911,-18.736819 8.009911,-22.29752 0,-7.4639375 5.466444,-13.40090023 10.702684,-11.6238356 9.7235,3.2999778 18.21113,15.9458816 18.21113,27.1331856 0,6.692919 0,6.692919 10.71474,7.581414 10.97214,0.909908 19.56645,5.954093 17.83458,10.467381 -0.49102,1.279985 -0.0517,3.170392 0.9805,4.200805 5.18638,5.186397 -4.13501,15.877139 -15.19162,17.423237 -12.11744,1.694439 -13.1909,2.274218 -10.41171,5.622929 1.3271,1.59904 4.54674,2.907306 7.15479,2.907306 2.60803,0 7.34357,1.345407 10.52342,2.989784 4.34235,2.245495 6.74977,2.471587 9.67115,0.908062 2.76089,-1.477577 5.03519,-1.468568 7.83726,0.02954 2.17122,1.161993 4.71325,1.639505 5.64901,1.061203 2.90589,-1.795967 21.50176,22.769945 25.79974,34.082615 5.34898,14.07895 4.38104,39.32846 -1.88841,49.25963 -2.22874,3.5305 -5.86239,9.71577 -8.07481,13.74513 -2.21235,4.02942 -4.88381,7.32616 -5.93652,7.32616 -1.05264,0 -3.6722,1.7583 -5.82118,3.90729 -3.50938,3.50931 -6.50433,4.19401 -20.68946,4.72979 -2.24593,0.0849 -5.32292,1.06976 -6.83771,2.18871 -3.57694,2.64222 -11.31792,6.17198 -17.12168,7.80721 -5.99987,1.69053 -1.02849,-5.79962 15.82486,-23.84251 25.793,-27.61358 28.75289,-48.17148 10.45954,-72.64626 -13.63436,-18.24159 -24.61558,-24.054727 -24.61558,-13.030826 0,6.413446 -5.71723,28.203766 -9.15719,34.901116 -1.56899,3.05469 -2.42146,5.98525 -1.8944,6.51238 0.9726,0.97253 -4.70867,13.75156 -13.4258,30.19918 -4.798461,9.05374 -4.798461,9.05374 -0.59787,19.16153 8.13544,19.57591 -12.59983,35.57748 -23.305966,17.98544 z M 62.050993,153.6775 c -0.528903,-19.76724 -1.212563,-23.25167 -3.754954,-19.13799 -0.76932,1.24476 -3.798496,3.17564 -6.731499,4.29074 -7.040829,2.67693 -6.867487,7.06197 1.016576,25.71616 8.004086,18.93818 10.199991,16.41785 9.469877,-10.86891 z m 33.830845,-28.34776 c 3.758455,-4.42593 14.843562,-29.3089 13.056812,-29.3089 -7.19006,0 -17.437257,12.0013 -18.651681,21.84453 -0.705082,5.7147 -1.734129,13.02786 -2.286786,16.25134 -1.004834,5.86092 -1.004834,5.86092 2.192302,0.005 1.758421,-3.22104 4.318627,-7.17722 5.689353,-8.79132 z M 110.70185,76.256561 c 0,-2.042439 -0.6232,-2.113618 -4.72435,-0.539757 -4.4857,1.721317 -3.7966,4.494016 0.81705,3.287499 2.149,-0.561909 3.9073,-1.798403 3.9073,-2.747594 z"
       id="path323" /></g><metadata
     id="metadata325"><rdf:RDF><cc:Work
         rdf:about=""><dc:title>Orange3 Natural Language Processing</dc:title><dc:creator><cc:Agent><dc:title>Chris Lee</dc:title></cc:Agent></dc:creator><dc:rights><cc:Agent><dc:title>CC-BY-NC-SA-4.0</dc:title></cc:Agent></dc:rights></cc:Work></rdf:RDF></metadata></svg>
